<?xml version="1.0" encoding="UTF-8"?>
<svg width="181px" height="275px" viewBox="0 0 181 275" version="1.1" xmlns="http://www.w3.org/2000/svg" xmlns:xlink="http://www.w3.org/1999/xlink">
    <!-- Generator: Sketch 49.3 (51167) - http://www.bohemiancoding.com/sketch -->
    <title>Page 1</title>
    <desc>Created with Sketch.</desc>
    <defs>
        <linearGradient x1="50%" y1="0%" x2="50%" y2="100%" id="linearGradient-1">
            <stop stop-color="#00E2C1" offset="0%"></stop>
            <stop stop-color="#000000" offset="100%"></stop>
        </linearGradient>
        <polygon id="path-2" points="0.586173398 0.597383053 143.064274 0.597383053 143.064274 82.8571429 0.586173398 82.8571429"></polygon>
    </defs>
    <g id="Page-1" stroke="none" stroke-width="1" fill="none" fill-rule="evenodd">
        <g id="market-site" transform="translate(-630.000000, -3912.000000)">
            <g id="Page-1" transform="translate(630.000000, 3912.000000)">
                <path d="M41.1263293,5.35526466 L24.9982871,15.238494 C10.1706516,23.7140251 1,41.9747404 1,68.0082113 C1,120.074437 37.684034,183.520332 82.9363357,209.716973 C105.676326,222.881492 126.254443,224.134608 141.099921,215.514514 L157.22725,205.631285 C171.922133,197.098501 181,178.892891 181,152.991817 C181,100.925591 144.315252,37.479696 99.0636643,11.2837709 C85.8383413,3.62695193 73.3460138,-0.000715657445 62.2861323,0 C54.4251659,0 47.2864892,1.83351437 41.1263293,5.35526466" id="Fill-1" fill="url(#linearGradient-1)"></path>
                <g id="Group-10" transform="translate(0.000000, 10.000000)">
                    <g id="Group-6" transform="translate(21.428571, 182.142857)">
                        <mask id="mask-3" fill="white">
                            <use xlink:href="#path-2"></use>
                        </mask>
                        <g id="Clip-5"></g>
                        <path d="M5.21035714,16.0206429 C-0.928214286,12.4763571 -0.958928571,6.74921429 5.14107143,3.22707143 C11.2403571,-0.295071429 21.1617857,-0.2765 27.2996429,3.26707143 L138.440357,67.4342143 C144.578214,70.9777857 144.609643,76.7056429 138.509643,80.2277857 C132.409643,83.7492143 122.488929,83.7313571 116.351071,80.1877857 L5.21035714,16.0206429 Z" id="Fill-4" fill="#000000" mask="url(#mask-3)"></path>
                    </g>
                    <path d="M92.8324286,111.264071 C92.8345714,117.984071 92.8345714,118.006214 87.0288571,114.696929 C82.3095714,112.006214 77.5888571,109.254071 72.631,106.391929 L72.631,90.5897857 C71.7038571,90.0540714 71.0024286,89.5662143 70.3188571,89.2676429 C63.2788571,86.1840714 56.2081429,82.8833571 49.2174286,80.1805 C46.0138571,78.9419286 42.8502857,78.5369286 39.8852857,78.4097857 C36.8552857,78.2805 36.911,80.6933571 39.8681429,84.3083571 C41.5667143,86.3847857 43.4395714,88.3062143 45.3188571,90.0005 C54.9567143,98.6847857 64.8888571,105.521214 74.8131429,111.283357 C85.8538571,117.693357 96.9224286,123.456929 107.927429,128.761929 C113.188857,131.298357 118.363143,132.2755 123.509571,133.636929 C125.244571,134.096214 127.745286,134.499786 127.287429,131.763357 C126.987429,129.969071 124.961,127.074786 123.380286,125.461929 C113.680286,115.571214 103.422429,109.106929 92.8317143,102.117643 C92.8317143,105.4805 92.831,108.371929 92.8324286,111.264071 M120.496,102.439786 L120.496,81.3340714 C95.1367143,66.6926429 69.9402857,52.1447857 44.821,37.6426429 L44.821,58.9112143 C54.1567143,64.3005 63.2988571,69.5797857 72.4417143,74.8576429 L72.4417143,88.3097857 C65.656,85.3055 59.061,82.2183571 52.5145714,79.5369286 C46.8224286,77.2055 41.1567143,75.2819286 36.0667143,75.6476429 C31.7202857,75.9583571 31.5702857,79.6312143 36.016,84.6140714 C40.026,89.1097857 44.356,93.3612143 48.7095714,96.8076429 C56.5202857,102.994071 64.4545714,108.496214 72.6995714,114.5505 L72.6995714,158.5705 C79.5674286,162.5355 86.1081429,166.311929 92.9252857,170.247643 L92.9252857,125.836929 C98.1445714,128.249071 103.144571,130.919071 108.018857,132.722643 C114.275286,135.037643 120.487429,136.914071 126.604571,138.453357 C129.147429,139.093357 132.361714,139.561929 132.301714,135.741214 C132.246,132.1605 129.246,128.991929 126.705286,126.679071 C121.128857,121.602643 115.498143,116.576929 109.789571,112.113357 C104.301714,107.822643 98.6867143,104.264786 93.0488571,100.329786 L93.0488571,86.5926429 C102.276714,91.9205 111.287429,97.1226429 120.496,102.439786 M82.4388571,199.302643 C39.1131429,174.873357 0.716,111.903357 0.713857143,58.2790714 C0.712428571,6.06764286 37.4481429,-14.5345 82.6767143,11.6169286 C127.825286,37.7233571 164.618143,100.673357 164.533143,153.001929 C164.446,206.966214 125.688857,225.069786 82.4388571,199.302643" id="Fill-7" fill="#FFFFFF"></path>
                </g>
            </g>
        </g>
    </g>
</svg>