<?xml version="1.0" encoding="UTF-8"?>
<svg width="567px" height="734px" viewBox="0 0 567 734" version="1.1" xmlns="http://www.w3.org/2000/svg" xmlns:xlink="http://www.w3.org/1999/xlink">
    <!-- Generator: Sketch 49.3 (51167) - http://www.bohemiancoding.com/sketch -->
    <title>Asset 1</title>
    <desc>Created with Sketch.</desc>
    <defs>
        <linearGradient x1="0%" y1="50.0036324%" x2="100%" y2="50.0036324%" id="linearGradient-1">
            <stop stop-color="#848C99" offset="0%"></stop>
            <stop stop-color="#4E5668" offset="100%"></stop>
        </linearGradient>
        <linearGradient x1="0%" y1="50.0054663%" x2="100%" y2="50.0054663%" id="linearGradient-2">
            <stop stop-color="#A9AEB7" offset="0%"></stop>
            <stop stop-color="#848C99" offset="99%"></stop>
        </linearGradient>
        <linearGradient x1="27740%" y1="36741%" x2="35687%" y2="36741%" id="linearGradient-3">
            <stop stop-color="#848C99" offset="0%"></stop>
            <stop stop-color="#4E5668" offset="100%"></stop>
        </linearGradient>
        <linearGradient x1="27790%" y1="29873%" x2="43633%" y2="29873%" id="linearGradient-4">
            <stop stop-color="#A9AEB7" offset="0%"></stop>
            <stop stop-color="#848C99" offset="99%"></stop>
        </linearGradient>
        <linearGradient x1="35687%" y1="36741%" x2="43633%" y2="36741%" id="linearGradient-5">
            <stop stop-color="#4E5668" offset="0%"></stop>
            <stop stop-color="#363D4F" offset="100%"></stop>
        </linearGradient>
        <linearGradient x1="36781%" y1="41957%" x2="44727%" y2="41957%" id="linearGradient-6">
            <stop stop-color="#848C99" offset="0%"></stop>
            <stop stop-color="#4E5668" offset="100%"></stop>
        </linearGradient>
        <linearGradient x1="36830%" y1="35089%" x2="52673%" y2="35089%" id="linearGradient-7">
            <stop stop-color="#A9AEB7" offset="0%"></stop>
            <stop stop-color="#848C99" offset="99%"></stop>
        </linearGradient>
        <linearGradient x1="18465%" y1="41863%" x2="26411%" y2="41863%" id="linearGradient-8">
            <stop stop-color="#848C99" offset="0%"></stop>
            <stop stop-color="#4E5668" offset="100%"></stop>
        </linearGradient>
        <linearGradient x1="18514%" y1="34995%" x2="34357%" y2="34995%" id="linearGradient-9">
            <stop stop-color="#A9AEB7" offset="0%"></stop>
            <stop stop-color="#848C99" offset="99%"></stop>
        </linearGradient>
        <linearGradient x1="26411%" y1="41863%" x2="34357%" y2="41863%" id="linearGradient-10">
            <stop stop-color="#4E5668" offset="0%"></stop>
            <stop stop-color="#363D4F" offset="100%"></stop>
        </linearGradient>
        <linearGradient x1="27505%" y1="47080%" x2="35451%" y2="47080%" id="linearGradient-11">
            <stop stop-color="#848C99" offset="0%"></stop>
            <stop stop-color="#4E5668" offset="100%"></stop>
        </linearGradient>
        <linearGradient x1="27555%" y1="40212%" x2="43398%" y2="40212%" id="linearGradient-12">
            <stop stop-color="#A9AEB7" offset="0%"></stop>
            <stop stop-color="#848C99" offset="99%"></stop>
        </linearGradient>
        <linearGradient x1="35451%" y1="47080%" x2="43398%" y2="47080%" id="linearGradient-13">
            <stop stop-color="#4E5668" offset="0%"></stop>
            <stop stop-color="#363D4F" offset="100%"></stop>
        </linearGradient>
        <linearGradient x1="36615%" y1="52316%" x2="44561%" y2="52316%" id="linearGradient-14">
            <stop stop-color="#848C99" offset="0%"></stop>
            <stop stop-color="#4E5668" offset="100%"></stop>
        </linearGradient>
        <linearGradient x1="36664%" y1="45447%" x2="52507%" y2="45447%" id="linearGradient-15">
            <stop stop-color="#A9AEB7" offset="0%"></stop>
            <stop stop-color="#848C99" offset="99%"></stop>
        </linearGradient>
        <linearGradient x1="9460%" y1="46943%" x2="17407%" y2="46943%" id="linearGradient-16">
            <stop stop-color="#848C99" offset="0%"></stop>
            <stop stop-color="#4E5668" offset="100%"></stop>
        </linearGradient>
        <linearGradient x1="9510%" y1="40075%" x2="25353%" y2="40075%" id="linearGradient-17">
            <stop stop-color="#A9AEB7" offset="0%"></stop>
            <stop stop-color="#848C99" offset="99%"></stop>
        </linearGradient>
        <linearGradient x1="17407%" y1="46943%" x2="25353%" y2="46943%" id="linearGradient-18">
            <stop stop-color="#4E5668" offset="0%"></stop>
            <stop stop-color="#363D4F" offset="100%"></stop>
        </linearGradient>
        <linearGradient x1="18501%" y1="52160%" x2="26447%" y2="52160%" id="linearGradient-19">
            <stop stop-color="#848C99" offset="0%"></stop>
            <stop stop-color="#4E5668" offset="100%"></stop>
        </linearGradient>
        <linearGradient x1="18550%" y1="45292%" x2="34393%" y2="45292%" id="linearGradient-20">
            <stop stop-color="#A9AEB7" offset="0%"></stop>
            <stop stop-color="#848C99" offset="99%"></stop>
        </linearGradient>
        <linearGradient x1="26447%" y1="52160%" x2="34393%" y2="52160%" id="linearGradient-21">
            <stop stop-color="#4E5668" offset="0%"></stop>
            <stop stop-color="#363D4F" offset="100%"></stop>
        </linearGradient>
        <linearGradient x1="27610%" y1="57396%" x2="35557%" y2="57396%" id="linearGradient-22">
            <stop stop-color="#848C99" offset="0%"></stop>
            <stop stop-color="#4E5668" offset="100%"></stop>
        </linearGradient>
        <linearGradient x1="27660%" y1="50527%" x2="43503%" y2="50527%" id="linearGradient-23">
            <stop stop-color="#A9AEB7" offset="0%"></stop>
            <stop stop-color="#848C99" offset="99%"></stop>
        </linearGradient>
        <linearGradient x1="35557%" y1="57396%" x2="43503%" y2="57396%" id="linearGradient-24">
            <stop stop-color="#4E5668" offset="0%"></stop>
            <stop stop-color="#363D4F" offset="100%"></stop>
        </linearGradient>
        <linearGradient x1="50%" y1="17.7628003%" x2="50%" y2="86.2811175%" id="linearGradient-25">
            <stop stop-color="#00E2C1" offset="0%"></stop>
            <stop stop-color="#00AA8D" offset="100%"></stop>
        </linearGradient>
        <linearGradient x1="43.9994994%" y1="77.7535131%" x2="53.0596922%" y2="35.9001139%" id="linearGradient-26">
            <stop stop-color="#00E2C1" offset="0%"></stop>
            <stop stop-color="#00AA8D" stop-opacity="0" offset="100%"></stop>
        </linearGradient>
        <linearGradient x1="66.621067%" y1="77.9054311%" x2="41.0147992%" y2="35.7007216%" id="linearGradient-27">
            <stop stop-color="#00FFE2" offset="0%"></stop>
            <stop stop-color="#00E2C1" stop-opacity="0" offset="99%"></stop>
        </linearGradient>
        <linearGradient x1="3286%" y1="20648.9542%" x2="4601%" y2="18376.7483%" id="linearGradient-28">
            <stop stop-color="#00FFE2" offset="0%"></stop>
            <stop stop-color="#00E2C1" stop-opacity="0" offset="99%"></stop>
        </linearGradient>
        <linearGradient x1="12936%" y1="20716.8843%" x2="11292%" y2="18217.2851%" id="linearGradient-29">
            <stop stop-color="#00E2C1" offset="0%"></stop>
            <stop stop-color="#00AA8D" stop-opacity="0" offset="100%"></stop>
        </linearGradient>
        <linearGradient x1="4290%" y1="20493%" x2="11340%" y2="20493%" id="linearGradient-30">
            <stop stop-color="#848C99" offset="0%"></stop>
            <stop stop-color="#4E5668" offset="100%"></stop>
        </linearGradient>
        <linearGradient x1="49.9831895%" y1="12.5629227%" x2="49.9831895%" y2="86.8104112%" id="linearGradient-31">
            <stop stop-color="#FFFFFF" offset="0%"></stop>
            <stop stop-color="#DBDCE0" offset="100%"></stop>
        </linearGradient>
        <linearGradient x1="-46396%" y1="-120973%" x2="-38246%" y2="-120973%" id="linearGradient-32">
            <stop stop-color="#848C99" offset="0%"></stop>
            <stop stop-color="#4E5668" offset="100%"></stop>
        </linearGradient>
        <linearGradient x1="-15.7123619%" y1="7.20728189%" x2="101.704593%" y2="70.842633%" id="linearGradient-33">
            <stop stop-color="#ABFFF3" offset="0%"></stop>
            <stop stop-color="#00FFE2" offset="99%"></stop>
        </linearGradient>
        <linearGradient x1="1946%" y1="22706%" x2="5408%" y2="22706%" id="linearGradient-34">
            <stop stop-color="#ABFFF3" offset="0%"></stop>
            <stop stop-color="#00FFE2" offset="99%"></stop>
        </linearGradient>
        <linearGradient x1="5361%" y1="9521.7219%" x2="3358.23%" y2="11993.3749%" id="linearGradient-35">
            <stop stop-color="#00FFE2" offset="0%"></stop>
            <stop stop-color="#065F52" offset="100%"></stop>
        </linearGradient>
        <linearGradient x1="8062%" y1="11110%" x2="8062%" y2="17414%" id="linearGradient-36">
            <stop stop-color="#ABFFF3" offset="0%"></stop>
            <stop stop-color="#00FFE2" offset="99%"></stop>
        </linearGradient>
        <linearGradient x1="0%" y1="49.9943965%" x2="100%" y2="49.9943965%" id="linearGradient-37">
            <stop stop-color="#00FFE2" offset="0%"></stop>
            <stop stop-color="#00CDB3" offset="99%"></stop>
        </linearGradient>
        <linearGradient x1="105%" y1="3443%" x2="12033%" y2="3443%" id="linearGradient-38">
            <stop stop-color="#ABFFF3" offset="0%"></stop>
            <stop stop-color="#00FFE2" offset="99%"></stop>
        </linearGradient>
        <linearGradient x1="4051%" y1="7890%" x2="12033%" y2="7890%" id="linearGradient-39">
            <stop stop-color="#00E2C1" offset="0%"></stop>
            <stop stop-color="#00AA8D" offset="100%"></stop>
        </linearGradient>
    </defs>
    <g id="Page-1" stroke="none" stroke-width="1" fill="none" fill-rule="evenodd">
        <g id="market-site" transform="translate(-873.000000, -66.000000)">
            <g id="Group-2">
                <g id="Asset-1" transform="translate(874.000000, 66.000000)">
                    <polygon id="Shape" fill="url(#linearGradient-1)" fill-rule="nonzero" points="649.746996 556.120521 534.551132 489.584492 534.551132 356.454412 649.746996 423.004947"></polygon>
                    <polygon id="Shape" fill="url(#linearGradient-2)" fill-rule="nonzero" points="764.928363 356.454412 649.746996 423.004947 535.275908 356.875067 650.457276 290.324532"></polygon>
                    <polygon id="Shape" fill="url(#linearGradient-3)" fill-rule="nonzero" points="517.301469 632.766778 402.105605 566.230749 402.105605 433.100668 517.301469 499.651203"></polygon>
                    <polygon id="Shape" fill="url(#linearGradient-4)" fill-rule="nonzero" points="632.482836 433.100668 517.301469 499.651203 402.830381 433.521324 518.011749 366.970789"></polygon>
                    <polygon id="Shape" fill="url(#linearGradient-5)" fill-rule="nonzero" points="632.482836 566.230749 517.301469 632.766778 517.301469 499.651203 632.482836 433.100668"></polygon>
                    <polygon id="Shape" fill="url(#linearGradient-6)" fill-rule="nonzero" points="648.34093 708.441176 533.159563 641.890642 533.159563 508.775067 648.34093 575.325602"></polygon>
                    <polygon id="Shape" fill="url(#linearGradient-7)" fill-rule="nonzero" points="763.522298 508.775067 648.34093 575.325602 533.869843 509.195722 649.051211 442.645187"></polygon>
                    <polygon id="Shape" fill="url(#linearGradient-8)" fill-rule="nonzero" points="382.841065 707.077674 267.659697 640.527139 267.659697 507.411564 382.841065 573.947594"></polygon>
                    <polygon id="Shape" fill="url(#linearGradient-9)" fill-rule="nonzero" points="498.022433 507.411564 382.841065 573.947594 268.369978 507.817714 383.565841 441.267179"></polygon>
                    <polygon id="Shape" fill="url(#linearGradient-10)" fill-rule="nonzero" points="498.022433 640.527139 382.841065 707.077674 382.841065 573.947594 498.022433 507.411564"></polygon>
                    <polygon id="Shape" fill="url(#linearGradient-11)" fill-rule="nonzero" points="513.880527 782.737567 398.699159 716.201537 398.699159 583.071457 513.880527 649.621992"></polygon>
                    <polygon id="Shape" fill="url(#linearGradient-12)" fill-rule="nonzero" points="629.07639 583.071457 513.880527 649.621992 399.423935 583.492112 514.605303 516.941578"></polygon>
                    <polygon id="Shape" fill="url(#linearGradient-13)" fill-rule="nonzero" points="629.07639 716.201537 513.880527 782.737567 513.880527 649.621992 629.07639 583.071457"></polygon>
                    <polygon id="Shape" fill="url(#linearGradient-14)" fill-rule="nonzero" points="645.934675 858.687567 530.753307 792.137032 530.753307 659.021457 645.934675 725.571992"></polygon>
                    <polygon id="Shape" fill="url(#linearGradient-15)" fill-rule="nonzero" points="761.116043 659.021457 645.934675 725.571992 531.463587 659.442112 646.659451 592.891578"></polygon>
                    <polygon id="Shape" fill="url(#linearGradient-16)" fill-rule="nonzero" points="252.323442 780.76484 137.127578 714.214305 137.127578 581.09873 252.323442 647.634759"></polygon>
                    <polygon id="Shape" fill="url(#linearGradient-17)" fill-rule="nonzero" points="367.504809 581.09873 252.323442 647.634759 137.852354 581.50488 253.033722 514.954345"></polygon>
                    <polygon id="Shape" fill="url(#linearGradient-18)" fill-rule="nonzero" points="367.504809 714.214305 252.323442 780.76484 252.323442 647.634759 367.504809 581.09873"></polygon>
                    <polygon id="Shape" fill="url(#linearGradient-19)" fill-rule="nonzero" points="383.362904 856.424733 268.181536 789.888703 268.181536 656.758623 383.362904 723.309158"></polygon>
                    <polygon id="Shape" fill="url(#linearGradient-20)" fill-rule="nonzero" points="498.544271 656.758623 383.362904 723.309158 268.891816 657.179278 384.087679 590.628743"></polygon>
                    <polygon id="Shape" fill="url(#linearGradient-21)" fill-rule="nonzero" points="498.544271 789.888703 383.362904 856.424733 383.362904 723.309158 498.544271 656.758623"></polygon>
                    <polygon id="Shape" fill="url(#linearGradient-22)" fill-rule="nonzero" points="515.417052 932.374733 400.235684 865.824198 400.235684 732.708623 515.417052 799.259158"></polygon>
                    <polygon id="Shape" fill="url(#linearGradient-23)" fill-rule="nonzero" points="630.598419 732.708623 515.417052 799.259158 400.945964 733.129278 516.127332 666.578743"></polygon>
                    <polygon id="Shape" fill="url(#linearGradient-24)" fill-rule="nonzero" points="630.598419 865.824198 515.417052 932.374733 515.417052 799.259158 630.598419 732.708623"></polygon>
                    <path d="M116.862848,665.606885 L116.862848,667.071925" id="Shape" stroke="#FFFFFF" stroke-width="0.7395"></path>
                    <path d="M116.862848,670.002005 L116.862848,856.004078" id="Shape" stroke="#FFFFFF" stroke-width="0.7395" stroke-dasharray="2.928999972343445"></path>
                    <path d="M0.362387892,787.234225 L0.362387892,601.232152" id="Shape" stroke="#FFFFFF" stroke-width="0.7395" stroke-dasharray="2.928999972343445"></path>
                    <path d="M0.362387892,599.767112 L0.362387892,598.302072" id="Shape" stroke="#FFFFFF" stroke-width="0.7395"></path>
                    <polyline id="Shape" stroke="#FFFFFF" stroke-width="0.7395" points="232.102197 656.250936 233.363307 656.990709 232.102197 657.715976"></polyline>
                    <path d="M229.565482,659.181016 L119.399563,722.830481" id="Shape" stroke="#FFFFFF" stroke-width="0.7395" stroke-dasharray="2.928999972343445"></path>
                    <polyline id="Shape" stroke="#FFFFFF" stroke-width="0.7395" points="118.138453 723.555749 116.862848 724.295521 115.601738 723.555749"></polyline>
                    <path d="M113.079518,722.105214 L3.62387892,658.861898" id="Shape" stroke="#FFFFFF" stroke-width="0.7395" stroke-dasharray="2.9"></path>
                    <polyline id="Shape" stroke="#FFFFFF" stroke-width="0.7395" points="2.36276906 658.136631 1.10165919 657.411364 2.36276906 656.671591"></polyline>
                    <path d="M4.8994843,655.206551 L115.065404,591.571591" id="Shape" stroke="#FFFFFF" stroke-width="0.7395" stroke-dasharray="2.928999972343445"></path>
                    <polyline id="Shape" stroke="#FFFFFF" stroke-width="0.7395" points="116.326513 590.831818 117.602119 590.106551 118.863229 590.831818"></polyline>
                    <path d="M121.385448,592.282353 L230.841087,655.525668" id="Shape" stroke="#FFFFFF" stroke-width="0.7395" stroke-dasharray="2.9"></path>
                    <path d="M233.363307,598.302072 L233.363307,599.767112" id="Shape" stroke="#FFFFFF" stroke-width="0.7395"></path>
                    <path d="M233.363307,602.697193 L233.363307,788.699265" id="Shape" stroke="#FFFFFF" stroke-width="0.7395" stroke-dasharray="2.928999972343445"></path>
                    <path d="M116.862848,854.539037 L116.862848,668.536965" id="Shape" stroke="#FFFFFF" stroke-width="0.7395" stroke-dasharray="2.928999972343445"></path>
                    <path d="M116.862848,667.071925 L116.862848,665.606885" id="Shape" stroke="#FFFFFF" stroke-width="0.7395"></path>
                    <polygon id="Shape" fill="#EDEDED" fill-rule="nonzero" points="116.50046 659.021457 0.623307175 592.470922 0.521838565 552.465174 116.398991 619.001203"></polygon>
                    <polygon id="Shape" fill="#FFFFFF" fill-rule="nonzero" points="231.928251 551.855949 116.398991 619.001203 1.24661435 552.871324 116.775874 485.72607"></polygon>
                    <polygon id="Shape" fill="#D8D8D8" fill-rule="nonzero" points="232.02972 591.876203 116.50046 659.021457 116.398991 619.001203 231.928251 551.855949"></polygon>
                    <path d="M36.8765919,594.530682 C36.8765919,594.690241 36.7461323,594.748262 36.6011771,594.66123 L31.5567377,591.76016 C31.7093495,593.414712 32.5847789,594.917224 33.9484978,595.865174 C34.8472197,596.387366 35.528509,596.372861 36.0213565,595.865174 C36.0849048,595.81426 36.175241,595.81426 36.2387892,595.865174 C36.3931294,595.957319 36.4910893,596.120697 36.4997085,596.300334 C36.513062,596.342824 36.513062,596.388392 36.4997085,596.430882 C35.9923655,597.15615 35.050157,597.069118 33.9919843,596.430882 C32.2449725,595.229264 31.169668,593.270882 31.0928812,591.150936 C31.0928812,589.279746 32.296009,588.249866 33.9919843,589.221725 C35.7377409,590.431108 36.8119869,592.392937 36.8910874,594.516176 L36.8765919,594.530682 Z M36.3547534,593.921457 C36.206054,592.265655 35.3297277,590.761603 33.9629933,589.816444 C32.6439013,589.062166 31.7016928,589.816444 31.5857287,591.179947 L36.3547534,593.921457 Z" id="Shape" fill="#181E26" fill-rule="nonzero"></path>
                    <path d="M43.0081951,594.588703 C43.15731,594.685988 43.2535051,594.846422 43.2691143,595.023864 C43.2691143,595.183422 43.1676457,595.255949 43.0226906,595.168917 L41.6601121,594.385628 L41.6601121,600.52139 C41.664521,600.581934 41.6342158,600.639737 41.5819278,600.670516 C41.5296398,600.701294 41.4644281,600.699716 41.4136883,600.666444 C41.2645734,600.569159 41.1683783,600.408726 41.1527691,600.231283 L41.1527691,594.139037 L39.8481726,593.384759 C39.6938325,593.292614 39.5958725,593.129236 39.5872534,592.949599 C39.5828445,592.889055 39.6131497,592.831252 39.6654377,592.800473 C39.7177256,592.769695 39.7829374,592.771273 39.8336771,592.804545 L41.1382735,593.558824 L41.1382735,591.325 C41.1382735,591.165441 41.2397422,591.092914 41.3846973,591.179947 C41.5390375,591.272092 41.6369974,591.435469 41.6456166,591.615107 L41.6456166,593.84893 L43.0081951,594.588703 Z" id="Shape" fill="#181E26" fill-rule="nonzero"></path>
                    <path d="M51.2851345,602.276537 L51.2851345,605.975401 C51.2851345,606.13496 51.1546749,606.192981 51.0387108,606.120455 C50.8843706,606.028309 50.7864107,605.864932 50.7777915,605.685294 L50.7777915,601.971925 C50.7959356,600.561417 50.1111549,599.234434 48.9513565,598.43262 C47.4003363,597.533289 46.7335426,598.708222 46.8205157,600.361832 C46.8205157,600.361832 46.8205157,600.593917 46.8205157,600.622928 L46.8205157,603.42246 C46.8205157,603.582019 46.7190471,603.654545 46.5740919,603.567513 C46.4197517,603.475368 46.3217918,603.31199 46.3131726,603.132353 L46.3131726,590.991377 C46.3087638,590.930833 46.339069,590.87303 46.391357,590.842251 C46.4436449,590.811473 46.5088566,590.813051 46.5595964,590.846324 C46.7087113,590.943608 46.8049064,591.104042 46.8205157,591.281484 L46.8205157,598.142513 C47.0541882,597.810796 47.4160496,597.592212 47.8182319,597.539838 C48.2204142,597.487463 48.6261295,597.60609 48.936861,597.866912 C50.3825124,598.84693 51.2591179,600.471375 51.2851345,602.218516" id="Shape" fill="#181E26" fill-rule="nonzero"></path>
                    <path d="M60.3448318,608.00615 C60.3448318,608.165709 60.2143722,608.22373 60.069417,608.136698 L55.0249776,605.235628 C55.1775894,606.890179 56.0530188,608.392692 57.4167377,609.340642 C58.3154596,609.862834 58.9967489,609.848329 59.4895964,609.340642 C59.5531447,609.289728 59.6434809,609.289728 59.7070291,609.340642 C59.8613693,609.432787 59.9593292,609.596165 59.9679484,609.775802 C59.9813019,609.818292 59.9813019,609.86386 59.9679484,609.90635 C59.4606054,610.631618 58.5183969,610.544586 57.4602242,609.90635 C55.7132125,608.704732 54.6379079,606.74635 54.5611211,604.626404 C54.5611211,602.755214 55.7642489,601.725334 57.4602242,602.697193 C59.2059809,603.906576 60.2802268,605.868405 60.3593274,607.991644 L60.3448318,608.00615 Z M59.8229933,607.396925 C59.6742939,605.741123 58.7979676,604.237071 57.4312332,603.291912 C56.1121413,602.537634 55.1699327,603.291912 55.0539686,604.655414 L59.8229933,607.396925 Z" id="Shape" fill="#181E26" fill-rule="nonzero"></path>
                    <path d="M66.5489126,608.368783 C66.5489126,608.557353 66.4619395,608.600869 66.3169843,608.542848 C64.8674327,607.933623 64.171648,608.948997 64.171648,610.559091 L64.171648,613.344118 C64.171648,613.503676 64.0701794,613.576203 63.9252242,613.489171 C63.770884,613.397025 63.6729241,613.233648 63.6643049,613.054011 L63.6643049,606.729679 C63.6643049,606.57012 63.7657735,606.497594 63.9107287,606.584626 C64.0650689,606.676771 64.1630288,606.840149 64.171648,607.019786 L64.171648,608.310762 C64.6700841,607.648569 65.5977842,607.489608 66.2879933,607.948128 C66.4404581,608.03756 66.5423563,608.193195 66.5634081,608.368783" id="Shape" fill="#181E26" fill-rule="nonzero"></path>
                    <path d="M74.854843,616.332219 C74.854843,616.491778 74.7243834,616.549799 74.5794283,616.462767 L69.5784753,613.576203 C69.7310871,615.230754 70.6065165,616.733267 71.9702354,617.681217 C72.8689574,618.203409 73.5502466,618.188904 74.0430942,617.681217 C74.1066424,617.630303 74.1969787,617.630303 74.2605269,617.681217 C74.4148671,617.773362 74.512827,617.936739 74.5214462,618.116377 C74.5347997,618.158867 74.5347997,618.204435 74.5214462,618.246925 C74.0141031,618.972193 73.0718946,618.88516 72.013722,618.246925 C70.2667102,617.045307 69.1914057,615.086925 69.1146188,612.966979 C69.1146188,611.095789 70.3177466,610.065909 72.013722,611.037767 C73.7594786,612.247151 74.8337246,614.20898 74.9128251,616.332219 L74.854843,616.332219 Z M74.376491,615.7375 C74.2277917,614.081698 73.3514653,612.577646 71.9847309,611.632487 C70.665639,610.878209 69.7234305,611.632487 69.6074664,612.995989 L74.376491,615.7375 Z" id="Shape" fill="#181E26" fill-rule="nonzero"></path>
                    <path d="M83.0013229,617.927807 L83.0013229,624.28115 C83.0013229,624.440709 82.8708632,624.49873 82.7548991,624.426203 C82.6005589,624.334058 82.502599,624.17068 82.4939798,623.991043 L82.4939798,622.787099 C82.2860543,623.13495 81.9421675,623.379877 81.5456268,623.462545 C81.1490862,623.545214 80.7360675,623.458083 80.4066256,623.222259 C78.9571869,622.245673 78.0794232,620.619083 78.058352,618.870655 L78.058352,615.026738 C78.0539431,614.966194 78.0842484,614.908391 78.1365363,614.877612 C78.1888243,614.846834 78.254036,614.848412 78.3047758,614.881684 C78.4538907,614.978969 78.5500858,615.139403 78.5656951,615.316845 L78.5656951,619.030214 C78.5475509,620.440722 79.2323316,621.767705 80.39213,622.569519 C82.0881054,623.541377 82.4794843,621.945789 82.4794843,619.944051 L82.4794843,617.579679 C82.4750754,617.519135 82.5053807,617.461332 82.5576686,617.430554 C82.6099566,617.399775 82.6751683,617.401354 82.7259081,617.434626 C82.8719885,617.534802 82.9672403,617.693662 82.9868274,617.869786" id="Shape" fill="#181E26" fill-rule="nonzero"></path>
                    <path d="M95.8008632,627.820455 L95.8008632,631.533824 C95.8008632,631.693382 95.6704036,631.751404 95.5544395,631.678877 C95.4000993,631.586731 95.3021394,631.423354 95.2935202,631.243717 L95.2935202,627.530348 C95.3071258,626.128837 94.6222785,624.812603 93.4670852,624.020053 C92.0175336,623.149733 91.3797309,624.687299 91.3797309,626.137834 L91.3797309,629.038904 C91.3797309,629.198463 91.2492713,629.256484 91.1333072,629.183957 C90.978967,629.091812 90.8810071,628.928434 90.8723879,628.748797 L90.8723879,625.035428 C90.8859935,623.633917 90.2011462,622.317683 89.0459529,621.525134 C87.5094283,620.640307 86.8716256,621.670187 86.9441031,623.541377 C86.9441031,623.541377 86.9441031,623.671925 86.9441031,623.68643 L86.9441031,626.485963 C86.9441031,626.645521 86.8426345,626.718048 86.6976794,626.631016 C86.5433392,626.53887 86.4453793,626.375493 86.4367601,626.195856 L86.4367601,619.842513 C86.4367601,619.682955 86.5382287,619.610428 86.6831839,619.69746 C86.837524,619.789606 86.935484,619.952983 86.9441031,620.13262 L86.9441031,621.191511 C87.3789686,620.553275 88.1472309,620.408222 89.0604484,620.930414 C90.151268,621.636808 90.925569,622.739246 91.2202803,624.005548 C91.4006084,623.580089 91.7727421,623.26608 92.2222593,623.160071 C92.6717764,623.054062 93.1448705,623.168742 93.4960762,623.46885 C94.9455149,624.445436 95.8232785,626.072027 95.8443498,627.820455" id="Shape" fill="#181E26" fill-rule="nonzero"></path>
                    <g id="Group" opacity="0.6" transform="translate(13.045964, 578.763369)" fill="#181E26" fill-rule="nonzero">
                        <polygon id="Shape" points="6.82738789 1.13141711 0.521838565 0.797794118 6.84188341 8.7177139 13.1619283 8.06497326"></polygon>
                    </g>
                    <g id="Group" opacity="0.45" transform="translate(13.045964, 570.060160)" fill="#181E26" fill-rule="nonzero">
                        <polygon id="Shape" points="0.521838565 9.50100267 6.85637892 17.4209225 6.82738789 9.83462567 6.81289238 1.10240642"></polygon>
                    </g>
                    <g id="Group" opacity="0.8" transform="translate(18.844170, 570.060160)" fill="#181E26" fill-rule="nonzero">
                        <polygon id="Shape" points="1.0146861 1.10240642 1.02918161 9.83462567 1.05817265 17.4209225 7.36372197 16.7681818"></polygon>
                    </g>
                    <g id="Group" opacity="0.45" transform="translate(13.045964, 580.213904)" fill="#181E26" fill-rule="nonzero">
                        <polygon id="Shape" points="0.550829596 0.739772727 6.89986547 14.5923797 6.88536996 8.64518717"></polygon>
                    </g>
                    <g id="Group" opacity="0.8" transform="translate(18.844170, 587.466578)" fill="#181E26" fill-rule="nonzero">
                        <polygon id="Shape" points="1.08716368 1.39251337 1.10165919 7.33970588 7.40720852 0.754278075"></polygon>
                    </g>
                    <path d="M137.707399,634.405882 L137.707399,621.177005 L140.983386,619.276805 C142.027063,618.66758 142.814652,618.503186 143.346155,618.783623 C143.877657,619.06406 144.143408,619.789327 144.143408,620.959425 C144.142852,621.603443 144.009619,622.240431 143.752029,622.830615 C143.482303,623.459464 143.115435,624.041957 142.664865,624.556751 C143.125703,624.407216 143.630713,624.56405 143.925975,624.948396 C144.274283,625.46965 144.437628,626.092827 144.389832,626.718048 C144.402302,627.870323 144.112402,629.005702 143.549092,630.010762 C142.950222,631.037538 142.076664,631.876521 141.026872,632.433155 L137.707399,634.405882 Z M139.156951,625.978275 L141.012377,624.90488 C141.5316,624.59783 141.953659,624.150346 142.23,623.613904 C142.536189,623.058821 142.695839,622.434763 142.693857,621.800735 C142.693857,621.075468 142.553733,620.625802 142.273487,620.451738 C141.998072,620.277674 141.563206,620.364706 140.997881,620.698329 L139.171446,621.757219 L139.156951,625.978275 Z M139.156951,627.42881 L139.156951,632.186564 L141.128341,631.040642 C141.695726,630.695348 142.149343,630.190987 142.432937,629.590107 C142.759691,628.96391 142.924166,628.265665 142.911289,627.559358 C142.911289,625.96377 142.326637,625.509269 141.157332,626.195856 L139.156951,627.42881 Z" id="Shape" fill="#181E26" fill-rule="nonzero"></path>
                    <polygon id="Shape" fill="#181E26" fill-rule="nonzero" points="147.85426 627.008155 152.362365 624.382687 152.362365 625.833222 146.404709 629.285495 146.404709 616.056618 147.85426 615.215307"></polygon>
                    <path d="M161.103161,615.316845 C161.141453,616.958779 160.799107,618.587268 160.102971,620.074599 C159.47714,621.385743 158.465522,622.47397 157.203868,623.193249 C156.015235,623.879835 155.077859,623.952362 154.391738,623.410829 C153.561684,622.486631 153.166053,621.251427 153.304574,620.016578 L153.304574,617.521658 C153.27514,615.88366 153.622305,614.260805 154.31926,612.778409 C154.937761,611.451161 155.950094,610.346969 157.218363,609.616243 C158.426323,608.910316 159.392691,608.842625 160.117466,609.413168 C160.937676,610.387316 161.315794,611.659077 161.161143,612.923463 L161.103161,615.316845 Z M159.65361,613.86631 C159.757901,612.901084 159.544113,611.928195 159.044798,611.095789 C158.648587,610.641288 158.039776,610.641288 157.218363,611.095789 C156.408854,611.578743 155.778047,612.31179 155.420919,613.184559 C154.987193,614.267201 154.779987,615.427359 154.812108,616.593316 L154.812108,618.957687 C154.714278,619.910562 154.933373,620.869115 155.435415,621.684693 C155.841289,622.158534 156.450101,622.158534 157.26185,621.684693 C158.061929,621.216722 158.691688,620.505222 159.059294,619.653944 C159.480327,618.583263 159.68242,617.438936 159.65361,616.288703 L159.65361,613.86631 Z" id="Shape" fill="#181E26" fill-rule="nonzero"></path>
                    <path d="M170.554238,611.066778 C170.522805,612.416535 170.169975,613.739305 169.525056,614.925201 C168.89706,616.04626 167.97476,616.974201 166.857881,617.60869 C165.707904,618.275936 164.789854,618.304947 164.103733,617.695722 C163.297977,616.714327 162.926376,615.446885 163.074552,614.185428 L163.074552,611.792045 C163.046464,610.171226 163.39898,608.56644 164.103733,607.106818 C164.729217,605.784257 165.739833,604.681937 167.002836,603.944652 C168.114159,603.296747 168.974226,603.180704 169.583038,603.596524 C170.316034,604.292295 170.685421,605.28871 170.583229,606.294519 L169.133677,607.150334 C169.179868,606.447021 168.968608,605.750935 168.539361,605.192112 C168.210796,604.921346 167.727612,604.984202 167.089809,605.380682 C166.270079,605.86866 165.633411,606.612793 165.27787,607.498463 C164.83048,608.597828 164.618152,609.778773 164.654563,610.965241 L164.654563,613.387634 C164.560495,614.341224 164.768402,615.300275 165.248879,616.129144 C165.64509,616.612656 166.220078,616.636832 166.973845,616.201671 C167.655024,615.834298 168.218006,615.280994 168.597343,614.606083 C168.980077,613.767288 169.187263,612.859001 169.206155,611.937099 L170.554238,611.066778 Z" id="Shape" fill="#181E26" fill-rule="nonzero"></path>
                    <polygon id="Shape" fill="#181E26" fill-rule="nonzero" points="175.091334 606.54111 173.960684 608.774933 173.960684 613.300602 172.511132 614.141912 172.511132 600.913035 173.960684 600.071725 173.960684 606.454078 174.902892 604.45234 177.990437 597.707353 179.729899 596.691979 176.004552 604.684425 180.0488 609.746791 178.323834 610.74766"></polygon>
                    <path d="M188.296749,600.753476 C188.265317,602.103233 187.912486,603.426002 187.267567,604.611898 C186.639571,605.732957 185.717271,606.660899 184.600392,607.295388 C183.450415,607.962634 182.532365,607.991644 181.846244,607.38242 C181.040488,606.401025 180.668887,605.133583 180.817063,603.872126 L180.817063,601.478743 C180.788975,599.857924 181.141491,598.253138 181.846244,596.793516 C182.471728,595.470954 183.482345,594.368635 184.745348,593.63135 C185.85667,592.983445 186.716738,592.867402 187.325549,593.283222 C188.058545,593.978992 188.427933,594.975408 188.32574,595.981217 L186.876188,596.837032 C186.92238,596.133719 186.711119,595.437633 186.281872,594.87881 C185.953307,594.608044 185.470123,594.6709 184.832321,595.06738 C184.012591,595.555358 183.375923,596.299491 183.020381,597.18516 C182.572991,598.284525 182.360664,599.465471 182.397074,600.651939 L182.397074,603.074332 C182.303006,604.027922 182.510913,604.986973 182.99139,605.815842 C183.387601,606.299354 183.96259,606.323529 184.716357,605.888369 C185.397535,605.520996 185.960517,604.967692 186.339854,604.292781 C186.722589,603.453986 186.929774,602.545699 186.948666,601.623797 L188.296749,600.753476 Z" id="Shape" fill="#181E26" fill-rule="nonzero"></path>
                    <polygon id="Shape" fill="#181E26" fill-rule="nonzero" points="197.805807 599.447995 196.356256 600.289305 196.356256 594.168048 191.732186 596.851537 191.732186 602.972794 190.282635 603.814104 190.282635 590.585227 191.732186 589.743917 191.732186 595.430013 196.356256 592.746524 196.356256 587.060428 197.805807 586.219118"></polygon>
                    <path d="M205.836323,591.325 L201.951525,593.587834 L201.067298,597.562299 L199.617747,598.43262 L203.285112,583.056952 L204.531726,582.331684 L208.286065,593.399265 L206.836513,594.269586 L205.836323,591.325 Z M202.328408,591.934225 L205.459439,590.106551 L203.864933,585.000668 L202.328408,591.934225 Z" id="Shape" fill="#181E26" fill-rule="nonzero"></path>
                    <polygon id="Shape" fill="#181E26" fill-rule="nonzero" points="211.272141 591.615107 209.82259 592.456417 209.82259 579.22754 211.272141 578.38623"></polygon>
                    <polygon id="Shape" fill="#181E26" fill-rule="nonzero" points="221.332029 585.769452 219.882478 586.610762 215.243913 579.096992 215.243913 589.250735 213.794361 590.092045 213.794361 576.863168 215.243913 576.021858 219.896973 583.579144 219.896973 573.338369 221.346525 572.497059"></polygon>
                    <polygon id="Shape" fill="#0C100E" fill-rule="nonzero" opacity="0.3" points="134.242971 502.044586 116.529451 512.343382 98.8739126 502.204144 116.587433 491.905348"></polygon>
                    <polygon id="Shape" fill="#0C100E" fill-rule="nonzero" opacity="0.3" points="154.44972 513.648864 136.7362 523.94766 119.080661 513.808422 136.794182 503.509626"></polygon>
                    <polygon id="Shape" fill="#0C100E" fill-rule="nonzero" opacity="0.3" points="174.815919 525.296658 157.102399 535.595455 139.446861 525.456217 157.160381 515.15742"></polygon>
                    <polygon id="Shape" fill="#0C100E" fill-rule="nonzero" opacity="0.3" points="195.037164 536.944452 177.323643 547.243249 159.668105 537.104011 177.381626 526.805214"></polygon>
                    <polygon id="Shape" fill="#0C100E" fill-rule="nonzero" opacity="0.3" points="215.475841 548.534225 197.762321 558.833021 180.106783 548.693783 197.820303 538.394987"></polygon>
                    <polygon id="Shape" fill="#0C100E" fill-rule="nonzero" opacity="0.3" points="113.876771 513.90996 96.1632511 524.194251 78.507713 514.055013 96.2212332 503.770722"></polygon>
                    <polygon id="Shape" fill="#0C100E" fill-rule="nonzero" opacity="0.3" points="134.08352 525.514238 116.37 535.798529 98.7144619 525.659291 116.427982 515.375"></polygon>
                    <polygon id="Shape" fill="#0C100E" fill-rule="nonzero" opacity="0.3" points="154.44972 537.147527 136.7362 547.446324 119.080661 537.307086 136.794182 527.008289"></polygon>
                    <polygon id="Shape" fill="#0C100E" fill-rule="nonzero" opacity="0.3" points="174.670964 548.795321 156.957444 559.094118 139.301906 548.95488 157.015426 538.656083"></polygon>
                    <polygon id="Shape" fill="#0C100E" fill-rule="nonzero" opacity="0.3" points="195.109641 560.399599 177.396121 570.698396 159.740583 560.544652 177.454103 550.260361"></polygon>
                    <polygon id="Shape" fill="#0C100E" fill-rule="nonzero" opacity="0.3" points="93.1916704 525.398195 75.4781502 535.696992 57.8226121 525.557754 75.5361323 515.258957"></polygon>
                    <polygon id="Shape" fill="#0C100E" fill-rule="nonzero" opacity="0.3" points="113.398419 537.002473 95.6993946 547.30127 78.029361 537.162032 95.7573767 526.863235"></polygon>
                    <polygon id="Shape" fill="#0C100E" fill-rule="nonzero" opacity="0.3" points="133.779114 548.650267 116.065594 558.949064 98.4100561 548.809826 116.123576 538.511029"></polygon>
                    <polygon id="Shape" fill="#0C100E" fill-rule="nonzero" opacity="0.3" points="153.985863 560.298061 136.272343 570.596858 118.616805 560.45762 136.330325 550.158824"></polygon>
                    <polygon id="Shape" fill="#0C100E" fill-rule="nonzero" opacity="0.3" points="174.439036 571.887834 156.725516 582.186631 139.069978 572.047393 156.783498 561.748596"></polygon>
                    <polygon id="Shape" fill="#0C100E" fill-rule="nonzero" opacity="0.3" points="72.5065695 537.205548 54.7930493 547.504345 37.1375112 537.365107 54.8510314 527.06631"></polygon>
                    <polygon id="Shape" fill="#0C100E" fill-rule="nonzero" opacity="0.3" points="92.7278139 548.809826 75.0142937 559.108623 57.3587556 548.969385 75.0722758 538.670588"></polygon>
                    <polygon id="Shape" fill="#0C100E" fill-rule="nonzero" opacity="0.3" points="113.094013 560.45762 95.3804933 570.756417 77.7249552 560.617179 95.4384753 550.318382"></polygon>
                    <polygon id="Shape" fill="#0C100E" fill-rule="nonzero" opacity="0.3" points="133.315258 572.105414 115.601738 582.404211 97.9461996 572.264973 115.65972 561.966176"></polygon>
                    <polygon id="Shape" fill="#0C100E" fill-rule="nonzero" opacity="0.3" points="153.753935 583.695187 136.040415 593.993984 118.384877 583.854746 136.098397 573.555949"></polygon>
                    <polygon id="Shape" fill="#0C100E" fill-rule="nonzero" opacity="0.3" points="52.7636771 548.389171 35.050157 558.687968 17.3946188 548.54873 35.108139 538.249933"></polygon>
                    <polygon id="Shape" fill="#0C100E" fill-rule="nonzero" opacity="0.3" points="72.970426 559.993449 55.2569058 570.292246 37.6013677 560.153008 55.3148879 549.854211"></polygon>
                    <polygon id="Shape" fill="#0C100E" fill-rule="nonzero" opacity="0.3" points="93.3366256 571.641243 75.6231054 581.94004 57.9675673 571.800802 75.6810874 561.502005"></polygon>
                    <polygon id="Shape" fill="#0C100E" fill-rule="nonzero" opacity="0.3" points="113.55787 583.289037 95.8443498 593.587834 78.1888117 583.448596 95.9023318 573.149799"></polygon>
                    <polygon id="Shape" fill="#0C100E" fill-rule="nonzero" opacity="0.3" points="133.996547 594.893316 116.283027 605.177607 98.6274888 595.038369 116.341009 584.739572"></polygon>
                    <polygon id="Shape" fill="#EDEDED" fill-rule="nonzero" points="116.688901 504.786096 98.9463901 494.530816 98.9463901 474.034759 116.688901 484.275535"></polygon>
                    <polygon id="Shape" fill="#FFFFFF" fill-rule="nonzero" points="134.416917 474.034759 116.688901 484.275535 99.0478587 474.092781 116.79037 463.8375"></polygon>
                    <polygon id="Shape" fill="#D8D8D8" fill-rule="nonzero" points="134.416917 494.530816 116.688901 504.786096 116.688901 484.275535 134.416917 474.034759"></polygon>
                    <polygon id="Shape" fill="#EDEDED" fill-rule="nonzero" points="136.866659 516.43389 119.124148 506.17861 119.124148 485.682553 136.866659 495.937834"></polygon>
                    <polygon id="Shape" fill="#FFFFFF" fill-rule="nonzero" points="154.60917 485.682553 136.866659 495.937834 119.240112 485.740575 136.982623 475.499799"></polygon>
                    <polygon id="Shape" fill="#D8D8D8" fill-rule="nonzero" points="154.60917 506.17861 136.866659 516.43389 136.866659 495.937834 154.60917 485.682553"></polygon>
                    <polygon id="Shape" fill="#EDEDED" fill-rule="nonzero" points="157.203868 528.139706 139.461357 517.884425 139.461357 497.373864 157.203868 507.629144"></polygon>
                    <polygon id="Shape" fill="#FFFFFF" fill-rule="nonzero" points="174.946379 497.373864 157.203868 507.629144 139.577321 497.44639 157.319832 487.19111"></polygon>
                    <polygon id="Shape" fill="#D8D8D8" fill-rule="nonzero" points="174.946379 517.884425 157.203868 528.139706 157.203868 507.629144 174.946379 497.373864"></polygon>
                    <polygon id="Shape" fill="#EDEDED" fill-rule="nonzero" points="177.381626 539.831016 159.65361 529.590241 159.65361 509.079679 177.381626 519.33496"></polygon>
                    <polygon id="Shape" fill="#FFFFFF" fill-rule="nonzero" points="195.124137 509.079679 177.381626 519.33496 159.755078 509.137701 177.49759 498.896925"></polygon>
                    <polygon id="Shape" fill="#D8D8D8" fill-rule="nonzero" points="195.124137 529.590241 177.381626 539.831016 177.381626 519.33496 195.124137 509.079679"></polygon>
                    <polygon id="Shape" fill="#EDEDED" fill-rule="nonzero" points="197.805807 551.47881 180.063296 541.238035 180.063296 520.727473 197.805807 530.982754"></polygon>
                    <polygon id="Shape" fill="#FFFFFF" fill-rule="nonzero" points="215.548318 520.727473 197.805807 530.982754 180.17926 520.8 197.907276 510.544719"></polygon>
                    <polygon id="Shape" fill="#D8D8D8" fill-rule="nonzero" points="215.548318 541.238035 197.805807 551.47881 197.805807 530.982754 215.548318 520.727473"></polygon>
                    <polygon id="Shape" fill="#EDEDED" fill-rule="nonzero" points="96.2792152 516.578944 78.536704 506.338168 78.536704 485.827607 96.2792152 496.082888"></polygon>
                    <polygon id="Shape" fill="#FFFFFF" fill-rule="nonzero" points="114.021726 485.827607 96.2792152 496.082888 78.6526682 485.900134 96.3951794 475.644853"></polygon>
                    <polygon id="Shape" fill="#D8D8D8" fill-rule="nonzero" points="114.021726 506.338168 96.2792152 516.578944 96.2792152 496.082888 114.021726 485.827607"></polygon>
                    <polygon id="Shape" fill="#EDEDED" fill-rule="nonzero" points="116.471469 528.241243 98.7289574 517.985963 98.7289574 497.489906 116.471469 507.730682"></polygon>
                    <polygon id="Shape" fill="#FFFFFF" fill-rule="nonzero" points="134.199484 497.489906 116.471469 507.730682 98.830426 497.547928 116.572937 487.307152"></polygon>
                    <polygon id="Shape" fill="#D8D8D8" fill-rule="nonzero" points="134.199484 517.985963 116.471469 528.241243 116.471469 507.730682 134.199484 497.489906"></polygon>
                    <polygon id="Shape" fill="#EDEDED" fill-rule="nonzero" points="136.808677 539.932553 119.066166 529.691778 119.066166 509.181217 136.808677 519.436497"></polygon>
                    <polygon id="Shape" fill="#FFFFFF" fill-rule="nonzero" points="154.536693 509.181217 136.808677 519.436497 119.167635 509.253743 136.910146 498.998463"></polygon>
                    <polygon id="Shape" fill="#D8D8D8" fill-rule="nonzero" points="154.536693 529.691778 136.808677 539.932553 136.808677 519.436497 154.536693 509.181217"></polygon>
                    <polygon id="Shape" fill="#EDEDED" fill-rule="nonzero" points="156.986435 551.638369 139.243924 541.383088 139.243924 520.887032 156.986435 531.142313"></polygon>
                    <polygon id="Shape" fill="#FFFFFF" fill-rule="nonzero" points="174.728946 520.887032 156.986435 531.142313 139.359888 520.945053 157.102399 510.704278"></polygon>
                    <polygon id="Shape" fill="#D8D8D8" fill-rule="nonzero" points="174.728946 541.383088 156.986435 551.638369 156.986435 531.142313 174.728946 520.887032"></polygon>
                    <polygon id="Shape" fill="#EDEDED" fill-rule="nonzero" points="177.396121 563.286163 159.668105 553.030882 159.668105 532.534826 177.396121 542.775602"></polygon>
                    <polygon id="Shape" fill="#FFFFFF" fill-rule="nonzero" points="195.138632 532.534826 177.396121 542.775602 159.769574 532.592848 177.512085 522.352072"></polygon>
                    <polygon id="Shape" fill="#D8D8D8" fill-rule="nonzero" points="195.138632 553.030882 177.396121 563.286163 177.396121 542.775602 195.138632 532.534826"></polygon>
                    <polygon id="Shape" fill="#EDEDED" fill-rule="nonzero" points="75.5796188 528.023663 57.8371076 517.782888 57.8371076 497.272326 75.5796188 507.527607"></polygon>
                    <polygon id="Shape" fill="#FFFFFF" fill-rule="nonzero" points="93.3076345 497.272326 75.5796188 507.527607 57.9385762 497.344853 75.6810874 487.089572"></polygon>
                    <polygon id="Shape" fill="#D8D8D8" fill-rule="nonzero" points="93.3076345 517.782888 75.5796188 528.023663 75.5796188 507.527607 93.3076345 497.272326"></polygon>
                    <polygon id="Shape" fill="#EDEDED" fill-rule="nonzero" points="95.7573767 539.685963 78.0148655 529.430682 78.0148655 508.934626 95.7573767 519.175401"></polygon>
                    <polygon id="Shape" fill="#FFFFFF" fill-rule="nonzero" points="113.499888 508.934626 95.7573767 519.175401 78.1308296 508.992647 95.8733408 498.751872"></polygon>
                    <polygon id="Shape" fill="#D8D8D8" fill-rule="nonzero" points="113.499888 529.430682 95.7573767 539.685963 95.7573767 519.175401 113.499888 508.934626"></polygon>
                    <polygon id="Shape" fill="#EDEDED" fill-rule="nonzero" points="116.094585 551.377273 98.352074 541.136497 98.352074 520.625936 116.094585 530.881217"></polygon>
                    <polygon id="Shape" fill="#FFFFFF" fill-rule="nonzero" points="133.837096 520.625936 116.094585 530.881217 98.4680381 520.698463 116.210549 510.443182"></polygon>
                    <polygon id="Shape" fill="#D8D8D8" fill-rule="nonzero" points="133.837096 541.136497 116.094585 551.377273 116.094585 530.881217 133.837096 520.625936"></polygon>
                    <polygon id="Shape" fill="#EDEDED" fill-rule="nonzero" points="136.272343 563.083088 118.544327 552.827807 118.544327 532.331751 136.272343 542.572527"></polygon>
                    <polygon id="Shape" fill="#FFFFFF" fill-rule="nonzero" points="154.014854 532.331751 136.272343 542.572527 118.645796 532.389773 136.388307 522.148997"></polygon>
                    <polygon id="Shape" fill="#D8D8D8" fill-rule="nonzero" points="154.014854 552.827807 136.272343 563.083088 136.272343 542.572527 154.014854 532.331751"></polygon>
                    <polygon id="Shape" fill="#EDEDED" fill-rule="nonzero" points="156.696525 574.730882 138.954013 564.475602 138.954013 543.979545 156.696525 554.220321"></polygon>
                    <polygon id="Shape" fill="#FFFFFF" fill-rule="nonzero" points="174.439036 543.979545 156.696525 554.220321 139.069978 544.037567 156.797993 533.796791"></polygon>
                    <polygon id="Shape" fill="#D8D8D8" fill-rule="nonzero" points="174.439036 564.475602 156.696525 574.730882 156.696525 554.220321 174.439036 543.979545"></polygon>
                    <polygon id="Shape" fill="#EDEDED" fill-rule="nonzero" points="55.4743386 539.38135 37.7318274 529.12607 37.7318274 508.630013 55.4743386 518.870789"></polygon>
                    <polygon id="Shape" fill="#FFFFFF" fill-rule="nonzero" points="73.2168498 508.630013 55.4743386 518.870789 37.8477915 508.688035 55.5758072 498.447259"></polygon>
                    <polygon id="Shape" fill="#D8D8D8" fill-rule="nonzero" points="73.2168498 529.12607 55.4743386 539.38135 55.4743386 518.870789 73.2168498 508.630013"></polygon>
                    <polygon id="Shape" fill="#EDEDED" fill-rule="nonzero" points="75.6520964 551.029144 57.9095852 540.788369 57.9095852 520.277807 75.6520964 530.533088"></polygon>
                    <polygon id="Shape" fill="#FFFFFF" fill-rule="nonzero" points="93.3946076 520.277807 75.6520964 530.533088 58.0255493 520.350334 75.7680605 510.095053"></polygon>
                    <polygon id="Shape" fill="#D8D8D8" fill-rule="nonzero" points="93.3946076 540.788369 75.6520964 551.029144 75.6520964 530.533088 93.3946076 520.277807"></polygon>
                    <polygon id="Shape" fill="#EDEDED" fill-rule="nonzero" points="95.9893049 562.73496 78.2467937 552.479679 78.2467937 531.983623 95.9893049 542.224398"></polygon>
                    <polygon id="Shape" fill="#FFFFFF" fill-rule="nonzero" points="113.731816 531.983623 95.9893049 542.224398 78.3627578 532.041644 96.1052691 521.786364"></polygon>
                    <polygon id="Shape" fill="#D8D8D8" fill-rule="nonzero" points="113.731816 552.479679 95.9893049 562.73496 95.9893049 542.224398 113.731816 531.983623"></polygon>
                    <polygon id="Shape" fill="#EDEDED" fill-rule="nonzero" points="116.181558 574.42627 98.4390471 564.185495 98.4390471 543.674933 116.181558 553.930214"></polygon>
                    <polygon id="Shape" fill="#FFFFFF" fill-rule="nonzero" points="133.909574 543.674933 116.181558 553.930214 98.5405157 543.74746 116.283027 533.492179"></polygon>
                    <polygon id="Shape" fill="#D8D8D8" fill-rule="nonzero" points="133.909574 564.185495 116.181558 574.42627 116.181558 553.930214 133.909574 543.674933"></polygon>
                    <polygon id="Shape" fill="#EDEDED" fill-rule="nonzero" points="136.591244 586.074064 118.848733 575.833289 118.848733 555.322727 136.591244 565.578008"></polygon>
                    <polygon id="Shape" fill="#FFFFFF" fill-rule="nonzero" points="154.333756 555.322727 136.591244 565.578008 118.964697 555.395254 136.707209 545.139973"></polygon>
                    <polygon id="Shape" fill="#D8D8D8" fill-rule="nonzero" points="154.333756 575.833289 136.591244 586.074064 136.591244 565.578008 154.333756 555.322727"></polygon>
                    <polygon id="Shape" fill="#EDEDED" fill-rule="nonzero" points="35.079148 550.913102 17.3366368 540.672326 17.3366368 520.161765 35.079148 530.417045"></polygon>
                    <polygon id="Shape" fill="#FFFFFF" fill-rule="nonzero" points="52.8216592 520.161765 35.079148 530.417045 17.4526009 520.234291 35.1951121 509.979011"></polygon>
                    <polygon id="Shape" fill="#D8D8D8" fill-rule="nonzero" points="52.8216592 540.672326 35.079148 550.913102 35.079148 530.417045 52.8216592 520.161765"></polygon>
                    <polygon id="Shape" fill="#EDEDED" fill-rule="nonzero" points="55.2714013 562.575401 37.5288901 552.32012 37.5288901 531.824064 55.2714013 542.06484"></polygon>
                    <polygon id="Shape" fill="#FFFFFF" fill-rule="nonzero" points="73.0139126 531.824064 55.2714013 542.06484 37.6303587 531.882086 55.37287 521.626805"></polygon>
                    <polygon id="Shape" fill="#D8D8D8" fill-rule="nonzero" points="73.0139126 552.32012 55.2714013 562.575401 55.2714013 542.06484 73.0139126 531.824064"></polygon>
                    <polygon id="Shape" fill="#EDEDED" fill-rule="nonzero" points="75.6086099 574.266711 57.8660987 564.01143 57.8660987 543.515374 75.6086099 553.770655"></polygon>
                    <polygon id="Shape" fill="#FFFFFF" fill-rule="nonzero" points="93.3511211 543.515374 75.6086099 553.770655 57.9675673 543.573396 75.7100785 533.33262"></polygon>
                    <polygon id="Shape" fill="#D8D8D8" fill-rule="nonzero" points="93.3511211 564.01143 75.6086099 574.266711 75.6086099 553.770655 93.3511211 543.515374"></polygon>
                    <polygon id="Shape" fill="#EDEDED" fill-rule="nonzero" points="95.7863677 585.972527 78.0438565 575.717246 78.0438565 555.22119 95.7863677 565.461965"></polygon>
                    <polygon id="Shape" fill="#FFFFFF" fill-rule="nonzero" points="113.528879 555.22119 95.7863677 565.461965 78.1598206 555.279211 95.9023318 545.038436"></polygon>
                    <polygon id="Shape" fill="#D8D8D8" fill-rule="nonzero" points="113.528879 575.717246 95.7863677 585.972527 95.7863677 565.461965 113.528879 555.22119"></polygon>
                    <polygon id="Shape" fill="#EDEDED" fill-rule="nonzero" points="116.210549 597.620321 98.4680381 587.36504 98.4680381 566.868984 116.210549 577.109759"></polygon>
                    <polygon id="Shape" fill="#FFFFFF" fill-rule="nonzero" points="133.938565 566.868984 116.210549 577.109759 98.5695067 566.927005 116.312018 556.68623"></polygon>
                    <polygon id="Shape" fill="#D8D8D8" fill-rule="nonzero" points="133.938565 587.36504 116.210549 597.620321 116.210549 577.109759 133.938565 566.868984"></polygon>
                    <polygon id="Shape" fill="url(#linearGradient-25)" fill-rule="nonzero" points="231.60935 496.314973 115.775684 563.242647 0.666793722 496.735628 116.50046 429.807955"></polygon>
                    <polygon id="Shape" fill="url(#linearGradient-26)" fill-rule="nonzero" points="116.50046 343.965307 232.334126 410.892981 232.334126 496.735628 116.50046 429.807955"></polygon>
                    <polygon id="Shape" fill="url(#linearGradient-27)" fill-rule="nonzero" points="0.666793722 410.892981 116.50046 343.965307 117.225235 429.807955 0.666793722 496.735628"></polygon>
                    <polygon id="Shape" fill="url(#linearGradient-28)" fill-rule="nonzero" points="116.50046 563.242647 0.666793722 496.735628 0.666793722 410.472326 116.50046 477.4"></polygon>
                    <polygon id="Shape" fill="url(#linearGradient-29)" fill-rule="nonzero" points="232.334126 496.314973 116.50046 563.242647 116.50046 477.4 232.334126 410.472326"></polygon>
                    <path d="M62.1857623,265.694452 C63.9369648,266.97422 64.871209,269.092908 64.6355045,271.25 L164.379148,328.879746 C164.5934,326.742373 163.661513,324.651103 161.929406,323.382219 L62.1857623,265.694452 Z" id="Shape" fill="url(#linearGradient-30)" fill-rule="nonzero"></path>
                    <path d="M47.3568498,404.075468 L47.3568498,281.171658 C47.7086906,275.096138 50.9408008,269.5547 56.0541592,266.26016 C58.4894058,264.809626 60.6782287,264.809626 62.2437444,265.679947 L161.987388,323.309693 C160.421872,322.366845 158.218554,322.482888 155.797803,323.889906 C150.684444,327.184446 147.452334,332.725884 147.100493,338.801404 L147.100493,461.690709 C146.748652,467.766229 143.516542,473.307667 138.403184,476.602206 C136.040415,477.965709 133.895078,478.052741 132.329563,477.240441 L32.6439013,419.625201 C34.209417,420.495521 36.3547534,420.350468 38.7175224,418.986965 C43.8087781,415.679458 47.0180883,410.140181 47.3568498,404.075468 Z" id="Shape" fill="url(#linearGradient-31)" fill-rule="nonzero"></path>
                    <path d="M32.6439013,419.625201 C31.0638901,418.740374 30.0781951,416.811163 30.0781951,414.055147 L129.821839,471.684893 C129.821839,474.440909 130.807534,476.37012 132.387545,477.254947 L32.6439013,419.625201 Z" id="Shape" fill="url(#linearGradient-32)" fill-rule="nonzero"></path>
                    <polygon id="Shape" fill="#181E26" fill-rule="nonzero" points="61.4319955 324.005949 129.082567 363.083356 129.082567 359.413503 61.4319955 320.321591"></polygon>
                    <polygon id="Shape" fill="#181E26" fill-rule="nonzero" points="61.4319955 337.553944 129.082567 376.63135 129.082567 372.961497 61.4319955 333.884091"></polygon>
                    <polygon id="Shape" fill="#181E26" fill-rule="nonzero" points="61.4319955 351.101939 129.082567 390.19385 129.082567 386.509492 61.4319955 347.432086"></polygon>
                    <polygon id="Shape" fill="#181E26" fill-rule="nonzero" points="61.4319955 364.649933 129.082567 403.741845 129.082567 400.057487 61.4319955 360.98008"></polygon>
                    <polygon id="Shape" fill="#181E26" fill-rule="nonzero" points="61.4319955 378.197928 114.181177 408.673663 114.181177 405.00381 61.4319955 374.528075"></polygon>
                    <path d="M147.216457,447.040307 L105.730291,423.077473 C101.570078,420.669586 98.1926233,414.214706 98.1926233,408.673663 L98.1926233,381.287567 C98.1926233,375.732019 101.570078,373.179078 105.730291,375.586965 L147.216457,399.549799 L147.216457,447.040307 Z" id="Shape" fill="#0C100E" fill-rule="nonzero" opacity="0.3"></path>
                    <path d="M163.8863,470.742045 L95.0036099,430.939372 C90.8433969,428.531484 87.4659417,422.076604 87.4659417,416.535561 L87.4659417,389.163971 C87.4659417,383.608422 90.8433969,381.055481 95.0036099,383.463369 L163.8863,423.251537 C168.046513,425.659425 171.423969,432.114305 171.423969,437.655348 L171.423969,465.041444 C171.423969,470.596992 168.046513,473.149933 163.8863,470.742045 Z" id="Shape" fill="url(#linearGradient-33)" fill-rule="nonzero"></path>
                    <path d="M110.03546,405.061832 L115.761188,429.720922 L113.1375,428.270388 L111.919877,422.598797 L105.049002,418.638837 L103.831379,422.903409 L101.352646,421.452874 L107.049383,403.32119 L110.03546,405.061832 Z M108.498935,406.729947 L105.599832,416.492045 L111.267578,419.770254 L108.498935,406.729947 Z" id="Shape" fill="#181E26" fill-rule="nonzero"></path>
                    <path d="M124.907859,413.648997 L130.633587,438.308088 L128.009899,436.857553 L126.77778,431.185963 L119.921401,427.226003 L118.689283,431.490575 L116.210549,430.04004 L121.907287,411.951872 L124.907859,413.648997 Z M123.371334,415.317112 L120.472231,425.079211 L126.110987,428.35742 L123.371334,415.317112 Z" id="Shape" fill="#181E26" fill-rule="nonzero"></path>
                    <path d="M143.056244,425.296791 C144.125253,426.887533 144.695583,428.761302 144.694238,430.678275 L144.694238,431.461564 C144.694238,433.511653 144.162735,434.783289 143.099731,435.276471 C142.036726,435.769652 140.432556,435.397348 138.28722,434.159559 C137.335487,433.583654 136.420501,432.949027 135.547567,432.259358 L135.547567,441.151136 L133.126816,439.700602 L133.126816,418.174666 C134.74065,418.996635 136.383475,419.891132 138.055291,420.858155 C140.045082,421.927615 141.757598,423.447572 143.056244,425.296791 Z M135.547567,421.830013 L135.547567,429.938503 C136.687881,430.770143 137.562444,431.360027 138.171256,431.708155 C140.906076,433.284403 142.273487,432.689684 142.273487,429.923997 L142.273487,429.358289 C142.284361,428.14832 141.925245,426.963954 141.244305,425.964037 C140.388372,424.792555 139.278231,423.830441 137.997309,423.15 C137.166233,422.685829 136.349652,422.245833 135.547567,421.830013 Z" id="Shape" fill="#181E26" fill-rule="nonzero"></path>
                    <polygon id="Shape" fill="#181E26" fill-rule="nonzero" points="150.101065 428.212366 150.101065 447.185361 157.508274 451.464439 157.508274 453.915842 147.680314 448.215241 147.680314 426.805348"></polygon>
                    <path d="M61.8813565,293.38516 C56.4745291,290.252005 51.4590807,289.338168 47.3858408,290.324532 L47.3858408,337.278342 C51.2076597,342.818525 56.1452115,347.497558 61.8813565,351.014906 C75.7390695,359.021858 86.9730942,352.610495 86.9730942,336.698128 C86.9730942,320.785762 75.7390695,301.392112 61.8813565,293.38516 Z" id="Shape" fill="#0C100E" fill-rule="nonzero" opacity="0.3"></path>
                    <path d="M28.2082735,314.853075 C28.2082735,298.897193 39.4422982,292.529345 53.3000112,300.536297 C67.1577242,308.543249 78.3917489,327.936898 78.3917489,343.849265 C78.3917489,359.761631 67.1577242,366.172995 53.3000112,358.166043 C39.4422982,350.159091 28.2082735,330.721925 28.2082735,314.853075 Z" id="Shape" fill="url(#linearGradient-34)" fill-rule="nonzero"></path>
                    <polygon id="Shape" fill="#181E26" fill-rule="nonzero" points="40.8628587 324.455615 40.8628587 324.455615 44.1243498 328.560628 51.5025673 337.844051 51.5025673 337.844051 62.1567713 336.75615 51.5025673 310.312901 51.5025673 310.312901 51.5025673 310.312901 51.5025673 310.312901 51.5025673 310.312901 40.8628587 324.455615"></polygon>
                    <polygon id="Shape" fill="#181E26" fill-rule="nonzero" points="62.1712668 339.091511 51.5025673 340.150401 51.5025673 340.150401 40.8628587 326.776471 51.5025673 350.159091 51.5025673 350.159091"></polygon>
                    <polygon id="Shape" fill="url(#linearGradient-35)" fill-rule="nonzero" points="0.666793722 235.80234 0.666793722 203.974198 116.50046 270.887366 116.50046 302.730013"></polygon>
                    <polygon id="Shape" fill="url(#linearGradient-36)" fill-rule="nonzero" points="232.334126 203.974198 116.50046 270.887366 1.39156951 204.394853 117.225235 137.467179"></polygon>
                    <polygon id="Shape" fill="#00FFE2" fill-rule="nonzero" points="116.50046 302.730013 116.50046 270.887366 232.334126 203.974198 232.334126 235.80234"></polygon>
                    <path d="M142.65037,522.439104 L142.65037,527.617513 L141.200818,528.458824 L141.200818,515.229947 L144.868184,513.09766 C145.940852,512.478766 146.781592,512.357888 147.390404,512.735027 C148.097313,513.321413 148.448693,514.233423 148.318117,515.142914 C148.372949,517.581425 147.102266,519.85799 144.998643,521.090107 L142.65037,522.439104 Z M142.65037,520.98857 L144.868184,519.697594 C145.474651,519.355587 145.97596,518.853938 146.317735,518.247059 C146.667718,517.565876 146.842112,516.807997 146.825078,516.042246 C146.900083,515.451878 146.702729,514.859414 146.288744,514.432152 C145.931188,514.161386 145.448004,514.204902 144.839193,514.562701 L142.606883,515.853676 L142.65037,520.98857 Z" id="Shape" fill="#000000" fill-rule="nonzero"></path>
                    <path d="M153.652466,515.868182 L151.623094,517.043115 L151.623094,522.395588 L150.173543,523.236898 L150.173543,510.008021 L153.391547,508.136832 C154.522197,507.479256 155.377433,507.319697 155.957253,507.658155 C156.537074,507.996613 156.826984,508.818583 156.826984,510.124064 C156.826474,510.948878 156.669053,511.766054 156.363128,512.531952 C156.047605,513.320148 155.596222,514.046779 155.02954,514.678743 L157.276345,519.030348 L157.276345,519.14639 L155.725325,520.045722 L153.652466,515.868182 Z M151.623094,515.621591 L153.377052,514.606217 C153.98307,514.263618 154.484237,513.762111 154.826603,513.155682 C155.182439,512.50688 155.367035,511.777981 155.362937,511.037901 C155.362937,509.33594 154.691312,508.852429 153.348061,509.587366 L151.608599,510.602741 L151.623094,515.621591 Z" id="Shape" fill="#000000" fill-rule="nonzero"></path>
                    <path d="M166.234574,508.455949 C166.27234,510.097835 165.930018,511.726205 165.234383,513.213703 C164.608553,514.524847 163.596935,515.613074 162.33528,516.332353 C161.146648,517.018939 160.209271,517.086631 159.52315,516.535428 C158.693096,515.61123 158.297466,514.376026 158.435987,513.141176 L158.435987,510.588235 C158.40707,508.950288 158.75421,507.327549 159.450673,505.844987 C160.069173,504.517738 161.081507,503.413547 162.349776,502.682821 C163.557735,501.976894 164.524103,501.909202 165.248879,502.479746 C166.067515,503.454742 166.445426,504.725805 166.292556,505.99004 L166.234574,508.455949 Z M164.785022,507.005414 C164.888243,506.040247 164.674529,505.067695 164.176211,504.234893 C163.78,503.780392 163.171188,503.780392 162.349776,504.234893 C161.540267,504.717847 160.909459,505.450894 160.552332,506.323663 C160.118208,507.406191 159.910986,508.566433 159.94352,509.73242 L159.94352,512.03877 C159.845691,512.991645 160.064785,513.950198 160.566827,514.765775 C160.972702,515.239617 161.581513,515.239617 162.393262,514.765775 C163.193341,514.297805 163.823101,513.586304 164.190706,512.735027 C164.612502,511.664561 164.814623,510.520078 164.785022,509.369786 L164.785022,507.005414 Z" id="Shape" fill="#000000" fill-rule="nonzero"></path>
                    <polygon id="Shape" fill="#000000" fill-rule="nonzero" points="174.97537 497.01123 171.945807 498.766377 171.945807 510.57373 170.496256 511.41504 170.496256 499.607687 167.481188 501.362834 167.481188 499.912299 174.97537 495.560695"></polygon>
                    <path d="M183.948094,498.157152 C183.990392,499.797898 183.653043,501.426215 182.962399,502.914906 C182.336569,504.22605 181.32495,505.314278 180.063296,506.033556 C178.874664,506.720143 177.937287,506.792669 177.251166,506.251136 C176.421112,505.326938 176.025481,504.091734 176.164002,502.856885 L176.164002,500.361965 C176.134568,498.723967 176.481733,497.101113 177.178688,495.618717 C177.797189,494.291468 178.809522,493.187277 180.077791,492.456551 C181.285751,491.750624 182.252119,491.682932 182.976895,492.253476 C183.795531,493.228472 184.173442,494.499535 184.020572,495.76377 L183.948094,498.157152 Z M182.498543,496.706618 C182.601764,495.74145 182.388049,494.768899 181.889731,493.936096 C181.49352,493.481595 180.884709,493.481595 180.063296,493.936096 C179.254935,494.438765 178.633686,495.192922 178.294843,496.082888 C177.860719,497.165416 177.653498,498.325657 177.686031,499.491644 L177.686031,501.885027 C177.588202,502.837902 177.807297,503.796455 178.309339,504.612032 C178.715213,505.085873 179.324025,505.085873 180.135774,504.612032 C180.935853,504.144062 181.565612,503.432561 181.933217,502.581283 C182.355013,501.510818 182.557134,500.366335 182.527534,499.216043 L182.498543,496.706618 Z" id="Shape" fill="#000000" fill-rule="nonzero"></path>
                    <path d="M193.39917,493.907086 C193.366629,495.256684 193.013866,496.579197 192.369989,497.765508 C191.741993,498.886567 190.819693,499.814508 189.702814,500.448997 C188.552836,501.116243 187.634787,501.145254 186.948666,500.536029 C186.14291,499.554635 185.771309,498.287192 185.919484,497.025735 L185.919484,494.632353 C185.891937,493.011587 186.244426,491.406925 186.948666,489.947126 C187.57415,488.624564 188.584766,487.522245 189.847769,486.78496 C190.959092,486.137054 191.819159,486.021012 192.427971,486.436832 C193.160967,487.132602 193.530354,488.129018 193.428161,489.134826 L191.97861,489.990642 C192.024801,489.287329 191.81354,488.591242 191.384294,488.03242 C191.055729,487.761653 190.572545,487.82451 189.934742,488.220989 C189.081289,488.674197 188.402967,489.398912 188.006839,490.280749 C187.559448,491.380114 187.347121,492.561059 187.383531,493.747527 L187.383531,496.16992 C187.288469,497.123567 187.496442,498.082922 187.977848,498.91143 C188.374058,499.394942 188.949047,499.419118 189.702814,498.983957 C190.383517,498.61594 190.946339,498.062793 191.326312,497.388369 C191.708271,496.549312 191.915419,495.641187 191.935123,494.719385 L193.39917,493.907086 Z" id="Shape" fill="#000000" fill-rule="nonzero"></path>
                    <path d="M202.835751,487.176604 C202.878049,488.81735 202.5407,490.445667 201.850056,491.934358 C201.224226,493.245502 200.212607,494.333729 198.950953,495.053008 C197.762321,495.739594 196.824944,495.812121 196.138823,495.270588 C195.308769,494.34639 194.913138,493.111186 195.051659,491.876337 L195.051659,489.381417 C195.022743,487.743469 195.369883,486.120731 196.066345,484.638168 C196.684846,483.31092 197.697179,482.206729 198.965448,481.476003 C200.173408,480.770076 201.139776,480.702384 201.864552,481.272928 C202.684761,482.247076 203.062879,483.518836 202.908229,484.783222 L202.835751,487.176604 Z M201.3862,485.72607 C201.48942,484.760902 201.275706,483.788351 200.777388,482.955548 C200.381177,482.501047 199.772365,482.501047 198.950953,482.955548 C198.133637,483.439808 197.49724,484.178529 197.139013,485.058824 C196.704491,486.141237 196.497254,487.301562 196.530202,488.46758 L196.530202,490.831952 C196.432372,491.784827 196.651467,492.74338 197.153509,493.558957 C197.559383,494.032799 198.168195,494.032799 198.979944,493.558957 C199.780023,493.090987 200.409782,492.379486 200.777388,491.528209 C201.199184,490.457743 201.401305,489.31326 201.371704,488.162968 L201.3862,485.72607 Z" id="Shape" fill="#000000" fill-rule="nonzero"></path>
                    <polygon id="Shape" fill="#000000" fill-rule="nonzero" points="206.532108 489.062299 211.040213 486.436832 211.040213 487.887366 205.068061 491.354144 205.068061 478.125267 206.517612 477.283957"></polygon>
                    <polygon id="Shape" fill="#000000" fill-rule="nonzero" points="32.325 480.924799 35.3255717 493.384893 38.3261435 484.391578 40.196065 485.464973 40.196065 498.606818 38.7465135 497.765508 38.7465135 492.64512 38.8769731 487.597259 35.8764013 496.082888 34.7747422 495.444652 31.7741704 483.506751 31.90463 488.670655 31.90463 493.791043 30.4550785 492.949733 30.4550785 479.807888"></polygon>
                    <path d="M48.2120852,499.810762 L44.327287,497.533422 L43.4865471,500.434492 L42.0369955,499.578676 L45.7478475,488.583623 L46.9944619,489.294385 L50.7198094,504.583021 L49.2702578,503.727206 L48.2120852,499.810762 Z M44.7041704,496.358489 L47.8352018,498.186163 L46.2551906,491.296123 L44.7041704,496.358489 Z" id="Shape" fill="#000000" fill-rule="nonzero"></path>
                    <path d="M55.6627803,502.24766 L53.6334081,501.072727 L53.6334081,506.39619 L52.1838565,505.55488 L52.1838565,492.413035 L55.4163565,494.284225 C57.5908389,495.452222 58.9203975,497.748249 58.8517937,500.216912 C58.8974525,500.869336 58.7350392,501.519429 58.3879372,502.073596 C58.0829109,502.49774 57.573479,502.724924 57.0543498,502.668316 L59.2866592,509.54385 L59.2866592,509.645388 L57.7211435,508.746056 L55.6627803,502.24766 Z M53.6334081,499.651203 L55.3873655,500.666578 C55.9961771,501.014706 56.479361,501.072727 56.836917,500.840642 C57.2445664,500.475744 57.4453776,499.932643 57.3732511,499.390107 C57.470655,497.871497 56.6866301,496.432202 55.3583744,495.691243 L53.6334081,494.632353 L53.6334081,499.651203 Z" id="Shape" fill="#000000" fill-rule="nonzero"></path>
                    <polygon id="Shape" fill="#000000" fill-rule="nonzero" points="63.3598991 505.946524 62.2292489 506.860361 62.2292489 511.357019 60.7796973 510.515709 60.7796973 497.373864 62.2292489 498.215174 62.2292489 504.568516 63.1859529 503.68369 66.2879933 500.56504 68.0274552 501.565909 64.2876121 505.192246 68.3173655 514.93984 66.5779036 513.938971"></polygon>
                    <polygon id="Shape" fill="#000000" fill-rule="nonzero" points="75.1302578 512.735027 71.0280269 510.38516 71.0280269 515.041377 75.8115471 517.840909 75.8115471 519.291444 69.5784753 515.621591 69.5784753 502.479746 75.695583 506.019051 75.695583 507.469586 71.0280269 504.786096 71.0280269 509.021658 75.1012668 511.371524"></polygon>
                    <polygon id="Shape" fill="#000000" fill-rule="nonzero" points="84.552343 512.517447 81.5227803 510.762299 81.5227803 522.497126 80.0732287 521.655816 80.0732287 509.920989 77.0436659 508.180348 77.0436659 506.729813 84.5378475 511.081417"></polygon>
                    <polygon id="Shape" fill="url(#linearGradient-37)" fill-rule="nonzero" points="58.7213341 195.865709 0.797253363 162.401872 0.797253363 66.434492 58.7213341 99.8838235"></polygon>
                    <polygon id="Shape" fill="url(#linearGradient-38)" fill-rule="nonzero" points="174.42454 33.0431818 58.7213341 99.8838235 1.52202915 66.8406417 117.225235 0"></polygon>
                    <polygon id="Shape" fill="url(#linearGradient-39)" fill-rule="nonzero" points="174.42454 129.010561 58.7213341 195.865709 58.7213341 99.8838235 174.42454 33.0431818"></polygon>
                    <polygon id="Shape" fill="#181E26" fill-rule="nonzero" points="9.72649103 118.363636 6.97234305 116.768048 6.97234305 119.915709 10.146861 121.772393 10.146861 122.729746 5.98664798 120.307353 5.98664798 111.43008 10.146861 113.808957 10.146861 114.76631 6.97234305 112.953142 6.97234305 115.854211 9.72649103 117.449799"></polygon>
                    <polygon id="Shape" fill="#181E26" fill-rule="nonzero" points="13.6112892 119.233957 15.0608408 116.681016 16.2059865 117.348262 14.2056054 120.568449 16.2784641 126.196524 15.1188229 125.529278 13.6692713 121.177674 12.2197197 123.774131 11.0600785 123.106885 13.0459641 119.901203 11.0020964 114.316644 12.1472422 114.98389"></polygon>
                    <path d="M22.20713,126.849265 C22.20713,127.816288 21.9752018,128.411007 21.5113453,128.633422 C21.0474888,128.855838 20.4483408,128.763971 19.7139013,128.357821 C18.8820659,127.848432 18.2287093,127.093268 17.8439798,126.196524 C17.3732043,125.214821 17.1351019,124.13767 17.1481951,123.048864 L17.1481951,121.496791 C17.0400111,120.652489 17.2985973,119.802272 17.8584753,119.16143 C18.3319955,118.764951 18.97463,118.803632 19.7863789,119.277473 C20.5211823,119.698155 21.1237125,120.316168 21.5258408,121.061631 C21.9476066,121.863163 22.1759661,122.752382 22.1926345,123.658088 L21.2069395,123.09238 C21.1948663,122.47616 21.0567338,121.868952 20.801065,121.308222 C20.5690683,120.861994 20.211194,120.493789 19.7718834,120.249332 C19.2403812,119.939884 18.8345067,119.939884 18.5542601,120.249332 C18.1999544,120.794239 18.0462055,121.445551 18.1193946,122.091511 L18.1193946,123.71611 C18.0971317,124.498439 18.2301581,125.277418 18.5107735,126.007955 C18.7200416,126.610019 19.12937,127.122026 19.6704148,127.458489 C20.1825897,127.748596 20.5498094,127.816288 20.772074,127.661564 C20.9943386,127.50684 21.1344619,127.066845 21.1924439,126.341578 L22.20713,126.849265 Z" id="Shape" fill="#181E26" fill-rule="nonzero"></path>
                    <polygon id="Shape" fill="#181E26" fill-rule="nonzero" points="28.6286435 133.449198 27.6429484 132.883489 27.6429484 128.705949 24.511917 126.892781 24.511917 130.997794 23.526222 130.432086 23.526222 121.554813 24.511917 122.120521 24.511917 125.935428 27.6429484 127.748596 27.6429484 123.93369 28.6286435 124.499398"></polygon>
                    <path d="M34.0499664,134.188971 L31.426278,132.738436 L30.8174664,134.711163 L29.8172758,134.130949 L32.325,126.704211 L33.1657399,127.182888 L35.6734641,137.510695 L34.6732735,136.930481 L34.0499664,134.188971 Z M31.6727018,131.85361 L33.7890471,133.072059 L32.7308744,128.415842 L31.6727018,131.85361 Z" id="Shape" fill="#181E26" fill-rule="nonzero"></path>
                    <polygon id="Shape" fill="#181E26" fill-rule="nonzero" points="41.8050673 141.006484 40.8193722 140.440775 37.7028363 131.737567 37.7028363 138.584091 36.7171413 138.018382 36.7171413 129.184626 37.7028363 129.750334 40.8338677 138.453543 40.8338677 131.563503 41.8050673 132.129211"></polygon>
                    <path d="M48.3715359,143.689973 L48.1975897,143.835027 C47.7047422,144.202496 46.9847982,144.115463 46.0377578,143.57393 C45.1864464,143.07979 44.4966209,142.349188 44.0518722,141.470655 C43.5591524,140.505448 43.3056011,139.43583 43.3126009,138.352005 L43.3126009,136.611364 C43.190428,135.748648 43.4260975,134.873459 43.9648991,134.188971 C44.3997646,133.821502 45.0520628,133.889193 45.9217937,134.392045 C46.6417418,134.799858 47.2416779,135.390195 47.6612556,136.103676 C48.0895721,136.841237 48.3286207,137.673491 48.3570404,138.52607 L47.3858408,137.960361 C47.3729885,137.401693 47.2394733,136.852425 46.9944619,136.350267 C46.7587801,135.898161 46.3959596,135.525009 45.9507848,135.276872 C45.3902915,134.957754 44.9795852,134.928743 44.7186659,135.18984 C44.386432,135.716468 44.2432859,136.340599 44.3127915,136.959492 L44.3127915,138.77266 C44.2926186,139.569734 44.4459502,140.36166 44.7621525,141.093516 C45.0286749,141.700998 45.4802014,142.208675 46.0522534,142.544051 C46.5837556,142.843828 46.9847982,142.93086 47.2553812,142.805147 L47.4003363,142.805147 L47.4003363,140.701872 L45.9507848,139.875067 L45.9507848,138.917714 L48.3570404,140.368249 L48.3715359,143.689973 Z" id="Shape" fill="#181E26" fill-rule="nonzero"></path>
                    <polygon id="Shape" fill="#181E26" fill-rule="nonzero" points="53.6334081 143.7625 50.9517377 142.152406 50.9517377 145.300067 54.1552466 147.156751 54.1552466 148.114104 49.9660426 145.691711 49.9660426 136.828944 54.1117601 139.251337 54.1117601 140.20869 50.9517377 138.381016 50.9517377 141.282086 53.7058857 142.877674"></polygon>
                    <polygon id="Shape" fill="#181E26" fill-rule="nonzero" points="100.540897 64.6793449 100.468419 51.2909091 95.3080157 54.2645053 79.0875336 44.8795455 66.2734978 52.2917781 82.4939798 61.6622326 77.3480717 64.6358289"></polygon>
                    <polygon id="Shape" fill="#181E26" fill-rule="nonzero" points="73.9126345 32.4484626 73.9851121 45.8514037 79.1455157 42.8778075 95.3804933 52.248262 108.194529 44.8505348 91.9595516 35.4800802 97.1199552 32.4919786"></polygon>
                    <polygon id="Shape" fill="#EDEDED" fill-rule="nonzero" points="115.920639 228.90889 57.9965583 195.445053 57.9965583 99.4776738 115.920639 132.941511"></polygon>
                    <polygon id="Shape" fill="#FFFFFF" fill-rule="nonzero" points="231.623845 66.0863636 115.920639 132.941511 58.7213341 99.8838235 174.42454 33.0431818"></polygon>
                    <polygon id="Shape" fill="#D8D8D8" fill-rule="nonzero" points="231.623845 162.068249 115.920639 228.90889 115.920639 132.941511 231.623845 66.0863636"></polygon>
                    <path d="M172.308195,79.0976604 C172.375841,76.0515374 170.013072,73.1504679 165.219888,70.3944519 C161.470381,68.22832 157.701547,66.144385 153.913386,64.1426471 L136.779686,73.9772727 L129.85083,69.9737968 L124.299047,73.1794786 L131.227904,77.1829545 L114.210168,87.0320856 C117.718083,89.3529412 121.201839,91.5045677 124.661435,93.4869652 C129.27675,96.2715272 134.550812,97.7737016 139.939709,97.8385695 C145.233587,97.8169276 150.424691,96.3742547 154.971558,93.6610294 L164.698049,88.0329545 C169.69417,85.1222148 172.230886,82.1437834 172.308195,79.0976604 Z M149.303812,90.9195187 C146.166015,92.7885581 142.576535,93.7617863 138.925022,93.7335561 C135.438311,93.6825641 132.023554,92.7333771 129.01009,90.9775401 C127.637848,90.1845811 125.88389,89.0338235 123.748217,87.5252674 L136.431794,80.2000668 L143.07074,84.131016 L148.622522,80.9253342 L141.911099,76.994385 L154.957063,69.4951203 C157.537265,70.8973039 159.47,71.9561943 160.755269,72.6717914 C163.982937,74.5381462 165.562948,76.5157086 165.495303,78.6044786 C165.427657,80.6932487 163.59639,82.7771836 160.001502,84.8562834 L149.303812,90.9195187 Z" id="Shape" fill="#181E26" fill-rule="nonzero"></path>
                    <path d="M75.6231054,156.947861 C75.5377772,156.233649 75.7127693,155.512605 76.1159529,154.917112 C76.4445179,154.578654 76.9277018,154.578654 77.5655045,154.917112 C78.1362961,155.254024 78.5874122,155.76124 78.8556054,156.367647 L78.8556054,153.031417 L79.7978139,153.58262 L79.7978139,162.953075 L78.928083,162.445388 L78.928083,161.705615 C78.6188453,162.082754 78.1743161,162.082754 77.5944955,161.705615 C76.9530699,161.336122 76.4454877,160.772324 76.1449439,160.095521 C75.7877107,159.292586 75.6096328,158.421393 75.6231054,157.54258 L75.6231054,156.947861 Z M76.5653139,158.108289 C76.5437802,158.721027 76.6422673,159.332061 76.8552242,159.906952 C77.0423382,160.355285 77.3740261,160.728049 77.7974327,160.965842 C78.2709529,161.236609 78.6236771,161.168917 78.8556054,160.762767 L78.8556054,157.441043 C78.6974167,156.845736 78.3259412,156.329448 77.8119283,155.990508 C77.3770628,155.739082 77.0629933,155.739082 76.8697197,155.990508 C76.6261256,156.432612 76.5248779,156.939194 76.5798094,157.441043 L76.5653139,158.108289 Z" id="Shape" fill="#181E26" fill-rule="nonzero"></path>
                    <path d="M85.0161996,163.649332 L82.3925112,162.198797 L81.7836996,164.171524 L80.783509,163.59131 L83.2912332,156.164572 L84.1319731,156.643249 L86.6396973,166.971056 L85.6395067,166.390842 L85.0161996,163.649332 Z M82.6244395,161.313971 L84.7407848,162.546925 L83.6826121,157.890709 L82.6244395,161.313971 Z" id="Shape" fill="#181E26" fill-rule="nonzero"></path>
                    <path d="M88.6690695,164.606684 L88.6690695,168.087968 L87.69787,167.522259 L87.69787,158.644987 L90.1766031,160.095521 C90.8934034,160.504036 91.4848993,161.10095 91.887074,161.821658 C92.2960294,162.531894 92.5109975,163.33732 92.5103812,164.157019 C92.5103812,165.007999 92.3122758,165.554367 91.916065,165.796123 C91.5198543,166.037879 90.9641928,165.955682 90.2490807,165.549532 L88.6690695,164.606684 Z M88.6690695,163.649332 L90.1186211,164.519652 C90.5534865,164.771078 90.8868834,164.814594 91.1188117,164.650201 C91.3507399,164.485807 91.466704,164.128008 91.466704,163.576805 C91.4624039,163.071398 91.3381991,162.574242 91.1043161,162.12627 C90.8837822,161.689948 90.5413446,161.327121 90.1186211,161.081885 L88.6690695,160.211564 L88.6690695,163.649332 Z" id="Shape" fill="#181E26" fill-rule="nonzero"></path>
                    <path d="M94.7426906,168.102473 L94.7426906,171.583757 L93.771491,171.018048 L93.771491,162.140775 L96.2502242,163.59131 C96.9679786,164.013195 97.5549879,164.625705 97.9461996,165.360963 C98.3551549,166.071198 98.570123,166.876625 98.5695067,167.696324 C98.5695067,168.547304 98.3714013,169.093672 97.9751906,169.335428 C97.5789798,169.577184 97.0233184,169.494987 96.3082063,169.088837 L94.7426906,168.102473 Z M94.7426906,167.14512 L96.1922422,168.015441 C96.6271076,168.266867 96.9605045,168.310383 97.1924327,168.145989 C97.424361,167.981595 97.5403251,167.623797 97.5403251,167.072594 C97.536025,166.567187 97.4118201,166.070031 97.1779372,165.622059 C96.9574033,165.185737 96.6149657,164.82291 96.1922422,164.577674 L94.7426906,163.707353 L94.7426906,167.14512 Z" id="Shape" fill="#181E26" fill-rule="nonzero"></path>
                </g>
            </g>
        </g>
    </g>
</svg>