<svg xmlns="http://www.w3.org/2000/svg" xmlns:xlink="http://www.w3.org/1999/xlink" viewBox="0 0 111.33 189.85"><defs><style>.cls-1{fill:url(#linear-gradient);}.cls-2{fill:url(#linear-gradient-2);}.cls-3{fill:url(#linear-gradient-3);}.cls-4{fill:#fff;}.cls-5{opacity:0.6;}.cls-6{opacity:0.45;}.cls-7{opacity:0.8;}.cls-8{fill:#0c100e;opacity:0.3;}.cls-9{fill:url(#linear-gradient-4);}.cls-10{fill:url(#linear-gradient-5);}.cls-11{fill:url(#linear-gradient-6);}.cls-12{fill:url(#linear-gradient-7);}.cls-13{fill:url(#linear-gradient-8);}.cls-14{fill:url(#linear-gradient-9);}.cls-15{fill:url(#linear-gradient-10);}.cls-16{fill:url(#linear-gradient-11);}.cls-17{fill:url(#linear-gradient-12);}.cls-18{fill:url(#linear-gradient-13);}.cls-19{fill:url(#linear-gradient-14);}.cls-20{fill:url(#linear-gradient-15);}.cls-21{fill:url(#linear-gradient-16);}.cls-22{fill:url(#linear-gradient-17);}.cls-23{fill:url(#linear-gradient-18);}.cls-24{fill:url(#linear-gradient-19);}.cls-25{fill:url(#linear-gradient-20);}.cls-26{fill:url(#linear-gradient-21);}.cls-27{fill:url(#linear-gradient-22);}.cls-28{fill:url(#linear-gradient-23);}.cls-29{fill:url(#linear-gradient-24);}.cls-30{fill:url(#linear-gradient-25);}.cls-31{fill:url(#linear-gradient-26);}.cls-32{fill:url(#linear-gradient-27);}.cls-33{fill:url(#linear-gradient-28);}.cls-34{fill:url(#linear-gradient-29);}.cls-35{fill:url(#linear-gradient-30);}.cls-36{fill:url(#linear-gradient-31);}.cls-37{fill:url(#linear-gradient-32);}.cls-38{fill:url(#linear-gradient-33);}.cls-39{fill:url(#linear-gradient-34);}.cls-40{fill:url(#linear-gradient-35);}.cls-41{fill:url(#linear-gradient-36);}.cls-42{fill:url(#linear-gradient-37);}.cls-43{fill:url(#linear-gradient-38);}.cls-44{fill:url(#linear-gradient-39);}.cls-45{fill:url(#linear-gradient-40);}.cls-46{fill:url(#linear-gradient-41);}.cls-47{fill:url(#linear-gradient-42);}.cls-48{fill:url(#linear-gradient-43);}.cls-49{fill:url(#linear-gradient-44);}.cls-50{fill:url(#linear-gradient-45);}.cls-51{fill:url(#linear-gradient-46);}.cls-52{fill:url(#linear-gradient-47);}.cls-53{fill:url(#linear-gradient-48);}.cls-54{fill:url(#linear-gradient-49);}.cls-55{fill:url(#linear-gradient-50);}.cls-56{fill:url(#linear-gradient-51);}.cls-57{fill:url(#linear-gradient-52);}.cls-58{fill:url(#linear-gradient-53);}.cls-59{fill:url(#linear-gradient-54);}.cls-60{fill:url(#linear-gradient-55);}.cls-61{fill:url(#linear-gradient-56);}.cls-62{fill:url(#linear-gradient-57);}.cls-63{fill:url(#linear-gradient-58);}.cls-64{fill:url(#linear-gradient-59);}.cls-65{fill:url(#linear-gradient-60);}.cls-66{fill:url(#linear-gradient-61);}.cls-67{fill:url(#linear-gradient-62);}.cls-68{fill:url(#linear-gradient-63);}.cls-69{fill:url(#linear-gradient-64);}.cls-70{fill:url(#linear-gradient-65);}.cls-71{fill:url(#linear-gradient-66);}.cls-72{fill:url(#linear-gradient-67);}.cls-73{fill:url(#linear-gradient-68);}.cls-74{fill:url(#linear-gradient-69);}.cls-75{fill:url(#linear-gradient-70);}.cls-76{fill:url(#linear-gradient-71);}.cls-77{fill:url(#linear-gradient-72);}.cls-78{fill:url(#linear-gradient-73);}.cls-79{fill:url(#linear-gradient-74);}.cls-80{fill:url(#linear-gradient-75);}.cls-81{fill:url(#linear-gradient-76);}.cls-82{fill:url(#linear-gradient-77);}.cls-83{fill:url(#linear-gradient-78);}.cls-84{fill:url(#linear-gradient-79);}.cls-85{fill:url(#linear-gradient-80);}.cls-86{fill:url(#linear-gradient-81);}.cls-87{fill:url(#linear-gradient-82);}.cls-88{fill:url(#linear-gradient-83);}.cls-89{fill:url(#linear-gradient-84);}.cls-90{fill:url(#linear-gradient-85);}.cls-91{fill:url(#linear-gradient-86);}.cls-92{fill:url(#linear-gradient-87);}.cls-93{fill:url(#linear-gradient-88);}.cls-94{fill:url(#linear-gradient-89);}.cls-95{fill:#181e26;}</style><linearGradient id="linear-gradient" x1="2.37" y1="161" x2="57.98" y2="161" gradientTransform="translate(-2.69 3.33) rotate(-0.15)" gradientUnits="userSpaceOnUse"><stop offset="0" stop-color="#848c99"/><stop offset="1" stop-color="#4e5668"/></linearGradient><linearGradient id="linear-gradient-2" x1="58.15" y1="114.81" x2="58.15" y2="158.67" gradientTransform="translate(-2.69 3.33) rotate(-0.15)" gradientUnits="userSpaceOnUse"><stop offset="0" stop-color="#a9aeb7"/><stop offset="0.99" stop-color="#848c99"/></linearGradient><linearGradient id="linear-gradient-3" x1="57.98" y1="161" x2="113.58" y2="161" gradientTransform="translate(-2.69 3.33) rotate(-0.15)" gradientUnits="userSpaceOnUse"><stop offset="0" stop-color="#4e5668"/><stop offset="1" stop-color="#363d4f"/></linearGradient><linearGradient id="linear-gradient-4" x1="47.33" y1="108.39" x2="55.86" y2="108.39" gradientTransform="matrix(1, 0, 0, 1, 0, 0)" xlink:href="#linear-gradient"/><linearGradient id="linear-gradient-5" x1="55.89" y1="97.85" x2="55.89" y2="104.58" gradientTransform="matrix(1, 0, 0, 1, 0, 0)" xlink:href="#linear-gradient-2"/><linearGradient id="linear-gradient-6" x1="55.86" y1="108.39" x2="64.39" y2="108.39" gradientTransform="matrix(1, 0, 0, 1, 0, 0)" xlink:href="#linear-gradient-3"/><linearGradient id="linear-gradient-7" x1="57.03" y1="113.98" x2="65.56" y2="113.98" gradientTransform="matrix(1, 0, 0, 1, 0, 0)" xlink:href="#linear-gradient"/><linearGradient id="linear-gradient-8" x1="65.59" y1="103.45" x2="65.59" y2="110.18" gradientTransform="matrix(1, 0, 0, 1, 0, 0)" xlink:href="#linear-gradient-2"/><linearGradient id="linear-gradient-9" x1="65.56" y1="113.98" x2="74.09" y2="113.98" gradientTransform="matrix(1, 0, 0, 1, 0, 0)" xlink:href="#linear-gradient-3"/><linearGradient id="linear-gradient-10" x1="66.81" y1="119.6" x2="75.33" y2="119.6" gradientTransform="matrix(1, 0, 0, 1, 0, 0)" xlink:href="#linear-gradient"/><linearGradient id="linear-gradient-11" x1="75.36" y1="109.07" x2="75.36" y2="115.79" gradientTransform="matrix(1, 0, 0, 1, 0, 0)" xlink:href="#linear-gradient-2"/><linearGradient id="linear-gradient-12" x1="75.33" y1="119.6" x2="83.86" y2="119.6" gradientTransform="matrix(1, 0, 0, 1, 0, 0)" xlink:href="#linear-gradient-3"/><linearGradient id="linear-gradient-13" x1="76.51" y1="125.22" x2="85.03" y2="125.22" gradientTransform="matrix(1, 0, 0, 1, 0, 0)" xlink:href="#linear-gradient"/><linearGradient id="linear-gradient-14" x1="85.06" y1="114.69" x2="85.06" y2="121.41" gradientTransform="matrix(1, 0, 0, 1, 0, 0)" xlink:href="#linear-gradient-2"/><linearGradient id="linear-gradient-15" x1="85.03" y1="125.22" x2="93.56" y2="125.22" gradientTransform="matrix(1, 0, 0, 1, 0, 0)" xlink:href="#linear-gradient-3"/><linearGradient id="linear-gradient-16" x1="86.32" y1="130.82" x2="94.84" y2="130.82" gradientTransform="matrix(1, 0, 0, 1, 0, 0)" xlink:href="#linear-gradient"/><linearGradient id="linear-gradient-17" x1="94.87" y1="120.28" x2="94.87" y2="127.01" gradientTransform="matrix(1, 0, 0, 1, 0, 0)" xlink:href="#linear-gradient-2"/><linearGradient id="linear-gradient-18" x1="94.84" y1="130.82" x2="103.37" y2="130.82" gradientTransform="matrix(1, 0, 0, 1, 0, 0)" xlink:href="#linear-gradient-3"/><linearGradient id="linear-gradient-19" x1="37.53" y1="114.06" x2="46.06" y2="114.06" gradientTransform="matrix(1, 0, 0, 1, 0, 0)" xlink:href="#linear-gradient"/><linearGradient id="linear-gradient-20" x1="46.08" y1="103.52" x2="46.08" y2="110.25" gradientTransform="matrix(1, 0, 0, 1, 0, 0)" xlink:href="#linear-gradient-2"/><linearGradient id="linear-gradient-21" x1="46.06" y1="114.06" x2="54.58" y2="114.06" gradientTransform="matrix(1, 0, 0, 1, 0, 0)" xlink:href="#linear-gradient-3"/><linearGradient id="linear-gradient-22" x1="47.23" y1="119.65" x2="55.76" y2="119.65" gradientTransform="matrix(1, 0, 0, 1, 0, 0)" xlink:href="#linear-gradient"/><linearGradient id="linear-gradient-23" x1="55.78" y1="109.12" x2="55.78" y2="115.85" gradientTransform="matrix(1, 0, 0, 1, 0, 0)" xlink:href="#linear-gradient-2"/><linearGradient id="linear-gradient-24" x1="55.76" y1="119.65" x2="64.28" y2="119.65" gradientTransform="matrix(1, 0, 0, 1, 0, 0)" xlink:href="#linear-gradient-3"/><linearGradient id="linear-gradient-25" x1="57" y1="125.27" x2="65.53" y2="125.27" gradientTransform="matrix(1, 0, 0, 1, 0, 0)" xlink:href="#linear-gradient"/><linearGradient id="linear-gradient-26" x1="65.56" y1="114.74" x2="65.56" y2="121.46" gradientTransform="matrix(1, 0, 0, 1, 0, 0)" xlink:href="#linear-gradient-2"/><linearGradient id="linear-gradient-27" x1="65.53" y1="125.27" x2="74.06" y2="125.27" gradientTransform="matrix(1, 0, 0, 1, 0, 0)" xlink:href="#linear-gradient-3"/><linearGradient id="linear-gradient-28" x1="66.7" y1="130.89" x2="75.23" y2="130.89" gradientTransform="matrix(1, 0, 0, 1, 0, 0)" xlink:href="#linear-gradient"/><linearGradient id="linear-gradient-29" x1="75.26" y1="120.36" x2="75.26" y2="127.08" gradientTransform="matrix(1, 0, 0, 1, 0, 0)" xlink:href="#linear-gradient-2"/><linearGradient id="linear-gradient-30" x1="75.23" y1="130.89" x2="83.76" y2="130.89" gradientTransform="matrix(1, 0, 0, 1, 0, 0)" xlink:href="#linear-gradient-3"/><linearGradient id="linear-gradient-31" x1="76.52" y1="136.48" x2="85.04" y2="136.48" gradientTransform="matrix(1, 0, 0, 1, 0, 0)" xlink:href="#linear-gradient"/><linearGradient id="linear-gradient-32" x1="85.07" y1="125.95" x2="85.07" y2="132.68" gradientTransform="matrix(1, 0, 0, 1, 0, 0)" xlink:href="#linear-gradient-2"/><linearGradient id="linear-gradient-33" x1="85.04" y1="136.48" x2="93.57" y2="136.48" gradientTransform="matrix(1, 0, 0, 1, 0, 0)" xlink:href="#linear-gradient-3"/><linearGradient id="linear-gradient-34" x1="27.58" y1="119.55" x2="36.1" y2="119.55" gradientTransform="matrix(1, 0, 0, 1, 0, 0)" xlink:href="#linear-gradient"/><linearGradient id="linear-gradient-35" x1="36.13" y1="109.02" x2="36.13" y2="115.74" gradientTransform="matrix(1, 0, 0, 1, 0, 0)" xlink:href="#linear-gradient-2"/><linearGradient id="linear-gradient-36" x1="36.1" y1="119.55" x2="44.63" y2="119.55" gradientTransform="matrix(1, 0, 0, 1, 0, 0)" xlink:href="#linear-gradient-3"/><linearGradient id="linear-gradient-37" x1="37.28" y1="125.15" x2="45.8" y2="125.15" gradientTransform="matrix(1, 0, 0, 1, 0, 0)" xlink:href="#linear-gradient"/><linearGradient id="linear-gradient-38" x1="45.83" y1="114.62" x2="45.83" y2="121.34" gradientTransform="matrix(1, 0, 0, 1, 0, 0)" xlink:href="#linear-gradient-2"/><linearGradient id="linear-gradient-39" x1="45.8" y1="125.15" x2="54.33" y2="125.15" gradientTransform="matrix(1, 0, 0, 1, 0, 0)" xlink:href="#linear-gradient-3"/><linearGradient id="linear-gradient-40" x1="47.05" y1="130.77" x2="55.58" y2="130.77" gradientTransform="matrix(1, 0, 0, 1, 0, 0)" xlink:href="#linear-gradient"/><linearGradient id="linear-gradient-41" x1="55.6" y1="120.23" x2="55.6" y2="126.96" gradientTransform="matrix(1, 0, 0, 1, 0, 0)" xlink:href="#linear-gradient-2"/><linearGradient id="linear-gradient-42" x1="55.58" y1="130.77" x2="64.1" y2="130.77" gradientTransform="matrix(1, 0, 0, 1, 0, 0)" xlink:href="#linear-gradient-3"/><linearGradient id="linear-gradient-43" x1="56.75" y1="136.39" x2="65.28" y2="136.39" gradientTransform="matrix(1, 0, 0, 1, 0, 0)" xlink:href="#linear-gradient"/><linearGradient id="linear-gradient-44" x1="65.3" y1="125.85" x2="65.3" y2="132.58" gradientTransform="matrix(1, 0, 0, 1, 0, 0)" xlink:href="#linear-gradient-2"/><linearGradient id="linear-gradient-45" x1="65.28" y1="136.39" x2="73.8" y2="136.39" gradientTransform="matrix(1, 0, 0, 1, 0, 0)" xlink:href="#linear-gradient-3"/><linearGradient id="linear-gradient-46" x1="66.56" y1="141.98" x2="75.09" y2="141.98" gradientTransform="matrix(1, 0, 0, 1, 0, 0)" xlink:href="#linear-gradient"/><linearGradient id="linear-gradient-47" x1="75.12" y1="131.45" x2="75.12" y2="138.17" gradientTransform="matrix(1, 0, 0, 1, 0, 0)" xlink:href="#linear-gradient-2"/><linearGradient id="linear-gradient-48" x1="75.09" y1="141.98" x2="83.61" y2="141.98" gradientTransform="matrix(1, 0, 0, 1, 0, 0)" xlink:href="#linear-gradient-3"/><linearGradient id="linear-gradient-49" x1="17.92" y1="125" x2="26.44" y2="125" gradientTransform="matrix(1, 0, 0, 1, 0, 0)" xlink:href="#linear-gradient"/><linearGradient id="linear-gradient-50" x1="26.47" y1="114.47" x2="26.47" y2="121.19" gradientTransform="matrix(1, 0, 0, 1, 0, 0)" xlink:href="#linear-gradient-2"/><linearGradient id="linear-gradient-51" x1="26.44" y1="125" x2="34.97" y2="125" gradientTransform="matrix(1, 0, 0, 1, 0, 0)" xlink:href="#linear-gradient-3"/><linearGradient id="linear-gradient-52" x1="27.62" y1="130.6" x2="36.14" y2="130.6" gradientTransform="matrix(1, 0, 0, 1, 0, 0)" xlink:href="#linear-gradient"/><linearGradient id="linear-gradient-53" x1="36.17" y1="120.07" x2="36.17" y2="126.79" gradientTransform="matrix(1, 0, 0, 1, 0, 0)" xlink:href="#linear-gradient-2"/><linearGradient id="linear-gradient-54" x1="36.14" y1="130.6" x2="44.67" y2="130.6" gradientTransform="matrix(1, 0, 0, 1, 0, 0)" xlink:href="#linear-gradient-3"/><linearGradient id="linear-gradient-55" x1="37.39" y1="136.22" x2="45.92" y2="136.22" gradientTransform="matrix(1, 0, 0, 1, 0, 0)" xlink:href="#linear-gradient"/><linearGradient id="linear-gradient-56" x1="45.94" y1="125.68" x2="45.94" y2="132.41" gradientTransform="matrix(1, 0, 0, 1, 0, 0)" xlink:href="#linear-gradient-2"/><linearGradient id="linear-gradient-57" x1="45.92" y1="136.22" x2="54.44" y2="136.22" gradientTransform="matrix(1, 0, 0, 1, 0, 0)" xlink:href="#linear-gradient-3"/><linearGradient id="linear-gradient-58" x1="47.09" y1="141.84" x2="55.62" y2="141.84" gradientTransform="matrix(1, 0, 0, 1, 0, 0)" xlink:href="#linear-gradient"/><linearGradient id="linear-gradient-59" x1="55.64" y1="131.3" x2="55.64" y2="138.03" gradientTransform="matrix(1, 0, 0, 1, 0, 0)" xlink:href="#linear-gradient-2"/><linearGradient id="linear-gradient-60" x1="55.62" y1="141.84" x2="64.14" y2="141.84" gradientTransform="matrix(1, 0, 0, 1, 0, 0)" xlink:href="#linear-gradient-3"/><linearGradient id="linear-gradient-61" x1="56.9" y1="147.43" x2="65.43" y2="147.43" gradientTransform="matrix(1, 0, 0, 1, 0, 0)" xlink:href="#linear-gradient"/><linearGradient id="linear-gradient-62" x1="65.45" y1="136.9" x2="65.45" y2="143.62" gradientTransform="matrix(1, 0, 0, 1, 0, 0)" xlink:href="#linear-gradient-2"/><linearGradient id="linear-gradient-63" x1="65.43" y1="147.43" x2="73.95" y2="147.43" gradientTransform="matrix(1, 0, 0, 1, 0, 0)" xlink:href="#linear-gradient-3"/><linearGradient id="linear-gradient-64" x1="8.12" y1="130.54" x2="16.65" y2="130.54" gradientTransform="matrix(1, 0, 0, 1, 0, 0)" xlink:href="#linear-gradient"/><linearGradient id="linear-gradient-65" x1="16.67" y1="120.01" x2="16.67" y2="126.74" gradientTransform="matrix(1, 0, 0, 1, 0, 0)" xlink:href="#linear-gradient-2"/><linearGradient id="linear-gradient-66" x1="16.65" y1="130.54" x2="25.17" y2="130.54" gradientTransform="matrix(1, 0, 0, 1, 0, 0)" xlink:href="#linear-gradient-3"/><linearGradient id="linear-gradient-67" x1="17.82" y1="136.14" x2="26.35" y2="136.14" gradientTransform="matrix(1, 0, 0, 1, 0, 0)" xlink:href="#linear-gradient"/><linearGradient id="linear-gradient-68" x1="26.37" y1="125.61" x2="26.37" y2="132.33" gradientTransform="matrix(1, 0, 0, 1, 0, 0)" xlink:href="#linear-gradient-2"/><linearGradient id="linear-gradient-69" x1="26.35" y1="136.14" x2="34.87" y2="136.14" gradientTransform="matrix(1, 0, 0, 1, 0, 0)" xlink:href="#linear-gradient-3"/><linearGradient id="linear-gradient-70" x1="27.59" y1="141.76" x2="36.12" y2="141.76" gradientTransform="matrix(1, 0, 0, 1, 0, 0)" xlink:href="#linear-gradient"/><linearGradient id="linear-gradient-71" x1="36.15" y1="131.23" x2="36.15" y2="137.95" gradientTransform="matrix(1, 0, 0, 1, 0, 0)" xlink:href="#linear-gradient-2"/><linearGradient id="linear-gradient-72" x1="36.12" y1="141.76" x2="44.65" y2="141.76" gradientTransform="matrix(1, 0, 0, 1, 0, 0)" xlink:href="#linear-gradient-3"/><linearGradient id="linear-gradient-73" x1="37.29" y1="147.38" x2="45.82" y2="147.38" gradientTransform="matrix(1, 0, 0, 1, 0, 0)" xlink:href="#linear-gradient"/><linearGradient id="linear-gradient-74" x1="45.85" y1="136.84" x2="45.85" y2="143.57" gradientTransform="matrix(1, 0, 0, 1, 0, 0)" xlink:href="#linear-gradient-2"/><linearGradient id="linear-gradient-75" x1="45.82" y1="147.38" x2="54.35" y2="147.38" gradientTransform="matrix(1, 0, 0, 1, 0, 0)" xlink:href="#linear-gradient-3"/><linearGradient id="linear-gradient-76" x1="47.1" y1="152.97" x2="55.63" y2="152.97" gradientTransform="matrix(1, 0, 0, 1, 0, 0)" xlink:href="#linear-gradient"/><linearGradient id="linear-gradient-77" x1="55.66" y1="142.44" x2="55.66" y2="149.16" gradientTransform="matrix(1, 0, 0, 1, 0, 0)" xlink:href="#linear-gradient-2"/><linearGradient id="linear-gradient-78" x1="55.63" y1="152.97" x2="64.16" y2="152.97" gradientTransform="matrix(1, 0, 0, 1, 0, 0)" xlink:href="#linear-gradient-3"/><linearGradient id="linear-gradient-79" x1="55.84" y1="92.37" x2="55.84" y2="136.28" gradientUnits="userSpaceOnUse"><stop offset="0" stop-color="#00e2c1"/><stop offset="1" stop-color="#00aa8d"/></linearGradient><linearGradient id="linear-gradient-80" x1="80.16" y1="96.81" x2="85.2" y2="66.1" gradientUnits="userSpaceOnUse"><stop offset="0" stop-color="#00e2c1"/><stop offset="1" stop-color="#00aa8d" stop-opacity="0"/></linearGradient><linearGradient id="linear-gradient-81" x1="37.53" y1="96.99" x2="23.13" y2="65.92" gradientUnits="userSpaceOnUse"><stop offset="0" stop-color="#00ffe2"/><stop offset="0.99" stop-color="#00e2c1" stop-opacity="0"/></linearGradient><linearGradient id="linear-gradient-82" x1="22.57" y1="124.19" x2="31.73" y2="96.69" xlink:href="#linear-gradient-81"/><linearGradient id="linear-gradient-83" x1="89.8" y1="125.01" x2="78.34" y2="94.76" xlink:href="#linear-gradient-80"/><linearGradient id="linear-gradient-84" x1="37.02" y1="88.69" x2="22.93" y2="118.9" xlink:href="#linear-gradient-81"/><linearGradient id="linear-gradient-85" x1="55.84" y1="51.15" x2="55.84" y2="95.06" gradientUnits="userSpaceOnUse"><stop offset="0" stop-color="#abfff3"/><stop offset="0.99" stop-color="#00ffe2"/></linearGradient><linearGradient id="linear-gradient-86" x1="75.63" y1="90.77" x2="86.2" y2="114.43" xlink:href="#linear-gradient-80"/><linearGradient id="linear-gradient-87" x1="0.06" y1="61" x2="55.67" y2="61" gradientTransform="matrix(1, 0, 0, 1, 0, 0)" xlink:href="#linear-gradient"/><linearGradient id="linear-gradient-88" x1="55.84" y1="11.37" x2="55.84" y2="55.23" gradientTransform="matrix(1, 0, 0, 1, 0, 0)" xlink:href="#linear-gradient-2"/><linearGradient id="linear-gradient-89" x1="55.67" y1="61" x2="111.27" y2="61" gradientTransform="matrix(1, 0, 0, 1, 0, 0)" xlink:href="#linear-gradient-3"/></defs><title>Asset 2</title><g id="Layer_2" data-name="Layer 2"><g id="Layer_1-2" data-name="Layer 1"><polygon class="cls-1" points="55.77 189.84 0.09 157.89 0.04 138.67 55.73 170.63 55.77 189.84"/><polygon class="cls-2" points="111.25 138.38 55.73 170.63 0.39 138.87 55.91 106.62 111.25 138.38"/><polygon class="cls-3" points="111.3 157.6 55.77 189.84 55.73 170.63 111.25 138.38 111.3 157.6"/><path class="cls-4" d="M17.51,158.87c0,.08-.06.1-.13.06L15,157.55a2.71,2.71,0,0,0,1.15,2c.43.25.76.24,1,0a.08.08,0,0,1,.1,0,.26.26,0,0,1,.12.21.1.1,0,0,1,0,.06c-.24.35-.73.31-1.21,0a3.22,3.22,0,0,1-1.4-2.54c0-.9.58-1.4,1.4-.93a3.24,3.24,0,0,1,1.41,2.54m-.26-.29a2.69,2.69,0,0,0-1.15-2c-.63-.36-1.08,0-1.14.66Z"/><path class="cls-4" d="M20.45,158.9a.28.28,0,0,1,.12.21c0,.08-.05.11-.12.07l-.65-.37v2.93a.07.07,0,0,1-.12.07.28.28,0,0,1-.12-.21v-2.93l-.63-.36a.26.26,0,0,1-.12-.21.07.07,0,0,1,.12-.07l.63.36v-1.08c0-.08.05-.11.12-.07a.26.26,0,0,1,.12.21v1.08Z"/><path class="cls-4" d="M24.43,162.6v1.77c0,.08-.06.1-.12.07a.26.26,0,0,1-.12-.21v-1.77a2,2,0,0,0-.88-1.7c-.75-.43-1.07.13-1,.93,0,0,0,.11,0,.12v1.33c0,.08-.05.11-.12.07a.26.26,0,0,1-.12-.21l0-5.83a.07.07,0,0,1,.12-.07.28.28,0,0,1,.12.21v3.3a.7.7,0,0,1,1-.13,2.57,2.57,0,0,1,1.13,2.12"/><path class="cls-4" d="M28.79,165.34c0,.08-.06.1-.13.06L26.23,164a2.71,2.71,0,0,0,1.15,2c.43.25.76.24,1,0a.08.08,0,0,1,.1,0,.26.26,0,0,1,.12.21.1.1,0,0,1,0,.06c-.24.35-.73.31-1.21,0a3.22,3.22,0,0,1-1.4-2.54c0-.9.58-1.4,1.4-.93a3.24,3.24,0,0,1,1.41,2.54m-.26-.29a2.69,2.69,0,0,0-1.15-2c-.63-.36-1.08,0-1.14.66Z"/><path class="cls-4" d="M31.76,165.52c0,.09,0,.11-.11.08-.71-.29-1,.19-1,1v1.33c0,.08-.05.11-.12.07a.26.26,0,0,1-.12-.21v-3c0-.08.05-.11.12-.07a.26.26,0,0,1,.12.21v.62a.75.75,0,0,1,1-.17.27.27,0,0,1,.13.2"/><path class="cls-4" d="M35.76,169.35c0,.08-.06.1-.13.06L33.2,168a2.71,2.71,0,0,0,1.15,2c.43.25.76.24,1,0a.08.08,0,0,1,.1,0,.26.26,0,0,1,.12.21.1.1,0,0,1,0,.06c-.24.35-.73.31-1.21,0a3.22,3.22,0,0,1-1.4-2.54c0-.9.58-1.4,1.4-.93a3.24,3.24,0,0,1,1.41,2.54m-.26-.29a2.69,2.69,0,0,0-1.15-2c-.63-.36-1.08,0-1.14.66Z"/><path class="cls-4" d="M39.68,170.09v3c0,.08-.06.1-.12.07a.26.26,0,0,1-.12-.21v-.58a.67.67,0,0,1-1,.21,2.56,2.56,0,0,1-1.13-2.12v-1.78a.07.07,0,0,1,.12-.07.28.28,0,0,1,.12.21v1.78a2,2,0,0,0,.88,1.7c.82.47,1-.3,1-1.26V170a.07.07,0,0,1,.12-.07.29.29,0,0,1,.12.21"/><path class="cls-4" d="M45.83,174.86v1.78c0,.08-.06.1-.12.07a.26.26,0,0,1-.12-.21v-1.78A2,2,0,0,0,44.7,173c-.73-.42-1,.32-1,1v1.37c0,.08-.06.1-.12.07a.26.26,0,0,1-.12-.21V173.5a2,2,0,0,0-.88-1.69c-.74-.42-1,.07-1,1,0,0,0,.06,0,.07v1.34c0,.08-.05.11-.12.07a.26.26,0,0,1-.12-.21v-3c0-.08.05-.11.12-.07a.26.26,0,0,1,.12.21v.51c.21-.31.58-.37,1-.12a2.41,2.41,0,0,1,1,1.48.7.7,0,0,1,1.09-.26,2.55,2.55,0,0,1,1.13,2.11"/><g class="cls-5"><polygon class="cls-4" points="9.34 151.84 6.3 151.68 9.35 155.49 12.38 155.17 9.34 151.84"/></g><g class="cls-6"><polygon class="cls-4" points="6.3 151.68 9.35 155.49 9.34 151.85 9.33 147.65 6.3 151.68"/></g><g class="cls-7"><polygon class="cls-4" points="9.33 147.65 9.34 151.85 9.35 155.49 12.38 155.17 9.33 147.65"/></g><g class="cls-6"><polygon class="cls-4" points="6.32 152.35 9.37 159 9.36 156.15 6.32 152.35"/></g><g class="cls-7"><polygon class="cls-4" points="9.36 156.15 9.37 159 12.4 155.84 9.36 156.15"/></g><path class="cls-4" d="M65.92,178l0-6.35,1.58-.91q.75-.44,1.14-.24t.38,1a2.27,2.27,0,0,1-.19.9,3.17,3.17,0,0,1-.52.83.55.55,0,0,1,.6.19,1.34,1.34,0,0,1,.23.85,3.17,3.17,0,0,1-.41,1.58A3.07,3.07,0,0,1,67.55,177Zm.69-4,.89-.52a1.54,1.54,0,0,0,.58-.62,1.8,1.8,0,0,0,.22-.87c0-.35-.07-.57-.2-.65s-.34,0-.62.12l-.88.51Zm0,.67v2.29l.95-.55a1.64,1.64,0,0,0,.63-.66,2.05,2.05,0,0,0,.23-1q0-1.15-.85-.66Z"/><path class="cls-4" d="M70.86,174.43,73,173.17v.69l-2.87,1.66,0-6.35.7-.41Z"/><path class="cls-4" d="M77.2,168.81a5.11,5.11,0,0,1-.48,2.28,3.41,3.41,0,0,1-1.37,1.5q-.86.5-1.35.1a2.09,2.09,0,0,1-.52-1.63v-1.2a5.11,5.11,0,0,1,.48-2.28,3.43,3.43,0,0,1,1.37-1.52q.87-.51,1.36-.1a2.21,2.21,0,0,1,.5,1.68Zm-.7-.71a2.15,2.15,0,0,0-.29-1.33q-.29-.32-.88,0a2.08,2.08,0,0,0-.87,1,4.08,4.08,0,0,0-.29,1.64v1.14a2.09,2.09,0,0,0,.3,1.31q.3.34.88,0a2.06,2.06,0,0,0,.86-1,4.1,4.1,0,0,0,.29-1.61Z"/><path class="cls-4" d="M81.74,166.77a4.07,4.07,0,0,1-.5,1.85A3.38,3.38,0,0,1,80,169.91q-.83.48-1.32,0a2.24,2.24,0,0,1-.5-1.68v-1.15a5,5,0,0,1,.5-2.25A3.49,3.49,0,0,1,80,163.34q.8-.46,1.24-.17a1.57,1.57,0,0,1,.48,1.3l-.7.41a1.37,1.37,0,0,0-.29-.94q-.24-.19-.73.09a2.11,2.11,0,0,0-.87,1,4.09,4.09,0,0,0-.3,1.67v1.17a2.21,2.21,0,0,0,.29,1.31c.19.23.47.25.83,0a2,2,0,0,0,.78-.76,3.27,3.27,0,0,0,.29-1.29Z"/><path class="cls-4" d="M83.92,164.59l-.54,1.07v2.17l-.69.4,0-6.35.69-.4v3.07l.45-1,1.48-3.24.83-.49-1.79,3.84,1.95,2.43-.83.48Z"/><path class="cls-4" d="M90.27,161.81a4.09,4.09,0,0,1-.5,1.85A3.38,3.38,0,0,1,88.49,165c-.55.32-1,.33-1.32,0a2.24,2.24,0,0,1-.5-1.69v-1.15a5,5,0,0,1,.5-2.25,3.49,3.49,0,0,1,1.37-1.52c.53-.31.95-.37,1.24-.17a1.58,1.58,0,0,1,.48,1.3l-.7.41a1.37,1.37,0,0,0-.29-.94q-.24-.19-.73.09a2.11,2.11,0,0,0-.87,1,4.1,4.1,0,0,0-.3,1.67v1.17a2.21,2.21,0,0,0,.29,1.31c.19.23.47.25.83,0a2,2,0,0,0,.78-.76,3.28,3.28,0,0,0,.29-1.29Z"/><path class="cls-4" d="M94.83,161.19l-.7.41v-2.94l-2.23,1.29v2.94l-.69.4,0-6.35.69-.4v2.73L94.12,158v-2.73l.7-.41Z"/><path class="cls-4" d="M98.68,157.29l-1.87,1.08-.43,1.91-.71.41,1.76-7.39L98,153l1.8,5.32-.71.41Zm-1.69.29,1.51-.87-.76-2.45Z"/><path class="cls-4" d="M101.31,157.42l-.69.4,0-6.35.69-.4Z"/><path class="cls-4" d="M106.14,154.62l-.7.41-2.23-3.61v4.89l-.7.41,0-6.35.7-.41,2.23,3.63v-4.92l.69-.4Z"/><polygon class="cls-8" points="64.3 114.46 55.78 119.4 47.3 114.53 55.81 109.59 64.3 114.46"/><polygon class="cls-8" points="74.01 120.03 65.5 124.97 57.01 120.11 65.53 115.16 74.01 120.03"/><polygon class="cls-8" points="83.8 125.62 75.29 130.57 66.8 125.7 75.32 120.75 83.8 125.62"/><polygon class="cls-8" points="93.52 131.22 85 136.16 76.52 131.29 85.03 126.35 93.52 131.22"/><polygon class="cls-8" points="103.34 136.79 94.83 141.73 86.34 136.86 94.86 131.92 103.34 136.79"/><polygon class="cls-8" points="54.51 120.15 46 125.1 37.51 120.23 46.02 115.28 54.51 120.15"/><polygon class="cls-8" points="64.22 125.73 55.71 130.67 47.23 125.8 55.74 120.86 64.22 125.73"/><polygon class="cls-8" points="74.01 131.32 65.5 136.26 57.01 131.39 65.53 126.45 74.01 131.32"/><polygon class="cls-8" points="83.73 136.91 75.21 141.86 66.73 136.99 75.24 132.04 83.73 136.91"/><polygon class="cls-8" points="93.55 142.48 85.04 147.43 76.55 142.56 85.07 137.61 93.55 142.48"/><polygon class="cls-8" points="44.57 125.67 36.06 130.62 27.57 125.75 36.09 120.81 44.57 125.67"/><polygon class="cls-8" points="54.29 131.25 45.77 136.19 37.29 131.32 45.8 126.38 54.29 131.25"/><polygon class="cls-8" points="64.07 136.84 55.56 141.78 47.08 136.91 55.59 131.97 64.07 136.84"/><polygon class="cls-8" points="73.79 142.43 65.28 147.38 56.79 142.51 65.3 137.56 73.79 142.43"/><polygon class="cls-8" points="83.61 148 75.1 152.95 66.62 148.08 75.13 143.13 83.61 148"/><polygon class="cls-8" points="34.63 131.34 26.12 136.29 17.64 131.42 26.15 126.48 34.63 131.34"/><polygon class="cls-8" points="44.35 136.92 35.84 141.86 27.35 136.99 35.86 132.05 44.35 136.92"/><polygon class="cls-8" points="54.14 142.51 45.62 147.45 37.14 142.58 45.65 137.64 54.14 142.51"/><polygon class="cls-8" points="63.85 148.1 55.34 153.05 46.85 148.18 55.37 143.23 63.85 148.1"/><polygon class="cls-8" points="73.68 153.67 65.16 158.62 56.68 153.75 65.19 148.8 73.68 153.67"/><polygon class="cls-8" points="25.14 136.72 16.63 141.66 8.14 136.79 16.66 131.85 25.14 136.72"/><polygon class="cls-8" points="34.86 142.29 26.34 147.23 17.86 142.36 26.37 137.42 34.86 142.29"/><polygon class="cls-8" points="44.64 147.88 36.13 152.83 27.65 147.96 36.16 143.01 44.64 147.88"/><polygon class="cls-8" points="54.36 153.48 45.85 158.42 37.36 153.55 45.87 148.61 54.36 153.48"/><polygon class="cls-8" points="64.18 159.04 55.67 163.99 47.19 159.12 55.7 154.18 64.18 159.04"/><polygon class="cls-9" points="55.86 115.77 47.33 110.85 47.33 101 55.86 105.92 55.86 115.77"/><polygon class="cls-10" points="64.39 101 55.86 105.92 47.39 101.03 55.91 96.11 64.39 101"/><polygon class="cls-11" points="64.39 110.85 55.86 115.77 55.86 105.92 64.39 101 64.39 110.85"/><polygon class="cls-12" points="65.56 121.37 57.03 116.45 57.03 106.6 65.56 111.52 65.56 121.37"/><polygon class="cls-13" points="74.09 106.6 65.56 111.52 57.09 106.63 65.61 101.71 74.09 106.6"/><polygon class="cls-14" points="74.09 116.45 65.56 121.37 65.56 111.52 74.09 106.6 74.09 116.45"/><polygon class="cls-15" points="75.33 126.99 66.81 122.06 66.81 112.22 75.33 117.14 75.33 126.99"/><polygon class="cls-16" points="83.86 112.22 75.33 117.14 66.86 112.25 75.39 107.33 83.86 112.22"/><polygon class="cls-17" points="83.86 122.06 75.33 126.99 75.33 117.14 83.86 112.22 83.86 122.06"/><polygon class="cls-18" points="85.03 132.61 76.51 127.68 76.51 117.84 85.03 122.76 85.03 132.61"/><polygon class="cls-19" points="93.56 117.84 85.03 122.76 76.56 117.87 85.09 112.94 93.56 117.84"/><polygon class="cls-20" points="93.56 127.68 85.03 132.61 85.03 122.76 93.56 117.84 93.56 127.68"/><polygon class="cls-21" points="94.84 138.2 86.32 133.28 86.32 123.43 94.84 128.35 94.84 138.2"/><polygon class="cls-22" points="103.37 123.43 94.84 128.35 86.37 123.46 94.9 118.54 103.37 123.43"/><polygon class="cls-23" points="103.37 133.28 94.84 138.2 94.84 128.35 103.37 123.43 103.37 133.28"/><polygon class="cls-24" points="46.06 121.44 37.53 116.52 37.53 106.67 46.06 111.59 46.06 121.44"/><polygon class="cls-25" points="54.58 106.67 46.06 111.59 37.58 106.7 46.11 101.78 54.58 106.67"/><polygon class="cls-26" points="54.58 116.52 46.06 121.44 46.06 111.59 54.58 106.67 54.58 116.52"/><polygon class="cls-27" points="55.76 127.04 47.23 122.12 47.23 112.27 55.76 117.19 55.76 127.04"/><polygon class="cls-28" points="64.28 112.27 55.76 117.19 47.28 112.3 55.81 107.38 64.28 112.27"/><polygon class="cls-29" points="64.28 122.12 55.76 127.04 55.76 117.19 64.28 112.27 64.28 122.12"/><polygon class="cls-30" points="65.53 132.66 57.01 127.73 57.01 117.89 65.53 122.81 65.53 132.66"/><polygon class="cls-31" points="74.06 117.89 65.53 122.81 57.06 117.92 65.58 113 74.06 117.89"/><polygon class="cls-32" points="74.06 127.73 65.53 132.66 65.53 122.81 74.06 117.89 74.06 127.73"/><polygon class="cls-33" points="75.23 138.28 66.7 133.35 66.7 123.51 75.23 128.43 75.23 138.28"/><polygon class="cls-34" points="83.76 123.51 75.23 128.43 66.76 123.54 75.28 118.61 83.76 123.51"/><polygon class="cls-35" points="83.76 133.35 75.23 138.28 75.23 128.43 83.76 123.51 83.76 133.35"/><polygon class="cls-36" points="85.04 143.87 76.52 138.95 76.52 129.1 85.04 134.02 85.04 143.87"/><polygon class="cls-37" points="93.57 129.1 85.04 134.02 76.57 129.13 85.09 124.21 93.57 129.1"/><polygon class="cls-38" points="93.57 138.95 85.04 143.87 85.04 134.02 93.57 129.1 93.57 138.95"/><polygon class="cls-39" points="36.1 126.94 27.58 122.01 27.58 112.17 36.1 117.09 36.1 126.94"/><polygon class="cls-40" points="44.63 112.17 36.1 117.09 27.63 112.2 36.16 107.28 44.63 112.17"/><polygon class="cls-41" points="44.63 122.01 36.1 126.94 36.1 117.09 44.63 112.17 44.63 122.01"/><polygon class="cls-42" points="45.8 132.53 37.28 127.61 37.28 117.77 45.8 122.69 45.8 132.53"/><polygon class="cls-43" points="54.33 117.77 45.8 122.69 37.33 117.8 45.86 112.87 54.33 117.77"/><polygon class="cls-44" points="54.33 127.61 45.8 132.53 45.8 122.69 54.33 117.77 54.33 127.61"/><polygon class="cls-45" points="55.58 138.15 47.05 133.23 47.05 123.38 55.58 128.31 55.58 138.15"/><polygon class="cls-46" points="64.1 123.38 55.58 128.31 47.11 123.41 55.63 118.49 64.1 123.38"/><polygon class="cls-47" points="64.1 133.23 55.58 138.15 55.58 128.31 64.1 123.38 64.1 133.23"/><polygon class="cls-48" points="65.28 143.77 56.75 138.85 56.75 129 65.28 133.92 65.28 143.77"/><polygon class="cls-49" points="73.8 129 65.28 133.92 56.81 129.03 65.33 124.11 73.8 129"/><polygon class="cls-50" points="73.8 138.85 65.28 143.77 65.28 133.92 73.8 129 73.8 138.85"/><polygon class="cls-51" points="75.09 149.37 66.56 144.44 66.56 134.6 75.09 139.52 75.09 149.37"/><polygon class="cls-52" points="83.61 134.6 75.09 139.52 66.62 134.63 75.14 129.71 83.61 134.6"/><polygon class="cls-53" points="83.61 144.44 75.09 149.37 75.09 139.52 83.61 134.6 83.61 144.44"/><polygon class="cls-54" points="26.44 132.39 17.92 127.47 17.92 117.62 26.44 122.54 26.44 132.39"/><polygon class="cls-55" points="34.97 117.62 26.44 122.54 17.97 117.65 26.5 112.73 34.97 117.62"/><polygon class="cls-56" points="34.97 127.47 26.44 132.39 26.44 122.54 34.97 117.62 34.97 127.47"/><polygon class="cls-57" points="36.14 137.98 27.62 133.06 27.62 123.22 36.14 128.14 36.14 137.98"/><polygon class="cls-58" points="44.67 123.22 36.14 128.14 27.67 123.25 36.2 118.32 44.67 123.22"/><polygon class="cls-59" points="44.67 133.06 36.14 137.98 36.14 128.14 44.67 123.22 44.67 133.06"/><polygon class="cls-60" points="45.92 143.6 37.39 138.68 37.39 128.83 45.92 133.75 45.92 143.6"/><polygon class="cls-61" points="54.44 128.83 45.92 133.75 37.45 128.86 45.97 123.94 54.44 128.83"/><polygon class="cls-62" points="54.44 138.68 45.92 143.6 45.92 133.75 54.44 128.83 54.44 138.68"/><polygon class="cls-63" points="55.62 149.22 47.09 144.3 47.09 134.45 55.62 139.38 55.62 149.22"/><polygon class="cls-64" points="64.14 134.45 55.62 139.38 47.14 134.48 55.67 129.56 64.14 134.45"/><polygon class="cls-65" points="64.14 144.3 55.62 149.22 55.62 139.38 64.14 134.45 64.14 144.3"/><polygon class="cls-66" points="65.43 154.82 56.9 149.89 56.9 140.05 65.43 144.97 65.43 154.82"/><polygon class="cls-67" points="73.95 140.05 65.43 144.97 56.96 140.08 65.48 135.16 73.95 140.05"/><polygon class="cls-68" points="73.95 149.89 65.43 154.82 65.43 144.97 73.95 140.05 73.95 149.89"/><polygon class="cls-69" points="16.65 137.93 8.12 133.01 8.12 123.16 16.65 128.08 16.65 137.93"/><polygon class="cls-70" points="25.17 123.16 16.65 128.08 8.17 123.19 16.7 118.27 25.17 123.16"/><polygon class="cls-71" points="25.17 133.01 16.65 137.93 16.65 128.08 25.17 123.16 25.17 133.01"/><polygon class="cls-72" points="26.35 143.53 17.82 138.6 17.82 128.76 26.35 133.68 26.35 143.53"/><polygon class="cls-73" points="34.87 128.76 26.35 133.68 17.87 128.79 26.4 123.86 34.87 128.76"/><polygon class="cls-74" points="34.87 138.6 26.35 143.53 26.35 133.68 34.87 128.76 34.87 138.6"/><polygon class="cls-75" points="36.12 149.14 27.59 144.22 27.59 134.37 36.12 139.3 36.12 149.14"/><polygon class="cls-76" points="44.65 134.37 36.12 139.3 27.65 134.41 36.17 129.48 44.65 134.37"/><polygon class="cls-77" points="44.65 144.22 36.12 149.14 36.12 139.3 44.65 134.37 44.65 144.22"/><polygon class="cls-78" points="45.82 154.76 37.29 149.84 37.29 139.99 45.82 144.92 45.82 154.76"/><polygon class="cls-79" points="54.34 139.99 45.82 144.92 37.35 140.02 45.87 135.1 54.34 139.99"/><polygon class="cls-80" points="54.34 149.84 45.82 154.76 45.82 144.92 54.34 139.99 54.34 149.84"/><polygon class="cls-81" points="55.63 160.36 47.1 155.44 47.1 145.59 55.63 150.51 55.63 160.36"/><polygon class="cls-82" points="64.16 145.59 55.63 150.51 47.16 145.62 55.68 140.7 64.16 145.59"/><polygon class="cls-83" points="64.16 155.44 55.63 160.36 55.63 150.51 64.16 145.59 64.16 155.44"/><polygon class="cls-84" points="111.33 112.93 55.67 145.07 0.35 113.13 56.02 80.99 111.33 112.93"/><polygon class="cls-85" points="55.67 39.77 111.33 71.91 111.33 113.13 55.67 80.99 55.67 39.77"/><polygon class="cls-86" points="0 71.91 55.67 39.77 56.02 80.99 0.35 113.13 0 71.91"/><polygon class="cls-87" points="55.67 145.07 0 112.93 0 71.71 55.67 103.84 55.67 145.07"/><polygon class="cls-88" points="111.33 112.93 55.67 145.07 55.67 103.84 111.33 71.71 111.33 112.93"/><polygon class="cls-89" points="55.67 145.07 0 112.93 0 71.71 55.67 103.84 55.67 145.07"/><polygon class="cls-90" points="111.33 71.71 55.67 103.84 0.35 71.91 56.02 39.77 111.33 71.71"/><polygon class="cls-91" points="111.33 112.93 55.67 145.07 55.67 103.84 111.33 71.71 111.33 112.93"/><polygon class="cls-92" points="55.67 90.1 0.06 57.99 0.06 31.9 55.67 64.01 55.67 90.1"/><polygon class="cls-93" points="111.27 31.9 55.67 64.01 0.41 32.1 56.01 0 111.27 31.9"/><polygon class="cls-94" points="111.27 57.99 55.67 90.1 55.67 64.01 111.27 31.9 111.27 57.99"/><path class="cls-4" d="M13.75,53.09l-2-1.13V54.2l2.28,1.32v.68l-3-1.72V48.17L14,49.86v.68l-2.24-1.29v2l2,1.13Z"/><path class="cls-4" d="M16.52,53.72l1-1.82.82.47-1.44,2.3,1.47,4-.83-.48-1.06-3.08L15.45,57l-.82-.48,1.48-2.33-1.45-4,.81.47Z"/><path class="cls-4" d="M22.63,59.13q0,1-.5,1.27t-1.28-.2a3.34,3.34,0,0,1-1.32-1.49A5,5,0,0,1,19,56.47V55.32a2.12,2.12,0,0,1,.5-1.66q.5-.42,1.38.08A3.23,3.23,0,0,1,22.15,55a4.09,4.09,0,0,1,.48,1.84l-.7-.41a3.24,3.24,0,0,0-.29-1.27,1.82,1.82,0,0,0-.73-.75q-.57-.33-.87,0a2,2,0,0,0-.3,1.3v1.16A4.22,4.22,0,0,0,20,58.52a2,2,0,0,0,.83,1q.54.31.78.14t.3-.93Z"/><path class="cls-4" d="M27.2,63.77l-.7-.4V60.45l-2.23-1.29v2.92l-.7-.4V55.37l.7.4v2.71l2.23,1.29V57.06l.7.4Z"/><path class="cls-4" d="M31.05,64.35l-1.87-1.08-.43,1.4L28,64.26,29.82,59l.6.34,1.79,7.35-.71-.41Zm-1.69-1.66,1.51.87-.76-3.31Z"/><path class="cls-4" d="M36.57,69.19l-.7-.4-2.22-6.15V67.5l-.7-.4V60.79l.7.4,2.23,6.17V62.48l.69.4Z"/><path class="cls-4" d="M41.24,71.1l-.12.1q-.53.39-1.54-.19a3.62,3.62,0,0,1-1.41-1.49,4.81,4.81,0,0,1-.52-2.22V66.06a2.28,2.28,0,0,1,.46-1.72q.47-.39,1.39.14a3.36,3.36,0,0,1,1.24,1.22,3.69,3.69,0,0,1,.49,1.72l-.7-.4a2.75,2.75,0,0,0-.29-1.09,1.86,1.86,0,0,0-.74-.76q-.6-.34-.87-.06a2,2,0,0,0-.29,1.25v1.29a3.9,3.9,0,0,0,.32,1.65,2.23,2.23,0,0,0,.92,1q.56.33.86.18l.1,0V69l-1-.58v-.68l1.71,1Z"/><path class="cls-4" d="M45,71.15l-2-1.13v2.24l2.28,1.32v.68l-3-1.72V66.23l2.94,1.7v.68l-2.24-1.3v2l2,1.13Z"/><path class="cls-4" d="M75,66.67a4.37,4.37,0,0,1,.36-1.85,2.49,2.49,0,0,1,1-1.15q.59-.34.92,0V61.27l.67-.39V67.5l-.62.36,0-.48a2.28,2.28,0,0,1-.95,1.13q-.64.37-1,0A2,2,0,0,1,75,67.15Zm.67,0a1.76,1.76,0,0,0,.21,1q.21.25.67,0a1.76,1.76,0,0,0,.75-1V64.38q-.26-.41-.75-.13a1.55,1.55,0,0,0-.67.75,3.28,3.28,0,0,0-.21,1.25Z"/><path class="cls-4" d="M81.7,63.72,79.83,64.8l-.43,1.89-.71.41,1.78-7.3.6-.34,1.79,5.24-.71.41ZM80,64l1.51-.87-.76-2.42Z"/><path class="cls-4" d="M84.3,61.4v2.46l-.7.4V58l1.76-1q.77-.45,1.21-.18A1.24,1.24,0,0,1,87,57.93a3.22,3.22,0,0,1-.42,1.64,3.29,3.29,0,0,1-1.18,1.19Zm0-.68,1.07-.62a1.84,1.84,0,0,0,.71-.73,2.16,2.16,0,0,0,.25-1,.91.91,0,0,0-.25-.76q-.25-.19-.7.06l-1.07.62Z"/><path class="cls-4" d="M88.62,58.91v2.46l-.7.4V55.49l1.76-1q.77-.45,1.21-.18a1.24,1.24,0,0,1,.44,1.14,3.22,3.22,0,0,1-.42,1.64,3.28,3.28,0,0,1-1.18,1.19Zm0-.68,1.07-.62a1.83,1.83,0,0,0,.71-.73,2.16,2.16,0,0,0,.25-1,.91.91,0,0,0-.25-.76q-.25-.19-.7.06l-1.07.62Z"/><path class="cls-4" d="M94.66,56.29c0-.31-.08-.51-.23-.59a1.39,1.39,0,0,0-.81,0,2.23,2.23,0,0,1-.9,0,.75.75,0,0,1-.46-.33,1.27,1.27,0,0,1-.15-.68,2.87,2.87,0,0,1,.44-1.48,3.17,3.17,0,0,1,1.15-1.15,1.56,1.56,0,0,1,.87-.25.72.72,0,0,1,.58.35,1.54,1.54,0,0,1,.21.85l-.7.4a.9.9,0,0,0-.25-.76q-.25-.18-.71.09a1.73,1.73,0,0,0-.88,1.53.52.52,0,0,0,.25.52,1.33,1.33,0,0,0,.78,0,1.56,1.56,0,0,1,1.17.08,1.11,1.11,0,0,1,.35,1,2.77,2.77,0,0,1-.44,1.47,3.3,3.3,0,0,1-1.19,1.15,1.77,1.77,0,0,1-.89.28.77.77,0,0,1-.64-.3,1.36,1.36,0,0,1-.23-.86l.7-.4c0,.39.1.63.29.74a.81.81,0,0,0,.78-.13,1.83,1.83,0,0,0,.69-.67A1.69,1.69,0,0,0,94.66,56.29Z"/><path class="cls-4" d="M70.44,28.66q.06-2.68-4.16-5.11-3.3-1.9-6.63-3.67l-10,5.8-4.07-2.35-3.25,1.88,4.07,2.35-10,5.76q3.09,2,6.1,3.76a17.77,17.77,0,0,0,9,2.54,17.35,17.35,0,0,0,8.81-2.45L66,33.89Q70.38,31.34,70.44,28.66ZM57,35.59a11.72,11.72,0,0,1-6.08,1.65A11.88,11.88,0,0,1,45,35.62q-1.21-.7-3.09-2l7.44-4.29,3.93,2.27,3.25-1.88-3.93-2.27L60.23,23q2.27,1.23,3.37,1.86,2.84,1.64,2.78,3.47T63.15,32Z"/><path class="cls-95" d="M68.31,119.81V122l-1.12.65,0-6.35,1.88-1.09a1.27,1.27,0,0,1,1.31-.17,1.35,1.35,0,0,1,.49,1.23,3.4,3.4,0,0,1-.48,1.76,3.62,3.62,0,0,1-1.34,1.32Zm0-1.07.77-.45a1.25,1.25,0,0,0,.49-.53,1.72,1.72,0,0,0,.17-.8.92.92,0,0,0-.18-.65c-.12-.12-.28-.12-.48,0l-.78.45Z"/><path class="cls-95" d="M73.29,116.83l-.55.32v2.32l-1.12.65,0-6.35,1.78-1q.84-.49,1.3-.25c.31.16.46.54.46,1.15a3.4,3.4,0,0,1-.8,2.24l1,2V118l-1.2.7Zm-.56-.75.63-.37a1.23,1.23,0,0,0,.5-.55,1.82,1.82,0,0,0,.17-.78c0-.64-.22-.83-.65-.58l-.65.38Z"/><path class="cls-95" d="M79.81,112.75a4.89,4.89,0,0,1-.52,2.29,3.73,3.73,0,0,1-1.46,1.55q-.93.54-1.46.15a2,2,0,0,1-.54-1.65V114a5.1,5.1,0,0,1,.52-2.35,3.72,3.72,0,0,1,1.46-1.59q.92-.54,1.46-.12a2.13,2.13,0,0,1,.54,1.71Zm-1.12-.41a2.16,2.16,0,0,0-.21-1.16c-.14-.2-.36-.21-.66,0a1.53,1.53,0,0,0-.66.79,3.76,3.76,0,0,0-.22,1.36v1.13a1.92,1.92,0,0,0,.22,1.1q.22.27.67,0a1.52,1.52,0,0,0,.65-.76,3.49,3.49,0,0,0,.21-1.32Z"/><path class="cls-95" d="M83.86,107.72l-1.37.79v5.28l-1.12.65v-5.28l-1.34.78v-1.07l3.83-2.23Z"/><path class="cls-95" d="M88.3,107.83a4.88,4.88,0,0,1-.52,2.29,3.75,3.75,0,0,1-1.46,1.55q-.93.54-1.46.15a2,2,0,0,1-.54-1.65v-1.09a5.1,5.1,0,0,1,.52-2.35,3.73,3.73,0,0,1,1.46-1.59q.92-.54,1.46-.12a2.13,2.13,0,0,1,.54,1.71Zm-1.12-.41a2.15,2.15,0,0,0-.21-1.16q-.21-.29-.66,0a1.54,1.54,0,0,0-.66.79,3.75,3.75,0,0,0-.22,1.36v1.13a1.91,1.91,0,0,0,.22,1.1q.22.27.67,0a1.54,1.54,0,0,0,.65-.76,3.5,3.5,0,0,0,.21-1.32Z"/><path class="cls-95" d="M92.85,105.67a4.12,4.12,0,0,1-.53,2A3.71,3.71,0,0,1,90.94,109q-.94.54-1.44.13a2.24,2.24,0,0,1-.5-1.73v-1.07A5,5,0,0,1,89.5,104a3.67,3.67,0,0,1,1.43-1.54q.9-.52,1.38-.22a1.68,1.68,0,0,1,.54,1.36l-1.12.65a1.33,1.33,0,0,0-.18-.82c-.11-.11-.31-.07-.61.1a1.43,1.43,0,0,0-.63.73,3.77,3.77,0,0,0-.19,1.3v1.2a2.38,2.38,0,0,0,.19,1.19c.12.16.33.16.63,0a1.47,1.47,0,0,0,.61-.6,2.55,2.55,0,0,0,.19-1Z"/><path class="cls-95" d="M97.43,102.52a4.88,4.88,0,0,1-.52,2.29,3.74,3.74,0,0,1-1.46,1.56q-.93.54-1.46.15a2,2,0,0,1-.54-1.65v-1.09a5.09,5.09,0,0,1,.52-2.35,3.71,3.71,0,0,1,1.46-1.59q.92-.54,1.46-.12a2.13,2.13,0,0,1,.54,1.71Zm-1.12-.41a2.15,2.15,0,0,0-.21-1.16q-.21-.3-.66,0a1.54,1.54,0,0,0-.66.79,3.77,3.77,0,0,0-.22,1.36v1.13a1.91,1.91,0,0,0,.22,1.1q.22.27.67,0a1.53,1.53,0,0,0,.65-.76,3.5,3.5,0,0,0,.21-1.32Z"/><path class="cls-95" d="M99.35,103l2-1.14v1.06l-3.08,1.79,0-6.35,1.12-.65Z"/><path class="cls-95" d="M15.35,99.8l1,5.17,1-4,1.46.84v6.31l-1.12-.65V105.8l.1-2.57-1.11,3.7-.76-.44-1.11-5,.1,2.69v1.71l-1.12-.65V99Z"/><path class="cls-95" d="M22.51,109,21,108.07l-.3,1.12-1.18-.68,1.73-5.31,1,.59L24,111.1l-1.19-.69Zm-1.28-1.8,1,.6-.52-2.55Z"/><path class="cls-95" d="M26.19,110.06l-.56-.32V112l-1.12-.65v-6.31l1.78,1a3.55,3.55,0,0,1,1.3,1.25,3.19,3.19,0,0,1,.46,1.68q0,1.26-.8,1.3l1,3.14v.06l-1.2-.69Zm-.56-1.38.63.37c.22.13.39.14.5,0a.78.78,0,0,0,.17-.58,1.4,1.4,0,0,0-.65-1.32l-.65-.38Z"/><path class="cls-95" d="M30.39,112.36l-.44.38v1.8l-1.12-.65v-6.31l1.12.65V111l.35-.48,1-1.48,1.37.79-1.59,1.86,1.61,4.47-1.33-.77Z"/><path class="cls-95" d="M36,115.3l-1.74-1V116l2.06,1.19v1.06l-3.18-1.84v-6.31l3.17,1.83V113l-2.05-1.19v1.49l1.74,1Z"/><path class="cls-95" d="M40.62,115.45l-1.37-.79v5.25l-1.12-.65V114l-1.35-.78v-1.06l3.84,2.22Z"/></g></g></svg>