<?xml version="1.0" encoding="UTF-8"?>
<svg width="200px" height="200px" viewBox="0 0 200 200" version="1.1" xmlns="http://www.w3.org/2000/svg" xmlns:xlink="http://www.w3.org/1999/xlink">
    <!-- Generator: Sketch 50.2 (55047) - http://www.bohemiancoding.com/sketch -->
    <title>compensation</title>
    <desc>Created with Sketch.</desc>
    <defs>
        <linearGradient x1="2.38315789%" y1="48.8113483%" x2="98.8276023%" y2="50.0172565%" id="linearGradient-1">
            <stop stop-color="#83858A" offset="0%"></stop>
            <stop stop-color="#000000" offset="100%"></stop>
        </linearGradient>
        <linearGradient x1="-2.54289849%" y1="-51.5469936%" x2="98.0359727%" y2="-51.5469936%" id="linearGradient-2">
            <stop stop-color="#83858A" offset="0%"></stop>
            <stop stop-color="#000000" offset="100%"></stop>
        </linearGradient>
        <linearGradient x1="-5.66479401%" y1="-78.8450292%" x2="90.8473783%" y2="-78.8450292%" id="linearGradient-3">
            <stop stop-color="#83858A" offset="0%"></stop>
            <stop stop-color="#000000" offset="100%"></stop>
        </linearGradient>
        <linearGradient x1="-3.29473394%" y1="-51.5703444%" x2="97.3049352%" y2="-51.5703444%" id="linearGradient-4">
            <stop stop-color="#83858A" offset="0%"></stop>
            <stop stop-color="#000000" offset="100%"></stop>
        </linearGradient>
    </defs>
    <g id="Page-1" stroke="none" stroke-width="1" fill="none" fill-rule="evenodd">
        <g id="market-jobs" transform="translate(-127.000000, -1118.000000)" fill-rule="nonzero">
            <g id="compensation" transform="translate(145.000000, 1145.000000)">
                <polygon id="Shape" fill="#00AD8C" points="0 110.717472 55.8884691 144.541822 164.794202 85.0109665 164.842866 82.779368 108.954397 48.9550186 0.0486644951 108.485874"></polygon>
                <polygon id="Shape" fill="#FFFFFF" points="56.1209772 135.642379 11.6362215 108.723048 108.770554 55.6282528 153.255309 82.5475836"></polygon>
                <path d="M0.0486644951,108.485874 L55.9371336,142.304833 L164.842866,82.7847584 L108.954397,48.9550186 L0.0486644951,108.485874 Z M142.79785,76.2355019 C139.499479,80.0087361 139.375114,84.5204461 142.462606,88.433829 L66.886645,129.761524 C59.9786575,127.784416 52.6728381,127.63764 45.6905537,129.335688 L22.066645,115.03513 C25.3650163,111.261896 25.4893811,106.750186 22.4018893,102.836803 L98.004886,61.5144981 C104.912873,63.4916061 112.218693,63.6383824 119.200977,61.9403346 L142.79785,76.2355019 Z" id="Shape" fill="#00E2C1"></path>
                <path d="M64.3939414,105.499628 C54.7367427,99.6565056 54.9908795,90.4983271 64.934658,85.0486989 C74.8784365,79.5990706 90.813355,79.9224907 100.470554,85.7656134 C110.127752,91.6087361 109.873616,100.766914 99.9298371,106.216543 C89.9860586,111.666171 74.0781759,111.348141 64.3939414,105.499628 Z" id="Shape" fill="#00E2C1"></path>
                <polygon id="Shape" fill="#00AD8C" points="0.0973289902 106.254275 55.985798 140.078625 164.918567 80.5531599 164.967231 78.3215613 109.051726 44.4972119 0.145993485 104.033457"></polygon>
                <polygon id="Shape" fill="#FFFFFF" points="56.2183062 131.184572 11.7389577 104.259851 108.867883 51.1650558 153.352638 78.089777"></polygon>
                <path d="M0.145993485,104.033457 L56.0344625,137.857807 L164.918567,78.3215613 L109.051726,44.4972119 L0.145993485,104.033457 Z M142.895179,71.7830855 C139.596808,75.5563197 139.472443,80.0680297 142.559935,83.9814126 L66.9893811,125.298327 C60.0813936,123.321219 52.7755743,123.174443 45.7932899,124.872491 L22.1693811,110.571933 C25.4677524,106.798699 25.5921173,102.286989 22.5046254,98.3736059 L98.1076221,57.0513011 C105.01561,59.028409 112.321429,59.1751853 119.303713,57.4771375 L142.895179,71.7830855 Z" id="Shape" fill="#00E2C1"></path>
                <path d="M64.4966775,101.041822 C54.8394788,95.1986989 55.0936156,86.0405204 65.0373941,80.5908922 C74.9811726,75.1412639 90.9377199,75.464684 100.57329,81.3078067 C110.20886,87.1509294 109.976352,96.3091078 100.032573,101.758736 C90.0887948,107.208364 74.1538762,106.884944 64.4966775,101.041822 Z" id="Shape" fill="#00E2C1"></path>
                <polygon id="Shape" fill="#00AD8C" points="0.19465798 101.796468 56.0885342 135.620818 164.994267 76.0953532 165.042932 73.8637546 109.154463 40.0340149 0.248729642 99.5648699"></polygon>
                <polygon id="Shape" fill="#FFFFFF" points="56.3210423 126.721375 11.8362866 99.8020446 108.970619 46.7072491 153.455375 73.6265799"></polygon>
                <path d="M0.248729642,99.5648699 L56.1371987,133.389219 L165.042932,73.8475836 L109.154463,40.0340149 L0.248729642,99.5648699 Z M142.997915,67.3144981 C139.699544,71.0877323 139.575179,75.5994424 142.662671,79.5128253 L67.0867101,120.84052 C60.1787226,118.863413 52.8729033,118.716636 45.8906189,120.414684 L22.2667101,106.114126 C25.5650814,102.340892 25.6894463,97.8291822 22.6019544,93.9157993 L98.199544,52.5881041 C105.107531,54.565212 112.413351,54.7119883 119.395635,53.0139405 L142.997915,67.3144981 Z" id="Shape" fill="#00E2C1"></path>
                <path d="M64.5940065,96.5840149 C54.9368078,90.7408922 55.1909446,81.5827138 65.1347231,76.1330855 C75.0785016,70.6834572 91.0134202,71.0068773 100.670619,76.85 C110.327818,82.6931227 110.073681,91.8513011 100.129902,97.3009294 C90.1861238,102.750558 74.2512052,102.416357 64.5940065,96.5840149 Z" id="Shape" fill="#00E2C1"></path>
                <polygon id="Shape" fill="#00AD8C" points="0.297394137 97.3386617 56.1858632 131.163011 165.091596 71.6321561 165.140261 69.4005576 109.224756 35.5762082 0.346058632 95.1070632"></polygon>
                <polygon id="Shape" fill="#FFFFFF" points="56.4183713 122.263569 11.9336156 95.3388476 109.067948 42.244052 153.552704 69.1687732"></polygon>
                <path d="M0.346058632,95.1070632 L56.2345277,128.931413 L165.140261,69.4005576 L109.224756,35.5762082 L0.346058632,95.1070632 Z M143.095244,62.8566914 C139.796873,66.6299257 139.672508,71.1416357 142.76,75.0550186 L67.1840391,116.377323 C60.2760516,114.400215 52.9702323,114.253439 45.9879479,115.951487 L22.3640391,101.650929 C25.6624104,97.8776952 25.7867752,93.3659851 22.6992834,89.4526022 L98.3022801,48.1302974 C105.210268,50.1074053 112.516087,50.2541816 119.498371,48.5561338 L143.095244,62.8566914 Z" id="Shape" fill="#00E2C1"></path>
                <path d="M64.6913355,92.1208178 C55.0341368,86.2776952 55.2882736,77.1195167 65.2320521,71.6698885 C75.1758306,66.2202602 91.1107492,66.5436803 100.767948,72.386803 C110.425147,78.2299257 110.17101,87.3881041 100.227231,92.8377323 C90.2834528,98.2873606 74.3485342,97.9639405 64.6913355,92.1208178 Z" id="Shape" fill="#00E2C1"></path>
                <polygon id="Shape" fill="#00AD8C" points="0.394723127 92.8754647 56.2831922 126.699814 165.188925 67.1743494 165.23759 64.9427509 109.349121 31.1184015 0.443387622 90.6438662"></polygon>
                <polygon id="Shape" fill="#FFFFFF" points="56.5157003 117.800372 12.0309446 90.8810409 109.165277 37.7862454 153.650033 64.7109665"></polygon>
                <path d="M0.443387622,90.6438662 L56.3318567,124.468216 L165.23759,64.9427509 L109.349121,31.1184015 L0.443387622,90.6438662 Z M143.192573,58.3934944 C139.894202,62.1667286 139.769837,66.6784387 142.857329,70.5918216 L67.2813681,111.919517 C60.3733806,109.942409 53.0675612,109.795632 46.0852769,111.49368 L22.4613681,97.1931227 C25.7597394,93.4198885 25.8841042,88.9081784 22.7966124,84.9947955 L98.4104235,43.66171 C105.318411,45.638818 112.62423,45.7855943 119.606515,44.0875465 L143.192573,58.3934944 Z" id="Shape" fill="#00E2C1"></path>
                <path d="M64.7886645,87.6630112 C55.1314658,81.8198885 55.3856026,72.66171 65.3293811,67.2120818 C75.2731596,61.7624535 91.2080782,62.0858736 100.865277,67.9289963 C110.522476,73.772119 110.268339,82.9302974 100.32456,88.3799257 C90.3807818,93.8295539 74.4458632,93.5061338 64.7886645,87.6630112 Z" id="Shape" fill="#00E2C1"></path>
                <polygon id="Shape" fill="#00AD8C" points="0.492052117 88.401487 56.3805212 122.225836 165.286254 62.7111524 165.334919 60.4795539 109.44645 26.6552045 0.540716612 86.1860595"></polygon>
                <polygon id="Shape" fill="#FFFFFF" points="56.6130293 113.342565 12.1282736 86.4178439 109.262606 33.3230483 153.747362 60.2477695"></polygon>
                <path d="M0.540716612,86.1860595 L56.4291857,120.010409 L165.334919,60.4795539 L109.44645,26.6552045 L0.540716612,86.1860595 Z M143.289902,53.9356877 C139.991531,57.7089219 139.867166,62.220632 142.954658,66.1340149 L67.3841042,107.45632 C60.4761168,105.479212 53.1702974,105.332435 46.188013,107.030483 L22.5586971,92.7137546 C25.8570684,88.9405204 25.9814332,84.4288104 22.8939414,80.5154275 L98.4969381,39.2092937 C105.404926,41.1864016 112.710745,41.3331779 119.693029,39.6351301 L143.289902,53.9356877 Z" id="Shape" fill="#00E2C1"></path>
                <path d="M64.8859935,83.1998141 C55.2287948,77.3566914 55.4829316,68.198513 65.4267101,62.7488848 C75.3704886,57.2992565 91.3054072,57.6226766 100.962606,63.4657993 C110.619805,69.3089219 110.365668,78.4671004 100.421889,83.9167286 C90.4781107,89.3663569 74.5485993,89.0483271 64.8859935,83.1998141 Z" id="Shape" fill="#00E2C1"></path>
                <polygon id="Shape" fill="url(#linearGradient-1)" points="99.0538762 120.948327 99.5945928 96.4169145 122.169511 84.0892193 121.628795 108.620632"></polygon>
                <polygon id="Shape" fill="url(#linearGradient-2)" points="43.7061238 62.5925651 99.5945928 96.4169145 122.169511 84.0892193 66.2810423 50.2486989"></polygon>
                <polygon id="Shape" fill="#A5B3C4" points="99.0538762 120.948327 99.5945928 96.4169145 104.509707 93.7217472 103.96899 118.25316"></polygon>
                <polygon id="Shape" fill="#A5B3C4" points="116.713681 111.294238 117.254397 86.7628253 122.169511 84.067658 121.628795 108.599071"></polygon>
                <polygon id="Shape" fill="#A5B3C4" points="43.7061238 62.5925651 99.5945928 96.4169145 104.509707 93.7217472 48.6212378 59.9027881"></polygon>
                <polygon id="Shape" fill="#A5B3C4" points="61.3659283 52.9384758 117.254397 86.7843866 122.169511 84.0892193 66.2810423 50.2486989"></polygon>
                <polygon id="Shape" fill="#00AD8C" points="0.589381107 84.0622677 56.4778502 117.886617 165.383583 58.3557621 165.432248 56.1241636 109.543779 22.2998141 0.638045603 81.8306691"></polygon>
                <polygon id="Shape" fill="#FFFFFF" points="56.7103583 108.987175 12.2256026 82.0678439 109.359935 28.967658 153.844691 55.8923792"></polygon>
                <path d="M0.638045603,81.8306691 L56.5265147,115.655019 L165.459283,56.1295539 L109.543779,22.2998141 L0.638045603,81.8306691 Z M143.414267,49.5910781 C140.115896,53.3643123 139.991531,57.8760223 143.079023,61.7894052 L67.4760261,103.100929 C60.5680386,101.123821 53.2622192,100.977045 46.2799349,102.675093 L22.6560261,88.401487 C25.9543974,84.6282528 26.0787622,80.1165428 22.9912704,76.2031599 L98.5942671,34.8539033 C105.502255,36.8310113 112.808074,36.9777876 119.790358,35.2797398 L143.414267,49.5910781 Z" id="Shape" fill="#00E2C1"></path>
                <path d="M64.9833225,78.8444238 C55.3261238,73.0013011 55.5802606,63.8431227 65.5240391,58.3934944 C75.4678176,52.9438662 91.4027362,53.2672862 101.059935,59.1104089 C110.717134,64.9535316 110.462997,74.11171 100.519218,79.5613383 C90.5754397,85.0109665 74.6188925,84.6929368 64.9833225,78.8444238 Z" id="Shape" fill="#00E2C1"></path>
                <polygon id="Shape" fill="#00AD8C" points="0.686710098 79.5990706 56.5751792 113.42342 165.459283 53.9033457 165.507948 51.6717472 109.641107 17.8420074 0.735374593 77.3728625"></polygon>
                <polygon id="Shape" fill="#FFFFFF" points="56.8076873 104.529368 12.3283388 77.6046468 109.457264 24.5098513 153.94202 51.4345725"></polygon>
                <path d="M0.735374593,77.3728625 L56.6238436,111.197212 L165.529577,51.6663569 L109.641107,17.8420074 L0.735374593,77.3728625 Z M143.48456,45.1224907 C140.186189,48.8957249 140.061824,53.4074349 143.149316,57.3208178 L67.5895765,98.6431227 C60.6815891,96.6660148 53.3757697,96.5192384 46.3934853,98.2172862 L22.7587622,83.9167286 C26.0571336,80.1434944 26.1814984,75.6317844 23.0940065,71.7184015 L98.6915961,30.3960967 C105.599584,32.3732046 112.905403,32.5199809 119.887687,30.8219331 L143.48456,45.1224907 Z" id="Shape" fill="#00E2C1"></path>
                <path d="M65.0860586,74.3866171 C55.4288599,68.5434944 55.6829967,59.385316 65.6267752,53.9356877 C75.5705537,48.4860595 91.5054723,48.8094796 101.162671,54.6526022 C110.81987,60.4957249 110.565733,69.6539033 100.621954,75.1035316 C90.6781759,80.5531599 74.7432573,80.2297398 65.0860586,74.3866171 Z" id="Shape" fill="#00E2C1"></path>
                <polygon id="Shape" fill="#00AD8C" points="0.784039088 75.1412639 56.6725081 108.965613 165.583648 49.4347584 165.632313 47.2031599 109.765472 13.3788104 0.838110749 72.9096654"></polygon>
                <polygon id="Shape" fill="#FFFFFF" points="56.9104235 100.066171 12.4256678 73.1468401 109.56 20.0520446 154.039349 46.9713755"></polygon>
                <path d="M0.838110749,72.9096654 L56.7265798,106.728625 L165.632313,47.2085502 L109.765472,13.3788104 L0.838110749,72.9096654 Z M143.587296,40.6592937 C140.288925,44.4325279 140.16456,48.9442379 143.252052,52.8576208 L67.6760912,94.185316 C60.7681037,92.2082081 53.4622844,92.0614318 46.48,93.7594796 L22.8560912,79.4589219 C26.1544625,75.6856877 26.2788274,71.1739777 23.1913355,67.2605948 L98.7889251,25.9328996 C105.696913,27.9100076 113.002732,28.0567839 119.985016,26.3587361 L143.587296,40.6592937 Z" id="Shape" fill="#00E2C1"></path>
                <path d="M65.1833876,69.9234201 C55.5261889,64.0802974 55.7803257,54.922119 65.7241042,49.4724907 C75.6678827,44.0228625 91.6028013,44.3462825 101.26,50.1894052 C110.917199,56.0325279 110.663062,65.1907063 100.719283,70.6403346 C90.7755049,76.0899628 74.8405863,75.7719331 65.1833876,69.9234201 Z" id="Shape" fill="#00E2C1"></path>
                <polygon id="Shape" fill="#00AD8C" points="0.886775244 70.6780669 56.7752443 104.507807 165.680977 44.9769517 165.729642 42.7453532 109.841173 8.92100372 0.935439739 68.4572491"></polygon>
                <polygon id="Shape" fill="#FFFFFF" points="57.0077524 95.6083643 12.5229967 68.6836431 109.657329 15.5888476 154.142085 42.5135688"></polygon>
                <path d="M0.935439739,68.4572491 L56.8239088,102.281599 L165.729642,42.7453532 L109.841173,8.92100372 L0.935439739,68.4572491 Z M143.684625,36.2068773 C140.386254,39.9801115 140.261889,44.4918216 143.349381,48.4052045 L67.7734202,89.722119 C60.8654327,87.745011 53.5596134,87.5982347 46.577329,89.2962825 L22.9534202,74.9957249 C26.2517915,71.2224907 26.3761564,66.7107807 23.2886645,62.7973978 L98.8916612,21.4750929 C105.799649,23.4522009 113.105468,23.5989772 120.087752,21.9009294 L143.684625,36.2068773 Z" id="Shape" fill="#00E2C1"></path>
                <path d="M65.2807166,65.4656134 C55.6235179,59.6224907 55.8776547,50.4643123 65.8214332,45.014684 C75.7652117,39.5650558 91.7271661,39.8884758 101.384365,45.7315985 C111.041564,51.5747212 110.787427,60.7328996 100.843648,66.1825279 C90.8998697,71.6321561 74.9379153,71.3087361 65.2807166,65.4656134 Z" id="Shape" fill="#00E2C1"></path>
                <polygon id="Shape" fill="#00AD8C" points="0.984104235 66.2202602 56.8725733 100.04461 165.778306 40.519145 165.826971 38.2875465 109.938502 4.45780669 1.03276873 63.9886617"></polygon>
                <polygon id="Shape" fill="#FFFFFF" points="57.1050814 91.1451673 12.6203257 64.2258364 109.754658 11.1310409 154.239414 38.0503717"></polygon>
                <path d="M1.03276873,63.9886617 L56.9212378,97.8130112 L165.826971,38.2713755 L109.938502,4.45780669 L1.03276873,63.9886617 Z M143.830619,31.73829 C140.532248,35.5115242 140.407883,40.0232342 143.495375,43.9366171 L67.8707492,85.2643123 C60.9627617,83.2872043 53.6569424,83.140428 46.674658,84.8384758 L23.0507492,70.5379182 C26.3491205,66.764684 26.4734853,62.252974 23.3859935,58.3395911 L98.9889902,17.0118959 C105.896978,18.9890038 113.202797,19.1357801 120.185081,17.4377323 L143.830619,31.73829 Z" id="Shape" fill="#00E2C1"></path>
                <path d="M65.3780456,61.0078067 C55.7208469,55.164684 55.9749837,46.0065056 65.9187622,40.5568773 C75.8625407,35.1072491 91.7974593,35.4306691 101.454658,41.2737918 C111.111857,47.1169145 110.85772,56.2750929 100.913941,61.7247212 C90.9701629,67.1743494 75.0352443,66.8401487 65.3780456,61.0078067 Z" id="Shape" fill="#00E2C1"></path>
                <polygon id="Shape" fill="#00AD8C" points="1.08143322 61.7624535 56.9699023 95.586803 165.875635 36.055948 165.9243 33.8243494 110.035831 0 1.13009772 59.530855"></polygon>
                <polygon id="Shape" fill="#FFFFFF" points="57.2078176 86.6873606 12.7176547 59.7626394 109.851987 6.66784387 154.336743 33.5925651"></polygon>
                <path d="M1.13009772,59.530855 L57.0185668,93.3552045 L165.9243,33.8243494 L110.035831,0 L1.13009772,59.530855 Z M143.879283,27.2804833 C140.580912,31.0537175 140.456547,35.5654275 143.544039,39.4788104 L67.9734853,80.8011152 C61.0654979,78.8240073 53.7596785,78.677231 46.7773941,80.3752788 L23.1480782,66.0747212 C26.4464495,62.301487 26.5708143,57.789777 23.4833225,53.8763941 L99.0863192,12.5540892 C105.994307,14.5311971 113.300126,14.6779735 120.28241,12.9799257 L143.879283,27.2804833 Z" id="Shape" fill="#00E2C1"></path>
                <path d="M65.4807818,56.5446097 C55.8235831,50.701487 56.0777199,41.5433086 66.0214984,36.0936803 C75.9652769,30.644052 91.9001954,30.9674721 101.557394,36.8105948 C111.214593,42.6537175 110.960456,51.8118959 101.016678,57.2615242 C91.072899,62.7111524 75.1596091,62.3877323 65.4807818,56.5446097 Z" id="Shape" fill="#00E2C1"></path>
                <polygon id="Shape" fill="url(#linearGradient-3)" points="99.6432573 94.2931227 100.183974 69.76171 122.742671 57.4232342 122.201954 81.9330855"></polygon>
                <polygon id="Shape" fill="url(#linearGradient-4)" points="44.2955049 35.9373606 100.183974 69.76171 122.742671 57.4232342 66.8704235 23.5934944"></polygon>
                <polygon id="Shape" fill="#A5B3C4" points="99.6432573 94.2931227 100.183974 69.76171 105.099088 67.0665428 104.558371 91.5979554"></polygon>
                <polygon id="Shape" fill="#A5B3C4" points="117.303062 84.6282528 117.843779 60.0968401 122.758893 57.4016729 122.201954 81.9330855"></polygon>
                <polygon id="Shape" fill="#A5B3C4" points="44.2955049 35.9373606 100.183974 69.76171 105.099088 67.0665428 49.2052117 33.2475836"></polygon>
                <polygon id="Shape" fill="#A5B3C4" points="61.9553094 26.2832714 117.843779 60.1076208 122.758893 57.4124535 66.8704235 23.5934944"></polygon>
            </g>
        </g>
    </g>
</svg>