<?xml version="1.0" encoding="UTF-8"?>
<svg width="200px" height="200px" viewBox="0 0 200 200" version="1.1" xmlns="http://www.w3.org/2000/svg" xmlns:xlink="http://www.w3.org/1999/xlink">
    <!-- Generator: Sketch 50.2 (55047) - http://www.bohemiancoding.com/sketch -->
    <title>flexible</title>
    <desc>Created with Sketch.</desc>
    <defs>
        <linearGradient x1="0%" y1="50.0033309%" x2="100.006135%" y2="50.0033309%" id="linearGradient-1">
            <stop stop-color="#00E2C1" offset="0%"></stop>
            <stop stop-color="#00AA8D" offset="100%"></stop>
        </linearGradient>
        <linearGradient x1="0%" y1="50%" x2="100%" y2="50%" id="linearGradient-2">
            <stop stop-color="#00FFE2" offset="0%"></stop>
            <stop stop-color="#00CDB3" offset="99%"></stop>
        </linearGradient>
        <linearGradient x1="0%" y1="50%" x2="100%" y2="50%" id="linearGradient-3">
            <stop stop-color="#ABFFF3" offset="0%"></stop>
            <stop stop-color="#00FFE2" offset="99%"></stop>
        </linearGradient>
    </defs>
    <g id="Page-1" stroke="none" stroke-width="1" fill="none" fill-rule="evenodd">
        <g id="market-jobs" transform="translate(-776.000000, -1118.000000)" fill-rule="nonzero">
            <g id="flexible" transform="translate(826.000000, 1132.000000)">
                <polygon id="Shape" fill="#D8D8D8" points="10.5028571 67.3241115 10.5028571 162.659233 103.645714 109.21 103.645714 13.874878"></polygon>
                <polygon id="Shape" fill="#EDEDED" points="0 156.633345 0 61.298223 10.5028571 67.3241115 10.5028571 162.659233"></polygon>
                <polygon id="Shape" fill="#FFFFFF" points="103.651429 13.874878 93.1485714 7.84898955 0 61.298223 10.5028571 67.3241115"></polygon>
                <polygon id="Shape" fill="url(#linearGradient-1)" points="10.5028571 67.3241115 10.5028571 99.1289895 103.645714 45.6797561 103.645714 13.874878"></polygon>
                <polygon id="Shape" fill="url(#linearGradient-2)" points="0 93.1087805 0 61.298223 10.5028571 67.3241115 10.5028571 99.134669"></polygon>
                <polygon id="Shape" fill="url(#linearGradient-3)" points="103.651429 13.874878 93.1485714 7.84898955 0 61.298223 10.5028571 67.3241115"></polygon>
                <path d="M28.1485714,33.1963415 C24.5714286,31.1290244 21.0342857,30.86777 18.2857143,32.4523345 C15.5371429,34.036899 14.0228571,37.1492334 14.0228571,41.2384321 C14.122011,44.8798504 15.0894867,48.4458589 16.8457143,51.6431707 L21.0057143,49.2578049 C19.6589312,46.789486 18.905905,44.0445778 18.8057143,41.2384321 C18.8057143,38.9666551 19.4857143,37.2628223 20.68,36.5699303 C21.8742857,35.8770383 23.7485714,36.1496516 25.7771429,37.3139373 C30.8571429,40.2274913 35.12,47.5710105 35.12,53.3583624 C35.12,55.6301394 34.44,57.3339721 33.2457143,58.0268641 C32.9331171,58.2026254 32.589981,58.3182335 32.2342857,58.3676307 C31.4186207,58.8652209 30.9310011,59.756624 30.9542857,60.707561 C30.9487488,61.683365 31.4276182,62.5991429 32.2342857,63.1554007 C33.440606,63.0919496 34.6150376,62.7476049 35.6628571,62.1501394 C38.4114286,60.5712544 39.9257143,57.4532404 39.9257143,53.3640418 C39.9028571,45.833101 34.7428571,36.9788502 28.1485714,33.1963415 Z" id="Shape" fill="#D8D8D8"></path>
                <path d="M81.9142857,2.33993031 C78.2857143,0.266933798 74.8,2.22044605e-16 72.0342857,1.5902439 C69.2685714,3.1804878 67.7714286,6.28714286 67.7714286,10.3763415 C67.8705824,14.0177598 68.8380582,17.5837683 70.5942857,20.7810801 L74.7542857,18.3957143 C73.4134734,15.9259471 72.6663365,13.1811181 72.5714286,10.3763415 C72.5714286,8.10456446 73.2514286,6.40073171 74.4457143,5.70783972 C75.64,5.01494774 77.5142857,5.28756098 79.5428571,6.45184669 C84.6171429,9.3654007 88.9028571,16.7089199 88.9028571,22.4905923 C88.9028571,24.7623693 88.2228571,26.4662021 87.0285714,27.1590941 C86.7159742,27.3348554 86.3728382,27.4504634 86.0171429,27.4998606 C85.2014778,27.9974509 84.7138582,28.888854 84.7371429,29.8397909 C84.731606,30.815595 85.2104754,31.7313728 86.0171429,32.2876307 C87.2234631,32.2241796 88.3978948,31.8798348 89.4457143,31.2823693 C92.1942857,29.7034843 93.7085714,26.5854704 93.7085714,22.4962718 C93.6685714,14.9710105 88.5085714,6.11675958 81.9142857,2.33993031 Z" id="Shape" fill="#D8D8D8"></path>
                <path d="M53.1428571,61.8036934 C53.1599052,63.2880338 52.7644331,64.7482544 52,66.0235192 C51.1912014,67.3463035 50.0512867,68.4381755 48.6914286,69.1926481 C47.3619048,69.9499071 46.3561905,70.1865505 45.6742857,69.9025784 C44.992381,69.6186063 44.6514286,68.884065 44.6514286,67.6989547 C44.6552801,67.3014904 44.687744,66.9048094 44.7485714,66.5119512 L47.4857143,64.3935192 C47.4388534,64.7837846 47.4121517,65.176181 47.4057143,65.5691638 C47.4057143,66.239338 47.5219048,66.6577236 47.7542857,66.8243206 C47.9866667,66.9909175 48.3428571,66.9360163 48.8228571,66.6596167 C49.3665426,66.3579514 49.7930027,65.8841082 50.0342857,65.3135889 C50.3044929,64.5875032 50.4268618,63.8152951 50.3942857,63.0418118 L50.3942857,55.9822648 L53.1428571,54.3977003 L53.1428571,61.8036934 Z" id="Shape" fill="#FFFFFF"></path>
                <path d="M64.6457143,54.9429268 C64.675202,56.5233868 64.2616876,58.080834 63.4514286,59.4410453 C62.5680189,60.8296794 61.3426967,61.9712923 59.8914286,62.7578397 C58.3257143,63.6589779 57.1428571,63.9126597 56.3428571,63.518885 C55.5428571,63.1251103 55.1428571,62.0838792 55.1428571,60.3951916 L55.1428571,53.2561324 L57.9314286,51.6829268 L57.9314286,58.873101 C57.9314286,59.7363763 58.0933333,60.2891754 58.4171429,60.5314983 C58.7409524,60.7738211 59.2342857,60.7037747 59.8971429,60.3213589 C61.2230231,59.5624831 61.997203,58.118369 61.8914286,56.601324 L61.8914286,49.4111498 L64.6457143,47.8322648 L64.6457143,54.9429268 Z" id="Shape" fill="#FFFFFF"></path>
                <polygon id="Shape" fill="#FFFFFF" points="76.4 53.1084669 73.3257143 54.8747735 70.0228571 50.2517073 69.2171429 48.8886411 69.2171429 48.8886411 69.28 51.1149826 69.28 57.1919861 66.8342857 58.5948084 66.8342857 46.5714286 69.9085714 44.805122 73.1942857 49.4111498 74 50.774216 74 50.774216 73.9371429 48.5478746 73.9371429 42.4651916 76.3828571 41.0623693"></polygon>
                <path d="M54.3257143,89.405784 L54.3257143,122.942892 L46.8571429,127.219512 L46.8571429,102.264042 C44.5714286,105.955679 42.24,108.715889 39.8628571,110.544669 L39.1428571,103.729338 C41.0436645,102.290243 42.7543012,100.61866 44.2342857,98.7541463 C45.7906283,96.9864093 47.110166,95.0258532 48.16,92.9213589 L54.3257143,89.405784 Z" id="Shape" fill="#0E2032"></path>
                <path d="M77.7485714,89.1672474 C79.047778,89.1835994 80.251956,89.8470857 80.9542857,90.933554 C81.7161905,92.0467247 82.0971429,93.5858537 82.0971429,95.5509408 C82.1053021,98.1323753 81.5862545,100.688603 80.5714286,103.064843 C79.575838,105.412747 78.1801282,107.572321 76.4457143,109.448537 C74.7362087,111.308691 72.7492019,112.896648 70.5542857,114.156794 C67.8647619,115.701603 65.5790476,116.489152 63.6971429,116.519443 C61.8152653,116.551673 60.0442304,115.637376 58.9885714,114.088641 L65.76,105.830732 C66.0571429,107.152149 66.5657143,107.977561 67.2857143,108.306969 C68.0057143,108.636376 69.112381,108.375122 70.6057143,107.523206 C71.9548594,106.770339 73.0954634,105.697177 73.9257143,104.399512 C74.732166,103.126596 75.1527338,101.649782 75.1371429,100.14561 C75.1066667,98.6310918 74.7257143,97.684518 73.9942857,97.3058885 C73.2628571,96.927259 72.1428571,97.1639024 70.6342857,98.0158188 C68.6409258,99.0909502 67.0050232,100.718851 65.9257143,102.701359 L60.0628571,105.069686 L61.9485714,85.0326132 L80.4228571,74.4290941 L80.4228571,81.2160279 L67.5542857,88.5993031 L66.8571429,95.2612892 C66.7657143,95.8898142 66.6914286,96.3384901 66.6342857,96.6073171 L66.68,96.6073171 C67.3515961,95.4251405 68.1971185,94.3493179 69.1885714,93.4154704 C70.2675622,92.3733942 71.4730475,91.4690696 72.7771429,90.7234146 C74.7009524,89.6102439 76.3580952,89.0915215 77.7485714,89.1672474 Z" id="Shape" fill="#0E2032"></path>
            </g>
        </g>
    </g>
</svg>