<?xml version="1.0" encoding="UTF-8"?>
<svg width="200px" height="200px" viewBox="0 0 200 200" version="1.1" xmlns="http://www.w3.org/2000/svg" xmlns:xlink="http://www.w3.org/1999/xlink">
    <!-- Generator: Sketch 50.2 (55047) - http://www.bohemiancoding.com/sketch -->
    <title>token</title>
    <desc>Created with Sketch.</desc>
    <defs>
        <linearGradient x1="0%" y1="50.0198251%" x2="100%" y2="50.0198251%" id="linearGradient-1">
            <stop stop-color="#00E2C1" offset="0%"></stop>
            <stop stop-color="#00AA8D" offset="100%"></stop>
        </linearGradient>
        <linearGradient x1="0.00674751712%" y1="50.0012306%" x2="99.9596801%" y2="50.0012306%" id="linearGradient-2">
            <stop stop-color="#83858A" offset="0%"></stop>
            <stop stop-color="#000000" offset="100%"></stop>
        </linearGradient>
    </defs>
    <g id="Page-1" stroke="none" stroke-width="1" fill="none" fill-rule="evenodd">
        <g id="market-jobs" transform="translate(-1113.000000, -1118.000000)" fill-rule="nonzero">
            <g id="token" transform="translate(1153.000000, 1146.000000)">
                <path d="M27.4186047,4.20853081 C37.1860465,-1.4028436 50.672093,-0.526066351 65.5744186,8.12246445 C95.3790698,25.4545972 119.539535,67.3364929 119.539535,101.706161 C119.539535,118.806825 113.560465,130.829194 103.883721,136.468626 L93.2581395,142.991848 C83.4906977,148.687393 69.927907,147.859716 54.9488372,139.162085 C25.1162791,121.886066 0.990697674,79.9620853 0.990697674,45.5924171 C0.990697674,28.4005687 7.03255814,16.343128 16.7930233,10.745782 L27.4186047,4.20853081 Z" id="Shape" fill="url(#linearGradient-1)"></path>
                <path d="M67.8976744,24.6619905 C38.9093023,-0.505023697 9.54418605,2.8056872 2.31627907,32.0690047 C-4.91162791,61.3323223 12.7325581,105.444739 41.7209302,130.604739 C70.7093023,155.764739 100.088372,152.468057 107.302326,123.211754 C114.516279,93.9554502 96.9,49.8009479 67.8976744,24.6619905 Z" id="Shape" fill="#FFFFFF"></path>
                <path d="M75.2372093,99.8824645 L75.2372093,85.0123223 C74.5476245,84.8068206 73.8830368,84.5245005 73.255814,84.1706161 C72.5532575,83.7627328 71.8878846,83.2932964 71.2674419,82.7677725 L71.2674419,97.5677725 C68.6511628,97.0206635 66.7534884,98.7531754 66.7534884,102.091943 C66.7534884,106.230332 69.6697674,111.294597 73.2627907,113.37782 C76.855814,115.461043 79.772093,113.784645 79.772093,109.646256 C79.7511628,106.307488 77.8534884,102.407583 75.2372093,99.8824645 Z M73.255814,110.123223 C71.0665428,108.691949 69.6857375,106.298374 69.5372093,103.677156 C69.5372093,101.313365 71.2046512,100.359431 73.255814,101.572891 C75.4450851,103.004164 76.8258904,105.39774 76.9744186,108.018957 C76.9604651,110.389763 75.2930233,111.350711 73.255814,110.123223 Z M36.3697674,77.3177251 L36.3697674,62.4265403 C35.6763182,62.210311 35.0093179,61.9161957 34.3813953,61.549763 C33.6788193,61.1419105 33.0134438,60.6724723 32.3930233,60.1469194 L32.3930233,75.0100474 C29.7767442,74.4629384 27.8790698,76.1954502 27.8790698,79.534218 C27.8790698,83.6726066 30.7953488,88.736872 34.3883721,90.8200948 C37.9813953,92.9033175 40.8976744,91.2269194 40.8976744,87.0885308 C40.8837209,83.7427488 38.9790698,79.8077725 36.3697674,77.3177251 Z M34.3813953,87.5935545 C32.1921242,86.1622812 30.8113189,83.7687053 30.6627907,81.1474882 C30.6627907,78.7836967 32.3302326,77.829763 34.3813953,79.0432227 C36.5706665,80.474496 37.9514718,82.868072 38.1,85.4892891 C38.0930233,87.8320379 36.4255814,88.7859716 34.3744186,87.5935545 L34.3813953,87.5935545 Z M40.1651163,58.3793365 C41.4209302,56.2750711 41.0232558,52.5014218 38.9790698,48.9592417 C36.4395349,44.561327 32.3162791,42.1624645 29.7767442,43.6214218 C27.2372093,45.0803791 27.2093023,49.8009479 29.7767442,54.2339336 C30.8710623,56.2243827 32.4538303,57.9001656 34.3744186,59.1018009 C35.2684233,59.6606929 36.294162,59.9705515 37.3465116,59.9996209 L46.4581395,75.7956398 C46.7939364,75.3506819 47.2135336,74.9764977 47.6930233,74.6944076 C48.180734,74.4228457 48.7162015,74.248956 49.2697674,74.1823697 L40.1651163,58.3793365 Z M31.744186,53.1046445 C30.2930233,50.5935545 30.2930233,47.8720379 31.744186,47.037346 C32.6065848,46.649597 33.6092329,46.7538764 34.3744186,47.3109005 C35.4757636,48.0041434 36.3814641,48.9702603 37.0046512,50.1165877 C38.455814,52.6276777 38.455814,55.3491943 37.0046512,56.1838863 C35.5534884,57.0185782 33.1953488,55.6157346 31.744186,53.1046445 Z M77.8465116,71.5450237 C75.3069767,67.147109 71.1837209,64.7482464 68.644186,66.2072038 C66.6,67.3785782 66.2023256,70.7033175 67.4581395,74.2525118 L56.7767442,80.3759242 C55.9355743,79.363218 54.9308379,78.5000996 53.8046512,77.8227488 C52.0674419,76.8127014 50.4348837,76.6443602 49.2069767,77.3527962 C46.6674419,78.8047393 46.6674419,83.5673934 49.2069767,87.9653081 C50.3012949,89.9557571 51.8840629,91.6315401 53.8046512,92.8331754 C55.5418605,93.8432227 57.1744186,94.011564 58.4023256,93.303128 C59.6302326,92.5946919 60.3069767,91.1076777 60.3069767,89.0945972 C60.2922396,87.7828925 60.0563366,86.4832003 59.6093023,85.2508057 L70.2906977,79.1273934 C71.1327153,80.1392564 72.1373,81.0022445 73.2627907,81.6805687 C74.9302326,82.6485308 76.5976744,82.88 77.8604651,82.1575355 C80.3860465,80.6635071 80.3860465,75.9218957 77.8465116,71.5450237 Z M56.4418605,89.8591469 C55.5811675,90.2518907 54.5770491,90.1501362 53.8116279,89.5926066 C52.7098826,88.8998543 51.8040717,87.9336196 51.1813953,86.7869194 C49.7302326,84.2758294 49.7302326,81.5543128 51.1813953,80.7196209 C52.0420884,80.3268771 53.0462067,80.4286316 53.8116279,80.9861611 C56.0017377,82.416633 57.3828127,84.8106765 57.5302326,87.4322275 C57.6392079,88.3809066 57.2211536,89.31311 56.4418605,89.8591469 Z M75.8790698,78.7205687 C74.427907,79.5482464 72.0697674,78.1804739 70.6186047,75.6693839 C69.1674419,73.1582938 69.1674419,70.4367773 70.6186047,69.6020853 C71.4810034,69.2143364 72.4836515,69.3186157 73.2488372,69.8756398 C74.3501822,70.5688827 75.2558827,71.5349996 75.8790698,72.681327 C77.3232558,75.1643602 77.3232558,77.8578199 75.872093,78.7205687 L75.8790698,78.7205687 Z" id="Shape" fill="url(#linearGradient-2)"></path>
            </g>
        </g>
    </g>
</svg>