<svg width="130" height="196" viewBox="0 0 130 196" fill="none" xmlns="http://www.w3.org/2000/svg">
<mask id="mask0" mask-type="alpha" maskUnits="userSpaceOnUse" x="70" y="13" width="59" height="89">
<path fill-rule="evenodd" clip-rule="evenodd" d="M12.873 2.12018L7.69894 6.03307C2.94174 9.3889 0 16.6178 0 26.925V26.925C0 47.5387 11.768 72.6568 26.2858 83.0281V83.0281C33.582 88.2415 40.1836 88.7371 44.9462 85.3239V85.3239L50.1203 81.411C54.8339 78.0328 57.7467 70.8256 57.7467 60.5711V60.5711C57.7467 39.9567 45.9781 14.8386 31.4604 4.46724V4.46724C27.2172 1.43619 23.2092 0 19.6613 0V0C17.1391 0 14.8495 0.725859 12.873 2.12018" transform="translate(70.3936 13.9469)" fill="white"/>
</mask>
<g mask="url(#mask0)">
<path fill-rule="evenodd" clip-rule="evenodd" d="M12.873 2.12018L7.69894 6.03307C2.94174 9.3889 0 16.6178 0 26.925V26.925C0 47.5387 11.768 72.6568 26.2858 83.0281V83.0281C33.582 88.2415 40.1836 88.7371 44.9462 85.3239V85.3239L50.1203 81.411C54.8339 78.0328 57.7467 70.8256 57.7467 60.5711V60.5711C57.7467 39.9567 45.9781 14.8386 31.4604 4.46724V4.46724C27.2172 1.43619 23.2092 0 19.6613 0V0C17.1391 0 14.8495 0.725859 12.873 2.12018" transform="translate(70.3936 13.9469)" fill="url(#paint0_linear)"/>
</g>
<path fill-rule="evenodd" clip-rule="evenodd" d="M1.49784 6.13005C-0.49024 4.72146 -0.500715 2.44484 1.47523 1.04505C3.45063 -0.354751 6.66375 -0.347309 8.65238 1.06128L44.6489 26.5648C46.637 27.9734 46.6469 30.2493 44.6715 31.6498C42.6961 33.0489 39.4819 33.0415 37.4944 31.6335L1.49784 6.13005Z" transform="translate(77.1709 91.7284)" fill="black" fill-opacity="0.2"/>
<path fill-rule="evenodd" clip-rule="evenodd" d="M35.4262 57.1924V65.077C33.1983 63.4986 30.9654 61.9161 28.5649 60.2159C28.6768 62.5514 28.738 64.6859 28.8494 67.0133C26.9071 65.6365 25.0761 64.3388 23.0776 62.9235V56.4069C20.7328 54.7453 18.5606 53.2061 16.2158 51.5452C16.2158 48.9675 15.987 46.2342 16.3277 44.0624C16.5008 42.8954 17.528 42.4989 18.1592 41.8217C20.3303 39.7365 22.5026 37.7373 24.7299 35.6921C25.5894 34.9336 26.4434 34.249 27.4149 33.4127C23.7585 30.8209 20.2691 28.3494 16.7296 25.8414V17.9575C18.7894 19.4168 20.8999 20.9113 23.0715 22.4498V15.8547C24.9587 17.1916 26.7285 18.4453 28.6151 19.7822V26.2209C30.9042 27.842 33.1315 29.4204 35.532 31.1212C35.532 33.7788 35.7608 36.5114 35.4201 38.6906C35.2475 39.8576 34.2199 40.2541 33.5335 40.8914C31.3618 42.9766 29.1901 44.9758 26.9622 47.0217C26.1137 47.8593 25.2603 48.5352 24.2828 49.2976C28.1123 52.0106 31.7135 54.5619 35.4262 57.1924V57.1924ZM26.5468 4.50201C11.8976 -5.89194 -0.000551306 2.29576 1.91593e-08 23.0478C0.000551344 44.3607 12.4373 69.3886 26.4697 79.0985C40.4777 89.3402 53.0303 82.1451 53.0584 60.6962C53.086 39.8981 41.1696 14.8777 26.5468 4.50201V4.50201Z" transform="translate(70.2715 19.2125)" fill="white"/>
<mask id="mask1" mask-type="alpha" maskUnits="userSpaceOnUse" x="28" y="0" width="58" height="88">
<path fill-rule="evenodd" clip-rule="evenodd" d="M12.8065 2.10938L7.65911 6.00201C2.92701 9.33961 0 16.5313 0 26.7845V26.7845C0 47.2909 11.7075 72.2786 26.1499 82.596V82.596C33.4079 87.781 39.9751 88.2745 44.7121 84.8802V84.8802L49.86 80.9876C54.5496 77.6264 57.4466 70.4562 57.4466 60.2557V60.2557C57.4466 39.7494 45.7391 14.7616 31.2972 4.44361V4.44361C27.0764 1.42808 23.0897 0 19.5603 0V0C17.0507 0 14.7725 0.721807 12.8065 2.10938" transform="translate(28.5088 0.0839844)" fill="white"/>
</mask>
<g mask="url(#mask1)">
<path fill-rule="evenodd" clip-rule="evenodd" d="M12.8065 2.10938L7.65911 6.00201C2.92701 9.33961 0 16.5313 0 26.7845V26.7845C0 47.2909 11.7075 72.2786 26.1499 82.596V82.596C33.4079 87.781 39.9751 88.2745 44.7121 84.8802V84.8802L49.86 80.9876C54.5496 77.6264 57.4466 70.4562 57.4466 60.2557V60.2557C57.4466 39.7494 45.7391 14.7616 31.2972 4.44361V4.44361C27.0764 1.42808 23.0897 0 19.5603 0V0C17.0507 0 14.7725 0.721807 12.8065 2.10938" transform="translate(28.5088 0.0839844)" fill="url(#paint1_linear)"/>
</g>
<path fill-rule="evenodd" clip-rule="evenodd" d="M1.48998 6.10529C-0.488174 4.7031 -0.497546 2.43522 1.46738 1.04048C3.43285 -0.3529 6.62943 -0.346126 8.60703 1.05674L44.4167 26.4587C46.3943 27.8615 46.4042 30.1294 44.4387 31.5228C42.4738 32.9175 39.2772 32.9101 37.2991 31.5072L1.48998 6.10529Z" transform="translate(35.252 76.5034)" fill="black"/>
<path fill-rule="evenodd" clip-rule="evenodd" d="M1.59664 0L0 7.89086C1.97099 9.97924 8.04989 17.043 8.94855 12.5906C9.88746 7.94776 3.56707 2.09177 1.59664 0" transform="translate(50.96 45.0569)" fill="white"/>
<path fill-rule="evenodd" clip-rule="evenodd" d="M1.44778 0L0 7.15657C1.64185 8.89813 6.7008 14.8395 7.52117 10.7914C8.37462 6.56657 3.08907 1.74088 1.44778 0" transform="translate(53.2852 34.2875)" fill="white"/>
<path fill-rule="evenodd" clip-rule="evenodd" d="M38.1794 44.7774C37.7979 48.1461 36.3666 48.8925 34.4673 48.1623C37.0751 51.9279 38.4027 55.8052 37.1379 59.9989C35.5694 65.2074 31.8408 63.0966 26.8833 58.2567L25.6798 64.2014L22.7726 61.118L23.9602 55.2532C23.2065 54.4545 22.4363 53.6275 21.643 52.7618L20.4515 58.655L17.5472 55.5736L18.7507 49.616C18.0715 48.8885 17.3818 48.1393 16.6777 47.3908L12.8945 43.3779L14.3379 39.7099C14.3379 39.7099 16.4803 42.032 16.4511 41.952C17.2743 42.8232 17.6392 42.326 17.7837 41.9236L19.6846 32.5256C19.7911 32.6373 19.8953 32.7484 19.9923 32.8514C19.876 32.7037 19.7707 32.5865 19.6896 32.4998L21.0464 25.791C21.0817 24.9449 20.8689 23.6952 19.6913 22.4454C19.737 22.4346 17.5797 20.208 17.5797 20.208L18.3532 16.3781L22.363 20.6334L22.3597 20.6524C22.9623 21.2911 23.5831 21.9326 24.216 22.5843L25.4074 16.6985L28.3129 19.7812L27.1457 25.5526C27.9258 26.3573 28.7109 27.1668 29.4751 27.9776L30.6345 22.2435L33.5422 25.3277L32.3513 31.2168C36.0221 35.6036 38.7065 40.1807 38.1794 44.7774V44.7774ZM32.9027 10.1142C18.7094 -4.94335 4.33089 -2.96133 0.793586 14.5457C-2.74702 32.0473 5.89224 58.4484 20.0839 73.5053C34.2816 88.5676 48.6596 86.5863 52.1991 69.0826C55.7381 51.5777 47.0994 25.1752 32.9027 10.1142V10.1142Z" transform="translate(28.3711 4.44885)" fill="white"/>
<mask id="mask2" mask-type="alpha" maskUnits="userSpaceOnUse" x="50" y="49" width="58" height="88">
<path fill-rule="evenodd" clip-rule="evenodd" d="M12.7263 2.1242L7.61054 6.04479C2.90845 9.40697 0 16.65 0 26.9768V26.9768C0 47.6302 11.6338 72.7969 25.9856 83.1886V83.1886C33.1978 88.4108 39.7241 88.907 44.4322 85.488V85.488L49.5474 81.5681C54.2074 78.1833 57.0864 70.9622 57.0864 60.6874V60.6874C57.0864 40.034 45.4521 14.8673 31.1008 4.47628V4.47628C26.9067 1.43917 22.9446 0 19.437 0V0C16.9438 0.000684342 14.6798 0.727456 12.7263 2.1242" transform="translate(50.2695 49.3035)" fill="white"/>
</mask>
<g mask="url(#mask2)">
<path fill-rule="evenodd" clip-rule="evenodd" d="M12.7263 2.1242L7.61054 6.04479C2.90845 9.40697 0 16.65 0 26.9768V26.9768C0 47.6302 11.6338 72.7969 25.9856 83.1886V83.1886C33.1978 88.4108 39.7241 88.907 44.4322 85.488V85.488L49.5474 81.5681C54.2074 78.1833 57.0864 70.9622 57.0864 60.6874V60.6874C57.0864 40.034 45.4521 14.8673 31.1008 4.47628V4.47628C26.9067 1.43917 22.9446 0 19.437 0V0C16.9438 0.000684342 14.6798 0.727456 12.7263 2.1242" transform="translate(50.2695 49.3035)" fill="url(#paint2_linear)"/>
</g>
<path fill-rule="evenodd" clip-rule="evenodd" d="M1.48068 6.06736C-0.484796 4.67262 -0.49472 2.41964 1.45807 1.03438C3.41142 -0.350868 6.58815 -0.344094 8.55307 1.05064L44.1383 26.2927C46.1038 27.6868 46.1132 29.9404 44.1604 31.3257C42.207 32.7109 39.0309 32.7042 37.0654 31.3101L1.48068 6.06736Z" transform="translate(56.9717 125.242)" fill="black" fill-opacity="0.2"/>
<path fill-rule="evenodd" clip-rule="evenodd" d="M1.58671 0L0 7.84141C1.95831 9.91692 7.99917 16.936 8.89232 12.5113C9.82516 7.89763 3.54502 2.07822 1.58671 0" transform="translate(72.5801 93.993)" fill="white"/>
<path fill-rule="evenodd" clip-rule="evenodd" d="M1.43786 0L0 7.11254C1.63082 8.84326 6.65835 14.7474 7.47266 10.7237C8.32114 6.52593 3.06867 1.73072 1.43786 0" transform="translate(74.8926 83.2905)" fill="white"/>
<path fill-rule="evenodd" clip-rule="evenodd" d="M32.6962 10.0514C18.5923 -4.91268 4.30412 -2.94284 0.788871 14.4551C-2.73024 31.847 5.85499 58.0814 19.9584 73.0442C34.0663 88.0124 48.3544 86.0439 51.8713 68.6493C55.3888 51.2541 46.8041 25.0176 32.6962 10.0514" transform="translate(50.1328 53.6393)" fill="white"/>
<mask id="mask3" mask-type="alpha" maskUnits="userSpaceOnUse" x="63" y="69" width="23" height="36">
<path fill-rule="evenodd" clip-rule="evenodd" d="M0 18.1873L0.00054271 18.188L3.34798 23.4604L10.9307 35.402L21.862 34.0182L10.9307 0L0 18.1873Z" transform="translate(63.6572 69.4521)" fill="white"/>
</mask>
<g mask="url(#mask3)">
<path fill-rule="evenodd" clip-rule="evenodd" d="M0 18.1873L0.00054271 18.188L3.34798 23.4604L10.9307 35.402L21.862 34.0182L10.9307 0L0 18.1873Z" transform="translate(63.6572 69.4521)" fill="url(#paint3_linear)"/>
</g>
<mask id="mask4" mask-type="alpha" maskUnits="userSpaceOnUse" x="63" y="90" width="23" height="32">
<path fill-rule="evenodd" clip-rule="evenodd" d="M10.9307 30.7444V30.7451L21.868 16.183L10.9307 17.5874L0 0L10.9307 30.7444Z" transform="translate(63.6572 90.5637)" fill="white"/>
</mask>
<g mask="url(#mask4)">
<path fill-rule="evenodd" clip-rule="evenodd" d="M10.9307 30.7444V30.7451L21.868 16.183L10.9307 17.5874L0 0L10.9307 30.7444Z" transform="translate(63.6572 90.5637)" fill="url(#paint4_linear)"/>
</g>
<mask id="mask5" mask-type="alpha" maskUnits="userSpaceOnUse" x="2" y="40" width="58" height="88">
<path fill-rule="evenodd" clip-rule="evenodd" d="M12.8201 2.11208L7.66729 6.00808C2.92973 9.34974 0 16.5489 0 26.8129V26.8129C0 47.3415 11.7195 72.3556 26.1772 82.6831V82.6831C33.4423 87.8741 40.0166 88.3684 44.7596 84.9694V84.9694L49.9124 81.0727C54.6074 77.7088 57.5072 70.5305 57.5072 60.3192V60.3192C57.5072 39.7912 45.7877 14.7778 31.33 4.44833V4.44833C27.1048 1.43011 23.1137 0 19.5805 0V0C17.0687 0 14.7878 0.723158 12.8201 2.11208" transform="translate(2.21582 40.1626)" fill="white"/>
</mask>
<g mask="url(#mask5)">
<path fill-rule="evenodd" clip-rule="evenodd" d="M12.8201 2.11208L7.66729 6.00808C2.92973 9.34974 0 16.5489 0 26.8129V26.8129C0 47.3415 11.7195 72.3556 26.1772 82.6831V82.6831C33.4423 87.8741 40.0166 88.3684 44.7596 84.9694V84.9694L49.9124 81.0727C54.6074 77.7088 57.5072 70.5305 57.5072 60.3192V60.3192C57.5072 39.7912 45.7877 14.7778 31.33 4.44833V4.44833C27.1048 1.43011 23.1137 0 19.5805 0V0C17.0687 0 14.7878 0.723158 12.8201 2.11208" transform="translate(2.21582 40.1626)" fill="url(#paint5_linear)"/>
</g>
<path fill-rule="evenodd" clip-rule="evenodd" d="M1.47039 6.0721C-0.481765 4.67702 -0.491005 2.42188 1.44811 1.03556C3.38722 -0.351443 6.54154 -0.34404 8.4937 1.05104L43.8298 26.3138C45.7814 27.7089 45.7918 29.9647 43.8521 31.351C41.913 32.7374 38.7581 32.7299 36.807 31.3349L1.47039 6.0721Z" transform="translate(8.86426 116.189)" fill="black" fill-opacity="0.2"/>
<path fill-rule="evenodd" clip-rule="evenodd" d="M37.282 49.1319C33.5424 51.7794 29.8033 54.4262 26 57.1188C22.2441 49.0888 18.5072 41.0986 14.7501 33.0653V52.5964C11.0871 49.9785 7.45238 47.3795 3.80078 44.769C7.72357 57.1302 16.7322 73.4249 28.9413 80.3337C32.9456 82.6002 36.6505 83.3661 40.0488 82.716C41.7037 82.3997 43.2032 81.757 44.5548 80.7866C45.9868 79.7589 47.252 78.3639 48.3602 76.598C44.6488 73.9451 41.0124 71.3454 37.3592 68.7336V49.2503C37.3336 49.2106 37.3076 49.1716 37.282 49.1319V49.1319ZM42.9824 65.2611V49.7174V34.2619C37.3509 38.2432 31.7418 42.209 26.1141 46.1877C20.4348 34.0526 14.8261 22.0689 9.1501 9.94262V41.0475C9.00771 40.956 8.90118 40.8947 8.79521 40.818C6.40773 39.1134 4.02079 37.3993 1.63386 35.7101C1.37897 35.5291 1.28875 35.3353 1.21918 34.9665C0.607234 31.7376 0.213759 28.6102 0.0702816 25.5879C-0.25852 18.6603 0.558864 12.8593 2.68059 8.3793C4.00666 5.58107 5.636 3.48543 7.5637 2.08968C10.3794 0.051915 13.8321 -0.493194 17.9098 0.444259C21.0158 1.15963 24.2271 2.88379 27.4945 5.50166C33.9021 10.6358 39.4634 18.021 44.1052 27.6526C48.171 36.0904 50.6916 44.6365 51.7139 53.2317C52.1101 56.5656 52.1981 59.7064 52.0492 62.6957C51.9084 65.5162 51.515 68.0809 50.9101 70.443C50.828 70.7654 50.7106 70.7983 50.4275 70.5944C48.0715 68.8904 45.7145 67.2134 43.3574 65.5289C43.2487 65.4509 43.1389 65.3728 42.9824 65.2611V65.2611Z" transform="translate(2.14062 44.3221)" fill="white"/>
<path fill-rule="evenodd" clip-rule="evenodd" d="M1.50409 6.21216C-0.492634 4.78478 -0.502416 2.47783 1.48126 1.0592C3.46494 -0.359434 6.69209 -0.352031 8.68881 1.07535L44.8385 26.9202C46.8352 28.3476 46.8456 30.6539 44.8613 32.0725C42.8771 33.4912 39.65 33.4838 37.6543 32.0564L1.50409 6.21216Z" transform="translate(30.4287 162.162)" fill="black" fill-opacity="0.2"/>
<mask id="mask6" mask-type="alpha" maskUnits="userSpaceOnUse" x="28" y="84" width="51" height="93">
<path fill-rule="evenodd" clip-rule="evenodd" d="M8.25154 0.677443L2.44026 5.40798C0.932399 6.48128 0 8.7918 0 12.0858V12.0858V52.1938C0 58.7825 3.72959 66.8118 8.33055 70.127V70.127L36.412 90.3625C38.7117 92.0201 40.7945 92.1854 42.3018 91.1134V91.1134L48.1131 86.3822C49.6204 85.3103 50.5528 82.9997 50.5528 79.705V79.705V39.5964C50.5528 33.0084 46.8232 24.979 42.2222 21.6639V21.6639L14.1418 1.42834C12.7969 0.459111 11.5266 0 10.4024 0V0C9.603 0 8.87768 0.231936 8.25154 0.677443" transform="translate(28.3867 84.9033)" fill="white"/>
</mask>
<g mask="url(#mask6)">
<path fill-rule="evenodd" clip-rule="evenodd" d="M8.25154 0.677443L2.44026 5.40798C0.932399 6.48128 0 8.7918 0 12.0858V12.0858V52.1938C0 58.7825 3.72959 66.8118 8.33055 70.127V70.127L36.412 90.3625C38.7117 92.0201 40.7945 92.1854 42.3018 91.1134V91.1134L48.1131 86.3822C49.6204 85.3103 50.5528 82.9997 50.5528 79.705V79.705V39.5964C50.5528 33.0084 46.8232 24.979 42.2222 21.6639V21.6639L14.1418 1.42834C12.7969 0.459111 11.5266 0 10.4024 0V0C9.603 0 8.87768 0.231936 8.25154 0.677443" transform="translate(28.3867 84.9033)" fill="url(#paint6_linear)"/>
</g>
<path fill-rule="evenodd" clip-rule="evenodd" d="M1.03537 0.745377L0 0V4.91379L1.03537 5.65849C1.96736 6.32926 2.01959 5.00874 2.01959 3.89712C2.01959 2.78685 1.96736 1.41615 1.03537 0.745377" transform="translate(56.207 145.924)" fill="white"/>
<path fill-rule="evenodd" clip-rule="evenodd" d="M0 5.83551L1.89881 7.20214L0.949403 0L0 5.83551Z" transform="translate(38.3066 135.724)" fill="white"/>
<path fill-rule="evenodd" clip-rule="evenodd" d="M0 5.83551L1.89881 7.20214L0.949403 0L0 5.83551Z" transform="translate(47.3867 142.258)" fill="white"/>
<path fill-rule="evenodd" clip-rule="evenodd" d="M38.8652 79.0901L33.2041 75.016V57.4369L35.6551 59.201V73.6202L38.8652 75.9302V79.0901ZM28.2674 65.1172L27.2483 64.384V70.7295L24.7979 68.9654V51.3864L28.2674 53.8836C30.9252 55.7962 31.719 58.5159 31.719 61.9485C31.719 65.404 30.9252 67.0304 28.2674 65.1172V65.1172ZM22.6783 41.6573C22.2131 41.3216 21.7137 41.1154 21.1794 41.0388C20.6446 40.9642 20.2137 40.815 19.884 40.5938C19.3829 40.2642 18.8834 39.5894 18.385 38.5673C18.0673 37.9413 17.6691 36.9748 17.1924 35.6678C16.681 34.27 16.2605 32.7738 15.9313 31.1759C15.5782 29.4519 15.4014 27.9007 15.4014 26.5226C15.4014 24.9443 15.6402 23.754 16.1174 22.9571C16.4928 22.3108 16.9922 21.9472 17.6168 21.8665C18.2425 21.7858 18.9177 22.0008 19.6451 22.5068C20.0428 22.7937 20.5646 23.3457 21.2131 24.1583C21.86 24.9708 22.2752 25.4455 22.4574 25.5771C22.5934 25.6748 23.0548 25.8009 23.8366 25.9529C24.576 26.1048 25.2001 26.3964 25.711 26.8257C27.0967 27.9828 28.1375 29.5136 28.8301 31.4194C27.5907 31.6012 26.9776 32.6646 26.9901 34.603C27.001 36.1141 27.3829 37.6395 28.1321 39.1716C28.4716 39.877 28.8502 40.5057 29.2719 41.0625C29.1805 41.3765 29.0842 41.6702 28.9814 41.9449C28.7322 42.5892 28.4373 43.1338 28.0962 43.5848C27.6304 44.1993 27.249 44.5819 26.9552 44.7358C26.5004 45.0071 26.0124 44.963 25.4895 44.6036C25.1147 44.3343 24.6625 43.8561 24.1359 43.1671C23.6076 42.4793 23.1223 41.9768 22.6783 41.6573V41.6573ZM21.1903 66.3692L20.7931 63.3429L17.9623 61.3055L17.5657 63.76L15.0107 61.922L18.1696 46.6163L20.5858 48.3553L23.7447 68.2078L21.1903 66.3692ZM12.1106 59.8346L11.7135 56.8083L8.88322 54.7716L8.48605 57.2261L5.93164 55.3874L9.08997 40.0818L11.5067 41.8208L14.6651 61.6733L12.1106 59.8346ZM23.2894 21.2825C23.5951 21.001 23.9825 20.8634 24.4537 20.8695C24.9232 20.8803 25.3672 21.0193 25.785 21.2886C25.797 21.4548 25.8024 21.6162 25.8024 21.7722C25.8024 22.951 25.5016 23.8333 24.902 24.4207C24.1778 25.1098 23.3024 25.1789 22.353 24.3854C22.3411 24.2355 22.334 24.0822 22.334 23.9256C22.334 22.7943 22.6784 21.8319 23.2894 21.2825V21.2825ZM36.3537 21.6019L8.31721 1.42379C3.72362 -1.88192 0 0.764545 0 7.33458V47.3292C0 53.8986 3.72362 61.9051 8.31721 65.2108L36.3537 85.3889C40.9467 88.6946 44.6698 86.0488 44.6698 79.4781V39.4841C44.6698 32.9141 40.9467 24.9076 36.3537 21.6019V21.6019Z" transform="translate(28.958 89.6127)" fill="white"/>
<path d="M124.435 0C131.689 8.13878 97.3916 109.668 33.3932 61.0409C-4.69177 32.1027 0.20487 9.7211 0.20487 9.7211" transform="translate(2.18848 64.2347)" stroke="black" stroke-width="3" stroke-linecap="round" stroke-linejoin="round"/>
<path d="M0 15.9556C0 15.9556 19.6899 -9.45906 23.3885 3.86209C27.0876 17.1832 0 15.9556 0 15.9556Z" transform="translate(31.0361 106.355)" stroke="black" stroke-width="3" stroke-linecap="round" stroke-linejoin="round"/>
<path d="M11.1168 30.335C11.1168 30.335 -7.5073 3.70085 3.45627 0.249332C14.4198 -3.20287 11.1168 30.335 11.1168 30.335Z" transform="translate(19.6973 92.0632)" stroke="black" stroke-width="3" stroke-linecap="round" stroke-linejoin="round"/>
<path d="M0 0C0 0 2.19641 23.3942 5.85637 26.3893" transform="translate(30.8135 122.398)" stroke="black" stroke-width="3" stroke-linecap="round" stroke-linejoin="round"/>
<path d="M14.6774 0C9.70404 2.13372 9.79327 8.84346 0 8.84346" transform="translate(16.3574 122.31)" stroke="black" stroke-width="3" stroke-linecap="round" stroke-linejoin="round"/>
<defs>
<linearGradient id="paint0_linear" x2="1" gradientUnits="userSpaceOnUse" gradientTransform="translate(-0.000519102 43.7479) scale(57.7473 87.497)">
<stop stop-color="#838589"/>
<stop offset="1"/>
</linearGradient>
<linearGradient id="paint1_linear" x2="1" gradientUnits="userSpaceOnUse" gradientTransform="translate(-8.15786e-05 43.52) scale(57.4469 87.0406)">
<stop stop-color="#838589"/>
<stop offset="1"/>
</linearGradient>
<linearGradient id="paint2_linear" x2="1" gradientUnits="userSpaceOnUse" gradientTransform="translate(-0.000163485 43.8321) scale(57.0867 87.6644)">
<stop stop-color="#838589"/>
<stop offset="1"/>
</linearGradient>
<linearGradient id="paint3_linear" x2="1" gradientUnits="userSpaceOnUse" gradientTransform="translate(-7.17463e-05 17.7008) scale(21.862 35.402)">
<stop stop-color="#838589"/>
<stop offset="1"/>
</linearGradient>
<linearGradient id="paint4_linear" x2="1" gradientUnits="userSpaceOnUse" gradientTransform="translate(-7.17463e-05 15.3725) scale(21.8685 30.7459)">
<stop stop-color="#838589"/>
<stop offset="1"/>
</linearGradient>
<linearGradient id="paint5_linear" x2="1" gradientUnits="userSpaceOnUse" gradientTransform="translate(-0.000147878 43.5662) scale(57.5073 87.1326)">
<stop stop-color="#838589"/>
<stop offset="1"/>
</linearGradient>
<linearGradient id="paint6_linear" x2="1" gradientUnits="userSpaceOnUse" gradientTransform="translate(0.000469632 45.8954) scale(50.5523 91.7896)">
<stop stop-color="#838589"/>
<stop offset="1"/>
</linearGradient>
</defs>
</svg>
