<?xml version="1.0" encoding="UTF-8"?>
<svg width="699px" height="601px" viewBox="0 0 699 601" version="1.1" xmlns="http://www.w3.org/2000/svg" xmlns:xlink="http://www.w3.org/1999/xlink">
    <!-- Generator: Sketch 50.2 (55047) - http://www.bohemiancoding.com/sketch -->
    <title>Asset 3</title>
    <desc>Created with Sketch.</desc>
    <defs>
        <linearGradient x1="0%" y1="49.9936053%" x2="100%" y2="49.9936053%" id="linearGradient-1">
            <stop stop-color="#00FFE2" offset="0%"></stop>
            <stop stop-color="#00CDB3" offset="99%"></stop>
        </linearGradient>
        <linearGradient x1="0%" y1="50.0078113%" x2="99.9909804%" y2="50.0078113%" id="linearGradient-2">
            <stop stop-color="#ABFFF3" offset="0%"></stop>
            <stop stop-color="#00FFE2" offset="99%"></stop>
        </linearGradient>
        <linearGradient x1="0%" y1="49.9936053%" x2="99.9820176%" y2="49.9936053%" id="linearGradient-3">
            <stop stop-color="#00E2C1" offset="0%"></stop>
            <stop stop-color="#00AA8D" offset="100%"></stop>
        </linearGradient>
    </defs>
    <g id="Page-1" stroke="none" stroke-width="1" fill="none" fill-rule="evenodd">
        <g id="market-About" transform="translate(-741.000000, -208.000000)" fill-rule="nonzero">
            <g id="Asset-3" transform="translate(741.000000, 208.000000)">
                <polygon id="Shape" fill="#000000" points="314.635036 277.225425 156.835036 368.254245 0 277.792406 157.8 186.791934"></polygon>
                <polygon id="Shape" fill="#EDEDED" points="157.8 312.123113 0 221.094292 0 90.4334906 157.8 181.462311"></polygon>
                <polygon id="Shape" fill="#FFFFFF" points="315.628381 90.4334906 157.8 181.462311 0.993345324 91.0004717 158.793345 0"></polygon>
                <polygon id="Shape" fill="#D8D8D8" points="315.628381 221.094292 157.8 312.123113 157.8 181.462311 315.628381 90.4334906"></polygon>
                <polygon id="Shape" fill="#181E26" points="38.8539928 178.854198 33.1777338 175.650755 33.1777338 182.000943 39.7338129 185.743019 39.7338129 187.670755 31.2194245 182.794717 31.2194245 164.878113 39.7338129 169.697453 39.7338129 171.625189 33.3764029 167.96816 33.3764029 173.637972 39.0526619 176.841415"></polygon>
                <polygon id="Shape" fill="#181E26" points="46.7156115 180.640189 49.553741 175.48066 51.8810072 176.813066 47.7941007 183.333349 51.9661511 194.672972 49.6105036 193.312217 46.6020863 184.580708 43.6788129 189.938679 41.3515468 188.577925 45.4100719 181.972594 41.2947842 170.632972 43.5936691 171.965377"></polygon>
                <path d="M64.0565827,195.977028 C64.0565827,197.866965 63.5835612,199.067075 62.637518,199.577358 C61.6914748,200.087642 60.4805396,199.898648 59.0047122,199.010377 C57.3563066,198.014055 56.0498384,196.541004 55.2583813,194.786368 C54.3281747,192.80113 53.8715728,190.627457 53.9244604,188.436179 L53.9244604,185.176038 C53.7043912,183.477063 54.2206511,181.765027 55.3435252,180.470094 C56.2895683,179.676321 57.5951079,179.751918 59.2601439,180.696887 C60.7115899,181.549875 61.8997608,182.785739 62.6942806,184.268868 C63.5523541,185.876554 64.019068,187.663592 64.0565827,189.485094 L62.0698921,188.322783 C62.045583,187.078998 61.7654263,185.853498 61.2468345,184.722453 C60.7795326,183.826388 60.0591284,183.087088 59.175,182.596274 C58.0965108,181.972594 57.2734532,181.972594 56.7058273,182.596274 C56.0016627,183.699028 55.7008578,185.01105 55.8543885,186.31 L55.8543885,189.598491 C55.8446249,191.193142 56.1533816,192.773722 56.7625899,194.247736 C57.2099795,195.428285 58.0389807,196.425947 59.1182374,197.082642 C60.139964,197.668522 60.8778777,197.800818 61.3319784,197.479528 C61.7860791,197.158239 62.0698921,196.279418 62.1834173,194.843066 L64.0565827,195.977028 Z" id="Shape" fill="#181E26"></path>
                <polygon id="Shape" fill="#181E26" points="76.9984532 209.130991 75.0117626 207.997028 75.0117626 199.719104 68.6827338 196.062075 68.6827338 204.34 66.6960432 203.206038 66.6960432 185.317783 68.6827338 186.451745 68.6827338 194.13434 75.0117626 197.791368 75.0117626 190.108774 76.9984532 191.242736"></polygon>
                <path d="M87.9820144,210.775236 L82.6747122,207.713538 L81.4543165,211.682406 L79.4676259,210.520094 L84.4627338,195.608491 L86.1656115,196.572358 L91.2458633,217.380566 L89.2307914,216.218255 L87.9820144,210.775236 Z M83.1571942,206.069292 L87.4427698,208.53566 L85.2857914,199.152123 L83.1571942,206.069292 Z" id="Shape" fill="#181E26"></path>
                <polygon id="Shape" fill="#181E26" points="103.620108 224.496179 101.633417 223.362217 95.3327698 205.927547 95.3327698 219.705189 93.3460791 218.571226 93.3460791 200.682972 95.3327698 201.816934 101.661799 219.308302 101.661799 205.473962 103.620108 206.607925"></polygon>
                <path d="M116.874173,229.910849 L116.533597,230.19434 C115.530791,230.950314 114.073885,230.77077 112.162878,229.655708 C110.449107,228.662581 109.059378,227.19567 108.161115,225.431698 C107.170252,223.48272 106.664029,221.32399 106.685288,219.138208 L106.685288,215.622925 C106.445495,213.883879 106.927359,212.122466 108.019209,210.746887 C108.899029,210.009811 110.23295,210.151557 111.964209,211.143774 C113.420912,211.968066 114.634684,213.160904 115.483489,214.602358 C116.339254,216.089661 116.816763,217.763914 116.874173,219.478396 L114.887482,218.344434 C114.829007,217.268807 114.548804,216.216828 114.064424,215.254387 C113.588559,214.34781 112.858806,213.599185 111.964209,213.099858 C110.828957,212.45728 110.005899,212.400582 109.495036,212.929764 C108.826208,213.983523 108.53597,215.233127 108.671978,216.473396 L108.671978,220.130425 C108.632574,221.736873 108.942429,223.332748 109.58018,224.808019 C110.134098,226.001298 111.046844,226.992285 112.191259,227.642925 C113.250827,228.266604 114.064424,228.436698 114.63205,228.153208 L114.915863,228.153208 L114.915863,223.957547 L112.077734,222.313302 L112.077734,220.385566 L116.930935,223.220472 L116.874173,229.910849 Z" id="Shape" fill="#181E26"></path>
                <polygon id="Shape" fill="#181E26" points="127.715827 230.080943 122.039568 226.792453 122.039568 233.142642 128.510504 236.884717 128.510504 238.812453 119.996115 233.936415 119.996115 216.104858 128.340216 220.924198 128.340216 222.851934 122.039568 219.166557 122.039568 224.836368 127.715827 228.039811"></polygon>
                <path d="M212.859712,217.352217 C212.814331,215.550603 213.163014,213.760792 213.881439,212.107642 C214.463115,210.75135 215.45566,209.61122 216.719568,208.8475 C217.835899,208.204921 218.706259,208.204921 219.330647,208.8475 L219.330647,202.043726 L221.232194,200.938113 L221.232194,219.705189 L219.472554,220.725755 L219.472554,219.365 C218.954354,220.70194 218.005872,221.828854 216.776331,222.568443 C215.565396,223.26772 214.619353,223.26772 213.938201,222.568443 C213.121349,221.457018 212.737937,220.086363 212.859712,218.712972 L212.859712,217.352217 Z M214.761259,217.352217 C214.674889,218.335266 214.882301,219.32182 215.357266,220.187123 C215.754604,220.659607 216.388453,220.659607 217.258813,220.187123 C218.291714,219.534143 219.049049,218.52551 219.38741,217.352217 L219.38741,210.860283 C218.895468,210.085409 218.185935,209.962563 217.258813,210.491745 C216.406001,210.969669 215.736918,211.717792 215.357266,212.617925 C214.929821,213.749192 214.727373,214.952874 214.761259,216.161557 L214.761259,217.352217 Z" id="Shape" fill="#181E26"></path>
                <path d="M231.704892,208.989245 L226.39759,212.050943 L225.177194,217.408915 L223.162122,218.571226 L228.213993,197.876415 L229.916871,196.912547 L234.997122,211.767453 L232.98205,212.929764 L231.704892,208.989245 Z M226.908453,209.839717 L231.194029,207.373349 L229.03705,200.512877 L226.908453,209.839717 Z" id="Shape" fill="#181E26"></path>
                <path d="M239.084029,202.412264 L239.084029,209.386132 L237.097338,210.520094 L237.097338,192.773585 L242.092446,189.938679 C243.549353,189.088208 244.694065,188.918113 245.526583,189.428396 C246.507339,190.163665 247.034217,191.35585 246.917266,192.575142 C246.942197,194.203349 246.530634,195.808579 245.725252,197.224387 C244.919171,198.618803 243.765409,199.781021 242.376259,200.597925 L239.084029,202.412264 Z M239.084029,200.484528 L242.120827,198.726887 C242.974054,198.240153 243.672496,197.522852 244.135899,196.657406 C244.597983,195.783479 244.841426,194.810816 244.845432,193.8225 C244.954622,193.03342 244.692742,192.23821 244.135899,191.667972 C243.662878,191.308884 243.000647,191.365582 242.149209,191.838066 L239.11241,193.595708 L239.084029,200.484528 Z" id="Shape" fill="#181E26"></path>
                <path d="M251.344748,195.353349 L251.344748,202.327217 L249.358058,203.461179 L249.358058,185.657972 L254.353165,182.823066 C255.810072,181.972594 256.954784,181.8025 257.787302,182.312783 C258.742956,183.09618 259.217003,184.322998 259.036079,185.544575 C259.06101,187.172783 258.649447,188.778013 257.844065,190.193821 C257.039021,191.589028 255.885023,192.751484 254.495072,193.567358 L251.344748,195.353349 Z M251.344748,193.425613 L254.381547,191.667972 C255.23573,191.182472 255.934477,190.464858 256.396619,189.598491 C256.858703,188.724564 257.102145,187.751901 257.106151,186.763585 C257.215341,185.974505 256.953462,185.179295 256.396619,184.609057 C255.923597,184.249969 255.261367,184.306667 254.409928,184.779151 L251.373129,186.536792 L251.344748,193.425613 Z" id="Shape" fill="#181E26"></path>
                <path d="M268.458669,187.925896 C268.458669,187.047075 268.231619,186.480094 267.805899,186.253302 C267.056597,186.025337 266.256316,186.025337 265.507014,186.253302 C264.664424,186.426705 263.795288,186.426705 262.952698,186.253302 C262.411876,186.123794 261.943276,185.788006 261.647158,185.317783 C261.293737,184.747212 261.106966,184.089346 261.107914,183.418396 C261.132657,181.932157 261.564547,180.481088 262.356691,179.222736 C263.142297,177.871004 264.267271,176.747309 265.62054,175.962594 C266.35538,175.487779 267.214618,175.241152 268.089712,175.253868 C268.769644,175.290014 269.386886,175.662064 269.735827,176.246085 C270.16372,176.97479 270.370758,177.811849 270.331835,178.655755 L268.345144,179.789717 C268.458778,179.000242 268.196266,178.20311 267.635612,177.635189 C267.16259,177.295 266.490899,177.380047 265.62054,177.89033 C264.056728,178.771286 263.098984,180.434565 263.122986,182.227736 C263.039857,182.817139 263.319747,183.398649 263.832518,183.701887 C264.553848,183.922879 265.324929,183.922879 266.046259,183.701887 C267.140532,183.343217 268.331658,183.424569 269.366871,183.928679 C270.157246,184.644645 270.531092,185.711563 270.360216,186.763585 C270.345131,188.242434 269.912262,189.686967 269.111439,190.930896 C268.281139,192.286506 267.118801,193.408498 265.734065,194.191038 C264.978311,194.676517 264.106027,194.950632 263.208129,194.984811 C262.500469,195.012043 261.823471,194.695061 261.391727,194.13434 C260.906477,193.417828 260.676564,192.559129 260.738957,191.696321 L262.725647,190.562358 C262.725647,191.667972 263.00946,192.348349 263.548705,192.660189 C264.3006,192.929913 265.138772,192.790376 265.762446,192.291651 C266.573081,191.84425 267.249202,191.188472 267.720755,190.392264 C268.187371,189.652775 268.442554,188.799865 268.458669,187.925896 Z" id="Shape" fill="#181E26"></path>
                <path d="M199.719173,81.2483962 C199.832698,76.1833648 195.897158,71.3545755 187.912554,66.7620283 C181.668669,63.1711478 175.396403,59.7031132 169.095755,56.3579245 L140.71446,72.8003774 L129.163273,66.1383491 L119.939353,71.4679717 L131.49054,78.13 L103.109245,94.4590566 C108.955791,98.2389308 114.726655,101.792013 120.421835,105.118302 C128.13989,109.753435 136.959699,112.239754 145.965,112.318962 C154.771475,112.278807 163.406024,109.880326 170.968921,105.373443 L187.17464,96.0466038 C195.424137,91.2461635 199.605647,86.3134277 199.719173,81.2483962 Z M161.574712,100.894292 C156.357976,103.997389 150.390424,105.615033 144.318885,105.571887 C138.479761,105.502997 132.758651,103.920489 127.715827,100.97934 C125.426403,99.6563836 122.503129,97.7664465 118.946007,95.3095283 L140.061691,83.147783 L151.21554,89.5830189 L160.43946,84.2533962 L149.285612,77.8181604 L170.770252,65.2028302 C175.065288,67.5274528 178.253453,69.2850943 180.334748,70.4757547 C185.708273,73.5752516 188.338273,76.8542925 188.224748,80.3128774 C188.111223,83.7714623 185.055504,87.2394969 179.05759,90.7169811 L161.574712,100.894292 Z" id="Shape" fill="#181E26"></path>
                <polygon id="Shape" fill="#000000" points="631.256763 288.876887 473.428381 379.905708 316.621727 289.443868 474.421727 198.443396"></polygon>
                <polygon id="Shape" fill="#EDEDED" points="473.428381 312.123113 315.628381 221.094292 315.628381 90.4334906 473.428381 181.462311"></polygon>
                <polygon id="Shape" fill="#FFFFFF" points="631.256763 90.4334906 473.428381 181.462311 316.621727 91.0004717 474.421727 0"></polygon>
                <polygon id="Shape" fill="#D8D8D8" points="631.256763 221.094292 473.428381 312.123113 473.428381 181.462311 631.256763 90.4334906"></polygon>
                <polygon id="Shape" fill="#181E26" points="361.662842 173.241085 365.778129 190.250519 369.865036 178.003726 372.419353 179.477877 372.419353 197.366132 370.432662 196.23217 370.432662 189.229953 370.60295 182.341132 366.487662 193.907547 364.983453 193.028726 360.896547 176.756368 361.095216 183.786934 361.095216 190.760802 359.108525 189.62684 359.108525 171.766934"></polygon>
                <path d="M383.346151,198.953679 L378.038849,195.891981 L376.818453,199.860849 L374.803381,198.698538 L379.855252,183.730236 L381.558129,184.694104 L386.638381,205.502311 L384.623309,204.34 L383.346151,198.953679 Z M378.549712,194.247736 L382.835288,196.714104 L380.678309,187.330566 L378.549712,194.247736 Z" id="Shape" fill="#181E26"></path>
                <path d="M393.506655,202.270519 L390.668525,200.682972 L390.668525,207.911981 L388.681835,206.778019 L388.681835,188.861415 L393.080935,191.41283 C396.043981,193.006732 397.855389,196.131974 397.763849,199.492311 C397.819882,200.381222 397.591261,201.264882 397.111079,202.015377 C396.693319,202.59044 396.002975,202.902897 395.294676,202.8375 L398.331475,212.192689 L398.331475,212.334434 L396.202878,211.115425 L393.506655,202.270519 Z M390.668525,198.755236 L393.052554,200.14434 C393.885072,200.616824 394.547302,200.692421 395.039245,200.371132 C395.611553,199.868976 395.889465,199.110924 395.777158,198.358349 C395.88184,196.278349 394.776685,194.324447 392.939029,193.340566 L390.555,191.979811 L390.668525,198.755236 Z" id="Shape" fill="#181E26"></path>
                <polygon id="Shape" fill="#181E26" points="404.007734 207.316651 402.475144 208.564009 402.475144 214.687406 400.488453 213.553443 400.488453 195.608491 402.475144 196.742453 402.475144 205.24717 403.780683 204.02816 408.009496 199.775802 410.393525 201.136557 405.284892 206.069292 410.790863 219.251604 408.435216 217.890849"></polygon>
                <polygon id="Shape" fill="#181E26" points="420.043165 216.530094 414.366906 213.326651 414.366906 219.67684 420.837842 223.418915 420.837842 225.346651 412.323453 220.470613 412.323453 202.582358 420.667554 207.401698 420.667554 209.329434 414.366906 205.644057 414.366906 211.313868 420.043165 214.517311"></polygon>
                <polygon id="Shape" fill="#181E26" points="432.899892 216.246604 428.756223 213.865283 428.756223 229.825802 426.769532 228.69184 426.769532 212.617925 422.654245 210.236604 422.654245 208.308868 432.871511 214.205472"></polygon>
                <path d="M511.941799,226.792453 L511.941799,233.766321 L509.955108,234.900283 L509.955108,217.210472 L514.950216,214.375566 C516.407122,213.525094 517.551835,213.355 518.384353,213.865283 C519.340006,214.64868 519.814053,215.875498 519.633129,217.097075 C519.656683,218.72512 519.245211,220.329994 518.441115,221.746321 C517.636071,223.141528 516.482073,224.303984 515.092122,225.119858 L511.941799,226.792453 Z M511.941799,224.864717 L514.978597,223.107075 C515.833747,222.622825 516.532805,221.904892 516.993669,221.037594 C517.455753,220.163667 517.699195,219.191005 517.703201,218.202689 C517.812392,217.413609 517.550512,216.618399 516.993669,216.04816 C516.520647,215.689072 515.858417,215.74577 515.006978,216.218255 L511.97018,217.975896 L511.941799,224.864717 Z" id="Shape" fill="#181E26"></path>
                <path d="M526.955504,218.004245 L524.117374,219.591792 L524.117374,226.792453 L522.130683,227.926415 L522.130683,210.151557 L526.529784,207.600142 C528.062374,206.711871 529.226007,206.494528 530.020683,206.948113 C530.81536,207.401698 531.212698,208.507311 531.212698,210.264953 C531.211951,211.38398 530.990123,212.491859 530.559928,213.525094 C530.123527,214.568075 529.508907,215.527328 528.743525,216.36 L531.780324,222.029811 L531.780324,222.171557 L529.651727,223.390566 L526.955504,218.004245 Z M524.117374,217.692406 L526.501403,216.303302 C527.339369,215.818898 528.026931,215.112495 528.488094,214.26217 C528.978411,213.398074 529.232875,212.420481 529.226007,211.427264 C529.226007,209.14044 528.279964,208.526211 526.387878,209.584575 L524.003849,210.94533 L524.117374,217.692406 Z" id="Shape" fill="#181E26"></path>
                <path d="M544.154568,207.94033 C544.207448,210.152906 543.740893,212.347109 542.792266,214.347217 C541.951081,216.113846 540.595985,217.585962 538.904029,218.571226 C537.276835,219.497296 535.999676,219.601242 535.072554,218.883066 C533.928869,217.654656 533.388481,215.98343 533.596727,214.318868 L533.596727,210.94533 C533.557138,208.740033 534.033327,206.555936 534.98741,204.566792 C535.823882,202.789686 537.179428,201.307197 538.875647,200.314434 C540.521763,199.369465 541.808381,199.274969 542.735504,200.030943 C543.848787,201.33113 544.363737,203.038824 544.154568,204.736887 L544.154568,207.94033 Z M542.167878,205.955896 C542.309594,204.661276 542.020329,203.356083 541.34482,202.24217 C540.796115,201.63739 539.963597,201.63739 538.847266,202.24217 C537.738072,202.894508 536.871413,203.889536 536.378094,205.077075 C535.77831,206.532324 535.488347,208.096344 535.526655,209.669623 L535.526655,212.901415 C535.371392,214.187724 535.661861,215.488349 536.349712,216.586792 C536.898417,217.210472 537.730935,217.210472 538.847266,216.586792 C539.960519,215.939344 540.828529,214.942765 541.316439,213.751887 C541.894993,212.32098 542.175061,210.787175 542.139496,209.244387 L542.167878,205.955896 Z" id="Shape" fill="#181E26"></path>
                <polygon id="Shape" fill="#181E26" points="556.103094 192.518443 551.959424 194.899764 551.959424 210.775236 549.972734 211.909198 549.972734 196.033726 545.857446 198.415047 545.857446 196.487311 556.074712 190.590708"></polygon>
                <path d="M568.335432,193.992594 C568.388312,196.20517 567.921756,198.399373 566.973129,200.399481 C566.131944,202.16611 564.776849,203.638226 563.084892,204.623491 C561.457698,205.54956 560.18054,205.653506 559.253417,204.93533 C558.109733,203.70692 557.569344,202.035694 557.77759,200.371132 L557.77759,196.997594 C557.738001,194.792297 558.21419,192.6082 559.168273,190.619057 C560.004745,188.84195 561.360292,187.359461 563.056511,186.366698 C564.702626,185.42173 565.989245,185.327233 566.916367,186.083208 C568.02965,187.383394 568.5446,189.091088 568.335432,190.789151 L568.335432,193.992594 Z M566.348741,192.00816 C566.490457,190.713541 566.201192,189.408347 565.525683,188.294434 C564.976978,187.689654 564.14446,187.689654 563.028129,188.294434 C561.918936,188.946772 561.052277,189.9418 560.558957,191.12934 C559.959173,192.584588 559.66921,194.148608 559.707518,195.721887 L559.707518,198.896981 C559.552255,200.18329 559.842725,201.483915 560.530576,202.582358 C561.079281,203.206038 561.911799,203.206038 563.028129,202.582358 C564.141382,201.93491 565.009392,200.938331 565.497302,199.747453 C566.075856,198.316546 566.355925,196.782741 566.32036,195.239953 L566.348741,192.00816 Z" id="Shape" fill="#181E26"></path>
                <path d="M581.248921,188.237736 C581.199224,190.055672 580.712515,191.835003 579.829856,193.425613 C578.953918,194.948327 577.67813,196.203061 576.140288,197.054292 C574.569856,197.961462 573.321079,197.961462 572.393957,197.054292 C571.300125,195.744543 570.796841,194.041476 571.003273,192.348349 L571.003273,189.229953 C570.969751,187.040295 571.456052,184.873854 572.422338,182.908113 C573.276618,181.133931 574.63998,179.653699 576.338957,178.655755 C577.852626,177.786384 579.025719,177.625739 579.858237,178.173821 C580.858148,179.102229 581.362743,180.446286 581.22054,181.8025 L579.233849,182.964811 C579.30318,182.013644 579.009081,181.07157 578.410791,180.328349 C577.956691,179.969261 577.266079,180.054308 576.338957,180.583491 C575.232405,181.238998 574.366612,182.233032 573.869784,183.418396 C573.258255,184.899981 572.968065,186.494213 573.018345,188.095991 L573.018345,191.356132 C572.884699,192.637715 573.163034,193.928517 573.813022,195.041509 C574.342806,195.684088 575.128022,195.684088 576.168669,195.041509 C577.091898,194.541698 577.858223,193.79587 578.38241,192.886981 C578.911564,191.758297 579.201441,190.532544 579.233849,189.286651 L581.248921,188.237736 Z" id="Shape" fill="#181E26"></path>
                <path d="M594.16241,179.10934 C594.21529,181.321915 593.748735,183.516118 592.800108,185.516226 C591.958923,187.282855 590.603827,188.754971 588.911871,189.740236 C587.284676,190.666305 586.007518,190.770252 585.080396,190.052075 C583.936711,188.823665 583.396323,187.15244 583.604568,185.487877 L583.604568,182.11434 C583.56498,179.909042 584.041168,177.724945 584.995252,175.735802 C585.831724,173.958695 587.18727,172.476206 588.883489,171.483443 C590.529604,170.538475 591.816223,170.443978 592.743345,171.199953 C593.856628,172.50014 594.371579,174.207833 594.16241,175.905896 L594.16241,179.10934 Z M592.175719,177.124906 C592.317435,175.830286 592.028171,174.525092 591.352662,173.411179 C590.803957,172.806399 589.971439,172.806399 588.855108,173.411179 C587.745914,174.063517 586.879255,175.058545 586.385935,176.246085 C585.786152,177.701333 585.496189,179.265353 585.534496,180.838632 L585.534496,184.013726 C585.379234,185.300035 585.669703,186.600661 586.357554,187.699104 C586.906259,188.322783 587.738777,188.322783 588.855108,187.699104 C589.96974,187.053323 590.838214,186.05621 591.324281,184.864198 C591.902834,183.433291 592.182903,181.899487 592.147338,180.356698 L592.175719,177.124906 Z" id="Shape" fill="#181E26"></path>
                <polygon id="Shape" fill="#181E26" points="599.185899 181.632406 605.34464 178.088774 605.34464 180.016509 597.199209 184.722453 597.199209 166.890896 599.185899 165.756934"></polygon>
                <path d="M495.253597,109.257264 L513.247338,98.8815094 C512.166811,98.5020802 511.122076,98.0277402 510.125396,97.4640566 C509.236359,96.954397 508.408015,96.3457327 507.656223,95.649717 L489.662482,106.025472 C484.67979,104.547024 479.320072,105.023578 474.677158,107.357877 C469.653669,110.192783 469.68205,114.955425 474.677158,117.875377 C480.405019,120.770265 487.170089,120.770265 492.89795,117.875377 C496.984856,115.579104 497.751151,112.063821 495.253597,109.257264 Z M478.622158,115.635802 C477.335052,115.197151 476.469899,113.989218 476.469899,112.630802 C476.469899,111.272385 477.335052,110.064453 478.622158,109.625802 C481.896011,107.968908 485.76424,107.968908 489.038094,109.625802 C490.3252,110.064453 491.190353,111.272385 491.190353,112.630802 C491.190353,113.989218 490.3252,115.197151 489.038094,115.635802 C485.756536,117.302288 481.875335,117.302288 478.593777,115.635802 L478.622158,115.635802 Z M440.619604,77.7614623 L458.613345,67.3857075 C457.532818,67.0062783 456.488083,66.5319383 455.491403,65.9682547 C454.602366,65.4585951 453.774022,64.8499308 453.02223,64.1539151 L435.028489,74.5296698 C430.045797,73.0512217 424.686079,73.5277759 420.043165,75.8620755 C415.019676,78.6969811 415.048058,83.4596226 420.043165,86.3795755 C425.771026,89.2744634 432.536096,89.2744634 438.263957,86.3795755 C442.350863,84.0549528 443.117158,80.5396698 440.619604,77.7614623 Z M423.988165,84.14 C422.701059,83.7013494 421.835906,82.4934164 421.835906,81.135 C421.835906,79.7765836 422.701059,78.5686506 423.988165,78.13 C427.262019,76.4731059 431.130247,76.4731059 434.404101,78.13 C435.691207,78.5686506 436.55636,79.7765836 436.55636,81.135 C436.55636,82.4934164 435.691207,83.7013494 434.404101,84.14 C431.125729,85.7879906 427.257497,85.7774624 423.988165,84.1116509 L423.988165,84.14 Z M471.555216,66.0816509 C476.720612,65.117783 480.466942,62.3395755 480.466942,59.0227358 C480.466942,54.9121226 474.648777,51.566934 467.525072,51.566934 C460.401367,51.566934 454.639964,54.8837736 454.668345,58.9660377 C454.906313,61.2744499 456.354663,63.2825622 458.471439,64.2389623 C460.078395,65.1364404 461.824258,65.7592546 463.636835,66.0816509 L463.636835,80.7948113 C464.944504,80.620336 466.262558,80.5350912 467.581835,80.5396698 C468.901708,80.5457864 470.219677,80.6404966 471.526835,80.8231604 L471.555216,66.0816509 Z M460.202698,58.9943868 C460.202698,56.6414151 463.494928,54.7420283 467.553453,54.7703774 C469.372292,54.7335237 471.170227,55.1629765 472.775612,56.0177358 C473.989224,56.5574808 474.822307,57.703019 474.960971,59.0227358 C474.960971,61.3757075 471.668741,63.2750943 467.610216,63.2467453 C463.551691,63.2183962 460.202698,61.3190094 460.202698,58.9660377 L460.202698,58.9943868 Z M535.100935,90.5468868 C535.100935,86.4362736 529.28277,83.0910849 522.159065,83.0910849 C516.482806,83.0910849 511.572842,85.2456132 509.926727,88.2222642 L480.012842,88.2222642 C479.259845,86.8868732 478.149305,85.7874118 476.805755,85.0471698 C473.996446,83.5510431 470.84998,82.7994819 467.666978,82.8642925 C460.571655,82.8642925 454.781871,86.1811321 454.810252,90.2633962 C455.036854,92.5761102 456.488886,94.5893276 458.613345,95.5363208 C464.340114,98.4357794 471.107368,98.4357794 476.834137,95.5363208 C478.117939,94.8879866 479.205414,93.9093925 479.98446,92.7014151 L509.898345,92.7014151 C510.675282,93.9573277 511.772251,94.9845682 513.07705,95.678066 C515.878373,97.1682975 519.014151,97.919639 522.187446,97.8609434 C529.339532,97.9459906 535.100935,94.6008019 535.072554,90.5185377 L535.100935,90.5468868 Z M467.780504,94.6858491 C465.961665,94.7227027 464.163729,94.2932499 462.558345,93.4384906 C461.340885,92.9035024 460.505931,91.755392 460.372986,90.4334906 C460.372986,88.0805189 463.665216,86.1811321 467.723741,86.2094811 C469.542579,86.1726275 471.340515,86.6020803 472.945899,87.4568396 C474.16336,87.9918278 474.998313,89.1399382 475.131259,90.4618396 C475.020792,91.775327 474.205934,92.9256846 473.002662,93.4668396 C471.382712,94.3017173 469.573521,94.7022176 467.752122,94.6291509 L467.780504,94.6858491 Z M522.244209,94.6858491 C518.185683,94.6858491 514.865072,92.7581132 514.865072,90.4334906 C514.865072,88.1088679 518.157302,86.1811321 522.215827,86.2094811 C524.034666,86.1726275 525.832602,86.6020803 527.437986,87.4568396 C528.651598,87.9965845 529.484681,89.1421228 529.623345,90.4618396 C529.566583,92.8431604 526.274353,94.7425472 522.215827,94.7425472 L522.244209,94.6858491 Z" id="Shape" fill="#181E26"></path>
                <polygon id="Shape" fill="#000000" points="788.091799 509.999528 630.263417 601 473.428381 510.566509 631.256763 419.537689"></polygon>
                <polygon id="Shape" fill="url(#linearGradient-1)" points="630.263417 533.217406 472.463417 442.216934 472.463417 311.556132 630.263417 402.556604"></polygon>
                <polygon id="Shape" fill="url(#linearGradient-2)" points="788.091799 311.556132 630.263417 402.556604 473.428381 312.123113 631.256763 221.094292"></polygon>
                <polygon id="Shape" fill="url(#linearGradient-3)" points="788.091799 442.216934 630.263417 533.217406 630.263417 402.556604 788.091799 311.556132"></polygon>
                <polygon id="Shape" fill="#181E26" points="511.430935 399.891792 505.754676 396.688349 505.754676 403.038538 512.225612 406.780613 512.225612 408.708349 503.711223 403.832311 503.711223 385.944057 512.055324 390.763396 512.055324 392.691132 505.697914 389.034104 505.697914 394.703915 511.374173 397.907358"></polygon>
                <polygon id="Shape" fill="#181E26" points="519.377698 401.677783 522.215827 396.518255 524.543094 397.85066 520.456187 404.370943 524.628237 415.710566 522.27259 414.349811 519.377698 405.731698 516.255755 411.061321 513.900108 409.700566 518.10054 403.095236 513.985252 391.755613 516.284137 393.088019"></polygon>
                <path d="M536.633525,417.014623 C536.633525,418.90456 536.160504,420.10467 535.21446,420.614953 C534.268417,421.125236 533.057482,420.936242 531.581655,420.047972 C529.933249,419.051649 528.626781,417.578599 527.835324,415.823962 C526.88555,413.843418 526.409471,411.66953 526.44464,409.473774 L526.44464,406.241981 C526.224571,404.543007 526.740831,402.830971 527.863705,401.536038 C528.809748,400.742264 530.115288,400.817862 531.780324,401.76283 C533.260411,402.622982 534.469721,403.880021 535.271223,405.391509 C536.130299,406.998805 536.597076,408.786086 536.633525,410.607736 L534.646835,409.445425 C534.622525,408.201639 534.342369,406.97614 533.823777,405.845094 C533.356475,404.94903 532.636071,404.209729 531.751942,403.718915 C530.673453,403.095236 529.850396,403.095236 529.28277,403.718915 C528.578605,404.821669 528.2778,406.133692 528.431331,407.432642 L528.431331,410.721132 C528.389245,412.298656 528.659298,413.868964 529.226007,415.342028 C529.673397,416.522577 530.502398,417.520239 531.581655,418.176934 C532.603381,418.762814 533.341295,418.89511 533.795396,418.573821 C534.249496,418.252531 534.533309,417.373711 534.646835,415.937358 L536.633525,417.014623 Z" id="Shape" fill="#181E26"></path>
                <polygon id="Shape" fill="#181E26" points="549.603777 430.196934 547.617086 429.062972 547.617086 420.785047 541.288058 417.128019 541.288058 425.405943 539.301367 424.271981 539.301367 406.383726 541.288058 407.517689 541.288058 415.200283 547.617086 418.857311 547.617086 411.061321 549.603777 412.195283"></polygon>
                <path d="M560.530576,431.81283 L555.223273,428.751132 L554.002878,432.72 L551.959424,431.557689 L557.011295,416.589387 L558.714173,417.553255 L563.794424,438.361462 L561.779353,437.199151 L560.530576,431.81283 Z M555.734137,427.106887 L560.019712,429.573255 L557.862734,420.189717 L555.734137,427.106887 Z" id="Shape" fill="#181E26"></path>
                <polygon id="Shape" fill="#181E26" points="576.140288 445.533774 574.153597 444.399811 567.85295 426.965142 567.85295 440.771132 565.866259 439.63717 565.866259 421.748915 567.85295 422.882877 574.153597 440.374245 574.153597 426.511557 576.111906 427.645519"></polygon>
                <path d="M589.479496,450.948443 L589.138921,451.231934 C588.155036,451.987909 586.698129,451.808365 584.768201,450.693302 C583.054431,449.700176 581.664701,448.233264 580.766439,446.469292 C579.776629,444.519931 579.270466,442.361461 579.290612,440.175802 L579.290612,436.575472 C579.050819,434.836426 579.532682,433.075014 580.624532,431.699434 C581.513813,430.962358 582.828813,431.094654 584.569532,432.096321 C586.026236,432.920613 587.240008,434.113451 588.088813,435.554906 C588.947823,437.040837 589.425569,438.715917 589.479496,440.430943 L587.492806,439.296981 C587.435962,438.221097 587.155672,437.168789 586.669748,436.206934 C586.19255,435.301323 585.463127,434.553038 584.569532,434.052406 C583.434281,433.390928 582.611223,433.33423 582.10036,433.882311 C581.431532,434.936071 581.141294,436.185674 581.277302,437.425943 L581.277302,441.082972 C581.237897,442.68942 581.547753,444.285296 582.185504,445.760566 C582.739422,446.953845 583.652168,447.944833 584.796583,448.595472 C585.856151,449.219151 586.669748,449.389245 587.237374,449.105755 L587.521187,449.105755 L587.521187,445.080189 L584.683058,443.435943 L584.683058,441.508208 L589.536259,444.343113 L589.479496,450.948443 Z" id="Shape" fill="#181E26"></path>
                <polygon id="Shape" fill="#181E26" points="600.236007 451.118538 594.559748 447.915094 594.559748 454.265283 601.030683 458.007358 601.030683 459.935094 592.516295 455.059057 592.516295 437.142453 600.860396 441.961792 600.860396 443.889528 594.502986 440.204151 594.502986 445.873962 600.179245 449.077406"></polygon>
                <polygon id="Shape" fill="#181E26" points="695.057914 423.931792 690.914245 426.313113 690.914245 442.245283 688.927554 443.379245 688.927554 427.503774 684.812266 429.885094 684.812266 427.957358 695.029532 422.060755"></polygon>
                <path d="M702.124856,428.52434 L699.286727,430.111887 L699.286727,437.312547 L697.300036,438.446509 L697.300036,420.671651 L701.699137,418.120236 C703.231727,417.231965 704.39536,417.014623 705.190036,417.468208 C705.984712,417.921792 706.38205,419.027406 706.38205,420.785047 C706.381304,421.904074 706.159476,423.011954 705.729281,424.045189 C705.293393,425.088438 704.678719,426.047776 703.912878,426.880094 L706.949676,432.549906 L706.949676,432.691651 L704.821079,433.91066 L702.124856,428.52434 Z M699.286727,428.184151 L701.670755,426.795047 C702.508722,426.310644 703.196284,425.60424 703.657446,424.753915 C704.147764,423.889819 704.402227,422.912226 704.39536,421.919009 C704.39536,419.632186 703.449317,419.017956 701.55723,420.076321 L699.173201,421.437075 L699.286727,428.184151 Z" id="Shape" fill="#181E26"></path>
                <polygon id="Shape" fill="#181E26" points="655.579532 338.856274 655.437626 312.690094 645.362266 318.501651 613.631978 300.18816 588.542914 314.646179 620.301583 332.95967 610.226223 338.771226"></polygon>
                <polygon id="Shape" fill="#181E26" points="603.528237 275.921368 603.641763 302.087547 613.745504 296.275991 645.475791 314.589481 670.536475 300.131462 638.806187 281.817972 648.881547 276.006415"></polygon>
            </g>
        </g>
    </g>
</svg>