<svg width="348" height="420" viewBox="0 0 348 420" fill="none" xmlns="http://www.w3.org/2000/svg">
<path fill-rule="evenodd" clip-rule="evenodd" d="M0 100.452L172.903 200.277L346.891 99.826L173.988 0L0 100.452Z" transform="translate(1.08496 219.033)" fill="black" fill-opacity="0.2"/>
<path fill-rule="evenodd" clip-rule="evenodd" d="M0 144.22L173.988 244.673V100.451L0 0V144.22Z" transform="translate(0 99.8257)" fill="#EDEDED"/>
<path fill-rule="evenodd" clip-rule="evenodd" d="M173.988 0L0 100.453L172.903 200.277L346.891 99.825L173.988 0Z" transform="translate(1.08496)" fill="white"/>
<path fill-rule="evenodd" clip-rule="evenodd" d="M0 100.452V244.673L173.988 144.221V0L0 100.452Z" transform="translate(173.988 99.825)" fill="#D8D8D8"/>
<path fill-rule="evenodd" clip-rule="evenodd" d="M2.809 1.623L7.331 20.352L11.851 6.842L14.659 8.465V28.22L12.484 26.964V19.269L12.685 11.679L8.151 24.461L6.485 23.499L1.975 5.55L2.18 13.32V21.015L0 19.755V0L2.809 1.623Z" transform="translate(47.96 189.6)" fill="#181E26"/>
<path fill-rule="evenodd" clip-rule="evenodd" d="M4.15234 11.63L8.87634 14.359L6.50734 4.00903L4.15234 11.63ZM9.435 16.811L3.581 13.431L2.236 17.824L0 16.531L5.579 0L7.449 1.079L13.041 24.061L10.804 22.771L9.435 16.811Z" transform="translate(65.2266 202.792)" fill="#181E26"/>
<path fill-rule="evenodd" clip-rule="evenodd" d="M2.19043 10.896L4.83143 12.421C5.74443 12.949 6.47143 13.033 7.01243 12.676C7.55943 12.32 7.82843 11.579 7.82843 10.456C7.82843 7.91804 6.82343 6.06804 4.80643 4.90404L2.19043 3.39404V10.896ZM5.234 14.786L2.19 13.027V21.02L0 19.754V0L4.855 2.801C6.553 3.782 7.837 5.029 8.708 6.542C9.582 8.054 10.019 9.782 10.019 11.727C10.019 12.948 9.784 13.878 9.31 14.514C8.839 15.149 8.17 15.449 7.305 15.412L10.664 25.748V25.912L8.317 24.558L5.234 14.786Z" transform="translate(80.6211 208.458)" fill="#181E26"/>
<path fill-rule="evenodd" clip-rule="evenodd" d="M3.881 12.892L2.179 14.256V21.014L0 19.755V0L2.179 1.259V10.796L3.606 9.464L8.272 4.776L10.888 6.286L5.259 11.734L11.327 26.294L8.724 24.791L3.881 12.892Z" transform="translate(93.5547 215.926)" fill="#181E26"/>
<path fill-rule="evenodd" clip-rule="evenodd" d="M8.305 15.419L2.179 11.882V18.883L9.32 23.005V25.136L0 19.755V0L9.201 5.311V7.44L2.179 3.389V9.751L8.305 13.289V15.419Z" transform="translate(106.835 223.593)" fill="#181E26"/>
<path fill-rule="evenodd" clip-rule="evenodd" d="M11.278 8.642L6.722 6.011V23.636L4.544 22.38V4.755L0 2.13V0L11.278 6.512V8.642Z" transform="translate(118.02 230.049)" fill="#181E26"/>
<path fill-rule="evenodd" clip-rule="evenodd" d="M2.17578 12.6297L5.51878 10.6997C6.48778 10.1407 7.22978 9.38268 7.74278 8.42768C8.25978 7.47268 8.51678 6.38368 8.51678 5.15868C8.51678 3.98168 8.25278 3.18768 7.72178 2.78268C7.19078 2.37768 6.45978 2.44468 5.52978 2.97968L2.17578 4.91668V12.6297ZM2.176 14.7478V22.4328L0 23.6898V4.05678L5.519 0.86978C7.132 -0.0602201 8.394 -0.24422 9.314 0.31678C10.234 0.87878 10.696 2.06778 10.696 3.88278C10.696 5.77078 10.255 7.47578 9.381 9.00278C8.504 10.5288 7.27 11.7708 5.675 12.7278L2.176 14.7478Z" transform="translate(214.255 235.696)" fill="#181E26"/>
<path fill-rule="evenodd" clip-rule="evenodd" d="M2.18848 12.087L4.82848 10.562C5.74248 10.035 6.46848 9.28202 7.01248 8.30202C7.55648 7.32202 7.82948 6.27402 7.82948 5.15802C7.82948 2.63702 6.82348 1.95602 4.80648 3.12002L2.18848 4.63102V12.087ZM5.234 12.4459L2.188 14.2049V22.1469L0 23.4099V3.77692L4.852 0.974921C6.551 -0.00607854 7.834 -0.246079 8.709 0.251921C9.583 0.750921 10.019 1.96792 10.019 3.89892C10.019 5.11192 9.784 6.30592 9.31 7.48292C8.836 8.65992 8.167 9.72792 7.306 10.6849L10.661 17.0919V17.2539L8.317 18.6079L5.234 12.4459Z" transform="translate(227.759 228.179)" fill="#181E26"/>
<path fill-rule="evenodd" clip-rule="evenodd" d="M9.47299 7.14492C9.47299 5.06992 9.17399 3.69592 8.57499 3.02992C7.97599 2.36892 7.05599 2.39192 5.82199 3.10492C4.61999 3.79692 3.71599 4.83292 3.09899 6.21292C2.48799 7.59092 2.17299 9.28392 2.16699 11.2839V14.8009C2.16699 16.8059 2.47299 18.1589 3.08999 18.8539C3.70399 19.5509 4.61999 19.5459 5.84599 18.8399C7.06599 18.1359 7.96999 17.1279 8.55699 15.8169C9.14299 14.5089 9.44899 12.8449 9.47299 10.8269V7.14492ZM11.652 9.32494C11.652 12.0049 11.145 14.3589 10.139 16.3879C9.131 18.4159 7.701 19.9669 5.846 21.0379C4.059 22.0689 2.647 22.1799 1.614 21.3719C0.578 20.5609 0.04 18.8819 0 16.3349V12.6409C0 10.0159 0.514 7.66394 1.537 5.58494C2.561 3.50494 3.989 1.93894 5.822 0.880939C7.643 -0.172061 9.067 -0.281061 10.087 0.553939C11.105 1.39294 11.627 3.12394 11.652 5.75294V9.32494Z" transform="translate(240.311 220.198)" fill="#181E26"/>
<path fill-rule="evenodd" clip-rule="evenodd" d="M11.278 2.118L6.722 4.749V22.264L4.544 23.521V6.006L0 8.63V6.512L11.278 0V2.118Z" transform="translate(253.854 210.378)" fill="#181E26"/>
<path fill-rule="evenodd" clip-rule="evenodd" d="M9.47299 7.14454C9.47299 5.06954 9.17399 3.69654 8.57499 3.03054C7.97599 2.36854 7.05599 2.39154 5.82199 3.10454C4.62299 3.79754 3.71599 4.83254 3.10199 6.21254C2.48799 7.59054 2.17299 9.28354 2.16699 11.2835V14.8005C2.16699 16.8055 2.47299 18.1595 3.08999 18.8535C3.70399 19.5505 4.62299 19.5465 5.84599 18.8405C7.06599 18.1365 7.96999 17.1275 8.55699 15.8165C9.14599 14.5085 9.44899 12.8455 9.47299 10.8265V7.14454ZM11.652 9.32553C11.652 12.0045 11.145 14.3595 10.139 16.3885C9.131 18.4155 7.701 19.9665 5.846 21.0375C4.059 22.0685 2.65 22.1805 1.614 21.3725C0.578 20.5615 0.04 18.8815 0 16.3345V12.6405C0 10.0155 0.514 7.66453 1.537 5.58453C2.561 3.50553 3.989 1.93953 5.822 0.880527C7.646 -0.172473 9.067 -0.280473 10.087 0.553527C11.105 1.39253 11.627 3.12353 11.652 5.75253V9.32553Z" transform="translate(266.975 204.804)" fill="#181E26"/>
<path fill-rule="evenodd" clip-rule="evenodd" d="M11.254 11.4472C11.159 13.6042 10.64 15.5192 9.692 17.1842C8.745 18.8492 7.403 20.1821 5.674 21.1812C3.939 22.1832 2.558 22.2322 1.534 21.3272C0.51 20.4221 0 18.6872 0 16.1242V12.5642C0 10.0122 0.525 7.69015 1.573 5.60115C2.625 3.51315 4.061 1.94215 5.879 0.892151C7.551 -0.0728487 8.846 -0.256849 9.763 0.349151C10.68 0.954151 11.175 2.28915 11.254 4.35515L9.054 5.62615C8.959 4.08015 8.663 3.11115 8.161 2.71515C7.66 2.32215 6.9 2.42115 5.879 3.01015C4.693 3.69315 3.786 4.73915 3.153 6.15515C2.518 7.56915 2.2 9.28615 2.2 11.3092V14.9092C2.2 16.8952 2.496 18.2492 3.086 18.9682C3.679 19.6872 4.541 19.7171 5.674 19.0632C6.808 18.4081 7.627 17.6182 8.125 16.6922C8.626 15.7652 8.935 14.4402 9.054 12.7182L11.254 11.4472Z" transform="translate(281.6 196.315)" fill="#181E26"/>
<path fill-rule="evenodd" clip-rule="evenodd" d="M9.47302 7.14454C9.47302 5.06954 9.17302 3.69654 8.57502 3.03054C7.97502 2.36854 7.05502 2.39154 5.82102 3.10454C4.62002 3.79754 3.71502 4.83254 3.09802 6.21254C2.48802 7.59054 2.17202 9.28354 2.16602 11.2835V14.8005C2.16602 16.8055 2.47202 18.1595 3.08902 18.8535C3.70302 19.5505 4.62002 19.5465 5.84202 18.8405C7.06502 18.1365 7.96902 17.1275 8.55602 15.8165C9.14302 14.5085 9.44902 12.8455 9.47302 10.8265V7.14454ZM11.652 9.32453C11.652 12.0045 11.144 14.3595 10.139 16.3885C9.13 18.4155 7.701 19.9665 5.842 21.0375C4.058 22.0685 2.646 22.1805 1.614 21.3725C0.577 20.5605 0.039 18.8815 0 16.3345V12.6405C0 10.0155 0.51 7.66453 1.536 5.58453C2.561 3.50553 3.988 1.93953 5.821 0.880527C7.642 -0.172473 9.063 -0.280473 10.087 0.553527C11.104 1.39253 11.627 3.12353 11.652 5.75253V9.32453Z" transform="translate(295.424 188.38)" fill="#181E26"/>
<path fill-rule="evenodd" clip-rule="evenodd" d="M2.188 17.515L8.984 13.592V15.709L0 20.896V1.263L2.188 0V17.515Z" transform="translate(310.442 182.955)" fill="#181E26"/>
<path fill-rule="evenodd" clip-rule="evenodd" d="M116.79 47.67C112.312 47.662 108.657 45.552 108.644 42.967C108.63 40.381 112.261 38.284 116.74 38.292C118.979 38.296 121.012 38.826 122.486 39.677C123.962 40.529 124.88 41.703 124.887 42.996C124.9 45.581 121.268 47.678 116.79 47.67ZM56.7447 47.5611C54.5757 47.5581 52.5327 47.0661 50.9947 46.1781C49.4557 45.2901 48.6047 44.1101 48.5987 42.8581C48.5847 40.2721 52.2167 38.1751 56.6937 38.1841C58.8637 38.1881 60.9067 38.6791 62.4447 39.5671C63.9827 40.4561 64.8347 41.6351 64.8407 42.8871C64.8487 44.1401 64.0097 45.3161 62.4807 46.1981C60.9517 47.0811 58.9147 47.5651 56.7447 47.5611ZM130.978 43.006C130.952 38.482 124.558 34.789 116.721 34.775C110.401 34.763 105.05 37.149 103.225 40.445L70.2349 40.385C69.5479 39.157 68.3679 38.028 66.7389 37.088C64.0459 35.533 60.4719 34.673 56.6749 34.667C48.8389 34.652 42.4829 38.322 42.5069 42.847C42.5189 45.039 44.0079 47.102 46.7009 48.657C49.3939 50.212 52.9679 51.071 56.7649 51.078C60.5609 51.085 64.1259 50.238 66.8019 48.693C68.4209 47.758 69.5879 46.634 70.2619 45.409L103.253 45.469C103.96 46.723 105.169 47.849 106.751 48.762C109.332 50.253 112.891 51.18 116.81 51.187C124.645 51.201 131.002 47.531 130.978 43.006ZM48.4102 8.19111C48.3962 5.60511 52.0282 3.50911 56.5072 3.51711C58.7462 3.52111 60.7792 4.05011 62.2542 4.90211C63.7292 5.75311 64.6462 6.92711 64.6532 8.22011C64.6682 10.8061 61.0362 12.9031 56.5582 12.8951C52.0802 12.8861 48.4252 10.7781 48.4102 8.19111ZM60.9244 16.023C66.6335 14.969 70.7654 11.88 70.7444 8.23105C70.7195 3.70705 64.3254 0.0140458 56.4874 4.58176e-05C48.6495 -0.0149542 42.2934 3.65505 42.3175 8.18005C42.3305 10.442 43.9355 12.497 46.5174 13.987C48.0994 14.9 50.0504 15.599 52.2234 16.007L52.3105 32.254C53.7094 32.066 55.1604 31.956 56.6595 31.959C58.1455 31.962 59.6005 32.074 61.0125 32.268L60.9244 16.023ZM8.48141 35.9471C5.30541 34.1131 5.28941 31.1391 8.44541 29.3161C11.6014 27.4941 16.7544 27.5031 19.9304 29.3371C23.1064 31.1711 23.1234 34.1461 19.9674 35.9681C16.8104 37.7911 11.6584 37.7811 8.48141 35.9471ZM26.8268 28.9189L46.6698 17.4629C45.4188 17.0139 44.2508 16.4939 43.2138 15.8949C42.1768 15.2959 41.2748 14.6219 40.4978 13.8989L20.6538 25.3559C15.3028 23.7659 8.57882 24.2499 4.12482 26.8209C-1.39918 30.0109 -1.37118 35.2169 4.18682 38.4259C9.74682 41.6359 18.7648 41.6519 24.2888 38.4629C28.7428 35.8909 29.5808 32.0089 26.8268 28.9189ZM68.7151 70.723C65.5391 68.889 65.5221 65.914 68.6801 64.092C71.8361 62.269 76.9871 62.279 80.1641 64.112C83.3411 65.946 83.3561 68.921 80.2001 70.743C77.0441 72.566 71.8921 72.557 68.7151 70.723ZM87.0612 63.6941L106.903 52.2381C105.651 51.7891 104.483 51.2691 103.446 50.6701C102.409 50.0711 101.508 49.3971 100.73 48.6741L80.8882 60.1311C75.5352 58.5411 68.8112 59.0251 64.3582 61.5971C58.8342 64.7861 58.8622 69.9931 64.4202 73.2021C69.9792 76.4121 78.9972 76.4281 84.5212 73.2381C88.9762 70.6671 89.8142 66.7851 87.0612 63.6941Z" transform="translate(110.974 56.897)" fill="#181E26"/>
</svg>
