<svg width="127" height="195" viewBox="0 0 127 195" fill="none" xmlns="http://www.w3.org/2000/svg">
<path fill-rule="evenodd" clip-rule="evenodd" d="M117.512 67.4262L0 0V111.675L117.512 179.103V67.4262Z" transform="translate(5.04395 1.80908)" fill="#181E26"/>
<path fill-rule="evenodd" clip-rule="evenodd" d="M90.9106 92.0126L82.8371 96.5429L49.9981 40.4195L35.5079 48.6259L6.82877 0L0 3.90882L35.5277 64.2212L50.0606 55.9903L75.9754 100.399L67.6649 105.059L96.7217 128.447L90.9106 92.0126Z" transform="translate(19.5068 22.614)" fill="black" fill-opacity="0.2"/>
<path fill-rule="evenodd" clip-rule="evenodd" d="M11.8773 36.3179L5.9184 0L0 3.29712L5.95974 39.615L11.8773 36.3179Z" transform="translate(99.7812 118.216)" fill="#39988B"/>
<path fill-rule="evenodd" clip-rule="evenodd" d="M38.886 57.1849L5.81272 0L0 3.31774L33.0741 60.5018L38.886 57.1849Z" transform="translate(59.3926 65.6146)" fill="url(#paint0_linear)"/>
<path fill-rule="evenodd" clip-rule="evenodd" d="M34.3534 49.7112L5.6038 0L0 3.32001L28.7496 53.0312L34.3534 49.7112Z" transform="translate(16.4229 24.5092)" fill="url(#paint1_linear)"/>
<path fill-rule="evenodd" clip-rule="evenodd" d="M90.5717 92.8786L82.529 97.4516L49.8117 40.7999L35.3755 49.0836L6.8033 0L0 3.94562L35.3952 64.8256L49.874 56.5164L75.6921 101.344L67.4126 106.048L96.3618 129.656L90.5717 92.8786Z" transform="translate(9.86328 28.1691)" fill="url(#paint2_linear)"/>
<path fill-rule="evenodd" clip-rule="evenodd" d="M0 2.17043V112.939L3.38652 110.767V0L0 2.17043Z" transform="translate(121.881 67.6949)" fill="#111111"/>
<path fill-rule="evenodd" clip-rule="evenodd" d="M3.87511 0L0 2.19801L116.874 69.899L120.748 67.7018L3.87511 0Z" transform="translate(5.08203 0.300537)" fill="#B9BFCC"/>
<path fill-rule="evenodd" clip-rule="evenodd" d="M5.92023 0L125.647 69.2946L119.727 72.6501L0 3.35474L5.92023 0Z" transform="translate(0.524414 121.83)" fill="black" fill-opacity="0.2"/>
<defs>
<linearGradient id="paint0_linear" x2="1" gradientUnits="userSpaceOnUse" gradientTransform="translate(19.443) scale(38.886 60.5018) rotate(90)">
<stop stop-color="#348C80"/>
<stop offset="1" stop-color="#2D786E"/>
</linearGradient>
<linearGradient id="paint1_linear" x2="1" gradientUnits="userSpaceOnUse" gradientTransform="translate(17.1767) scale(34.3534 53.0312) rotate(90)">
<stop stop-color="#39988B"/>
<stop offset="1" stop-color="#328579"/>
</linearGradient>
<linearGradient id="paint2_linear" x2="1" gradientUnits="userSpaceOnUse" gradientTransform="translate(48.1809 3.88781) scale(93.4724 125.768) rotate(90)">
<stop stop-color="#00E2C1"/>
<stop offset="1" stop-color="#00C3A6"/>
</linearGradient>
</defs>
</svg>
