
<svg width="24px" height="24px" viewBox="0 0 24 24" version="1.1" xmlns="http://www.w3.org/2000/svg" xmlns:xlink="http://www.w3.org/1999/xlink">
    <!-- Generator: Sketch 49.3 (51167) - http://www.bohemiancoding.com/sketch -->
    <desc>Created with Sketch.</desc>
    <defs></defs>
    <g id="Page-1" stroke="none" stroke-width="1" fill="none" fill-rule="evenodd">
        <g id="market-Team" transform="translate(-679.000000, -1113.000000)">
            <g id="Group-5" transform="translate(679.000000, 1113.000000)">
                <g id="profile">
                    <path d="M12,0 C5.373,0 0,5.373 0,12 C0,18.627 5.373,24 12,24 C18.627,24 24,18.627 24,12 C24,5.373 18.627,0 12,0 Z" id="Fill-1-Copy" fill="#00E2C1"></path>
                    <path d="M14.083379,12 L17,12 L17,11.1666667 L14.083379,11.1666667 L14.083379,12 Z M14.083379,10.3333333 L17,10.3333333 L17,9.5 L14.083379,9.5 L14.083379,10.3333333 Z M14.083379,8.66666667 L17,8.66666667 L17,7.83333333 L14.083379,7.83333333 L14.083379,8.66666667 Z M15.3333594,14.9970833 L15.3325261,15.3333333 L7.00182334,15.3333333 L7.0001567,14.98625 C6.99682341,14.0595833 7.03682279,13.53 8.10305608,13.28375 C9.27220443,13.0141667 10.4255197,12.7725 9.87094504,11.7495833 C8.22763746,8.71833333 9.40303571,7 11.1667581,7 C12.8975643,7 14.1012954,8.65458333 12.4629878,11.7491667 C11.9242462,12.7658333 13.0358955,13.0075 14.2300434,13.2833333 C15.30086,13.5308333 15.3371094,14.06375 15.3333594,14.9970833 Z" id="Fill-1" fill="#000000"></path>
                </g>
            </g>
        </g>
    </g>
</svg>
