
<svg width="24px" height="24px" viewBox="0 0 24 24" version="1.1" xmlns="http://www.w3.org/2000/svg" xmlns:xlink="http://www.w3.org/1999/xlink">
    <!-- Generator: Sketch 49.3 (51167) - http://www.bohemiancoding.com/sketch -->
    <desc>Created with Sketch.</desc>
    <defs></defs>
    <g id="Page-1" stroke="none" stroke-width="1" fill="none" fill-rule="evenodd">
        <g id="market-Team" transform="translate(-708.000000, -1113.000000)">
            <g id="Group-5" transform="translate(679.000000, 1113.000000)">
                <g id="linkedin" transform="translate(29.000000, 0.000000)">
                    <path d="M12,0 C5.373,0 0,5.373 0,12 C0,18.627 5.373,24 12,24 C18.627,24 24,18.627 24,12 C24,5.373 18.627,0 12,0 Z" id="Fill-1" fill="#00E2C1"></path>
                    <g id="Group" transform="translate(7.000000, 6.000000)" fill="#000000">
                        <path d="M10,10 L8.002,10 L8.002,7.139 C8.002,5.257 6,5.417 6,7.139 L6,10 L4,10 L4,4 L6,4 L6,5.092 C6.872,3.477 10,3.356 10,6.641 L10,10 Z" id="Path"></path>
                        <path d="M2,3.108 C1.393,3.108 0.9,2.612 0.9,2 C0.9,1.388 1.392,0.891 2,0.891 C2.608,0.891 3.1,1.388 3.1,2 C3.1,2.612 2.607,3.108 2,3.108 Z" id="Path"></path>
                        <polygon id="Path" points="1 10 3 10 3 4 1 4"></polygon>
                    </g>
                </g>
            </g>
        </g>
    </g>
</svg>
