<?xml version="1.0" encoding="UTF-8"?>
<svg enable-background="new 0 0 163.3 209.9" version="1.1" viewBox="0 0 163.3 209.9" xml:space="preserve" xmlns="http://www.w3.org/2000/svg">
<style type="text/css">
	.st0{fill:#FFFFFF;}
	.st1{fill:#181E26;}
	.st2{fill:url(#n);}
	.st3{fill:url(#h);}
	.st4{fill:url(#g);}
	.st5{opacity:0.1;fill:#056777;}
	.st6{fill:#00E2C1;}
	.st7{fill:#4E5668;}
	.st8{fill:#363D4F;}
	.st9{fill:#848C99;}
	.st10{fill:#00C1A0;}
	.st11{fill:url(#f);}
	.st12{fill:url(#e);}
	.st13{fill:url(#d);}
	.st14{fill:url(#c);}
	.st15{fill:url(#b);}
	.st16{fill:url(#a);}
	.st17{fill:url(#x);}
	.st18{fill:url(#w);}
	.st19{fill:url(#v);}
	.st20{fill:url(#u);}
	.st21{fill:url(#t);}
	.st22{fill:url(#s);}
	.st23{fill:url(#r);}
	.st24{fill:url(#q);}
	.st25{fill:url(#p);}
	.st26{fill:url(#o);}
	.st27{fill:url(#m);}
	.st28{fill:url(#l);}
	.st29{fill:url(#k);}
	.st30{fill:url(#j);}
	.st31{fill:url(#i);}
	.st32{fill:#EDEDED;}
	.st33{fill:#D8D8D8;}
</style>
<polygon class="st0" points="136.1 164.4 80.5 196.5 25.2 164.6 80.8 132.5"/>
<path class="st1" d="m88.1 171.1 6.3-3.7c-0.4-0.1-0.8-0.3-1.1-0.5l-0.9-0.6-6.3 3.7c-1.7-0.5-3.9-0.4-5.3 0.5-1.8 1-1.8 2.7 0 3.7s4.7 1 6.4 0c1.6-0.9 1.8-2.1 0.9-3.1zm-5.8 2.2c-1-0.6-1-1.5 0-2.1s2.7-0.6 3.7 0 1 1.5 0 2.1c-1.1 0.6-2.7 0.6-3.7 0zm-13.4-13.3 6.3-3.7c-0.4-0.1-0.8-0.3-1.1-0.5l-0.9-0.6-6.3 3.7c-1.7-0.5-3.9-0.4-5.3 0.5-1.8 1-1.8 2.7 0 3.7s4.7 1 6.4 0c1.5-0.9 1.8-2.2 0.9-3.1zm-5.9 2.2c-1-0.6-1-1.5 0-2.1s2.7-0.6 3.7 0 1 1.5 0 2.1-2.7 0.6-3.7 0zm16.8-6.4c1.8-0.3 3.1-1.3 3.1-2.5 0-1.4-2.1-2.6-4.6-2.6s-4.5 1.2-4.5 2.6c0 0.7 0.5 1.4 1.3 1.9 0.5 0.3 1.1 0.5 1.8 0.6v5.2c0.4-0.1 0.9-0.1 1.4-0.1s0.9 0 1.4 0.1l0.1-5.2zm-4-2.5c0-0.8 1.2-1.5 2.6-1.5 0.7 0 1.4 0.2 1.8 0.4 0.5 0.3 0.8 0.6 0.8 1.1 0 0.8-1.2 1.5-2.6 1.5s-2.6-0.6-2.6-1.5zm26.4 11.2c0-1.4-2.1-2.6-4.6-2.6-2 0-3.7 0.8-4.3 1.8h-10.5c-0.2-0.4-0.6-0.8-1.1-1.1-0.9-0.5-2-0.8-3.2-0.8-2.5 0-4.5 1.2-4.5 2.6 0 0.7 0.5 1.4 1.3 1.9s2 0.8 3.2 0.8 2.4-0.3 3.2-0.8c0.5-0.3 0.9-0.7 1.1-1h10.5c0.2 0.4 0.6 0.8 1.1 1.1 0.8 0.5 2 0.8 3.2 0.8 2.6-0.1 4.6-1.3 4.6-2.7zm-23.7 1.4c-0.7 0-1.3-0.2-1.8-0.4-0.5-0.3-0.8-0.7-0.8-1.1 0-0.8 1.2-1.5 2.6-1.5 0.7 0 1.3 0.2 1.8 0.4 0.5 0.3 0.8 0.7 0.8 1.1s-0.3 0.8-0.8 1.1-1.1 0.4-1.8 0.4zm19.1 0.1c-1.4 0-2.6-0.7-2.6-1.5s1.2-1.5 2.6-1.5c0.7 0 1.4 0.2 1.8 0.4 0.5 0.3 0.8 0.6 0.8 1.1 0 0.8-1.1 1.5-2.6 1.5z"/>
		<linearGradient id="n" x1="54.426" x2="81.639" y1="61.197" y2="61.197" gradientUnits="userSpaceOnUse">
			<stop stop-color="#00FFE2" offset="0"/>
			<stop stop-color="#00CDB3" offset=".9935"/>
		</linearGradient>
		<polygon class="st2" points="81.6 75.4 54.4 59.7 54.4 47 81.6 62.7"/>
		<linearGradient id="h" x1="54.596" x2="108.85" y1="47.006" y2="47.006" gradientUnits="userSpaceOnUse">
			<stop stop-color="#ABFFF3" offset="0"/>
			<stop stop-color="#00FFE2" offset=".9935"/>
		</linearGradient>
		<polygon class="st3" points="108.9 47 81.6 62.7 54.6 47.1 81.8 31.3"/>
		<linearGradient id="g" x1="81.639" x2="108.85" y1="61.197" y2="61.197" gradientUnits="userSpaceOnUse">
			<stop stop-color="#00E2C1" offset="0"/>
			<stop stop-color="#00AA8D" offset=".9956"/>
		</linearGradient>
		<polygon class="st4" points="108.9 59.7 81.6 75.4 81.6 62.7 108.9 47"/>
		<path class="st1" d="m62 58.4v1.1l-0.3-0.2v-2.8l0.8 0.5c0.2 0.1 0.4 0.3 0.5 0.6 0.1 0.2 0.2 0.5 0.2 0.7 0 0.3-0.1 0.4-0.2 0.5s-0.3 0-0.5-0.1l-0.5-0.3zm0-0.3 0.5 0.3c0.1 0.1 0.2 0.1 0.3 0s0.1-0.2 0.1-0.3c0-0.2 0-0.3-0.1-0.5-0.1-0.1-0.2-0.3-0.3-0.3l-0.5-0.4v1.2z"/>
		<path class="st1" d="m64.4 59.7-0.4-0.3v1.2l-0.3-0.2v-2.8l0.7 0.4c0.2 0.1 0.4 0.3 0.6 0.5v0.8c0 0.2 0 0.3-0.1 0.4s-0.2 0.1-0.3 0.1l0.5 1.5-0.3-0.2-0.4-1.4zm-0.5-0.6 0.4 0.2c0.1 0.1 0.2 0.1 0.3 0s0.1-0.2 0.1-0.3c0-0.4-0.1-0.6-0.4-0.8l-0.4-0.2v1.1z"/>
		<path class="st1" d="m67.1 61.3c0 0.4-0.1 0.6-0.2 0.8s-0.4 0.1-0.6 0c-0.3-0.1-0.5-0.4-0.6-0.7s-0.2-0.6-0.2-1v-0.5c0-0.4 0.1-0.6 0.2-0.8 0.1-0.1 0.4-0.1 0.6 0 0.3 0.2 0.5 0.4 0.6 0.7s0.2 0.6 0.2 1v0.5zm-0.3-0.7c0-0.3 0-0.5-0.1-0.7s-0.2-0.3-0.4-0.4-0.3-0.1-0.4 0-0.1 0.3-0.1 0.6v0.5c0 0.3 0 0.5 0.1 0.7s0.2 0.4 0.4 0.5 0.3 0.1 0.4 0 0.1-0.3 0.1-0.6v-0.6z"/>
		<path class="st1" d="m67.6 62.7v-2.8l0.6 0.3c0.3 0.2 0.5 0.4 0.7 0.7s0.2 0.6 0.2 1v0.5c0 0.4-0.1 0.6-0.2 0.7-0.2 0.1-0.4 0.1-0.7-0.1l-0.6-0.3zm0.3-2.4v2.2l0.3 0.1c0.2 0.1 0.4 0.1 0.5 0.1 0.1-0.1 0.2-0.3 0.2-0.6v-0.5c0-0.3-0.1-0.5-0.2-0.7s-0.3-0.4-0.5-0.5l-0.3-0.1z"/>
		<path class="st1" d="m71.1 61.9v2c0 0.3-0.1 0.4-0.2 0.5s-0.3 0-0.6-0.1c-0.2-0.1-0.4-0.3-0.6-0.5-0.1-0.2-0.2-0.5-0.2-0.8v-2l0.3 0.2v2c0 0.2 0 0.4 0.1 0.5l0.3 0.3c0.2 0.1 0.3 0.1 0.3 0.1 0.1-0.1 0.1-0.2 0.1-0.4v-2l0.5 0.2z"/>
		<path class="st1" d="m73.1 65c0 0.3-0.1 0.5-0.2 0.6s-0.3 0.1-0.6-0.1c-0.2-0.1-0.4-0.4-0.6-0.7s-0.2-0.6-0.2-1v-0.5c0-0.4 0.1-0.6 0.2-0.7 0.2-0.1 0.4-0.1 0.6 0s0.4 0.3 0.6 0.6c0.1 0.2 0.2 0.5 0.2 0.8l-0.3-0.2c0-0.2-0.1-0.4-0.1-0.6s-0.2-0.3-0.3-0.3c-0.2-0.1-0.3-0.1-0.4 0s-0.1 0.3-0.1 0.6v0.5c0 0.3 0 0.5 0.1 0.7s0.2 0.4 0.4 0.4c0.2 0.1 0.3 0.1 0.4 0.1 0.1-0.1 0.1-0.2 0.1-0.4l0.2 0.2z"/>
		<path class="st1" d="m74.9 64.4-0.6-0.4v2.5l-0.3-0.1v-2.5l-0.7-0.4v-0.3l1.6 0.9v0.3z"/>
	<path class="st5" d="m88.5 42c-3.5-2-9.2-2-12.7 0s-3.5 5.3 0 7.3 9.2 2 12.7 0c3.4-2 3.4-5.3 0-7.3z"/>
		<path class="st6" d="m87.1 25.4s0 1.3-0.8 1.5-0.6-1.7-0.6-1.7"/>
		<path d="m81.2 44.7s0.7 1.1 1 1.4 1.2 1.2 0.6 1.4-1.5 0-1.8-0.2c-0.3-0.3-1-1.2-1.2-1.3v0.4s-0.1 0.1-0.2 0c-0.1 0-0.2-0.1-0.2-0.1s0-0.7 0-0.9c-0.1-0.2-0.3-0.9-0.2-1.1"/>
		<path d="m83.9 43s0.6 1.1 1 1.4 1.5 1.3 0.8 1.5c-0.6 0.2-1.3 0.2-1.6-0.1-0.3-0.2-1.2-1.3-1.4-1.5v0.4s-0.1 0.1-0.2 0.1-0.2-0.1-0.2-0.1 0-0.6-0.1-0.8-0.4-1.1-0.4-1.2"/>
		<path class="st6" d="m78.6 36.4v1.9c0 0.6-0.2 1-0.2 1.6 0 0.7 0.8 2.4 0.8 3.3s-0.1 1.2-0.1 1.2 0.3 0.8 1.2 0.8 0.8-0.5 0.8-0.5-0.3-1.3-0.3-2.2 0-2 0-2.6 0.2-3.7 0.2-3.7"/>
		<path class="st6" d="m81.5 36.1v0.9s-0.1 0.9-0.1 1.5c0 1.3 0.7 2.2 0.7 3s-0.2 1.1-0.2 1.1 0.4 0.8 1.1 0.8 0.9-0.5 0.9-0.5-0.2-2.8-0.2-3.8c0-1.1 0.1-2.7 0.2-3.3v-1.2"/>
		<path class="st7" d="m81 26.4 5.3-1.1v7.1s-2.5 4.1-7.1 4.1c-2.2 0-2.6-1.4-2.6-1.4v-4.6l4.4-4.1z"/>
		<path class="st8" d="m76.7 35v-4.6l2.7-2.5c0 0.3 0 0.6-0.1 0.7-0.2 1.4-0.1 7.8-0.1 7.8-2.2 0-2.5-1.4-2.5-1.4z"/>
		<path class="st9" d="m86.4 13.5c0 0.8 1 2.2 1 3.7s-0.8 1.5-0.8 3.3v4.8s-3.6 3.7-6.8 3.7-3.2-0.6-3.2-0.6l1.3-12.2 8.5-2.7z"/>
		<path class="st9" d="m85.5 25s0.8 0.5 1.4 0.5 0.7-0.6 0.7-0.6-0.2-4.4-0.2-6.2-1.1-7.9-2-8.9c0 0-2-0.5-4.4 0.8s-2 1.1-2 1.1-1.8 0.4-2.6 2.5-1.3 5.2-1.3 7.5 0.8 7.8 0.8 7.8 0.7 0.5 1.3 0.5 0.9-0.5 0.9-0.5-0.1-4.7-0.1-6.5 1.1-5.1 1.1-5.1l6.4 7.1z"/>
		<path class="st6" d="m76.3 29.8s0.4 2 1.3 2 0.5-2 0.5-2"/>
		<path class="st0" d="m80.5 11.8s2.2 1.7 2.3 1.9 0.4-0.3 0.4-0.3 1.7 3.3 1.7 5.3c0 0 0.4-3-0.5-4.2s-0.4-1.6-0.4-1.6h0.7s-0.7-1.6-1-1.9l-1.9-0.6-1.3 1.4z"/>
		<polygon points="84.5 10.9 85.3 11.5 85.3 8.4 84.2 9.3"/>
		<path class="st10" d="m83.2 11.4-0.1 0.6s-1.6-0.4-2.8-1l1.1-1.3 1.8 1.7z"/>
		<path class="st7" d="m78.3 29h1l0.1-0.5c0.2-1.4 0-10.3 0-10.3l-0.2-0.4s-1.1 3.3-1.1 5.1c-0.1 1.5 0.1 4.8 0.2 6.1z"/>
		<path class="st7" d="m86.9 17.6s-1.8 1.6-4.4 2.2c0 0-0.3 0.9-0.6 1.1 0 0 3.8-1.4 4.9-2"/>
		<path class="st6" d="m80.8 5.9-0.5 4.1s2.2 1.4 3.2 1.4 1.6-1.5 2-2.6 0.3-2.2 0.3-2.2l-5-0.7z"/>
		<path d="m86.3 6.4s-1 0.6-2.7 1-2.5 0.6-2.5 0.6v4.2s-0.4-0.1-1.7-0.4-1.6-0.6-1.6-0.6-0.1-5-0.1-6.2 0.4-3.3 3.7-3.3c4.8 0.1 4.9 4.7 4.9 4.7z"/>
			<path class="st7" d="m87.3 25.4c-0.1 0.1-0.2 0.1-0.4 0.1s-0.4 0-0.5-0.1l0.1-0.1s0-3.1 0-4.8c0-0.5 0.1-0.8 0.1-1.1l0.7 6z"/>
		<linearGradient id="f" x1="27.213" x2="54.426" y1="89.678" y2="89.678" gradientUnits="userSpaceOnUse">
			<stop stop-color="#00FFE2" offset="0"/>
			<stop stop-color="#00CDB3" offset=".9935"/>
		</linearGradient>
		<polygon class="st11" points="54.4 103.9 27.2 88.2 27.2 75.4 54.4 91.1"/>
		<linearGradient id="e" x1="27.383" x2="81.639" y1="75.486" y2="75.486" gradientUnits="userSpaceOnUse">
			<stop stop-color="#ABFFF3" offset="0"/>
			<stop stop-color="#00FFE2" offset=".9935"/>
		</linearGradient>
		<polygon class="st12" points="81.6 75.4 54.4 91.1 27.4 75.5 54.6 59.8"/>
		<linearGradient id="d" x1="54.426" x2="81.639" y1="89.678" y2="89.678" gradientUnits="userSpaceOnUse">
			<stop stop-color="#00E2C1" offset="0"/>
			<stop stop-color="#00AA8D" offset=".9956"/>
		</linearGradient>
		<polygon class="st13" points="81.6 88.2 54.4 103.9 54.4 91.1 81.6 75.4"/>
		<path class="st1" d="m33.7 86.2c0 0.4-0.1 0.6-0.2 0.8-0.1 0.1-0.4 0.1-0.6 0-0.3-0.1-0.5-0.4-0.6-0.7s-0.2-0.6-0.2-1v-0.5c0-0.4 0.1-0.6 0.2-0.8s0.4-0.1 0.6 0c0.3 0.2 0.5 0.4 0.6 0.7s0.2 0.6 0.2 1v0.5zm-0.3-0.7c0-0.3 0-0.5-0.1-0.7s-0.2-0.3-0.4-0.4-0.3-0.1-0.4 0-0.1 0.3-0.1 0.6v0.5c0 0.3 0 0.5 0.1 0.7s0.2 0.4 0.4 0.5 0.3 0.1 0.4 0 0.1-0.3 0.1-0.6v-0.6z"/>
		<path class="st1" d="m34.5 86.7v1.1l-0.3-0.2v-2.8l0.8 0.5c0.2 0.1 0.4 0.3 0.5 0.6 0.1 0.2 0.2 0.5 0.2 0.7 0 0.3-0.1 0.4-0.2 0.5s-0.3 0-0.5-0.1l-0.5-0.3zm0-0.3 0.5 0.3c0.1 0.1 0.2 0.1 0.3 0s0.1-0.2 0.1-0.3c0-0.2 0-0.3-0.1-0.5-0.1-0.1-0.2-0.3-0.3-0.3l-0.5-0.3v1.1z"/>
		<path class="st1" d="m37.4 88.1-0.9-0.5v1l1 0.6v0.3l-1.3-0.8v-2.8l1.3 0.8v0.3l-1-0.6v0.9l0.9 0.5v0.3z"/>
		<path class="st1" d="m38.7 89.1-0.4-0.3v1.2l-0.3-0.2v-2.8l0.7 0.4c0.2 0.1 0.4 0.3 0.6 0.5 0.1 0.2 0.2 0.5 0.2 0.7s0 0.3-0.1 0.4-0.2 0.1-0.3 0.1l0.5 1.5-0.3-0.2-0.6-1.3zm-0.5-0.6 0.4 0.2c0.1 0.1 0.2 0.1 0.3 0s0.1-0.2 0.1-0.3c0-0.4-0.1-0.6-0.4-0.8l-0.4-0.2v1.1z"/>
		<path class="st1" d="m40.9 90.8-0.8-0.5-0.2 0.6-0.3-0.2 0.8-2.4 0.3 0.2 0.8 3.3-0.3-0.2-0.3-0.8zm-0.7-0.8 0.7 0.4-0.3-1.5-0.4 1.1z"/>
		<path class="st1" d="m43 90.2-0.7-0.4v2.5l-0.3-0.2v-2.5l-0.7-0.4v-0.3l1.6 0.9v0.4z"/>
		<path class="st1" d="m43.7 93.1-0.3-0.2v-2.8l0.3 0.2v2.8z"/>
		<path class="st1" d="m45.9 93.2c0 0.4-0.1 0.6-0.2 0.8-0.1 0.1-0.4 0.1-0.6 0-0.3-0.1-0.5-0.4-0.6-0.7s-0.2-0.6-0.2-1v-0.5c0-0.4 0.1-0.6 0.2-0.8 0.1-0.1 0.4-0.1 0.6 0 0.3 0.2 0.5 0.4 0.6 0.7s0.2 0.6 0.2 1v0.5zm-0.3-0.7c0-0.3 0-0.5-0.1-0.7s-0.2-0.3-0.4-0.4-0.3-0.1-0.4 0-0.1 0.3-0.1 0.6v0.5c0 0.3 0 0.5 0.1 0.7s0.2 0.4 0.4 0.5 0.3 0.1 0.4 0 0.1-0.3 0.1-0.6v-0.6z"/>
		<path class="st1" d="m48 95.6-0.3-0.2-1-2.8v2.2l-0.3-0.2v-2.8l0.3 0.2 1 2.8v-2.2l0.3 0.2v2.8z"/>
		<path class="st1" d="m49.6 95.8c0-0.1 0-0.3-0.1-0.4s-0.2-0.3-0.4-0.4c-0.2-0.2-0.3-0.3-0.4-0.5-0.1-0.1-0.2-0.3-0.2-0.4s-0.1-0.3-0.1-0.4c0-0.2 0.1-0.4 0.2-0.4 0.1-0.1 0.3 0 0.5 0.1 0.1 0.1 0.3 0.2 0.4 0.3s0.2 0.3 0.3 0.5 0.1 0.3 0.1 0.5l-0.3-0.2c0-0.2 0-0.3-0.1-0.5l-0.3-0.3c-0.1-0.1-0.2-0.1-0.3 0-0.1 0-0.1 0.1-0.1 0.3 0 0.1 0 0.2 0.1 0.4s0.2 0.3 0.3 0.4c0.2 0.2 0.4 0.5 0.5 0.6s0.3 0.4 0.3 0.6-0.1 0.4-0.2 0.4c-0.1 0.1-0.3 0-0.5-0.1-0.1-0.1-0.3-0.2-0.4-0.3s-0.2-0.3-0.3-0.5-0.1-0.3-0.1-0.5l0.3 0.2c0 0.2 0 0.3 0.1 0.5s0.2 0.3 0.4 0.3c0.1 0.1 0.2 0.1 0.3 0.1s0-0.1 0-0.3z"/>
	<path class="st5" d="m48.5 70.5c3.5-2 9.2-2 12.7 0s3.5 5.3 0 7.3-9.2 2-12.7 0c-3.4-2-3.5-5.3 0-7.3z"/>
		<path class="st6" d="m49.9 53.9s0 1.3 0.8 1.5 0.6-1.7 0.6-1.7"/>
		<path d="m55.8 73.2s-0.7 1.1-1 1.4-1.2 1.2-0.6 1.4c0.6 0.3 1.5 0 1.8-0.2 0.3-0.3 1-1.2 1.2-1.3v0.4s0.1 0.1 0.2 0c0.1 0 0.2-0.1 0.2-0.1s0-0.7 0-0.9c0.1-0.2 0.3-0.9 0.2-1.1"/>
		<path d="m53.1 71.4s-0.6 1.1-1 1.4-1.5 1.3-0.8 1.5c0.6 0.2 1.3 0.2 1.6-0.1 0.3-0.2 1.2-1.3 1.4-1.5v0.4s0.1 0.1 0.2 0.1 0.2-0.1 0.2-0.1 0-0.6 0.1-0.8 0.4-1.1 0.4-1.2"/>
		<path class="st6" d="m58.4 64.9v1.9c0 0.6 0.2 1 0.2 1.6 0 0.7-0.8 2.4-0.8 3.3s0.1 1.2 0.1 1.2-0.3 0.8-1.2 0.8-0.8-0.5-0.8-0.5 0.3-1.3 0.3-2.2v-2.6c0-0.6-0.2-3.7-0.2-3.7"/>
		<path class="st6" d="m55.5 64.6v0.9c0 0.4 0.1 0.9 0.1 1.5 0 1.3-0.7 2.2-0.7 3s0.2 1.1 0.2 1.1-0.4 0.9-1.1 0.9-0.9-0.5-0.9-0.5 0.2-2.8 0.2-3.8c0-1.1-0.1-2.7-0.2-3.3v-1.2"/>
		<path class="st7" d="m56 54.9-5.3-1.1v7.1s2.5 4.1 7.1 4.1c2.2 0 2.6-1.4 2.6-1.4v-4.6l-4.4-4.1z"/>
		<path class="st8" d="m60.3 63.5v-4.6l-2.7-2.5c0 0.3 0 0.6 0.1 0.7 0.2 1.4 0.1 7.8 0.1 7.8 2.2 0 2.5-1.4 2.5-1.4z"/>
		<path class="st9" d="m50.6 42c0 0.8-1 2.2-1 3.7s0.8 1.5 0.8 3.3v4.8s3.5 3.7 6.7 3.7 3.2-0.6 3.2-0.6l-1.3-12.2-8.4-2.7z"/>
		<path class="st9" d="m51.5 53.5s-0.8 0.5-1.4 0.5-0.7-0.6-0.7-0.6 0.2-4.4 0.2-6.2 1.1-7.9 2-8.9c0 0 2-0.5 4.4 0.8s2 1.1 2 1.1 1.8 0.4 2.6 2.5 1.3 5.2 1.3 7.5-0.9 7.8-0.9 7.8-0.7 0.5-1.3 0.5-0.9-0.5-0.9-0.5 0.2-4.7 0.2-6.5-1.1-5.1-1.1-5.1l-6.4 7.1z"/>
		<path class="st6" d="m60.7 58.3s-0.4 2-1.3 2-0.5-2-0.5-2"/>
		<path class="st0" d="m56.5 40.3s-2.2 1.7-2.3 1.9-0.4-0.3-0.4-0.3-1.7 3.3-1.7 5.3c0 0-0.4-3 0.5-4.2 0.8-1.2 0.4-1.6 0.4-1.6h-0.7s0.7-1.6 1-1.9l1.9-0.6 1.3 1.4z"/>
		<polygon points="52.5 39.3 51.7 39.9 51.7 36.9 52.8 37.7"/>
		<path class="st10" d="m53.8 39.8 0.1 0.6s1.6-0.4 2.8-1l-1.1-1.3-1.8 1.7z"/>
		<path class="st7" d="m58.7 57.5h-1l-0.1-0.5c-0.2-1.4 0-10.3 0-10.3l0.2-0.4s1.1 3.3 1.1 5.1c0.1 1.5-0.1 4.8-0.2 6.1z"/>
		<path class="st7" d="m50.1 46.1s1.8 1.6 4.4 2.2c0 0 0.3 0.9 0.6 1.1 0 0-3.8-1.4-4.9-2"/>
		<path class="st6" d="m56.2 34.4 0.5 4.1s-2.2 1.4-3.2 1.4-1.6-1.5-2-2.6-0.3-2.3-0.3-2.3l5-0.6z"/>
		<path d="m50.7 34.9s1 0.6 2.7 1 2.5 0.6 2.5 0.6v4.2s0.4-0.1 1.7-0.4 1.6-0.6 1.6-0.6 0.1-5 0.1-6.2-0.4-3.3-3.7-3.3c-4.8 0-4.9 4.7-4.9 4.7z"/>
			<path class="st7" d="m49.7 53.9c0.1 0.1 0.2 0.1 0.4 0.1s0.4 0 0.5-0.1l-0.1-0.1s0-3.1 0-4.8c0-0.5-0.1-0.8-0.1-1.1l-0.7 6z"/>
		<linearGradient id="c" x1="81.639" x2="108.85" y1="89.579" y2="89.579" gradientUnits="userSpaceOnUse">
			<stop stop-color="#00FFE2" offset="0"/>
			<stop stop-color="#00CDB3" offset=".9935"/>
		</linearGradient>
		<polygon class="st14" points="108.9 103.8 81.6 88.1 81.6 75.3 108.9 91.1"/>
		<linearGradient id="b" x1="81.809" x2="136.07" y1="75.388" y2="75.388" gradientUnits="userSpaceOnUse">
			<stop stop-color="#ABFFF3" offset="0"/>
			<stop stop-color="#00FFE2" offset=".9935"/>
		</linearGradient>
		<polygon class="st15" points="136.1 75.3 108.9 91.1 81.8 75.4 109 59.7"/>
		<linearGradient id="a" x1="108.85" x2="136.07" y1="89.579" y2="89.579" gradientUnits="userSpaceOnUse">
			<stop stop-color="#00E2C1" offset="0"/>
			<stop stop-color="#00AA8D" offset=".9956"/>
		</linearGradient>
		<polygon class="st16" points="136.1 88.1 108.9 103.8 108.9 91.1 136.1 75.3"/>
		<path class="st1" d="m85 85.4v-2.8l0.6 0.3c0.3 0.2 0.5 0.4 0.7 0.7s0.2 0.6 0.2 1v0.5c0 0.4-0.1 0.6-0.2 0.7-0.2 0.1-0.4 0.1-0.7-0.1l-0.6-0.3zm0.3-2.3v2.2l0.3 0.1c0.2 0.1 0.4 0.1 0.5 0.1 0.1-0.1 0.2-0.3 0.2-0.6v-0.5c0-0.3-0.1-0.5-0.2-0.7s-0.3-0.4-0.5-0.5l-0.3-0.1z"/>
		<path class="st1" d="M88.2,86l-0.9-0.5v1l1,0.6v0.3L87,86.6v-2.8l1.3,0.8v0.3l-1-0.6v0.9l0.9,0.5V86z"/>
		<path class="st1" d="m89.5 87.5 0.6-2 0.3 0.2-0.8 2.4-0.3-0.2-0.8-3.3 0.3 0.2 0.7 2.7z"/>
		<path class="st1" d="m91.9 88.1-0.9-0.5v1l1 0.6v0.3l-1.3-0.8v-2.8l1.3 0.8v0.3l-1-0.6v0.9l0.9 0.5v0.3z"/>
		<path class="st1" d="m92.8 89.6 1 0.6v0.3l-1.3-0.7v-2.8l0.3 0.2v2.4z"/>
		<path class="st1" d="m95.6 90.4c0 0.4-0.1 0.6-0.2 0.8-0.1 0.1-0.4 0.1-0.6 0-0.3-0.1-0.5-0.4-0.6-0.7s-0.2-0.6-0.2-1v-0.5c0-0.4 0.1-0.6 0.2-0.8 0.1-0.1 0.4-0.1 0.6 0 0.3 0.2 0.5 0.4 0.6 0.7s0.2 0.6 0.2 1v0.5zm-0.3-0.7c0-0.3 0-0.5-0.1-0.7s-0.2-0.3-0.4-0.4-0.3-0.1-0.4 0-0.1 0.3-0.1 0.6v0.5c0 0.3 0 0.5 0.1 0.7s0.2 0.4 0.4 0.5 0.3 0.1 0.4 0 0.1-0.3 0.1-0.6v-0.6z"/>
		<path class="st1" d="m96.4 90.9v1.1l-0.3-0.2v-2.8l0.8 0.5c0.2 0.1 0.4 0.3 0.5 0.6 0.1 0.2 0.2 0.5 0.2 0.7 0 0.3-0.1 0.4-0.2 0.5s-0.3 0-0.5-0.1l-0.5-0.3zm0-0.3 0.5 0.3c0.1 0.1 0.2 0.1 0.3 0s0.1-0.2 0.1-0.3c0-0.2 0-0.3-0.1-0.5-0.1-0.1-0.2-0.3-0.3-0.3l-0.5-0.3v1.1z"/>
		<path class="st1" d="m98.5 90.4 0.7 2.7 0.7-1.9 0.4 0.2v2.8l-0.4-0.2v-1.1-1.1l-0.7 1.8-0.2-0.1-0.6-2.6v1.1 1.1l-0.3-0.1v-2.8l0.4 0.2z"/>
		<path class="st1" d="m101.9 93.9-0.9-0.5v1l1 0.6v0.3l-1.3-0.8v-2.8l1.3 0.8v0.3l-1-0.6v0.9l0.9 0.5v0.3z"/>
		<path class="st1" d="m104.1 96.5-0.3-0.2-1-2.8v2.2l-0.3-0.2v-2.8l0.3 0.2 1 2.8v-2.2l0.3 0.2v2.8z"/>
		<path class="st1" d="m106 95-0.7-0.4v2.5l-0.3-0.2v-2.5l-0.7-0.4v-0.3l1.6 0.9v0.4z"/>
	<path class="st5" d="m101.4 71.8c3.5-2 9.2-2 12.7 0s3.5 5.3 0 7.3-9.2 2-12.7 0-3.5-5.3 0-7.3z"/>
	<path d="m105 72.6s-2.5 1.9-1.6 2.7c0.8 0.8 4.5-1.2 4.5-1.2"/>
	<path class="st7" d="m105.1 55.7s0.5 7.9 0.5 9.4c0 1.4-0.6 7.6-0.6 7.6s0.5 1.3 1.9 1.4 2.4-0.5 2.4-0.5 0.8-14 0-15.8l-4.2-2.1z"/>
	<path class="st8" d="m106.9 74.1c1.4 0.1 2.4-0.5 2.4-0.5s0.8-14 0-15.8l-2.3-1.1v0.9s1 5.2 0.8 7.8c-0.1 2.5-0.9 8.7-0.9 8.7z"/>
	<path d="m109 75.2s-3 2.1-2 2.9 6-2.2 6-2.2"/>
	<path class="st7" d="m113.7 58.6s0.1 14.9-0.6 17.3c0 0-1 0.7-2.2 0.5-1.2-0.3-1.8-1.2-1.8-1.2s0.5-5.8 0.5-8.3c-0.1-2.5-0.5-9-0.5-9l4.6 0.7z"/>
	<path class="st8" d="m110.8 76.3c1.2 0.3 2.2-0.5 2.2-0.5 0.7-2.3 0.6-17.3 0.6-17.3l-2.5-0.7c0.1 1.5 0.6 7.4 0.5 9.9-0.1 3-0.8 8.6-0.8 8.6z"/>
	<path class="st9" d="m111.5 49.3s1 3.7 1.1 4.8-0.4 7.3-0.4 7.3 0.6 0.6 1.6 0.6 1.6-0.5 1.6-0.5 0.8-5.9 0.6-7.7c-0.1-1.8-0.9-7-1.6-8.7-0.6-1.7-3-3.2-3-3.2l-4.1-2.3-2.6-0.4s-1 0.2-1.2 1.2-1.5 7.1-1.5 8.3-0.1 6.5-0.1 6.5 0.4 0.5 1.2 0.5 1.2-0.6 1.2-0.6l7.2-5.8z"/>
	<path class="st7" d="m104.7 46.3-0.9 1.9s-0.6 5.6-0.7 7.5c0.8 0 1.2-0.6 1.2-0.6l0.4-8.8z"/>
	<path class="st6" d="m114.6 61.7s-0.5 1.9-1.4 1.7-0.5-1.7-0.5-1.7"/>
	<path class="st10" d="m106.7 41.2v0.8s0.1 0.6 0.8 0.6c1.2 0 3-1.4 3-1.4v-1.5l-3.8 1.5z"/>
	<path class="st9" d="m104 45.6 0.1 9.1s0.8 1.9 3 2.8c2.3 1 5.8 1.2 5.8 1.2s0.2-8.9-0.5-11.1l-8.4-2z"/>
	<path class="st7" d="m112.6 54.1c-0.1-0.8-0.7-3.1-0.9-4.2l-0.2 0.2-0.1 8.8s0.4-0.3 1-0.3c0.2-1.7 0.3-3.9 0.2-4.5z"/>
	<path class="st7" d="m105.6 49.4c-0.1-2.2 1.1-6.9 1.2-7.1l0.6 0.2s-1.3 4.8-1.2 6.9h-0.6z"/>
	<path class="st6" d="m102.4 55.8s0.2 1.2 0.9 1.2 0.6-1.7 0.6-1.7"/>
	<path class="st6" d="m104.8 35s-0.6 6.3 2.3 6.3 3.7-1.9 3.7-1.9 0.5 0.1 0.8-0.3 0.5-1 0.5-1l-1.6-3.8-5.7 0.7z"/>
	<path d="m109.5 35.9s-2.5 0.2-3.7-0.5-1.1-1.4-1.1-1.4 1-2.5 5.1-2.5c2.3 0 3 2.1 3 3.2s-0.7 3.2-0.7 3.2-0.1-0.5-0.7-0.5-1 1.3-1 1.3l-0.3-0.9s-0.4 0.1-0.5-0.3c-0.2-0.3-0.1-1.6-0.1-1.6z"/>
		<linearGradient id="x" x1="108.85" x2="136.07" y1="92.522" y2="92.522" gradientUnits="userSpaceOnUse">
			<stop stop-color="#00FFE2" offset="0"/>
			<stop stop-color="#00CDB3" offset=".9935"/>
		</linearGradient>
		<polygon class="st17" points="136.1 106.8 108.9 91.1 108.9 78.3 136.1 94"/>
		<linearGradient id="w" x1="109.02" x2="163.28" y1="78.33" y2="78.33" gradientUnits="userSpaceOnUse">
			<stop stop-color="#ABFFF3" offset="0"/>
			<stop stop-color="#00FFE2" offset=".9935"/>
		</linearGradient>
		<polygon class="st18" points="163.3 78.3 136.1 94 109 78.4 136.2 62.7"/>
		<linearGradient id="v" x1="136.07" x2="163.28" y1="92.522" y2="92.522" gradientUnits="userSpaceOnUse">
			<stop stop-color="#00E2C1" offset="0"/>
			<stop stop-color="#00AA8D" offset=".9956"/>
		</linearGradient>
		<polygon class="st19" points="163.3 91.1 136.1 106.8 136.1 94 163.3 78.3"/>
		<path class="st1" d="m116.2 89.4-0.9-0.5v1l1 0.6v0.3l-1.3-0.8v-2.8l1.3 0.8v0.3l-1-0.6v0.9l0.9 0.5v0.3z"/>
		<path class="st1" d="m117.4 89.6 0.5-0.8 0.4 0.2-0.6 1 0.7 1.8-0.4-0.2-0.5-1.4-0.5 0.8-0.4-0.2 0.7-1-0.7-1.8 0.4 0.2 0.4 1.4z"/>
		<path class="st1" d="M119.9,91.5L119,91v1l1,0.6v0.3l-1.3-0.8v-2.8L120,90v0.3l-1-0.6v0.9l0.9,0.5V91.5z"/>
		<path class="st1" d="m122 93.1c0 0.3-0.1 0.5-0.2 0.6s-0.3 0.1-0.6-0.1c-0.3-0.1-0.4-0.4-0.6-0.7-0.1-0.3-0.2-0.6-0.2-1v-0.5c0-0.4 0.1-0.6 0.2-0.7 0.2-0.1 0.4-0.1 0.6 0s0.4 0.3 0.6 0.6 0.2 0.5 0.2 0.8l-0.3-0.2c0-0.2-0.1-0.4-0.1-0.6s-0.2-0.3-0.3-0.3c-0.2-0.1-0.3-0.1-0.4 0s-0.1 0.3-0.1 0.6v0.5c0 0.3 0 0.5 0.1 0.7s0.2 0.4 0.4 0.4c0.2 0.1 0.3 0.1 0.4 0.1s0.1-0.2 0.1-0.4l0.2 0.2z"/>
		<path class="st1" d="m123.9 92.3v2c0 0.3-0.1 0.4-0.2 0.5s-0.3 0-0.6-0.1c-0.2-0.1-0.4-0.3-0.6-0.6-0.1-0.2-0.2-0.5-0.2-0.8v-2l0.3 0.2v2c0 0.2 0 0.4 0.1 0.5s0.2 0.2 0.3 0.3c0.2 0.1 0.3 0.1 0.3 0.1 0.1-0.1 0.1-0.2 0.1-0.4v-2l0.5 0.3z"/>
		<path class="st1" d="m125.8 93.7-0.7-0.4v2.5l-0.3-0.2v-2.5l-0.7-0.4v-0.3l1.6 0.9v0.4z"/>
		<path class="st1" d="m126.5 96.6-0.3-0.2v-2.8l0.3 0.2v2.8z"/>
		<path class="st1" d="m127.8 96.8 0.6-2 0.3 0.2-0.8 2.4-0.3-0.2-0.8-3.3 0.3 0.2 0.7 2.7z"/>
		<path class="st1" d="m130.2 97.5-0.9-0.5v1l1 0.6v0.3l-1.3-0.8v-2.8l1.3 0.8v0.3l-1-0.6v0.9l0.9 0.5v0.3z"/>
		<linearGradient id="u" x1="54.426" x2="81.639" y1="118.06" y2="118.06" gradientUnits="userSpaceOnUse">
			<stop stop-color="#00FFE2" offset="0"/>
			<stop stop-color="#00CDB3" offset=".9935"/>
		</linearGradient>
		<polygon class="st20" points="81.6 132.3 54.4 116.6 54.4 103.8 81.6 119.5"/>
		<linearGradient id="t" x1="54.596" x2="108.85" y1="103.87" y2="103.87" gradientUnits="userSpaceOnUse">
			<stop stop-color="#ABFFF3" offset="0"/>
			<stop stop-color="#00FFE2" offset=".9935"/>
		</linearGradient>
		<polygon class="st21" points="108.9 103.8 81.6 119.5 54.6 103.9 81.8 88.2"/>
		<linearGradient id="s" x1="81.639" x2="108.85" y1="118.06" y2="118.06" gradientUnits="userSpaceOnUse">
			<stop stop-color="#00E2C1" offset="0"/>
			<stop stop-color="#00AA8D" offset=".9956"/>
		</linearGradient>
		<polygon class="st22" points="108.9 116.6 81.6 132.3 81.6 119.5 108.9 103.8"/>
		<path class="st1" d="m60.3 112.5 0.7 2.7 0.7-1.9 0.4 0.2v2.8l-0.3-0.2v-1.1-1.1l-0.7 1.8-0.2-0.1-0.6-2.6v1.1 1.1l-0.3-0.2v-2.8l0.3 0.3z"/>
		<path class="st1" d="m63.7 116.6-0.8-0.5-0.2 0.6-0.3-0.2 0.8-2.4 0.3 0.2 0.8 3.3-0.3-0.2-0.3-0.8zm-0.8-0.8 0.7 0.4-0.3-1.5-0.4 1.1z"/>
		<path class="st1" d="m65.3 117.1-0.4-0.3v1.2l-0.3-0.2v-2.8l0.7 0.4c0.2 0.1 0.4 0.3 0.6 0.5 0.1 0.2 0.2 0.5 0.2 0.7s0 0.3-0.1 0.4-0.2 0.1-0.3 0.1l0.5 1.5-0.3-0.2-0.6-1.3zm-0.4-0.6 0.4 0.2c0.1 0.1 0.2 0.1 0.3 0s0.1-0.2 0.1-0.3c0-0.4-0.1-0.6-0.4-0.8l-0.4-0.2v1.1z"/>
		<path class="st1" d="m67 117.9-0.2 0.2v1l-0.3-0.2v-2.8l0.3 0.2v1.4l0.9-0.9 0.3 0.2-0.8 0.8 0.9 2.1-0.4-0.2-0.7-1.8z"/>
		<path class="st1" d="m69.5 119.4-0.9-0.5v1l1 0.6v0.3l-1.3-0.8v-2.8l1.3 0.8v0.3l-1-0.6v0.9l0.9 0.5v0.3z"/>
		<path class="st1" d="m71.6 119.3-0.7-0.4v2.5l-0.3-0.2v-2.5l-0.7-0.4v-0.3l1.6 0.9v0.4z"/>
		<path class="st1" d="m72.3 122.3-0.3-0.2v-2.8l0.3 0.2v2.8z"/>
		<path class="st1" d="m74.4 123.5-0.3-0.2-1-2.8v2.2l-0.3-0.2v-2.8l0.3 0.2 1 2.8v-2.2l0.3 0.2v2.8z"/>
		<path class="st1" d="m76.5 124.4c-0.2 0.2-0.4 0.1-0.7 0-0.3-0.2-0.5-0.4-0.6-0.7-0.2-0.3-0.2-0.6-0.2-1v-0.6c0-0.4 0.1-0.7 0.2-0.8s0.3-0.1 0.6 0.1c0.2 0.1 0.4 0.3 0.6 0.5 0.1 0.2 0.2 0.5 0.2 0.8l-0.3-0.2c0-0.2-0.1-0.3-0.1-0.5-0.1-0.1-0.2-0.3-0.3-0.3-0.2-0.1-0.3-0.1-0.4 0s-0.1 0.3-0.1 0.6v0.6c0 0.3 0 0.5 0.1 0.7s0.2 0.4 0.4 0.5 0.3 0.1 0.4 0.1v-0.7l-0.5-0.3v-0.3l0.8 0.4v1.1z"/>
	<path class="st5" d="m86.9 100.3c-3.5-2-9.2-2-12.7 0s-3.5 5.3 0 7.3 9.2 2 12.7 0 3.5-5.3 0-7.3z"/>
	<path d="m83.3 101.1s2.5 1.9 1.6 2.7c-0.8 0.8-4.5-1.2-4.5-1.2"/>
	<path class="st7" d="m83.2 84.2s-0.5 7.9-0.5 9.4 0.6 7.6 0.6 7.6-0.5 1.3-1.9 1.4-2.4-0.5-2.4-0.5-0.8-14 0-15.8l4.2-2.1z"/>
	<path class="st8" d="m81.4 102.5c-1.4 0.1-2.4-0.5-2.4-0.5s-0.8-14 0-15.8l2.3-1.1v0.9s-1 5.2-0.8 7.8 0.9 8.7 0.9 8.7z"/>
	<path d="m79.3 103.6s3 2.1 2 2.9-6-2.2-6-2.2"/>
	<path class="st7" d="m74.6 87.1s-0.1 14.9 0.6 17.3c0 0 1 0.7 2.2 0.5 1.2-0.3 1.8-1.2 1.8-1.2s-0.5-5.8-0.5-8.3c0.1-2.5 0.5-9 0.5-9l-4.6 0.7z"/>
	<path class="st8" d="m77.5 104.8c-1.2 0.3-2.2-0.5-2.2-0.5-0.7-2.3-0.6-17.3-0.6-17.3l2.5-0.7c-0.1 1.5-0.6 7.4-0.5 9.9 0.1 3 0.8 8.6 0.8 8.6z"/>
	<path class="st9" d="m76.8 77.8s-1 3.7-1.1 4.8 0.4 7.3 0.4 7.3-0.6 0.6-1.6 0.6-1.6-0.5-1.6-0.5-0.8-5.9-0.6-7.7c0.1-1.8 0.9-7 1.6-8.7 0.6-1.7 3-3.2 3-3.2l4.1-2.3 2.6-0.4s1 0.2 1.2 1.2 1.5 7.1 1.5 8.3 0.1 6.5 0.1 6.5-0.4 0.5-1.2 0.5-1.2-0.6-1.2-0.6l-7.2-5.8z"/>
	<path class="st7" d="m83.6 74.8 0.9 1.9s0.6 5.6 0.7 7.5c-0.8 0-1.2-0.6-1.2-0.6l-0.4-8.8z"/>
	<path class="st6" d="m73.7 90.2s0.5 1.9 1.4 1.7 0.5-1.7 0.5-1.7"/>
	<path class="st10" d="m81.6 69.7v0.7s-0.1 0.6-0.8 0.6c-1.2 0-3-1.4-3-1.4v-1.5l3.8 1.6z"/>
	<path class="st9" d="m84.3 74.1-0.1 9.1s-0.8 1.9-3 2.8-5.8 1.2-5.8 1.2-0.2-8.9 0.5-11.1l8.4-2z"/>
	<path class="st7" d="m75.7 82.6c0.1-0.8 0.7-3.1 0.9-4.2l0.2 0.2 0.1 8.8s-0.4-0.3-1-0.3c-0.2-1.7-0.3-3.9-0.2-4.5z"/>
	<path class="st7" d="m82.7 77.9c0.1-2.2-1.1-6.9-1.2-7.1l-0.6 0.2s1.3 4.8 1.2 6.9h0.6z"/>
	<path class="st6" d="m85.9 84.3s-0.2 1.2-0.9 1.2c-0.7-0.1-0.6-1.7-0.6-1.7"/>
	<path class="st6" d="m83.5 63.5s0.6 6.3-2.3 6.3-3.7-1.9-3.7-1.9-0.5 0.1-0.8-0.3-0.5-1-0.5-1l1.6-3.8 5.7 0.7z"/>
	<path d="m78.8 64.4s2.5 0.2 3.7-0.5 1.1-1.4 1.1-1.4-1-2.5-5.1-2.5c-2.3 0-3 2.1-3 3.2s0.7 3.2 0.7 3.2 0.2-0.4 0.8-0.4 1 1.3 1 1.3l0.3-0.9s0.4 0.1 0.5-0.3 0-1.7 0-1.7z"/>
		<linearGradient id="r" x1="81.47" x2="108.68" y1="146.44" y2="146.44" gradientUnits="userSpaceOnUse">
			<stop stop-color="#00FFE2" offset="0"/>
			<stop stop-color="#00CDB3" offset=".9935"/>
		</linearGradient>
		<polygon class="st23" points="108.7 160.7 81.5 145 81.5 132.2 108.7 147.9"/>
		<linearGradient id="q" x1="81.639" x2="135.9" y1="132.25" y2="132.25" gradientUnits="userSpaceOnUse">
			<stop stop-color="#ABFFF3" offset="0"/>
			<stop stop-color="#00FFE2" offset=".9935"/>
		</linearGradient>
		<polygon class="st24" points="135.9 132.2 108.7 147.9 81.6 132.3 108.9 116.6"/>
		<linearGradient id="p" x1="108.68" x2="135.9" y1="146.44" y2="146.44" gradientUnits="userSpaceOnUse">
			<stop stop-color="#00E2C1" offset="0"/>
			<stop stop-color="#00AA8D" offset=".9956"/>
		</linearGradient>
		<polygon class="st25" points="135.9 145 108.7 160.7 108.7 147.9 135.9 132.2"/>
		<path class="st1" d="m94 146c0 0.3 0 0.4-0.1 0.6s-0.1 0.2-0.3 0.3l0.4 0.6-0.2 0.1-0.4-0.7c-0.1 0-0.1-0.1-0.2-0.1-0.3-0.1-0.5-0.4-0.6-0.7-0.2-0.3-0.2-0.6-0.2-1v-0.5c0-0.4 0.1-0.6 0.2-0.8 0.1-0.1 0.4-0.1 0.6 0 0.3 0.2 0.5 0.4 0.6 0.7s0.2 0.6 0.2 1v0.5zm-0.3-0.7c0-0.3 0-0.5-0.1-0.7s-0.2-0.3-0.4-0.4-0.3-0.1-0.4 0-0.1 0.3-0.1 0.6v0.5c0 0.3 0 0.5 0.1 0.7s0.2 0.4 0.4 0.5 0.3 0.1 0.4 0 0.1-0.3 0.1-0.6v-0.6z"/>
		<path class="st1" d="m95.7 147.4-0.8-0.5-0.2 0.6-0.3-0.2 0.8-2.4 0.3 0.2 0.8 3.3-0.3-0.2-0.3-0.8zm-0.8-0.7 0.7 0.4-0.3-1.5-0.4 1.1z"/>
	<path class="st5" d="m101.2 128.7c3.5-2 9.2-2 12.7 0s3.5 5.3 0 7.3-9.2 2-12.7 0c-3.5-2.1-3.5-5.3 0-7.3z"/>
	<path d="m104.8 129.5s-2.5 1.9-1.6 2.7c0.8 0.8 4.5-1.2 4.5-1.2"/>
	<path class="st7" d="m105 112.6s0.5 7.9 0.5 9.4-0.6 7.6-0.6 7.6 0.5 1.3 1.9 1.4 2.4-0.5 2.4-0.5 0.8-14 0-15.8l-4.2-2.1z"/>
	<path class="st8" d="m106.7 130.9c1.4 0.1 2.4-0.5 2.4-0.5s0.8-14 0-15.8l-2.3-1.1v0.9s1 5.2 0.8 7.8c-0.1 2.5-0.9 8.7-0.9 8.7z"/>
	<path d="m108.8 132s-3 2.1-2 2.9 6-2.2 6-2.2"/>
	<path class="st7" d="m113.5 115.5s0.1 14.9-0.6 17.3c0 0-1 0.7-2.2 0.5-1.2-0.3-1.8-1.2-1.8-1.2s0.5-5.8 0.5-8.3c-0.1-2.5-0.5-9-0.5-9l4.6 0.7z"/>
	<path class="st8" d="m110.7 133.2c1.2 0.3 2.2-0.5 2.2-0.5 0.7-2.3 0.6-17.3 0.6-17.3l-2.5-0.7c0.1 1.5 0.6 7.4 0.5 9.9-0.1 3-0.8 8.6-0.8 8.6z"/>
	<path class="st9" d="m111.4 106.2s1 3.7 1.1 4.8-0.4 7.3-0.4 7.3 0.6 0.6 1.6 0.6 1.6-0.5 1.6-0.5 0.8-5.9 0.6-7.7c-0.1-1.8-0.9-7-1.6-8.7-0.6-1.7-3-3.2-3-3.2l-4.1-2.3-2.6-0.4s-1 0.2-1.2 1.2-1.5 7.1-1.5 8.3-0.1 6.5-0.1 6.5 0.4 0.5 1.2 0.5 1.2-0.6 1.2-0.6l7.2-5.8z"/>
	<path class="st7" d="m104.6 103.2-0.9 1.9s-0.6 5.6-0.7 7.5c0.8 0 1.2-0.6 1.2-0.6l0.4-8.8z"/>
	<path class="st6" d="m114.4 118.6s-0.5 1.9-1.4 1.7-0.5-1.7-0.5-1.7"/>
	<path class="st10" d="m106.5 98.1v0.7s0.1 0.6 0.8 0.6c1.2 0 3-1.4 3-1.4v-1.5l-3.8 1.6z"/>
	<path class="st9" d="m103.8 102.4 0.1 9.1s0.8 1.9 3 2.8c2.3 1 5.8 1.2 5.8 1.2s0.2-8.9-0.5-11.1l-8.4-2z"/>
	<path class="st7" d="m112.5 111c-0.1-0.8-0.7-3.1-0.9-4.2l-0.2 0.2-0.1 8.8s0.4-0.3 1-0.3c0.1-1.8 0.2-3.9 0.2-4.5z"/>
	<path class="st7" d="m105.5 106.3c-0.1-2.2 1.1-6.9 1.2-7.1l0.6 0.2s-1.3 4.8-1.2 6.9h-0.6z"/>
	<path class="st6" d="m102.3 112.6s0.2 1.2 0.9 1.2c0.7-0.1 0.6-1.7 0.6-1.7"/>
	<path class="st6" d="m104.6 91.8s-0.6 6.3 2.3 6.3 3.7-1.9 3.7-1.9 0.5 0.1 0.8-0.3 0.5-1 0.5-1l-1.6-3.8-5.7 0.7z"/>
	<path d="m109.3 92.8s-2.5 0.2-3.7-0.5c-1.3-0.6-1.1-1.4-1.1-1.4s1-2.5 5.1-2.5c2.3 0 3 2.1 3 3.2s-0.7 3.2-0.7 3.2-0.1-0.5-0.7-0.5-1 1.3-1 1.3l-0.3-0.9s-0.4 0.1-0.5-0.3-0.1-1.6-0.1-1.6z"/>
	<path class="st5" d="m128.6 74.7c3.5-2 9.2-2 12.7 0s3.5 5.3 0 7.3-9.2 2-12.7 0-3.5-5.2 0-7.3z"/>
		<path class="st6" d="m129.9 58.2s0 1.3 0.8 1.5 0.6-1.7 0.6-1.7"/>
		<path d="m135.9 77.4s-0.7 1.1-1 1.4-1.2 1.2-0.6 1.4c0.6 0.3 1.5 0 1.8-0.2s1-1.2 1.2-1.3v0.4s0.1 0.1 0.2 0c0.1 0 0.2-0.1 0.2-0.1s0-0.7 0-0.9c0.1-0.2 0.3-0.9 0.2-1.1"/>
		<path d="m133.2 75.7s-0.6 1.1-1 1.4-1.5 1.3-0.8 1.5c0.6 0.2 1.3 0.2 1.6-0.1 0.3-0.2 1.2-1.3 1.4-1.5v0.4s0.1 0.1 0.2 0.1 0.2-0.1 0.2-0.1 0-0.6 0.1-0.8 0.4-1.1 0.4-1.2"/>
		<path class="st6" d="m138.5 69.1v1.9s0.2 1 0.2 1.6c0 0.7-0.8 2.4-0.8 3.3s0.1 1.2 0.1 1.2-0.3 0.8-1.2 0.8-0.8-0.5-0.8-0.5 0.3-1.3 0.3-2.2v-2.6s-0.2-3.7-0.2-3.7"/>
		<path class="st6" d="m135.6 68.9v0.9c0 0.4 0.1 0.9 0.1 1.5 0 1.3-0.7 2.2-0.7 3s0.2 1.1 0.2 1.1-0.4 0.8-1.1 0.8-0.9-0.5-0.9-0.5 0.2-2.8 0.2-3.8c0-1.1-0.1-2.7-0.2-3.3v-1.2"/>
		<path class="st7" d="m136 59.1-5.3-1.1v7.1s2.5 4.1 7.1 4.1c2.2 0 2.6-1.4 2.6-1.4v-4.6l-4.4-4.1z"/>
		<path class="st8" d="m140.4 67.7v-4.6l-2.7-2.5c0 0.3 0 0.6 0.1 0.7 0.2 1.4 0.1 7.8 0.1 7.8 2.1 0 2.5-1.4 2.5-1.4z"/>
		<path class="st9" d="m130.7 46.2c0 0.8-1 2.2-1 3.7s0.8 1.5 0.8 3.3 0 4.8 0 4.8 3.5 3.7 6.7 3.7 3.2-0.6 3.2-0.6l-1.1-12.1-8.6-2.8z"/>
		<path class="st9" d="m131.5 57.8s-0.8 0.5-1.4 0.5-0.7-0.6-0.7-0.6 0.2-4.4 0.2-6.2 1.1-7.9 2-8.9c0 0 2-0.5 4.4 0.8s2 1.1 2 1.1 1.8 0.4 2.6 2.5 1.3 5.2 1.3 7.5-0.8 7.8-0.8 7.8-0.7 0.5-1.3 0.5-0.9-0.5-0.9-0.5 0.2-4.7 0.2-6.5-1.1-5.1-1.1-5.1l-6.5 7.1z"/>
		<path class="st6" d="m140.7 62.5s-0.4 2-1.3 2-0.5-2-0.5-2"/>
		<path class="st0" d="m136.5 44.5s-2.2 1.7-2.3 1.9-0.4-0.3-0.4-0.3-1.7 3.3-1.7 5.3c0 0-0.4-3 0.5-4.2 0.8-1.2 0.4-1.6 0.4-1.6h-0.7s0.7-1.6 1-1.9l1.9-0.6 1.3 1.4z"/>
		<polygon points="132.6 43.6 131.8 44.2 131.8 41.1 132.9 42"/>
		<path class="st10" d="m133.9 44.1 0.1 0.6s1.6-0.4 2.8-1l-1.1-1.3-1.8 1.7z"/>
		<path class="st7" d="m138.8 61.7h-1l-0.1-0.5c-0.2-1.4 0-10.3 0-10.3l0.2-0.4s1.1 3.3 1.1 5.1c0 1.6-0.1 4.8-0.2 6.1z"/>
		<path class="st7" d="m130.2 50.4s1.8 1.6 4.4 2.2c0 0 0.3 0.9 0.6 1.1 0 0-3.8-1.4-4.9-2"/>
		<path class="st6" d="m136.2 38.6 0.5 4.1s-2.2 1.4-3.2 1.4-1.6-1.5-2-2.6-0.3-2.2-0.3-2.2l5-0.7z"/>
		<path d="m130.8 39.1s1 0.6 2.7 1 2.5 0.6 2.5 0.6v4.2s0.4-0.1 1.7-0.4 1.6-0.6 1.6-0.6 0.1-5 0.1-6.2-0.4-3.3-3.7-3.3c-4.8 0.1-4.9 4.7-4.9 4.7z"/>
			<path class="st7" d="m129.8 58.2c0.1 0.1 0.2 0.1 0.4 0.1s0.4 0 0.5-0.1l-0.1-0.1s0-3.1 0-4.8c0-0.5-0.1-0.8-0.1-1.1l-0.7 6z"/>
		<linearGradient id="o" x2="27.213" y1="118.16" y2="118.16" gradientUnits="userSpaceOnUse">
			<stop stop-color="#00FFE2" offset="0"/>
			<stop stop-color="#00CDB3" offset=".9935"/>
		</linearGradient>
		<polygon class="st26" points="27.2 132.4 0 116.7 0 103.9 27.2 119.6"/>
		<linearGradient id="m" x1=".1699" x2="54.426" y1="103.97" y2="103.97" gradientUnits="userSpaceOnUse">
			<stop stop-color="#ABFFF3" offset="0"/>
			<stop stop-color="#00FFE2" offset=".9935"/>
		</linearGradient>
		<polygon class="st27" points="54.4 103.9 27.2 119.6 0.2 104 27.4 88.3"/>
		<linearGradient id="l" x1="27.213" x2="54.426" y1="118.16" y2="118.16" gradientUnits="userSpaceOnUse">
			<stop stop-color="#00E2C1" offset="0"/>
			<stop stop-color="#00AA8D" offset=".9956"/>
		</linearGradient>
		<polygon class="st28" points="54.4 116.7 27.2 132.4 27.2 119.6 54.4 103.9"/>
		<path class="st1" d="m7.8 116.6v-2.8l0.6 0.3c0.3 0.2 0.5 0.4 0.7 0.7s0.2 0.6 0.2 1v0.5c0 0.4-0.1 0.6-0.2 0.7-0.2 0.1-0.4 0.1-0.7-0.1l-0.6-0.3zm0.4-2.4v2.2l0.3 0.1c0.2 0.1 0.4 0.1 0.5 0.1 0.1-0.1 0.2-0.3 0.2-0.6v-0.5c0-0.3-0.1-0.5-0.2-0.7s-0.3-0.4-0.5-0.5l-0.3-0.1z"/>
		<path class="st1" d="m11 117.1-0.9-0.5v1l1 0.6v0.3l-1.3-0.8v-2.8l1.3 0.8v0.3l-1-0.6v0.9l0.9 0.5v0.3z"/>
		<path class="st1" d="m12.3 118.6 0.6-2 0.3 0.2-0.8 2.4-0.3-0.2-0.8-3.3 0.3 0.2 0.7 2.7z"/>
		<path class="st1" d="m16 120.1c0 0.4-0.1 0.6-0.2 0.8-0.1 0.1-0.4 0.1-0.6 0-0.3-0.1-0.5-0.4-0.6-0.7s-0.2-0.6-0.2-1v-0.5c0-0.4 0.1-0.6 0.2-0.8 0.1-0.1 0.4-0.1 0.6 0 0.3 0.2 0.5 0.4 0.6 0.7s0.2 0.6 0.2 1v0.5zm-0.3-0.7c0-0.3 0-0.5-0.1-0.7s-0.2-0.3-0.4-0.4-0.3-0.1-0.4 0-0.1 0.3-0.1 0.6v0.5c0 0.3 0 0.5 0.1 0.7s0.2 0.4 0.4 0.5 0.3 0.1 0.4 0 0.1-0.3 0.1-0.6v-0.6z"/>
		<path class="st1" d="m16.8 120.6v1.1l-0.3-0.2v-2.8l0.8 0.5c0.2 0.1 0.4 0.3 0.5 0.6 0.1 0.2 0.2 0.5 0.2 0.7 0 0.3-0.1 0.4-0.2 0.5s-0.3 0-0.5-0.1l-0.5-0.3zm0-0.3 0.5 0.3c0.1 0.1 0.2 0.1 0.3 0s0.1-0.2 0.1-0.3c0-0.2 0-0.3-0.1-0.5-0.1-0.1-0.2-0.3-0.3-0.3l-0.5-0.3v1.1z"/>
		<path class="st1" d="m19.5 122.6c0-0.1 0-0.3-0.1-0.4s-0.2-0.3-0.4-0.4c-0.2-0.2-0.3-0.3-0.4-0.5-0.1-0.1-0.2-0.3-0.2-0.4s-0.1-0.3-0.1-0.4c0-0.2 0.1-0.4 0.2-0.4 0.1-0.1 0.3 0 0.5 0.1 0.1 0.1 0.3 0.2 0.4 0.3s0.2 0.3 0.3 0.5 0.1 0.3 0.1 0.5l-0.3-0.2c0-0.2 0-0.3-0.1-0.5l-0.3-0.3c-0.1-0.1-0.2-0.1-0.3 0-0.1 0-0.1 0.1-0.1 0.3 0 0.1 0 0.2 0.1 0.4 0.1 0.1 0.2 0.3 0.3 0.4 0.2 0.2 0.4 0.5 0.5 0.6 0.1 0.2 0.2 0.4 0.2 0.6s-0.1 0.4-0.2 0.4c-0.1 0.1-0.3 0-0.5-0.1-0.1-0.1-0.3-0.2-0.4-0.3s-0.2-0.3-0.3-0.5-0.1-0.3-0.1-0.5l0.3 0.2c0 0.2 0 0.3 0.1 0.5 0.1 0.1 0.2 0.3 0.4 0.4 0.1 0.1 0.2 0.1 0.3 0.1s0.1-0.3 0.1-0.4z"/>
	<path class="st5" d="m19.8 100.4c3.5-2 9.2-2 12.7 0s3.5 5.3 0 7.3-9.2 2-12.7 0-3.5-5.3 0-7.3z"/>
	<path d="m23.4 101.2s-2.5 1.9-1.6 2.7 4.5-1.2 4.5-1.2"/>
	<path class="st7" d="m23.5 84.3s0.5 7.9 0.5 9.4c0 1.4-0.6 7.6-0.6 7.6s0.5 1.3 1.9 1.4 2.4-0.5 2.4-0.5 0.8-14 0-15.8l-4.2-2.1z"/>
	<path class="st8" d="m25.2 102.6c1.4 0.1 2.4-0.5 2.4-0.5s0.8-14 0-15.8l-2.3-1.1v0.9s1 5.2 0.8 7.8c-0.1 2.5-0.9 8.7-0.9 8.7z"/>
	<path d="m27.4 103.7s-3 2.1-2 2.9 6-2.2 6-2.2"/>
	<path class="st7" d="m32 87.2s0.1 14.9-0.6 17.3c0 0-1 0.7-2.2 0.5s-1.8-1.2-1.8-1.2 0.5-5.8 0.5-8.3-0.5-9-0.5-9l4.6 0.7z"/>
	<path class="st8" d="m29.2 104.9c1.2 0.3 2.2-0.5 2.2-0.5 0.7-2.3 0.6-17.3 0.6-17.3l-2.5-0.7c0.1 1.5 0.6 7.4 0.5 9.9-0.1 3-0.8 8.6-0.8 8.6z"/>
	<path class="st9" d="m29.9 77.9s1 3.7 1.1 4.8-0.4 7.3-0.4 7.3 0.6 0.6 1.6 0.6 1.6-0.5 1.6-0.5 0.8-5.9 0.6-7.7c-0.1-1.8-0.9-7-1.6-8.7-0.6-1.7-3-3.2-3-3.2l-4.1-2.3-2.6-0.4s-1 0.2-1.2 1.2-1.5 7.1-1.5 8.3-0.1 6.5-0.1 6.5 0.4 0.5 1.2 0.5 1.2-0.6 1.2-0.6l7.2-5.8z"/>
	<path class="st7" d="m23.1 74.9-0.9 1.9s-0.6 5.6-0.7 7.5c0.8 0 1.2-0.6 1.2-0.6l0.4-8.8z"/>
	<path class="st6" d="m32.9 90.3s-0.5 1.9-1.4 1.7-0.5-1.7-0.5-1.7"/>
	<path class="st10" d="m25.1 69.8v0.7s0.1 0.6 0.8 0.6c1.2 0 3-1.4 3-1.4v-1.5l-3.8 1.6z"/>
	<path class="st9" d="m22.3 74.2 0.1 9.1s0.8 1.9 3 2.8c2.3 1 5.8 1.2 5.8 1.2s0.2-8.9-0.5-11.1l-8.4-2z"/>
	<path class="st7" d="m31 82.7c-0.1-0.8-0.7-3.1-0.9-4.2l-0.2 0.2-0.1 8.8s0.4-0.3 1-0.3c0.1-1.8 0.3-3.9 0.2-4.5z"/>
	<path class="st7" d="m24 78c-0.1-2.2 1.1-6.9 1.2-7.1l0.6 0.2s-1.3 4.8-1.2 6.9h-0.6z"/>
	<path class="st6" d="m20.8 84.4s0.2 1.2 0.9 1.2c0.7-0.1 0.6-1.7 0.6-1.7"/>
	<path class="st6" d="m23.1 63.6s-0.6 6.3 2.3 6.3 3.7-1.9 3.7-1.9 0.5 0.1 0.8-0.3c0.3-0.5 0.5-1 0.5-1l-1.6-3.8-5.7 0.7z"/>
	<path d="m27.8 64.5s-2.5 0.2-3.7-0.5c-1.3-0.6-1.1-1.4-1.1-1.4s1-2.5 5.1-2.5c2.3 0 3 2.1 3 3.2s-0.7 3.2-0.7 3.2-0.1-0.5-0.7-0.5-1 1.3-1 1.3l-0.3-0.9s-0.4 0.1-0.5-0.3c-0.1-0.3-0.1-1.6-0.1-1.6z"/>
		<linearGradient id="k" x1="27.213" x2="54.426" y1="146.54" y2="146.54" gradientUnits="userSpaceOnUse">
			<stop stop-color="#00FFE2" offset="0"/>
			<stop stop-color="#00CDB3" offset=".9935"/>
		</linearGradient>
		<polygon class="st29" points="54.4 160.8 27.2 145.1 27.2 132.3 54.4 148"/>
		<linearGradient id="j" x1="27.383" x2="81.639" y1="132.35" y2="132.35" gradientUnits="userSpaceOnUse">
			<stop stop-color="#ABFFF3" offset="0"/>
			<stop stop-color="#00FFE2" offset=".9935"/>
		</linearGradient>
		<polygon class="st30" points="81.6 132.3 54.4 148 27.4 132.4 54.6 116.7"/>
		<linearGradient id="i" x1="54.426" x2="81.639" y1="146.54" y2="146.54" gradientUnits="userSpaceOnUse">
			<stop stop-color="#00E2C1" offset="0"/>
			<stop stop-color="#00AA8D" offset=".9956"/>
		</linearGradient>
		<polygon class="st31" points="81.6 145.1 54.4 160.8 54.4 148 81.6 132.3"/>
		<path class="st1" d="m35.7 145.3v-2.8l0.7 0.4c0.2 0.1 0.4 0.3 0.5 0.5s0.2 0.4 0.2 0.7c0 0.1 0 0.2-0.1 0.3s-0.1 0.1-0.2 0.1c0.1 0.1 0.2 0.2 0.3 0.4s0.1 0.3 0.1 0.5c0 0.3-0.1 0.4-0.2 0.5s-0.3 0-0.5-0.1l-0.8-0.5zm0.3-1.4 0.4 0.2c0.1 0.1 0.2 0.1 0.3 0s0.1-0.1 0.1-0.3 0-0.3-0.1-0.4l-0.3-0.3-0.4-0.1v0.9zm0 0.3v1l0.4 0.2c0.1 0.1 0.2 0.1 0.3 0 0.1 0 0.1-0.2 0.1-0.3 0-0.3-0.1-0.6-0.4-0.7l-0.4-0.2z"/>
		<path class="st1" d="m37.9 146.6-0.3-0.2v-2.8l0.3 0.2v2.8z"/>
		<path class="st1" d="m38.7 146.8 1.2 0.7v0.3l-1.5-0.9v-0.3l1.1-1.6-1.1-0.6v-0.4l1.5 0.8v0.3l-1.2 1.7z"/>
		<path class="st1" d="m41.1 148.5v-2.8l0.6 0.3c0.3 0.2 0.5 0.4 0.7 0.7s0.2 0.6 0.2 1v0.5c0 0.4-0.1 0.6-0.2 0.7-0.2 0.1-0.4 0.1-0.7-0.1l-0.6-0.3zm0.3-2.4v2.2l0.3 0.1c0.2 0.1 0.4 0.1 0.5 0.1 0.1-0.1 0.2-0.3 0.2-0.6v-0.5c0-0.3-0.1-0.5-0.2-0.7s-0.3-0.4-0.5-0.5l-0.3-0.1z"/>
		<path class="st1" d="m44.3 149-0.9-0.5v1l1 0.6v0.3l-1.3-0.8v-2.8l1.3 0.8v0.3l-1-0.6v0.9l0.9 0.5v0.3z"/>
		<path class="st1" d="m45.6 150.5 0.6-2 0.3 0.2-0.8 2.4-0.3-0.2-0.8-3.3 0.3 0.2 0.7 2.7z"/>
	<path class="st5" d="m59.7 128.8c-3.5-2-9.2-2-12.7 0s-3.5 5.3 0 7.3 9.2 2 12.7 0 3.5-5.3 0-7.3z"/>
		<path class="st6" d="m58.4 112.2s0 1.3-0.8 1.5-0.6-1.7-0.6-1.7"/>
		<path d="m52.4 131.5s0.7 1.1 1 1.4 1.2 1.2 0.6 1.4c-0.6 0.3-1.5 0-1.8-0.2-0.3-0.3-1-1.2-1.2-1.3v0.4s-0.1 0.1-0.2 0c-0.1 0-0.2-0.1-0.2-0.1s0-0.7 0-0.9c-0.1-0.2-0.3-0.9-0.2-1.1"/>
		<path d="m55.2 129.7s0.6 1.1 1 1.4 1.5 1.3 0.8 1.5c-0.6 0.2-1.3 0.2-1.6-0.1-0.3-0.2-1.2-1.3-1.4-1.5v0.4s-0.1 0.1-0.2 0.1-0.2-0.1-0.2-0.1 0-0.6-0.1-0.8-0.4-1.1-0.4-1.2"/>
		<path class="st6" d="m49.9 123.2v1.9s-0.2 1-0.2 1.6c0 0.7 0.8 2.4 0.8 3.3s-0.1 1.2-0.1 1.2 0.3 0.8 1.2 0.8 0.8-0.5 0.8-0.5-0.3-1.3-0.3-2.2v-2.6c0-0.6 0.2-3.7 0.2-3.7"/>
		<path class="st6" d="m52.7 122.9v0.9c0 0.4-0.1 0.9-0.1 1.5 0 1.3 0.7 2.2 0.7 3s-0.2 1.1-0.2 1.1 0.4 0.8 1.1 0.8 0.9-0.5 0.9-0.5-0.2-2.8-0.2-3.8c0-1.1 0.1-2.7 0.2-3.3v-1.2"/>
		<path class="st7" d="m52.3 113.2 5.3-1.1v7.1s-2.5 4.1-7.1 4.1c-2.2 0-2.6-1.4-2.6-1.4v-4.6l4.4-4.1z"/>
		<path class="st8" d="m48 121.8v-4.6l2.7-2.5c0 0.3 0 0.6-0.1 0.7-0.2 1.4-0.1 7.8-0.1 7.8-2.2 0-2.5-1.4-2.5-1.4z"/>
		<path class="st9" d="m57.6 100.3c0 0.8 1 2.2 1 3.7s-0.8 1.5-0.8 3.3v4.8s-3.5 3.7-6.7 3.7-3.2-0.6-3.2-0.6l1.3-12.2 8.4-2.7z"/>
		<path class="st9" d="m56.8 111.8s0.8 0.5 1.4 0.5 0.7-0.6 0.7-0.6-0.2-4.4-0.2-6.2-1.1-7.9-2-8.9c0 0-2-0.5-4.4 0.8s-2 1.1-2 1.1-1.8 0.4-2.6 2.5-1.3 5.2-1.3 7.5 0.8 7.8 0.8 7.8 0.7 0.5 1.3 0.5 0.9-0.5 0.9-0.5-0.2-4.7-0.2-6.5 1.1-5.1 1.1-5.1l6.5 7.1z"/>
		<path class="st6" d="m47.6 116.6s0.4 2 1.3 2 0.5-2 0.5-2"/>
		<path class="st0" d="m51.8 98.6s2.2 1.7 2.3 1.9 0.4-0.3 0.4-0.3 1.7 3.3 1.7 5.3c0 0 0.4-3-0.5-4.2-0.8-1.2-0.4-1.6-0.4-1.6h0.7s-0.7-1.6-1-1.9l-1.9-0.6-1.3 1.4z"/>
		<polygon points="55.7 97.6 56.6 98.2 56.6 95.2 55.5 96"/>
		<path class="st10" d="m54.5 98.2-0.1 0.6s-1.6-0.4-2.8-1l1.1-1.3 1.8 1.7z"/>
		<path class="st7" d="m49.6 115.8h1l0.1-0.5c0.2-1.4 0-10.3 0-10.3l-0.2-0.4s-1.1 3.3-1.1 5.1c-0.1 1.5 0 4.8 0.2 6.1z"/>
		<path class="st7" d="m58.2 104.4s-1.8 1.6-4.4 2.2c0 0-0.3 0.9-0.6 1.1 0 0 3.8-1.4 4.9-2"/>
		<path class="st6" d="m52.1 92.7-0.5 4.1s2.2 1.4 3.2 1.4 1.6-1.5 2-2.6 0.3-2.2 0.3-2.2l-5-0.7z"/>
		<path d="m57.6 93.2s-1 0.6-2.7 1-2.5 0.6-2.5 0.6v4.2s-0.4-0.1-1.7-0.4-1.6-0.6-1.6-0.6-0.1-5-0.1-6.2 0.4-3.3 3.7-3.3c4.7 0 4.9 4.7 4.9 4.7z"/>
			<path class="st7" d="m58.6 112.2c-0.1 0.1-0.2 0.1-0.4 0.1s-0.4 0-0.5-0.1l0.1-0.1s0-3.1 0-4.8c0-0.5 0.1-0.8 0.1-1.1l0.7 6z"/>
<path class="st32" d="m57.5 209.5-1.5-3.8-0.5 0.4v2.2l-0.7-0.4v-6.3l0.7 0.4v3l0.5-0.4 1.5-1.5 0.8 0.5-1.8 1.7 1.9 4.5h0.6v-5.8l2.9 1.7v0.7l-2.2-1.3v2l2 1.1v0.7l-2-1.1v2h4.3v-2.3l-1.5-0.8v-0.7l3.6 2.1v0.7l-1.5-0.8v1.9h15.7v-13.3l-55.6-32.1v45.4h33.3l-0.5-0.4zm-12.6-7.4-0.7-0.4v-2.5l0.1-2.4-1.4 4.1-0.5-0.3-1.4-5.7 0.1 2.5v2.5l-0.7-0.4v-6.3l0.9 0.5 1.4 6 1.4-4.3 0.9 0.5v6.2zm4.3 2.5-0.4-1.9-1.9-1.1-0.4 1.4-0.7-0.4 1.8-5.3 0.6 0.3 1.8 7.3-0.8-0.3zm4.8 2.8-0.8-0.4-1-3.1-1-0.6v2.6l-0.7-0.4v-6.3l1.6 0.9c0.5 0.3 1 0.7 1.2 1.2 0.3 0.5 0.4 1 0.4 1.7 0 0.4-0.1 0.7-0.2 0.9-0.2 0.2-0.4 0.3-0.6 0.3l1.1 3.2z"/>
<path class="st32" d="m52.2 200.7-0.8-0.5v2.4l0.8 0.5c0.3 0.2 0.5 0.2 0.7 0.1s0.3-0.4 0.3-0.7c-0.1-0.8-0.4-1.4-1-1.8z"/>
<polygon class="st32" points="47 201.1 48.5 201.9 47.8 198.6"/>
<path class="st33" d="m93.3 209.8v-0.7l1.8-1c0.5-0.3 0.9-0.4 1.2-0.2s0.4 0.6 0.4 1.1c0 0.3 0 0.5-0.1 0.7h1v-3.2l1.6-0.9c0.5-0.3 1-0.4 1.2-0.2s0.4 0.5 0.4 1.2c0 0.4-0.1 0.8-0.2 1.1s-0.4 0.7-0.6 1l0.5 1h1.9c-0.1 0-0.1-0.1-0.2-0.1-0.3-0.3-0.5-0.8-0.5-1.6v-1.2c0-0.8 0.2-1.6 0.5-2.3s0.8-1.2 1.4-1.5 1-0.4 1.4-0.1c0.3 0.3 0.5 0.8 0.5 1.7v1.1c0 0.9-0.2 1.6-0.5 2.3-0.3 0.6-0.8 1.1-1.4 1.5-0.2 0.1-0.3 0.2-0.4 0.2h33v-45.4l-55.6 32.1v13.3h12.7zm30.8-18.4 0.7-0.4v5.6l2.2-1.3v0.7l-2.9 1.7v-6.3zm-4.8 5.4c0-0.8 0.2-1.6 0.5-2.3s0.8-1.2 1.4-1.5 1-0.4 1.4-0.1c0.3 0.3 0.5 0.8 0.5 1.7v1.1c0 0.9-0.2 1.6-0.5 2.3-0.3 0.6-0.8 1.1-1.4 1.5-0.6 0.3-1 0.4-1.4 0.1-0.3-0.3-0.5-0.8-0.5-1.6v-1.2zm-4.4 2.5c0-0.8 0.2-1.6 0.5-2.2 0.3-0.7 0.8-1.2 1.4-1.5 0.5-0.3 0.9-0.4 1.2-0.2s0.5 0.6 0.5 1.3l-0.7 0.4c0-0.5-0.1-0.8-0.3-0.9s-0.4-0.1-0.7 0.1c-0.4 0.2-0.7 0.6-0.9 1-0.2 0.5-0.3 1-0.3 1.6v1.2c0 0.6 0.1 1.1 0.3 1.3s0.5 0.2 0.8 0 0.6-0.5 0.8-0.8 0.3-0.7 0.3-1.3l0.7-0.4c0 0.7-0.2 1.3-0.5 1.8s-0.7 1-1.3 1.3-1 0.3-1.3 0-0.5-0.8-0.5-1.7v-1zm-4.7 2.7c0-0.8 0.2-1.6 0.5-2.3s0.8-1.2 1.4-1.5 1-0.4 1.4-0.1c0.3 0.3 0.5 0.8 0.5 1.7v1.1c0 0.9-0.2 1.6-0.5 2.3-0.3 0.6-0.8 1.1-1.4 1.5-0.6 0.3-1 0.4-1.4 0.1-0.3-0.3-0.5-0.8-0.5-1.6v-1.2zm-4.2-0.2 3.6-2.1v0.7l-1.5 0.8v5.6l-0.7 0.4v-5.6l-1.5 0.8v-0.6z"/>
<path class="st33" d="m99.9 208.1c0.2-0.3 0.3-0.6 0.3-1 0-0.8-0.3-1-1-0.7l-0.8 0.5v2.4l0.8-0.5c0.3-0.1 0.5-0.4 0.7-0.7z"/>
<path class="st33" d="m112 204c0.4-0.2 0.7-0.5 0.9-1 0.2-0.4 0.3-1 0.3-1.6v-1.2c0-0.7-0.1-1.1-0.3-1.3s-0.5-0.2-0.9 0-0.7 0.6-0.9 1-0.3 1-0.3 1.6v1.1c0 0.6 0.1 1.1 0.3 1.3 0.3 0.3 0.6 0.3 0.9 0.1z"/>
<path class="st33" d="m121.1 198.8c0.4-0.2 0.7-0.5 0.9-1 0.2-0.4 0.3-1 0.3-1.6v-1.2c0-0.7-0.1-1.1-0.3-1.3s-0.5-0.2-0.9 0-0.7 0.6-0.9 1-0.3 1-0.3 1.6v1.1c0 0.6 0.1 1.1 0.3 1.3 0.3 0.3 0.5 0.3 0.9 0.1z"/>
<polygon class="st33" points="98.6 209.8 99.5 209.8 99.3 209.4"/>
<path class="st33" d="m103.5 208.9c0.4-0.2 0.7-0.5 0.9-1 0.2-0.4 0.3-1 0.3-1.6v-1.2c0-0.7-0.1-1.1-0.3-1.3s-0.5-0.2-0.9 0-0.7 0.6-0.9 1-0.3 1-0.3 1.6v1.1c0 0.6 0.1 1.1 0.3 1.3 0.2 0.4 0.5 0.4 0.9 0.1z"/>
<path class="st33" d="m95.8 208.7c-0.2-0.1-0.4-0.1-0.7 0.1l-1.1 0.6v0.4h2v-0.3c0.1-0.4 0-0.6-0.2-0.8z"/>
<polygon class="st1" points="42.5 199.6 41.1 193.6 40.2 193.1 40.2 199.4 40.9 199.8 40.9 197.4 40.8 194.9 42.3 200.6 42.8 200.9 44.2 196.9 44.2 199.3 44.2 201.7 44.9 202.1 44.9 195.8 44 195.3"/>
<path class="st1" d="m47.5 197.3-1.8 5.3 0.7 0.4 0.4-1.4 1.9 1.1 0.4 1.9 0.7 0.4-1.8-7.3-0.5-0.4zm-0.5 3.8 0.8-2.4 0.8 3.3-1.6-0.9z"/>
<path class="st1" d="m53.6 203.8c0.2-0.2 0.2-0.5 0.2-0.9 0-0.6-0.1-1.2-0.4-1.7s-0.7-0.9-1.2-1.2l-1.6-0.9v6.3l0.7 0.4v-2.6l1 0.6 1 3.1 0.8 0.4v-0.1l-1.1-3.3c0.2 0.2 0.4 0.1 0.6-0.1zm-1.4-0.7-0.8-0.5v-2.4l0.8 0.5c0.6 0.4 1 1 1 1.8 0 0.4-0.1 0.6-0.3 0.7s-0.4 0.1-0.7-0.1z"/>
<polygon class="st1" points="58.2 203.5 57.4 203.1 55.9 204.6 55.5 205 55.5 201.9 54.8 201.5 54.8 207.9 55.5 208.3 55.5 206.1 56 205.7 57.5 209.5 58.2 209.8 58.3 209.8 56.4 205.3"/>
<polygon class="st1" points="61.7 208.9 61.7 208.2 59.7 207.1 59.7 205.1 61.9 206.4 61.9 205.7 59 204 59 209.8 59.7 209.8 59.7 207.8"/>
<polygon class="st1" points="66.2 208.8 66.2 208.1 62.6 206.1 62.6 206.7 64 207.6 64 209.8 64.7 209.8 64.7 208"/>
<path class="st1" d="m94 209.4 1.1-0.6c0.3-0.2 0.5-0.2 0.7-0.1s0.3 0.4 0.3 0.8v0.3h0.6c0.1-0.2 0.1-0.5 0.1-0.7 0-0.6-0.1-1-0.4-1.1s-0.7-0.1-1.2 0.2l-1.8 1v0.7h0.6v-0.5z"/>
<path class="st1" d="m99.3 209.4 0.2 0.4h1l-0.5-1c0.3-0.3 0.5-0.6 0.6-1s0.2-0.8 0.2-1.1c0-0.6-0.1-1-0.4-1.2s-0.7-0.1-1.2 0.2l-1.6 0.9v3.2h1l0.7-0.4zm-1-2.5 0.8-0.5c0.6-0.4 1-0.2 1 0.7 0 0.4-0.1 0.7-0.3 1s-0.4 0.6-0.7 0.7l-0.8 0.5v-2.4z"/>
<path class="st1" d="m103.5 209.6c0.6-0.3 1-0.8 1.4-1.5 0.3-0.6 0.5-1.4 0.5-2.3v-1.1c0-0.8-0.2-1.4-0.5-1.7s-0.8-0.2-1.4 0.1-1 0.8-1.4 1.5c-0.3 0.7-0.5 1.4-0.5 2.3v1.2c0 0.8 0.2 1.4 0.5 1.6 0.1 0 0.1 0.1 0.2 0.1h0.7c0.2 0 0.4-0.1 0.5-0.2zm-1.2-2v-1.1c0-0.6 0.1-1.2 0.3-1.6s0.5-0.8 0.9-1 0.7-0.2 0.9 0 0.3 0.7 0.3 1.3v1.2c0 0.6-0.1 1.2-0.3 1.6s-0.5 0.7-0.9 1c-0.4 0.2-0.7 0.2-0.9 0-0.2-0.3-0.3-0.7-0.3-1.4z"/>
<polygon class="st1" points="107.4 207.3 108.1 206.9 108.1 201.3 109.6 200.4 109.6 199.8 106 201.8 106 202.5 107.4 201.7"/>
<path class="st1" d="m112 204.7c0.6-0.3 1-0.8 1.4-1.5 0.3-0.6 0.5-1.4 0.5-2.3v-1.1c0-0.8-0.2-1.4-0.5-1.7s-0.8-0.2-1.4 0.1-1 0.8-1.4 1.5c-0.3 0.7-0.5 1.4-0.5 2.3v1.2c0 0.8 0.2 1.4 0.5 1.6 0.4 0.3 0.9 0.2 1.4-0.1zm-1.1-3.1c0-0.6 0.1-1.2 0.3-1.6s0.5-0.8 0.9-1 0.7-0.2 0.9 0 0.3 0.7 0.3 1.3v1.2c0 0.6-0.1 1.2-0.3 1.6s-0.5 0.7-0.9 1c-0.4 0.2-0.7 0.2-0.9 0s-0.3-0.7-0.3-1.3v-1.2z"/>
<path class="st1" d="m116.7 202c0.6-0.3 1-0.7 1.3-1.3s0.5-1.1 0.5-1.8l-0.7 0.4c0 0.5-0.1 1-0.3 1.3s-0.4 0.5-0.8 0.8-0.6 0.2-0.8 0-0.3-0.7-0.3-1.3v-1.2c0-0.6 0.1-1.2 0.3-1.6 0.2-0.5 0.5-0.8 0.9-1 0.3-0.2 0.6-0.2 0.7-0.1 0.2 0.1 0.3 0.4 0.3 0.9l0.7-0.4c0-0.7-0.2-1.1-0.5-1.3s-0.7-0.1-1.2 0.2c-0.6 0.3-1 0.8-1.4 1.5-0.3 0.7-0.5 1.4-0.5 2.2v1.1c0 0.8 0.2 1.4 0.5 1.7s0.7 0.3 1.3-0.1z"/>
<path class="st1" d="m121.1 199.5c0.6-0.3 1.1-0.8 1.4-1.5 0.3-0.6 0.5-1.4 0.5-2.3v-1.1c0-0.8-0.2-1.4-0.5-1.7s-0.8-0.2-1.4 0.1-1 0.8-1.4 1.5c-0.3 0.7-0.5 1.4-0.5 2.3v1.2c0 0.8 0.2 1.4 0.5 1.6 0.4 0.2 0.9 0.2 1.4-0.1zm-1.1-3.2c0-0.6 0.1-1.2 0.3-1.6s0.5-0.8 0.9-1 0.7-0.2 0.9 0 0.3 0.7 0.3 1.3v1.2c0 0.6-0.1 1.2-0.3 1.6s-0.5 0.7-0.9 1c-0.4 0.2-0.7 0.2-0.9 0s-0.3-0.7-0.3-1.3v-1.2z"/>
<polygon class="st1" points="126.9 195.3 124.8 196.6 124.8 191 124.1 191.4 124.1 197.7 126.9 196"/>
<polygon points="58.4 209.9 58.3 209.8 58.2 209.8"/>
<path d="m103.1 209.8h-0.7c0.2 0.1 0.4 0.1 0.7 0z"/>
</svg>
