<?xml version="1.0" encoding="utf-8"?>
<!-- Generator: Adobe Illustrator 18.1.1, SVG Export Plug-In . SVG Version: 6.00 Build 0)  -->
<svg version="1.1" id="Layer_1" xmlns="http://www.w3.org/2000/svg" xmlns:xlink="http://www.w3.org/1999/xlink" x="0px" y="0px"
	 viewBox="73.4 -132.4 236.9 659" enable-background="new 73.4 -132.4 236.9 659" xml:space="preserve">
<g id="Group-2">
	<g id="Asset-1" transform="translate(874.000000, 66.000000)">
		<polyline id="Shape_34_" fill="none" stroke="#FFFFFF" stroke-width="0.7395" points="-682.3,392.4 -681,391.7 -679.7,392.4 		"/>
		<polygon id="Shape_40_" fill="#EDEDED" points="-682.1,460.6 -798,394 -798.1,354 -682.2,420.6 		"/>
		<polygon id="Shape_41_" fill="#FFFFFF" points="-566.7,353.4 -682.2,420.6 -797.3,354.4 -681.8,287.3 		"/>
		<polygon id="Shape_42_" fill="#D8D8D8" points="-566.5,393.4 -682.1,460.6 -682.2,420.6 -566.7,353.4 		"/>
		<path id="Shape_43_" fill="#181E26" d="M-761.7,396.1c0,0.2-0.1,0.2-0.3,0.1l-5-2.9c0.2,1.7,1,3.2,2.4,4.1c0.9,0.5,1.6,0.5,2.1,0
			c0.1-0.1,0.2-0.1,0.2,0c0.2,0.1,0.3,0.3,0.3,0.4c0,0,0,0.1,0,0.1c-0.5,0.7-1.4,0.6-2.5,0c-1.7-1.2-2.8-3.2-2.9-5.3
			c0-1.9,1.2-2.9,2.9-1.9C-762.8,392-761.8,393.9-761.7,396.1L-761.7,396.1z M-762.2,395.5c-0.1-1.7-1-3.2-2.4-4.1
			c-1.3-0.8-2.3,0-2.4,1.4L-762.2,395.5z"/>
		<path id="Shape_44_" fill="#181E26" d="M-755.6,396.1c0.1,0.1,0.2,0.3,0.3,0.4c0,0.2-0.1,0.2-0.2,0.1l-1.4-0.8v6.1
			c0,0.1,0,0.1-0.1,0.1c-0.1,0-0.1,0-0.2,0c-0.1-0.1-0.2-0.3-0.3-0.4v-6.1l-1.3-0.8c-0.2-0.1-0.3-0.3-0.3-0.4c0-0.1,0-0.1,0.1-0.1
			s0.1,0,0.2,0l1.3,0.8v-2.2c0-0.2,0.1-0.2,0.2-0.1c0.2,0.1,0.3,0.3,0.3,0.4v2.2L-755.6,396.1z"/>
		<path id="Shape_45_" fill="#181E26" d="M-747.3,403.8v3.7c0,0.2-0.1,0.2-0.2,0.1c-0.2-0.1-0.3-0.3-0.3-0.4v-3.7
			c0-1.4-0.7-2.7-1.8-3.5c-1.6-0.9-2.2,0.3-2.1,1.9c0,0,0,0.2,0,0.3v2.8c0,0.2-0.1,0.2-0.2,0.1c-0.2-0.1-0.3-0.3-0.3-0.4v-12.1
			c0-0.1,0-0.1,0.1-0.1c0.1,0,0.1,0,0.2,0c0.1,0.1,0.2,0.3,0.3,0.4v6.9c0.2-0.3,0.6-0.6,1-0.6c0.4-0.1,0.8,0.1,1.1,0.3
			C-748.2,400.4-747.3,402-747.3,403.8"/>
		<path id="Shape_46_" fill="#181E26" d="M-738.2,409.6c0,0.2-0.1,0.2-0.3,0.1l-5-2.9c0.2,1.7,1,3.2,2.4,4.1c0.9,0.5,1.6,0.5,2.1,0
			c0.1-0.1,0.2-0.1,0.2,0c0.2,0.1,0.3,0.3,0.3,0.4c0,0,0,0.1,0,0.1c-0.5,0.7-1.4,0.6-2.5,0c-1.7-1.2-2.8-3.2-2.9-5.3
			c0-1.9,1.2-2.9,2.9-1.9C-739.4,405.5-738.3,407.4-738.2,409.6L-738.2,409.6z M-738.8,409c-0.1-1.7-1-3.2-2.4-4.1
			c-1.3-0.8-2.3,0-2.4,1.4L-738.8,409z"/>
		<path id="Shape_47_" fill="#181E26" d="M-732,409.9c0,0.2-0.1,0.2-0.2,0.2c-1.4-0.6-2.1,0.4-2.1,2v2.8c0,0.2-0.1,0.2-0.2,0.1
			c-0.2-0.1-0.3-0.3-0.3-0.4v-6.3c0-0.2,0.1-0.2,0.2-0.1c0.2,0.1,0.3,0.3,0.3,0.4v1.3c0.5-0.7,1.4-0.8,2.1-0.4
			C-732.1,409.6-732,409.7-732,409.9"/>
		<path id="Shape_48_" fill="#181E26" d="M-723.7,417.9c0,0.2-0.1,0.2-0.3,0.1l-5-2.9c0.2,1.7,1,3.2,2.4,4.1c0.9,0.5,1.6,0.5,2.1,0
			c0.1-0.1,0.2-0.1,0.2,0c0.2,0.1,0.3,0.3,0.3,0.4c0,0,0,0.1,0,0.1c-0.5,0.7-1.4,0.6-2.5,0c-1.7-1.2-2.8-3.2-2.9-5.3
			c0-1.9,1.2-2.9,2.9-1.9C-724.8,413.8-723.7,415.8-723.7,417.9L-723.7,417.9z M-724.2,417.3c-0.1-1.7-1-3.2-2.4-4.1
			c-1.3-0.8-2.3,0-2.4,1.4L-724.2,417.3z"/>
		<path id="Shape_49_" fill="#181E26" d="M-715.6,419.5v6.4c0,0.2-0.1,0.2-0.2,0.1c-0.2-0.1-0.3-0.3-0.3-0.4v-1.2
			c-0.2,0.3-0.6,0.6-0.9,0.7c-0.4,0.1-0.8,0-1.1-0.2c-1.4-1-2.3-2.6-2.3-4.4v-3.8c0-0.1,0-0.1,0.1-0.1c0.1,0,0.1,0,0.2,0
			c0.1,0.1,0.2,0.3,0.3,0.4v3.7c0,1.4,0.7,2.7,1.8,3.5c1.7,1,2.1-0.6,2.1-2.6v-2.4c0-0.1,0-0.1,0.1-0.1c0.1,0,0.1,0,0.2,0
			C-715.7,419.1-715.6,419.2-715.6,419.5"/>
		<path id="Shape_50_" fill="#181E26" d="M-702.8,429.4v3.7c0,0.2-0.1,0.2-0.2,0.1c-0.2-0.1-0.3-0.3-0.3-0.4v-3.7
			c0-1.4-0.7-2.7-1.8-3.5c-1.4-0.9-2.1,0.7-2.1,2.1v2.9c0,0.2-0.1,0.2-0.2,0.1c-0.2-0.1-0.3-0.3-0.3-0.4v-3.7c0-1.4-0.7-2.7-1.8-3.5
			c-1.5-0.9-2.2,0.1-2.1,2c0,0,0,0.1,0,0.1v2.8c0,0.2-0.1,0.2-0.2,0.1c-0.2-0.1-0.3-0.3-0.3-0.4v-6.4c0-0.2,0.1-0.2,0.2-0.1
			c0.2,0.1,0.3,0.3,0.3,0.4v1.1c0.4-0.6,1.2-0.8,2.1-0.3c1.1,0.7,1.9,1.8,2.2,3.1c0.2-0.4,0.6-0.7,1-0.8c0.4-0.1,0.9,0,1.3,0.3
			C-703.6,426-702.8,427.6-702.8,429.4"/>
		<g id="Group" transform="translate(13.045964, 578.763369)" opacity="0.6">
			<polygon id="Shape_51_" fill="#181E26" points="-791.8,-197.3 -798.1,-197.6 -791.7,-189.7 -785.4,-190.4 			"/>
		</g>
		<g id="Group_1_" transform="translate(13.045964, 570.060160)" opacity="0.45">
			<polygon id="Shape_52_" fill="#181E26" points="-798.1,-188.9 -791.7,-181 -791.8,-188.6 -791.8,-197.3 			"/>
		</g>
		<g id="Group_2_" transform="translate(18.844170, 570.060160)" opacity="0.8">
			<polygon id="Shape_53_" fill="#181E26" points="-797.6,-197.3 -797.6,-188.6 -797.5,-181 -791.2,-181.7 			"/>
		</g>
		<g id="Group_3_" transform="translate(13.045964, 580.213904)" opacity="0.45">
			<polygon id="Shape_54_" fill="#181E26" points="-798,-197.7 -791.7,-183.9 -791.7,-189.8 			"/>
		</g>
		<g id="Group_4_" transform="translate(18.844170, 587.466578)" opacity="0.8">
			<polygon id="Shape_55_" fill="#181E26" points="-797.5,-197.1 -797.5,-191.1 -791.2,-197.7 			"/>
		</g>
		<path id="Shape_56_" fill="#181E26" d="M-660.9,436v-13.2l3.3-1.9c1-0.6,1.8-0.8,2.4-0.5s0.8,1,0.8,2.2c0,0.6-0.1,1.3-0.4,1.9
			c-0.3,0.6-0.6,1.2-1.1,1.7c0.5-0.1,1,0,1.3,0.4c0.3,0.5,0.5,1.1,0.5,1.8c0,1.2-0.3,2.3-0.8,3.3c-0.6,1-1.5,1.9-2.5,2.4L-660.9,436
			z M-659.4,427.5l1.9-1.1c0.5-0.3,0.9-0.8,1.2-1.3c0.3-0.6,0.5-1.2,0.5-1.8c0-0.7-0.1-1.2-0.4-1.3c-0.3-0.2-0.7-0.1-1.3,0.2
			l-1.8,1.1L-659.4,427.5z M-659.4,429v4.8l2-1.1c0.6-0.3,1-0.8,1.3-1.5c0.3-0.6,0.5-1.3,0.5-2c0-1.6-0.6-2.1-1.8-1.4L-659.4,429z"
			/>
		<polygon id="Shape_57_" fill="#181E26" points="-650.7,428.6 -646.2,425.9 -646.2,427.4 -652.2,430.8 -652.2,417.6 -650.7,416.8 
					"/>
		<path id="Shape_58_" fill="#181E26" d="M-637.5,416.9c0,1.6-0.3,3.3-1,4.8c-0.6,1.3-1.6,2.4-2.9,3.1c-1.2,0.7-2.1,0.8-2.8,0.2
			c-0.8-0.9-1.2-2.2-1.1-3.4v-2.5c0-1.6,0.3-3.3,1-4.7c0.6-1.3,1.6-2.4,2.9-3.2c1.2-0.7,2.2-0.8,2.9-0.2c0.8,1,1.2,2.2,1,3.5
			L-637.5,416.9z M-638.9,415.4c0.1-1-0.1-1.9-0.6-2.8c-0.4-0.5-1-0.5-1.8,0c-0.8,0.5-1.4,1.2-1.8,2.1c-0.4,1.1-0.6,2.2-0.6,3.4v2.4
			c-0.1,1,0.1,1.9,0.6,2.7c0.4,0.5,1,0.5,1.8,0c0.8-0.5,1.4-1.2,1.8-2c0.4-1.1,0.6-2.2,0.6-3.4V415.4z"/>
		<path id="Shape_59_" fill="#181E26" d="M-628,412.6c0,1.3-0.4,2.7-1,3.9c-0.6,1.1-1.6,2-2.7,2.7c-1.1,0.7-2.1,0.7-2.8,0.1
			c-0.8-1-1.2-2.2-1-3.5v-2.4c0-1.6,0.3-3.2,1-4.7c0.6-1.3,1.6-2.4,2.9-3.2c1.1-0.6,2-0.8,2.6-0.3c0.7,0.7,1.1,1.7,1,2.7l-1.4,0.9
			c0-0.7-0.2-1.4-0.6-2c-0.3-0.3-0.8-0.2-1.4,0.2c-0.8,0.5-1.5,1.2-1.8,2.1c-0.4,1.1-0.7,2.3-0.6,3.5v2.4c-0.1,1,0.1,1.9,0.6,2.7
			c0.4,0.5,1,0.5,1.7,0.1c0.7-0.4,1.2-0.9,1.6-1.6c0.4-0.8,0.6-1.7,0.6-2.7L-628,412.6z"/>
		<polygon id="Shape_60_" fill="#181E26" points="-623.5,408.1 -624.6,410.3 -624.6,414.9 -626.1,415.7 -626.1,402.5 -624.6,401.6 
			-624.6,408 -623.7,406 -620.6,399.3 -618.8,398.2 -622.6,406.2 -618.5,411.3 -620.3,412.3 		"/>
		<path id="Shape_61_" fill="#181E26" d="M-610.3,402.3c0,1.3-0.4,2.7-1,3.9c-0.6,1.1-1.6,2-2.7,2.7c-1.1,0.7-2.1,0.7-2.8,0.1
			c-0.8-1-1.2-2.2-1-3.5V403c0-1.6,0.3-3.2,1-4.7c0.6-1.3,1.6-2.4,2.9-3.2c1.1-0.6,2-0.8,2.6-0.3c0.7,0.7,1.1,1.7,1,2.7l-1.4,0.9
			c0-0.7-0.2-1.4-0.6-2c-0.3-0.3-0.8-0.2-1.4,0.2c-0.8,0.5-1.5,1.2-1.8,2.1c-0.4,1.1-0.7,2.3-0.6,3.5v2.4c-0.1,1,0.1,1.9,0.6,2.7
			c0.4,0.5,1,0.5,1.7,0.1c0.7-0.4,1.2-0.9,1.6-1.6c0.4-0.8,0.6-1.7,0.6-2.7L-610.3,402.3z"/>
		<polygon id="Shape_62_" fill="#181E26" points="-600.8,401 -602.2,401.8 -602.2,395.7 -606.8,398.4 -606.8,404.5 -608.3,405.4 
			-608.3,392.1 -606.8,391.3 -606.8,397 -602.2,394.3 -602.2,388.6 -600.8,387.8 		"/>
		<path id="Shape_63_" fill="#181E26" d="M-592.7,392.9l-3.9,2.3l-0.9,4l-1.4,0.9l3.7-15.4l1.2-0.7l3.8,11.1l-1.4,0.9L-592.7,392.9z
			 M-596.3,393.5l3.1-1.8l-1.6-5.1L-596.3,393.5z"/>
		<polygon id="Shape_64_" fill="#181E26" points="-587.3,393.2 -588.8,394 -588.8,380.8 -587.3,379.9 		"/>
		<polygon id="Shape_65_" fill="#181E26" points="-577.2,387.3 -578.7,388.2 -583.3,380.7 -583.3,390.8 -584.8,391.6 -584.8,378.4 
			-583.3,377.6 -578.7,385.1 -578.7,374.9 -577.2,374.1 		"/>
		<polygon id="Shape_66_" opacity="0.3" fill="#0C100E" enable-background="new    " points="-664.3,303.6 -682.1,313.9 
			-699.7,303.8 -682,293.5 		"/>
		<polygon id="Shape_67_" opacity="0.3" fill="#0C100E" enable-background="new    " points="-644.1,315.2 -661.8,325.5 
			-679.5,315.4 -661.8,305.1 		"/>
		<polygon id="Shape_68_" opacity="0.3" fill="#0C100E" enable-background="new    " points="-623.8,326.9 -641.5,337.1 -659.1,327 
			-641.4,316.7 		"/>
		<polygon id="Shape_69_" opacity="0.3" fill="#0C100E" enable-background="new    " points="-603.5,338.5 -621.3,348.8 
			-638.9,338.7 -621.2,328.4 		"/>
		<polygon id="Shape_70_" opacity="0.3" fill="#0C100E" enable-background="new    " points="-583.1,350.1 -600.8,360.4 
			-618.5,350.2 -600.8,339.9 		"/>
		<polygon id="Shape_71_" opacity="0.3" fill="#0C100E" enable-background="new    " points="-684.7,315.5 -702.4,325.7 
			-720.1,315.6 -702.4,305.3 		"/>
		<polygon id="Shape_72_" opacity="0.3" fill="#0C100E" enable-background="new    " points="-664.5,327.1 -682.2,337.4 
			-699.9,327.2 -682.2,316.9 		"/>
		<polygon id="Shape_73_" opacity="0.3" fill="#0C100E" enable-background="new    " points="-644.1,338.7 -661.8,349 -679.5,338.9 
			-661.8,328.6 		"/>
		<polygon id="Shape_74_" opacity="0.3" fill="#0C100E" enable-background="new    " points="-623.9,350.3 -641.6,360.6 
			-659.3,350.5 -641.6,340.2 		"/>
		<polygon id="Shape_75_" opacity="0.3" fill="#0C100E" enable-background="new    " points="-603.5,362 -621.2,372.3 -638.8,362.1 
			-621.1,351.8 		"/>
		<polygon id="Shape_76_" opacity="0.3" fill="#0C100E" enable-background="new    " points="-705.4,327 -723.1,337.3 -740.8,327.1 
			-723,316.8 		"/>
		<polygon id="Shape_77_" opacity="0.3" fill="#0C100E" enable-background="new    " points="-685.2,338.6 -702.9,348.9 
			-720.6,338.7 -702.8,328.4 		"/>
		<polygon id="Shape_78_" opacity="0.3" fill="#0C100E" enable-background="new    " points="-664.8,350.2 -682.5,360.5 
			-700.2,350.4 -682.5,340.1 		"/>
		<polygon id="Shape_79_" opacity="0.3" fill="#0C100E" enable-background="new    " points="-644.6,361.9 -662.3,372.2 -680,362 
			-662.2,351.7 		"/>
		<polygon id="Shape_80_" opacity="0.3" fill="#0C100E" enable-background="new    " points="-624.1,373.4 -641.9,383.7 
			-659.5,373.6 -641.8,363.3 		"/>
		<polygon id="Shape_81_" opacity="0.3" fill="#0C100E" enable-background="new    " points="-726.1,338.8 -743.8,349.1 
			-761.4,338.9 -743.7,328.6 		"/>
		<polygon id="Shape_82_" opacity="0.3" fill="#0C100E" enable-background="new    " points="-705.9,350.4 -723.6,360.7 
			-741.2,350.5 -723.5,340.2 		"/>
		<polygon id="Shape_83_" opacity="0.3" fill="#0C100E" enable-background="new    " points="-685.5,362 -703.2,372.3 -720.9,362.2 
			-703.1,351.9 		"/>
		<polygon id="Shape_84_" opacity="0.3" fill="#0C100E" enable-background="new    " points="-665.3,373.7 -683,384 -700.6,373.8 
			-682.9,363.5 		"/>
		<polygon id="Shape_85_" opacity="0.3" fill="#0C100E" enable-background="new    " points="-644.8,385.2 -662.5,395.5 
			-680.2,385.4 -662.5,375.1 		"/>
		<polygon id="Shape_86_" opacity="0.3" fill="#0C100E" enable-background="new    " points="-745.8,349.9 -763.5,360.2 
			-781.2,350.1 -763.5,339.8 		"/>
		<polygon id="Shape_87_" opacity="0.3" fill="#0C100E" enable-background="new    " points="-725.6,361.5 -743.3,371.8 -761,361.7 
			-743.3,351.4 		"/>
		<polygon id="Shape_88_" opacity="0.3" fill="#0C100E" enable-background="new    " points="-705.2,373.2 -723,383.5 -740.6,373.4 
			-722.9,363.1 		"/>
		<polygon id="Shape_89_" opacity="0.3" fill="#0C100E" enable-background="new    " points="-685,384.8 -702.7,395.1 -720.4,385 
			-702.7,374.7 		"/>
		<polygon id="Shape_90_" opacity="0.3" fill="#0C100E" enable-background="new    " points="-664.6,396.4 -682.3,406.7 -700,396.6 
			-682.2,386.3 		"/>
		<polygon id="Shape_91_" fill="#EDEDED" points="-681.9,306.3 -699.6,296.1 -699.6,275.6 -681.9,285.8 		"/>
		<polygon id="Shape_92_" fill="#FFFFFF" points="-664.2,275.6 -681.9,285.8 -699.5,275.6 -681.8,265.4 		"/>
		<polygon id="Shape_93_" fill="#D8D8D8" points="-664.2,296.1 -681.9,306.3 -681.9,285.8 -664.2,275.6 		"/>
		<polygon id="Shape_94_" fill="#EDEDED" points="-661.7,318 -679.5,307.7 -679.5,287.2 -661.7,297.5 		"/>
		<polygon id="Shape_95_" fill="#FFFFFF" points="-644,287.2 -661.7,297.5 -679.3,287.3 -661.6,277.1 		"/>
		<polygon id="Shape_96_" fill="#D8D8D8" points="-644,307.7 -661.7,318 -661.7,297.5 -644,287.2 		"/>
		<polygon id="Shape_97_" fill="#EDEDED" points="-641.4,329.7 -659.1,319.4 -659.1,298.9 -641.4,309.2 		"/>
		<polygon id="Shape_98_" fill="#FFFFFF" points="-623.6,298.9 -641.4,309.2 -659,299 -641.3,288.7 		"/>
		<polygon id="Shape_99_" fill="#D8D8D8" points="-623.6,319.4 -641.4,329.7 -641.4,309.2 -623.6,298.9 		"/>
		<polygon id="Shape_100_" fill="#EDEDED" points="-621.2,341.4 -638.9,331.1 -638.9,310.6 -621.2,320.9 		"/>
		<polygon id="Shape_101_" fill="#FFFFFF" points="-603.5,310.6 -621.2,320.9 -638.8,310.7 -621.1,300.5 		"/>
		<polygon id="Shape_102_" fill="#D8D8D8" points="-603.5,331.1 -621.2,341.4 -621.2,320.9 -603.5,310.6 		"/>
		<polygon id="Shape_103_" fill="#EDEDED" points="-600.8,353 -618.5,342.8 -618.5,322.3 -600.8,332.5 		"/>
		<polygon id="Shape_104_" fill="#FFFFFF" points="-583,322.3 -600.8,332.5 -618.4,322.4 -600.7,312.1 		"/>
		<polygon id="Shape_105_" fill="#D8D8D8" points="-583,342.8 -600.8,353 -600.8,332.5 -583,322.3 		"/>
		<polygon id="Shape_106_" fill="#EDEDED" points="-702.3,318.1 -720,307.9 -720,287.4 -702.3,297.6 		"/>
		<polygon id="Shape_107_" fill="#FFFFFF" points="-684.6,287.4 -702.3,297.6 -719.9,287.5 -702.2,277.2 		"/>
		<polygon id="Shape_108_" fill="#D8D8D8" points="-684.6,307.9 -702.3,318.1 -702.3,297.6 -684.6,287.4 		"/>
		<polygon id="Shape_109_" fill="#EDEDED" points="-682.1,329.8 -699.9,319.5 -699.9,299 -682.1,309.3 		"/>
		<polygon id="Shape_110_" fill="#FFFFFF" points="-664.4,299 -682.1,309.3 -699.7,299.1 -682,288.9 		"/>
		<polygon id="Shape_111_" fill="#D8D8D8" points="-664.4,319.5 -682.1,329.8 -682.1,309.3 -664.4,299 		"/>
		<polygon id="Shape_112_" fill="#EDEDED" points="-661.8,341.5 -679.5,331.2 -679.5,310.7 -661.8,321 		"/>
		<polygon id="Shape_113_" fill="#FFFFFF" points="-644,310.7 -661.8,321 -679.4,310.8 -661.7,300.6 		"/>
		<polygon id="Shape_114_" fill="#D8D8D8" points="-644,331.2 -661.8,341.5 -661.8,321 -644,310.7 		"/>
		<polygon id="Shape_115_" fill="#EDEDED" points="-641.6,353.2 -659.3,342.9 -659.3,322.4 -641.6,332.7 		"/>
		<polygon id="Shape_116_" fill="#FFFFFF" points="-623.9,322.4 -641.6,332.7 -659.2,322.5 -641.5,312.3 		"/>
		<polygon id="Shape_117_" fill="#D8D8D8" points="-623.9,342.9 -641.6,353.2 -641.6,332.7 -623.9,322.4 		"/>
		<polygon id="Shape_118_" fill="#EDEDED" points="-621.2,364.8 -638.9,354.6 -638.9,334.1 -621.2,344.3 		"/>
		<polygon id="Shape_119_" fill="#FFFFFF" points="-603.4,334.1 -621.2,344.3 -638.8,334.1 -621.1,323.9 		"/>
		<polygon id="Shape_120_" fill="#D8D8D8" points="-603.4,354.6 -621.2,364.8 -621.2,344.3 -603.4,334.1 		"/>
		<polygon id="Shape_121_" fill="#EDEDED" points="-723,329.6 -740.7,319.3 -740.7,298.8 -723,309.1 		"/>
		<polygon id="Shape_122_" fill="#FFFFFF" points="-705.3,298.8 -723,309.1 -740.6,298.9 -722.9,288.6 		"/>
		<polygon id="Shape_123_" fill="#D8D8D8" points="-705.3,319.3 -723,329.6 -723,309.1 -705.3,298.8 		"/>
		<polygon id="Shape_124_" fill="#EDEDED" points="-702.8,341.2 -720.6,331 -720.6,310.5 -702.8,320.7 		"/>
		<polygon id="Shape_125_" fill="#FFFFFF" points="-685.1,310.5 -702.8,320.7 -720.4,310.5 -702.7,300.3 		"/>
		<polygon id="Shape_126_" fill="#D8D8D8" points="-685.1,331 -702.8,341.2 -702.8,320.7 -685.1,310.5 		"/>
		<polygon id="Shape_127_" fill="#EDEDED" points="-682.5,352.9 -700.2,342.7 -700.2,322.2 -682.5,332.4 		"/>
		<polygon id="Shape_128_" fill="#FFFFFF" points="-664.7,322.2 -682.5,332.4 -700.1,322.3 -682.4,312 		"/>
		<polygon id="Shape_129_" fill="#D8D8D8" points="-664.7,342.7 -682.5,352.9 -682.5,332.4 -664.7,322.2 		"/>
		<polygon id="Shape_130_" fill="#EDEDED" points="-662.3,364.6 -680,354.4 -680,333.9 -662.3,344.1 		"/>
		<polygon id="Shape_131_" fill="#FFFFFF" points="-644.6,333.9 -662.3,344.1 -679.9,333.9 -662.2,323.7 		"/>
		<polygon id="Shape_132_" fill="#D8D8D8" points="-644.6,354.4 -662.3,364.6 -662.3,344.1 -644.6,333.9 		"/>
		<polygon id="Shape_133_" fill="#EDEDED" points="-641.9,376.3 -659.6,366 -659.6,345.5 -641.9,355.8 		"/>
		<polygon id="Shape_134_" fill="#FFFFFF" points="-624.1,345.5 -641.9,355.8 -659.5,345.6 -641.8,335.4 		"/>
		<polygon id="Shape_135_" fill="#D8D8D8" points="-624.1,366 -641.9,376.3 -641.9,355.8 -624.1,345.5 		"/>
		<polygon id="Shape_136_" fill="#EDEDED" points="-743.1,340.9 -760.8,330.7 -760.8,310.2 -743.1,320.4 		"/>
		<polygon id="Shape_137_" fill="#FFFFFF" points="-725.4,310.2 -743.1,320.4 -760.7,310.2 -743,300 		"/>
		<polygon id="Shape_138_" fill="#D8D8D8" points="-725.4,330.7 -743.1,340.9 -743.1,320.4 -725.4,310.2 		"/>
		<polygon id="Shape_139_" fill="#EDEDED" points="-722.9,352.6 -740.7,342.3 -740.7,321.8 -722.9,332.1 		"/>
		<polygon id="Shape_140_" fill="#FFFFFF" points="-705.2,321.8 -722.9,332.1 -740.6,321.9 -722.8,311.6 		"/>
		<polygon id="Shape_141_" fill="#D8D8D8" points="-705.2,342.3 -722.9,352.6 -722.9,332.1 -705.2,321.8 		"/>
		<polygon id="Shape_142_" fill="#EDEDED" points="-702.6,364.3 -720.3,354 -720.3,333.5 -702.6,343.8 		"/>
		<polygon id="Shape_143_" fill="#FFFFFF" points="-684.8,333.5 -702.6,343.8 -720.2,333.6 -702.5,323.3 		"/>
		<polygon id="Shape_144_" fill="#D8D8D8" points="-684.8,354 -702.6,364.3 -702.6,343.8 -684.8,333.5 		"/>
		<polygon id="Shape_145_" fill="#EDEDED" points="-682.4,376 -700.1,365.7 -700.1,345.2 -682.4,355.5 		"/>
		<polygon id="Shape_146_" fill="#FFFFFF" points="-664.7,345.2 -682.4,355.5 -700,345.3 -682.3,335 		"/>
		<polygon id="Shape_147_" fill="#D8D8D8" points="-664.7,365.7 -682.4,376 -682.4,355.5 -664.7,345.2 		"/>
		<polygon id="Shape_148_" fill="#EDEDED" points="-662,387.6 -679.7,377.4 -679.7,356.9 -662,367.1 		"/>
		<polygon id="Shape_149_" fill="#FFFFFF" points="-644.2,356.9 -662,367.1 -679.6,356.9 -661.9,346.7 		"/>
		<polygon id="Shape_150_" fill="#D8D8D8" points="-644.2,377.4 -662,387.6 -662,367.1 -644.2,356.9 		"/>
		<polygon id="Shape_151_" fill="#EDEDED" points="-763.5,352.5 -781.2,342.2 -781.2,321.7 -763.5,332 		"/>
		<polygon id="Shape_152_" fill="#FFFFFF" points="-745.8,321.7 -763.5,332 -781.1,321.8 -763.4,311.5 		"/>
		<polygon id="Shape_153_" fill="#D8D8D8" points="-745.8,342.2 -763.5,352.5 -763.5,332 -745.8,321.7 		"/>
		<polygon id="Shape_154_" fill="#EDEDED" points="-743.3,364.1 -761.1,353.9 -761.1,333.4 -743.3,343.6 		"/>
		<polygon id="Shape_155_" fill="#FFFFFF" points="-725.6,333.4 -743.3,343.6 -760.9,333.4 -743.2,323.2 		"/>
		<polygon id="Shape_156_" fill="#D8D8D8" points="-725.6,353.9 -743.3,364.1 -743.3,343.6 -725.6,333.4 		"/>
		<polygon id="Shape_157_" fill="#EDEDED" points="-723,375.8 -740.7,365.6 -740.7,345.1 -723,355.3 		"/>
		<polygon id="Shape_158_" fill="#FFFFFF" points="-705.2,345.1 -723,355.3 -740.6,345.1 -722.9,334.9 		"/>
		<polygon id="Shape_159_" fill="#D8D8D8" points="-705.2,365.6 -723,375.8 -723,355.3 -705.2,345.1 		"/>
		<polygon id="Shape_160_" fill="#EDEDED" points="-702.8,387.5 -720.5,377.3 -720.5,356.8 -702.8,367 		"/>
		<polygon id="Shape_161_" fill="#FFFFFF" points="-685.1,356.8 -702.8,367 -720.4,356.8 -702.7,346.6 		"/>
		<polygon id="Shape_162_" fill="#D8D8D8" points="-685.1,377.3 -702.8,387.5 -702.8,367 -685.1,356.8 		"/>
		<polygon id="Shape_163_" fill="#EDEDED" points="-682.4,399.2 -700.1,388.9 -700.1,368.4 -682.4,378.7 		"/>
		<polygon id="Shape_164_" fill="#FFFFFF" points="-664.6,368.4 -682.4,378.7 -700,368.5 -682.3,358.2 		"/>
		<polygon id="Shape_165_" fill="#D8D8D8" points="-664.6,388.9 -682.4,399.2 -682.4,378.7 -664.6,368.4 		"/>
		
			<linearGradient id="Shape_1_" gradientUnits="userSpaceOnUse" x1="-1263.4803" y1="494.8149" x2="-1263.4803" y2="494.1298" gradientTransform="matrix(230.9426 0 0 -133.4347 291108.9375 66280.5625)">
			<stop  offset="0" style="stop-color:#00E2C1"/>
			<stop  offset="1" style="stop-color:#00AA8D"/>
		</linearGradient>
		<polygon id="Shape_166_" fill="url(#Shape_1_)" points="-567,297.9 -682.8,364.8 -797.9,298.3 -682.1,231.4 		"/>
		
			<linearGradient id="Shape_2_" gradientUnits="userSpaceOnUse" x1="-1261.5334" y1="494.0894" x2="-1261.4429" y2="494.508" gradientTransform="matrix(115.8337 0 0 -152.7703 145496.9219 75746.5078)">
			<stop  offset="0" style="stop-color:#00E2C1"/>
			<stop  offset="1" style="stop-color:#00AA8D;stop-opacity:0"/>
		</linearGradient>
		<polygon id="Shape_167_" fill="url(#Shape_2_)" points="-682.1,145.5 -566.2,212.4 -566.2,298.3 -682.1,231.4 		"/>
		
			<linearGradient id="Shape_3_" gradientUnits="userSpaceOnUse" x1="-1261.3322" y1="494.0879" x2="-1261.5883" y2="494.5099" gradientTransform="matrix(116.5584 0 0 -152.7703 146298.6563 75746.5078)">
			<stop  offset="0" style="stop-color:#00FFE2"/>
			<stop  offset="0.99" style="stop-color:#00E2C1;stop-opacity:0"/>
		</linearGradient>
		<polygon id="Shape_168_" fill="url(#Shape_3_)" points="-797.9,212.4 -682.1,145.5 -681.4,231.4 -797.9,298.3 		"/>
		
			<linearGradient id="Shape_4_" gradientUnits="userSpaceOnUse" x1="-1342.6569" y1="354.0887" x2="-1329.507" y2="376.8108" gradientTransform="matrix(115.8337 0 0 -152.7704 145381.0781 75813.0234)">
			<stop  offset="0" style="stop-color:#00FFE2"/>
			<stop  offset="0.99" style="stop-color:#00E2C1;stop-opacity:0"/>
		</linearGradient>
		<polygon id="Shape_169_" fill="url(#Shape_4_)" points="-682.1,364.8 -797.9,298.3 -797.9,212 -682.1,279 		"/>
		
			<linearGradient id="Shape_5_" gradientUnits="userSpaceOnUse" x1="-1127.6801" y1="290.9427" x2="-1144.1201" y2="315.9387" gradientTransform="matrix(115.8337 0 0 -152.7704 145496.9219 75813.0234)">
			<stop  offset="0" style="stop-color:#00E2C1"/>
			<stop  offset="1" style="stop-color:#00AA8D;stop-opacity:0"/>
		</linearGradient>
		<polygon id="Shape_170_" fill="url(#Shape_5_)" points="-566.2,297.9 -682.1,364.8 -682.1,279 -566.2,212 		"/>
		
			<linearGradient id="Shape_6_" gradientUnits="userSpaceOnUse" x1="-1218.5372" y1="495.5961" x2="-1148.0372" y2="495.5961" gradientTransform="matrix(102.2237 0 0 -63.1853 128212.3984 31413.2344)">
			<stop  offset="0" style="stop-color:#848C99"/>
			<stop  offset="1" style="stop-color:#4E5668"/>
		</linearGradient>
		<path id="Shape_171_" fill="url(#Shape_6_)" d="M-736.4,67.2c1.8,1.3,2.7,3.4,2.4,5.6l99.7,57.6c0.2-2.1-0.7-4.2-2.4-5.5
			L-736.4,67.2z"/>
		
			<linearGradient id="Shape_7_" gradientUnits="userSpaceOnUse" x1="-1261.8939" y1="494.4971" x2="-1261.8939" y2="493.7547" gradientTransform="matrix(129.3435 0 0 -212.6741 162516.4844 105260.1094)">
			<stop  offset="0" style="stop-color:#FFFFFF"/>
			<stop  offset="1" style="stop-color:#DBDCE0"/>
		</linearGradient>
		<path id="Shape_172_" fill="url(#Shape_7_)" d="M-751.2,205.6V82.7c0.4-6.1,3.6-11.6,8.7-14.9c2.4-1.5,4.6-1.5,6.2-0.6l99.7,57.6
			c-1.6-0.9-3.8-0.8-6.2,0.6c-5.1,3.3-8.3,8.8-8.7,14.9v122.9c-0.4,6.1-3.6,11.6-8.7,14.9c-2.4,1.4-4.5,1.5-6.1,0.6l-99.7-57.6
			c1.6,0.9,3.7,0.7,6.1-0.6C-754.8,217.2-751.6,211.7-751.2,205.6z"/>
		
			<linearGradient id="Shape_8_" gradientUnits="userSpaceOnUse" x1="-1725.4011" y1="495.5957" x2="-1643.9011" y2="495.5957" gradientTransform="matrix(102.3093 0 0 -63.1998 128288.7109 31568.7559)">
			<stop  offset="0" style="stop-color:#848C99"/>
			<stop  offset="1" style="stop-color:#4E5668"/>
		</linearGradient>
		<path id="Shape_173_" fill="url(#Shape_8_)" d="M-765.9,221.2c-1.6-0.9-2.6-2.8-2.6-5.6l99.7,57.6c0,2.8,1,4.7,2.6,5.6
			L-765.9,221.2z"/>
		<polygon id="Shape_174_" fill="#181E26" points="-737.1,125.6 -669.5,164.6 -669.5,161 -737.1,121.9 		"/>
		<polygon id="Shape_175_" fill="#181E26" points="-737.1,139.1 -669.5,178.2 -669.5,174.5 -737.1,135.4 		"/>
		<polygon id="Shape_176_" fill="#181E26" points="-737.1,152.7 -669.5,191.7 -669.5,188.1 -737.1,149 		"/>
		<polygon id="Shape_177_" fill="#181E26" points="-737.1,166.2 -669.5,205.3 -669.5,201.6 -737.1,162.5 		"/>
		<polygon id="Shape_178_" fill="#181E26" points="-737.1,179.8 -684.4,210.2 -684.4,206.6 -737.1,176.1 		"/>
		<path id="Shape_179_" opacity="0.3" fill="#0C100E" enable-background="new    " d="M-651.4,248.6l-41.5-24
			c-4.2-2.4-7.5-8.9-7.5-14.4v-27.4c0-5.6,3.4-8.1,7.5-5.7l41.5,24V248.6z"/>
		
			<linearGradient id="Shape_9_" gradientUnits="userSpaceOnUse" x1="-1260.6318" y1="495.359" x2="-1259.4576" y2="494.7227" gradientTransform="matrix(83.958 0 0 -89.0922 105113.3203 44328.1016)">
			<stop  offset="0" style="stop-color:#ABFFF3"/>
			<stop  offset="0.99" style="stop-color:#00FFE2"/>
		</linearGradient>
		<path id="Shape_180_" fill="url(#Shape_9_)" d="M-634.7,272.3l-68.9-39.8c-4.2-2.4-7.5-8.9-7.5-14.4v-27.4c0-5.6,3.4-8.1,7.5-5.7
			l68.9,39.8c4.2,2.4,7.5,8.9,7.5,14.4v27.4C-627.2,272.2-630.5,274.7-634.7,272.3z"/>
		<path id="Shape_181_" fill="#181E26" d="M-688.5,206.6l5.7,24.7l-2.6-1.5l-1.2-5.7l-6.9-4l-1.2,4.3l-2.5-1.5l5.7-18.1
			L-688.5,206.6z M-690.1,208.3l-2.9,9.8l5.7,3.3L-690.1,208.3z"/>
		<path id="Shape_182_" fill="#181E26" d="M-673.7,215.2l5.7,24.7l-2.6-1.5l-1.2-5.7l-6.9-4l-1.2,4.3l-2.5-1.5l5.7-18.1
			L-673.7,215.2z M-675.2,216.9l-2.9,9.8l5.6,3.3L-675.2,216.9z"/>
		<path id="Shape_183_" fill="#181E26" d="M-655.5,226.9c1.1,1.6,1.6,3.5,1.6,5.4v0.8c0,2.1-0.5,3.3-1.6,3.8
			c-1.1,0.5-2.7,0.1-4.8-1.1c-1-0.6-1.9-1.2-2.7-1.9v8.9l-2.4-1.5v-21.5c1.6,0.8,3.3,1.7,4.9,2.7
			C-658.5,223.5-656.8,225-655.5,226.9z M-663,223.4v8.1c1.1,0.8,2,1.4,2.6,1.8c2.7,1.6,4.1,1,4.1-1.8v-0.6c0-1.2-0.3-2.4-1-3.4
			c-0.9-1.2-2-2.1-3.2-2.8C-661.4,224.2-662.2,223.8-663,223.4z"/>
		<polygon id="Shape_184_" fill="#181E26" points="-648.5,229.8 -648.5,248.7 -641.1,253 -641.1,255.5 -650.9,249.8 -650.9,228.4 		
			"/>
		<path id="Shape_185_" opacity="0.3" fill="#0C100E" enable-background="new    " d="M-736.7,94.9c-5.4-3.1-10.4-4-14.5-3.1v47
			c3.8,5.5,8.8,10.2,14.5,13.7c13.9,8,25.1,1.6,25.1-14.3C-711.6,122.3-722.8,102.9-736.7,94.9z"/>
		
			<linearGradient id="Shape_10_" gradientUnits="userSpaceOnUse" x1="-1237.2457" y1="495.5523" x2="-1202.6257" y2="495.5523" gradientTransform="matrix(50.1835 0 0 -64.5345 62295.4844 32111.1309)">
			<stop  offset="0" style="stop-color:#ABFFF3"/>
			<stop  offset="0.99" style="stop-color:#00FFE2"/>
		</linearGradient>
		<path id="Shape_186_" fill="url(#Shape_10_)" d="M-770.4,116.4c0-16,11.2-22.3,25.1-14.3c13.9,8,25.1,27.4,25.1,43.3
			c0,15.9-11.2,22.3-25.1,14.3S-770.4,132.3-770.4,116.4z"/>
		<polygon id="Shape_187_" fill="#181E26" points="-757.7,126 -757.7,126 -754.5,130.1 -747.1,139.4 -747.1,139.4 -736.4,138.3 
			-747.1,111.9 -747.1,111.9 -747.1,111.9 -747.1,111.9 -747.1,111.9 		"/>
		<polygon id="Shape_188_" fill="#181E26" points="-736.4,140.6 -747.1,141.7 -747.1,141.7 -757.7,128.3 -747.1,151.7 -747.1,151.7 
					"/>
		
			<linearGradient id="Shape_11_" gradientUnits="userSpaceOnUse" x1="-1286.7532" y1="463.6429" x2="-1306.7809" y2="438.9263" gradientTransform="matrix(115.8337 0 0 -98.7558 145381.0781 48923.3477)">
			<stop  offset="0" style="stop-color:#00FFE2"/>
			<stop  offset="1" style="stop-color:#065F52"/>
		</linearGradient>
		<polygon id="Shape_189_" fill="url(#Shape_11_)" points="-797.9,37.4 -797.9,5.5 -682.1,72.4 -682.1,104.3 		"/>
		
			<linearGradient id="Shape_12_" gradientUnits="userSpaceOnUse" x1="-1263.4803" y1="383.8927" x2="-1263.4803" y2="320.8527" gradientTransform="matrix(230.9426 0 0 -133.4202 291109.6563 65981.0391)">
			<stop  offset="0" style="stop-color:#ABFFF3"/>
			<stop  offset="0.99" style="stop-color:#00FFE2"/>
		</linearGradient>
		<polygon id="Shape_190_" fill="url(#Shape_12_)" points="-566.2,5.5 -682.1,72.4 -797.2,5.9 -681.4,-61 		"/>
		<polygon id="Shape_191_" fill="#00FFE2" points="-682.1,104.3 -682.1,72.4 -566.2,5.5 -566.2,37.4 		"/>
		<path id="Shape_192_" d="M-655.9,324v5.2l-1.4,0.8v-13.2l3.7-2.1c1.1-0.6,1.9-0.7,2.5-0.4c0.7,0.6,1.1,1.5,0.9,2.4
			c0.1,2.4-1.2,4.7-3.3,5.9L-655.9,324z M-655.9,322.5l2.2-1.3c0.6-0.3,1.1-0.8,1.4-1.5c0.3-0.7,0.5-1.4,0.5-2.2
			c0.1-0.6-0.1-1.2-0.5-1.6c-0.4-0.3-0.8-0.2-1.4,0.1l-2.2,1.3L-655.9,322.5z"/>
		<path id="Shape_193_" d="M-644.9,317.4l-2,1.2v5.4l-1.4,0.8v-13.2l3.2-1.9c1.1-0.7,2-0.8,2.6-0.5c0.6,0.3,0.9,1.2,0.9,2.5
			c0,0.8-0.2,1.6-0.5,2.4c-0.3,0.8-0.8,1.5-1.3,2.1l2.2,4.4v0.1l-1.6,0.9L-644.9,317.4z M-647,317.2l1.8-1c0.6-0.3,1.1-0.8,1.4-1.5
			c0.4-0.6,0.5-1.4,0.5-2.1c0-1.7-0.7-2.2-2-1.5l-1.7,1L-647,317.2z"/>
		<path id="Shape_194_" d="M-632.3,310c0,1.6-0.3,3.3-1,4.8c-0.6,1.3-1.6,2.4-2.9,3.1c-1.2,0.7-2.1,0.8-2.8,0.2
			c-0.8-0.9-1.2-2.2-1.1-3.4v-2.6c0-1.6,0.3-3.3,1-4.7c0.6-1.3,1.6-2.4,2.9-3.2c1.2-0.7,2.2-0.8,2.9-0.2c0.8,1,1.2,2.2,1,3.5
			L-632.3,310z M-633.8,308.6c0.1-1-0.1-1.9-0.6-2.8c-0.4-0.5-1-0.5-1.8,0c-0.8,0.5-1.4,1.2-1.8,2.1c-0.4,1.1-0.6,2.2-0.6,3.4v2.3
			c-0.1,1,0.1,1.9,0.6,2.7c0.4,0.5,1,0.5,1.8,0c0.8-0.5,1.4-1.2,1.8-2c0.4-1.1,0.6-2.2,0.6-3.4V308.6z"/>
		<polygon id="Shape_195_" points="-623.6,298.6 -626.6,300.3 -626.6,312.1 -628.1,313 -628.1,301.2 -631.1,302.9 -631.1,301.5 
			-623.6,297.1 		"/>
		<path id="Shape_196_" d="M-614.6,299.7c0,1.6-0.3,3.3-1,4.8c-0.6,1.3-1.6,2.4-2.9,3.1c-1.2,0.7-2.1,0.8-2.8,0.2
			c-0.8-0.9-1.2-2.2-1.1-3.4v-2.5c0-1.6,0.3-3.3,1-4.7c0.6-1.3,1.6-2.4,2.9-3.2c1.2-0.7,2.2-0.8,2.9-0.2c0.8,1,1.2,2.2,1,3.5
			L-614.6,299.7z M-616.1,298.3c0.1-1-0.1-1.9-0.6-2.8c-0.4-0.5-1-0.5-1.8,0c-0.8,0.5-1.4,1.3-1.8,2.1c-0.4,1.1-0.6,2.2-0.6,3.4v2.4
			c-0.1,1,0.1,1.9,0.6,2.7c0.4,0.5,1,0.5,1.8,0c0.8-0.5,1.4-1.2,1.8-2c0.4-1.1,0.6-2.2,0.6-3.4L-616.1,298.3z"/>
		<path id="Shape_197_" d="M-605.2,295.5c0,1.3-0.4,2.7-1,3.9c-0.6,1.1-1.6,2-2.7,2.7c-1.1,0.7-2.1,0.7-2.8,0.1
			c-0.8-1-1.2-2.2-1-3.5v-2.4c0-1.6,0.3-3.2,1-4.7c0.6-1.3,1.6-2.4,2.9-3.2c1.1-0.6,2-0.8,2.6-0.3c0.7,0.7,1.1,1.7,1,2.7l-1.4,0.9
			c0-0.7-0.2-1.4-0.6-2c-0.3-0.3-0.8-0.2-1.4,0.2c-0.9,0.5-1.5,1.2-1.9,2.1c-0.4,1.1-0.7,2.3-0.6,3.5v2.4c-0.1,1,0.1,1.9,0.6,2.7
			c0.4,0.5,1,0.5,1.7,0.1c0.7-0.4,1.2-0.9,1.6-1.6c0.4-0.8,0.6-1.7,0.6-2.7L-605.2,295.5z"/>
		<path id="Shape_198_" d="M-595.7,288.7c0,1.6-0.3,3.3-1,4.8c-0.6,1.3-1.6,2.4-2.9,3.1c-1.2,0.7-2.1,0.8-2.8,0.2
			c-0.8-0.9-1.2-2.2-1.1-3.4v-2.5c0-1.6,0.3-3.3,1-4.7c0.6-1.3,1.6-2.4,2.9-3.2c1.2-0.7,2.2-0.8,2.9-0.2c0.8,1,1.2,2.2,1,3.5
			L-595.7,288.7z M-597.2,287.3c0.1-1-0.1-1.9-0.6-2.8c-0.4-0.5-1-0.5-1.8,0c-0.8,0.5-1.5,1.2-1.8,2.1c-0.4,1.1-0.6,2.2-0.6,3.4v2.4
			c-0.1,1,0.1,1.9,0.6,2.7c0.4,0.5,1,0.5,1.8,0c0.8-0.5,1.4-1.2,1.8-2c0.4-1.1,0.6-2.2,0.6-3.4L-597.2,287.3z"/>
		<polygon id="Shape_199_" points="-592,290.6 -587.5,288 -587.5,289.4 -593.5,292.9 -593.5,279.7 -592.1,278.8 		"/>
		<polygon id="Shape_200_" points="-766.3,282.5 -763.3,294.9 -760.3,285.9 -758.4,287 -758.4,300.2 -759.8,299.3 -759.8,294.2 
			-759.7,289.2 -762.7,297.6 -763.8,297 -766.8,285.1 -766.7,290.2 -766.7,295.3 -768.1,294.5 -768.1,281.4 		"/>
		<path id="Shape_201_" d="M-750.4,301.4l-3.9-2.3l-0.8,2.9l-1.4-0.9l3.7-11l1.2,0.7l3.7,15.3l-1.4-0.9L-750.4,301.4z M-753.9,297.9
			l3.1,1.8l-1.6-6.9L-753.9,297.9z"/>
		<path id="Shape_202_" d="M-742.9,303.8l-2-1.2v5.3l-1.4-0.8V294l3.2,1.9c2.2,1.2,3.5,3.5,3.4,5.9c0,0.7-0.1,1.3-0.5,1.9
			c-0.3,0.4-0.8,0.7-1.3,0.6l2.2,6.9v0.1l-1.6-0.9L-742.9,303.8z M-744.9,301.2l1.8,1c0.6,0.3,1.1,0.4,1.4,0.2
			c0.4-0.4,0.6-0.9,0.5-1.5c0.1-1.5-0.7-3-2-3.7l-1.7-1.1V301.2z"/>
		<polygon id="Shape_203_" points="-735.2,307.5 -736.4,308.4 -736.4,312.9 -737.8,312.1 -737.8,298.9 -736.4,299.8 -736.4,306.1 
			-735.4,305.2 -732.3,302.1 -730.6,303.1 -734.3,306.7 -730.3,316.5 -732,315.5 		"/>
		<polygon id="Shape_204_" points="-723.4,314.3 -727.6,311.9 -727.6,316.6 -722.8,319.4 -722.8,320.8 -729,317.2 -729,304 
			-722.9,307.6 -722.9,309 -727.6,306.3 -727.6,310.6 -723.5,312.9 		"/>
		<polygon id="Shape_205_" points="-714,314.1 -717.1,312.3 -717.1,324.1 -718.5,323.2 -718.5,311.5 -721.5,309.7 -721.5,308.3 
			-714,312.6 		"/>
		
			<linearGradient id="Shape_13_" gradientUnits="userSpaceOnUse" x1="-1257.9478" y1="494.5233" x2="-1256.9478" y2="494.5233" gradientTransform="matrix(57.9241 0 0 -129.4312 72067.6797 63939.4531)">
			<stop  offset="0" style="stop-color:#00FFE2"/>
			<stop  offset="0.99" style="stop-color:#00CDB3"/>
		</linearGradient>
		<polygon id="Shape_206_" fill="url(#Shape_13_)" points="-739.9,-2.6 -797.8,-36 -797.8,-132 -739.9,-98.6 		"/>
		
			<linearGradient id="Shape_14_" gradientUnits="userSpaceOnUse" x1="-1262.2524" y1="494.826" x2="-1142.9724" y2="494.826" gradientTransform="matrix(172.9025 0 0 -99.8838 217631.1094 49276.6094)">
			<stop  offset="0" style="stop-color:#ABFFF3"/>
			<stop  offset="0.99" style="stop-color:#00FFE2"/>
		</linearGradient>
		<polygon id="Shape_207_" fill="url(#Shape_14_)" points="-624.2,-165.4 -739.9,-98.6 -797.1,-131.6 -681.4,-198.4 		"/>
		
			<linearGradient id="Shape_15_" gradientUnits="userSpaceOnUse" x1="-1221.4589" y1="494.3134" x2="-1141.6388" y2="494.3134" gradientTransform="matrix(115.7032 0 0 -162.8225 145274 80401.3672)">
			<stop  offset="0" style="stop-color:#00E2C1"/>
			<stop  offset="1" style="stop-color:#00AA8D"/>
		</linearGradient>
		<polygon id="Shape_208_" fill="url(#Shape_15_)" points="-624.2,-69.4 -739.9,-2.6 -739.9,-98.6 -624.2,-165.4 		"/>
		<polygon id="Shape_209_" fill="#181E26" points="-788.9,-80.1 -791.6,-81.7 -791.6,-78.5 -788.4,-76.7 -788.4,-75.7 -792.6,-78.1 
			-792.6,-87 -788.4,-84.6 -788.4,-83.7 -791.6,-85.5 -791.6,-82.6 -788.9,-81 		"/>
		<polygon id="Shape_210_" fill="#181E26" points="-785,-79.2 -783.5,-81.8 -782.4,-81.1 -784.4,-77.9 -782.3,-72.2 -783.5,-72.9 
			-784.9,-77.3 -786.4,-74.7 -787.5,-75.3 -785.5,-78.5 -787.6,-84.1 -786.4,-83.5 		"/>
		<path id="Shape_211_" fill="#181E26" d="M-776.4-71.6c0,1-0.2,1.6-0.7,1.8c-0.5,0.2-1.1,0.1-1.8-0.3c-0.8-0.5-1.5-1.3-1.9-2.2
			c-0.5-1-0.7-2.1-0.7-3.1v-1.6c-0.1-0.8,0.2-1.7,0.7-2.3c0.5-0.4,1.1-0.4,1.9,0.1c0.7,0.4,1.3,1,1.7,1.8c0.4,0.8,0.7,1.7,0.7,2.6
			l-1-0.6c0-0.6-0.2-1.2-0.4-1.8c-0.2-0.4-0.6-0.8-1-1.1c-0.5-0.3-0.9-0.3-1.2,0c-0.4,0.5-0.5,1.2-0.4,1.8v1.6
			c0,0.8,0.1,1.6,0.4,2.3c0.2,0.6,0.6,1.1,1.2,1.5c0.5,0.3,0.9,0.4,1.1,0.2c0.2-0.2,0.4-0.6,0.4-1.3L-776.4-71.6z"/>
		<polygon id="Shape_212_" fill="#181E26" points="-770,-65 -770.9,-65.6 -770.9,-69.7 -774.1,-71.6 -774.1,-67.4 -775.1,-68 
			-775.1,-76.9 -774.1,-76.3 -774.1,-72.5 -770.9,-70.7 -770.9,-74.5 -770,-73.9 		"/>
		<path id="Shape_213_" fill="#181E26" d="M-764.5-64.3l-2.6-1.5l-0.6,2l-1-0.6l2.5-7.4l0.8,0.5l2.5,10.3l-1-0.6L-764.5-64.3z
			 M-766.9-66.6l2.1,1.2l-1.1-4.7L-766.9-66.6z"/>
		<polygon id="Shape_214_" fill="#181E26" points="-756.8,-57.4 -757.8,-58 -760.9,-66.7 -760.9,-59.9 -761.9,-60.4 -761.9,-69.3 
			-760.9,-68.7 -757.7,-60 -757.7,-66.9 -756.8,-66.3 		"/>
		<path id="Shape_215_" fill="#181E26" d="M-750.2-54.8l-0.2,0.1c-0.5,0.4-1.2,0.3-2.2-0.3c-0.9-0.5-1.5-1.2-2-2.1
			c-0.5-1-0.7-2-0.7-3.1v-1.7c-0.1-0.9,0.1-1.7,0.7-2.4c0.4-0.4,1.1-0.3,2,0.2c0.7,0.4,1.3,1,1.7,1.7c0.4,0.7,0.7,1.6,0.7,2.4
			l-1-0.6c0-0.6-0.1-1.1-0.4-1.6c-0.2-0.5-0.6-0.8-1-1.1c-0.6-0.3-1-0.3-1.2-0.1c-0.3,0.5-0.5,1.2-0.4,1.8v1.8
			c0,0.8,0.1,1.6,0.4,2.3c0.3,0.6,0.7,1.1,1.3,1.5c0.5,0.3,0.9,0.4,1.2,0.3h0.1v-2.1l-1.4-0.8v-1l2.4,1.5L-750.2-54.8z"/>
		<polygon id="Shape_216_" fill="#181E26" points="-744.9,-54.7 -747.6,-56.3 -747.6,-53.1 -744.4,-51.3 -744.4,-50.3 -748.6,-52.8 
			-748.6,-61.6 -744.5,-59.2 -744.5,-58.2 -747.6,-60.1 -747.6,-57.2 -744.9,-55.6 		"/>
		<polygon id="Shape_217_" fill="#181E26" points="-698,-133.8 -698.1,-147.2 -703.3,-144.2 -719.5,-153.6 -732.3,-146.2 
			-716.1,-136.8 -721.2,-133.8 		"/>
		<polygon id="Shape_218_" fill="#181E26" points="-724.7,-166 -724.6,-152.6 -719.4,-155.6 -703.2,-146.2 -690.4,-153.6 
			-706.6,-163 -701.5,-166 		"/>
		<polygon id="Shape_219_" fill="#EDEDED" points="-682.7,30.5 -740.6,-3 -740.6,-99 -682.7,-65.5 		"/>
		<polygon id="Shape_220_" fill="#FFFFFF" points="-567,-132.4 -682.7,-65.5 -739.9,-98.6 -624.2,-165.4 		"/>
		<polygon id="Shape_221_" fill="#D8D8D8" points="-567,-36.4 -682.7,30.5 -682.7,-65.5 -567,-132.4 		"/>
		<path id="Shape_222_" fill="#181E26" d="M-626.3-119.3c0.1-3-2.3-5.9-7.1-8.7c-3.7-2.2-7.5-4.3-11.3-6.3l-17.1,9.8l-6.9-4
			l-5.6,3.2l6.9,4l-17,9.8c3.5,2.3,7,4.5,10.5,6.5c4.6,2.8,9.9,4.3,15.3,4.4c5.3,0,10.5-1.5,15-4.2l9.7-5.6
			C-628.9-113.3-626.3-116.3-626.3-119.3z M-649.3-107.5c-3.1,1.9-6.7,2.8-10.4,2.8c-3.5-0.1-6.9-1-9.9-2.8
			c-1.4-0.8-3.1-1.9-5.3-3.5l12.7-7.3l6.6,3.9l5.6-3.2l-6.7-3.9l13-7.5c2.6,1.4,4.5,2.5,5.8,3.2c3.2,1.9,4.8,3.8,4.7,5.9
			c-0.1,2.1-1.9,4.2-5.5,6.3L-649.3-107.5z"/>
		<path id="Shape_223_" fill="#181E26" d="M-723-41.5c-0.1-0.7,0.1-1.4,0.5-2c0.3-0.3,0.8-0.3,1.4,0c0.6,0.3,1,0.8,1.3,1.5v-3.3
			l0.9,0.6v9.4l-0.9-0.5v-0.7c-0.3,0.4-0.8,0.4-1.3,0c-0.6-0.4-1.1-0.9-1.4-1.6c-0.4-0.8-0.5-1.7-0.5-2.6V-41.5z M-722-40.3
			c0,0.6,0.1,1.2,0.3,1.8c0.2,0.4,0.5,0.8,0.9,1.1c0.5,0.3,0.8,0.2,1.1-0.2V-41c-0.2-0.6-0.5-1.1-1-1.5c-0.4-0.3-0.7-0.3-0.9,0
			c-0.2,0.4-0.3,0.9-0.3,1.5L-722-40.3z"/>
		<path id="Shape_224_" fill="#181E26" d="M-713.6-34.8l-2.6-1.5l-0.6,2l-1-0.6l2.5-7.4l0.8,0.5l2.5,10.3l-1-0.6L-713.6-34.8z
			 M-716-37.1l2.1,1.2l-1.1-4.7L-716-37.1z"/>
		<path id="Shape_225_" fill="#181E26" d="M-709.9-33.8v3.5l-1-0.6v-8.9l2.5,1.5c0.7,0.4,1.3,1,1.7,1.7c0.4,0.7,0.6,1.5,0.6,2.3
			c0,0.9-0.2,1.4-0.6,1.6c-0.4,0.2-1,0.2-1.7-0.2L-709.9-33.8z M-709.9-34.8l1.4,0.9c0.4,0.3,0.8,0.3,1,0.1c0.2-0.2,0.3-0.5,0.3-1.1
			c0-0.5-0.1-1-0.4-1.5c-0.2-0.4-0.6-0.8-1-1l-1.4-0.9V-34.8z"/>
		<path id="Shape_226_" fill="#181E26" d="M-703.8-30.3v3.5l-1-0.6v-8.9l2.5,1.5c0.7,0.4,1.3,1,1.7,1.8c0.4,0.7,0.6,1.5,0.6,2.3
			c0,0.9-0.2,1.4-0.6,1.6c-0.4,0.2-1,0.2-1.7-0.2L-703.8-30.3z M-703.8-31.3l1.4,0.9c0.4,0.3,0.8,0.3,1,0.1c0.2-0.2,0.3-0.5,0.3-1.1
			c0-0.5-0.1-1-0.4-1.5c-0.2-0.4-0.6-0.8-1-1l-1.4-0.9V-31.3z"/>
	</g>
</g>
</svg>
