<?xml version="1.0" encoding="UTF-8"?>
<svg width="401px" height="654px" viewBox="0 0 401 654" version="1.1" xmlns="http://www.w3.org/2000/svg" xmlns:xlink="http://www.w3.org/1999/xlink">
    <!-- Generator: Sketch 50.2 (55047) - http://www.bohemiancoding.com/sketch -->
    <title>partners-hero</title>
    <desc>Created with Sketch.</desc>
    <defs>
        <linearGradient x1="0%" y1="50%" x2="100%" y2="50%" id="linearGradient-1">
            <stop stop-color="#00FFE2" offset="0%"></stop>
            <stop stop-color="#00CDB3" offset="99%"></stop>
        </linearGradient>
        <linearGradient x1="0%" y1="50%" x2="100%" y2="50%" id="linearGradient-2">
            <stop stop-color="#ABFFF3" offset="0%"></stop>
            <stop stop-color="#00FFE2" offset="99%"></stop>
        </linearGradient>
        <linearGradient x1="0%" y1="50%" x2="100%" y2="50%" id="linearGradient-3">
            <stop stop-color="#00E2C1" offset="0%"></stop>
            <stop stop-color="#00AA8D" offset="100%"></stop>
        </linearGradient>
        <linearGradient x1="0%" y1="49.9840409%" x2="100%" y2="49.9840409%" id="linearGradient-4">
            <stop stop-color="#ABFFF3" offset="0%"></stop>
            <stop stop-color="#00FFE2" offset="99%"></stop>
        </linearGradient>
    </defs>
    <g id="Page-1" stroke="none" stroke-width="1" fill="none" fill-rule="evenodd">
        <g id="market-Partners" transform="translate(-844.000000, -1.000000)">
            <g id="partners-hero" transform="translate(844.000000, 1.000000)">
                <polygon id="Shape" fill="#EDEDED" fill-rule="nonzero" points="200.16 810.72 0 695.16 0 529.236 200.16 644.796"></polygon>
                <polygon id="Shape" fill="#FFFFFF" fill-rule="nonzero" points="400.356 529.236 200.16 644.796 1.26 529.956 201.42 414.396"></polygon>
                <polygon id="Shape" fill="#D8D8D8" fill-rule="nonzero" points="400.356 695.16 200.16 810.72 200.16 644.796 400.356 529.236"></polygon>
                <polygon id="Shape" fill="#181E26" fill-rule="nonzero" points="58.392 634.5 63.612 656.1 68.796 640.548 72.036 642.42 72.036 665.136 69.516 663.696 69.516 654.84 69.732 646.092 64.512 660.78 62.64 659.7 57.6 638.892 57.852 647.82 57.852 656.676 55.332 655.236 55.332 632.52"></polygon>
                <path d="M85.896,666.9 L79.2,663.3 L77.652,668.34 L75.096,666.864 L81.504,647.856 L83.664,649.08 L90,675.396 L87.444,673.92 L85.896,666.9 Z M79.812,660.924 L85.248,664.056 L82.512,652.14 L79.812,660.924 Z" id="Shape" fill="#181E26" fill-rule="nonzero"></path>
                <path d="M320.4,660.744 C320.467075,663.553714 319.875277,666.340096 318.672,668.88 C317.620025,671.05025 315.955529,672.864926 313.884,674.1 C311.82,675.276 310.2,675.408 309.024,674.496 C307.586297,672.929819 306.914266,670.808313 307.188,668.7 L307.188,664.452 C307.137784,661.651529 307.741801,658.877981 308.952,656.352 C310.013015,654.095282 311.732446,652.212693 313.884,650.952 C315.972,649.752 317.604,649.632 318.78,650.592 C320.192134,652.243086 320.845318,654.411657 320.58,656.568 L320.4,660.744 Z M317.88,658.224 C318.059758,656.579984 317.692843,654.92254 316.836,653.508 C316.14,652.74 315.084,652.74 313.668,653.508 C312.262737,654.338417 311.163984,655.60135 310.536,657.108 C309.77521,658.955996 309.407409,660.942119 309.456,662.94 L309.456,666.9 C309.26745,668.521592 309.635577,670.159123 310.5,671.544 C311.196,672.336 312.252,672.336 313.668,671.544 C315.080095,670.721816 316.181115,669.456277 316.8,667.944 C317.533861,666.126915 317.889112,664.179162 317.844,662.22 L317.88,658.224 Z" id="Shape" fill="#181E26" fill-rule="nonzero"></path>
                <path d="M336.924,653.436 C336.860962,655.744568 336.243601,658.004111 335.124,660.024 C334.032625,661.948182 332.440182,663.540625 330.516,664.632 C328.524,665.784 326.94,665.784 325.764,664.632 C324.376539,662.96877 323.738152,660.806074 324,658.656 L324,654.552 C323.956107,651.771248 324.573022,649.019804 325.8,646.524 C326.881779,644.269758 328.611563,642.389557 330.768,641.124 C332.688,640.02 334.176,639.816 335.232,640.512 C336.500328,641.69097 337.140376,643.397766 336.96,645.12 L334.44,646.596 C334.527943,645.388128 334.154895,644.191804 333.396,643.248 C332.82,642.792 331.944,642.9 330.768,643.572 C329.366056,644.406398 328.268386,645.668087 327.636,647.172 C326.860311,649.05344 326.492222,651.077929 326.556,653.112 L326.556,657.252 C326.386477,658.879461 326.739529,660.51863 327.564,661.932 C328.236,662.748 329.232,662.748 330.552,661.932 C331.723061,661.297298 332.6951,660.350183 333.36,659.196 C334.030219,657.762361 334.397862,656.206005 334.44,654.624 L336.924,653.436 Z" id="Shape" fill="#181E26" fill-rule="nonzero"></path>
                <path d="M353.304,641.7 C353.371075,644.509714 352.779277,647.296096 351.576,649.836 C350.509006,652.079413 348.790147,653.948829 346.644,655.2 C344.58,656.376 342.96,656.508 341.784,655.596 C340.333304,654.036062 339.647853,651.9138 339.912,649.8 L339.912,645.66 C339.861784,642.859529 340.465801,640.085981 341.676,637.56 C342.737015,635.303282 344.456446,633.420693 346.608,632.16 C348.696,630.96 350.328,630.84 351.504,631.8 C352.916134,633.451086 353.569318,635.619657 353.304,637.776 L353.304,641.7 Z M350.784,639.18 C350.966487,637.535836 350.599379,635.877522 349.74,634.464 C349.044,633.696 347.988,633.696 346.572,634.464 C345.165053,635.292393 344.065747,636.555963 343.44,638.064 C342.67921,639.911996 342.311409,641.898119 342.36,643.896 L342.36,647.928 C342.17145,649.549592 342.539577,651.187123 343.404,652.572 C344.1,653.364 345.156,653.364 346.572,652.572 C347.984095,651.749816 349.085115,650.484277 349.704,648.972 C350.437861,647.154915 350.793112,645.207162 350.748,643.248 L350.784,639.18 Z" id="Shape" fill="#181E26" fill-rule="nonzero"></path>
                <polygon id="Shape" fill="#181E26" fill-rule="nonzero" points="359.676 645.048 367.488 640.548 367.488 642.996 357.156 648.9 357.156 626.328 359.676 624.888"></polygon>
                <path d="M227.844,553.14 L250.668,539.964 C249.297415,539.482169 247.97223,538.879813 246.708,538.164 C245.580309,537.516792 244.529603,536.743859 243.576,535.86 L220.752,549.036 C214.431749,547.158543 207.633263,547.763711 201.744,550.728 C195.372,554.328 195.408,560.376 201.744,564.084 C209.009454,567.76017 217.590546,567.76017 224.856,564.084 C230.04,561.132 231.012,556.668 227.844,553.14 Z M206.748,561.24 C205.115382,560.682965 204.017986,559.149031 204.017986,557.424 C204.017986,555.698969 205.115382,554.165035 206.748,553.608 C210.90069,551.503937 215.80731,551.503937 219.96,553.608 C221.592618,554.165035 222.690014,555.698969 222.690014,557.424 C222.690014,559.149031 221.592618,560.682965 219.96,561.24 C215.801579,563.332756 210.894955,563.319387 206.748,561.204 L206.748,561.24 Z M158.4,513.108 L181.224,499.932 C179.853415,499.450169 178.52823,498.847813 177.264,498.132 C176.136309,497.484792 175.085603,496.711859 174.132,495.828 L151.308,509.004 C144.987749,507.126543 138.189263,507.731711 132.3,510.696 C125.928,514.296 125.964,520.344 132.3,524.052 C139.565454,527.72817 148.146546,527.72817 155.412,524.052 C160.74,521.136 161.712,516.672 158.4,513.108 Z M137.304,521.208 C135.671382,520.650965 134.573986,519.117031 134.573986,517.392 C134.573986,515.666969 135.671382,514.133035 137.304,513.576 C141.45669,511.471937 146.36331,511.471937 150.516,513.576 C152.148618,514.133035 153.246014,515.666969 153.246014,517.392 C153.246014,519.117031 152.148618,520.650965 150.516,521.208 C146.402546,523.263754 141.561454,523.263754 137.448,521.208 L137.304,521.208 Z M197.64,498.276 C204.192,497.052 208.944,493.524 208.944,489.312 C208.944,484.092 201.564,479.844 192.528,479.844 C183.492,479.844 176.4,484.056 176.4,489.24 C176.701848,492.171415 178.538995,494.721483 181.224,495.936 C183.26233,497.075693 185.476854,497.866594 187.776,498.276 L187.776,516.96 C189.434702,516.738437 191.106576,516.630186 192.78,516.636 C194.454181,516.643767 196.125948,516.764038 197.784,516.996 L197.64,498.276 Z M183.24,489.276 C183.24,486.288 187.416,483.876 192.564,483.912 C194.871089,483.8652 197.151665,484.410555 199.188,485.496 C200.727396,486.181413 201.784113,487.636113 201.96,489.312 C201.96,492.3 197.784,494.712 192.636,494.676 C187.488,494.64 183.384,492.264 183.384,489.276 L183.24,489.276 Z M278.244,529.344 C278.244,524.124 270.864,519.876 261.828,519.876 C254.628,519.876 248.4,522.612 246.312,526.392 L208.368,526.392 C207.386589,524.793799 205.994129,523.488368 204.336,522.612 C200.772557,520.712093 196.781449,519.757698 192.744,519.84 C183.744,519.84 176.4,524.052 176.436,529.236 C176.723431,532.172877 178.565248,534.729429 181.26,535.932 C188.524068,539.613975 197.107932,539.613975 204.372,535.932 C206.000428,535.108691 207.379826,533.865991 208.368,532.332 L246.312,532.332 C247.297498,533.926863 248.688939,535.231338 250.344,536.112 C253.897313,538.00442 257.874862,538.958537 261.9,538.884 C271.08,538.74 278.388,534.528 278.352,529.308 L278.244,529.344 Z M192.96,534.564 C190.652911,534.6108 188.372335,534.065445 186.336,532.98 C184.791723,532.300627 183.732634,530.842661 183.564,529.164 C183.564,526.176 187.74,523.764 192.888,523.8 C195.195089,523.7532 197.475665,524.298555 199.512,525.384 C201.056277,526.063373 202.115366,527.521339 202.284,529.2 C202.143879,530.867976 201.110279,532.328796 199.584,533.016 C197.546615,534.095065 195.264599,534.628362 192.96,534.564 Z M262.044,534.564 C256.896,534.564 252.684,532.116 252.684,529.164 C252.684,526.212 256.86,523.764 262.008,523.8 C264.315089,523.7532 266.595665,524.298555 268.632,525.384 C270.171396,526.069413 271.228113,527.524113 271.404,529.2 C271.368,532.296 267.192,534.708 262.044,534.708 L262.044,534.564 Z" id="Shape" fill="#181E26" fill-rule="nonzero"></path>
                <polygon id="Shape" fill="url(#linearGradient-1)" fill-rule="nonzero" points="302.4 405.792 204.408 349.236 204.408 303.264 302.4 359.82"></polygon>
                <polygon id="Shape" fill="url(#linearGradient-2)" fill-rule="nonzero" points="400.356 303.264 302.4 359.82 205.02 303.624 303.012 247.068"></polygon>
                <polygon id="Shape" fill="url(#linearGradient-3)" fill-rule="nonzero" points="400.356 349.236 302.4 405.792 302.4 359.82 400.356 303.264"></polygon>
                <path d="M230.688,342.54 L230.688,346.896 L229.464,346.176 L229.464,335.052 L232.56,336.852 C233.451357,337.365315 234.185737,338.112142 234.684,339.012 C235.199592,339.897542 235.472761,340.9033 235.476,341.928 C235.476,343.008 235.224,343.692 234.72,343.98 C234.216,344.268 233.52,344.16 232.632,343.656 L230.688,342.54 Z M230.688,341.352 L232.56,342.432 C233.1,342.756 233.532,342.792 233.82,342.432 C234.108,342.072 234.252,341.784 234.252,341.1 C234.262378,340.450154 234.114093,339.807584 233.82,339.228 C233.550131,338.674474 233.124788,338.2116 232.596,337.896 L230.724,336.816 L230.688,341.352 Z" id="Shape" fill="#181E26" fill-rule="nonzero"></path>
                <path d="M240.696,349.776 L237.384,347.868 L236.628,350.352 L235.368,349.632 L238.5,340.308 L239.544,340.92 L242.712,353.88 L241.452,353.16 L240.696,349.776 Z M237.6,346.86 L240.264,348.408 L238.932,342.576 L237.6,346.86 Z" id="Shape" fill="#181E26" fill-rule="nonzero"></path>
                <path d="M246.996,351.828 L245.268,350.82 L245.268,355.32 L244.044,354.6 L244.044,343.476 L246.78,345.06 C248.627013,346.053258 249.755483,348.003698 249.696,350.1 C249.738088,350.656873 249.599194,351.212447 249.3,351.684 C249.040136,352.033622 248.618113,352.224213 248.184,352.188 L250.056,358.02 L248.724,357.264 L246.996,351.828 Z M245.268,349.632 L246.744,350.496 C247.248,350.784 247.68,350.856 247.968,350.496 C248.327968,350.182809 248.504237,349.708238 248.436,349.236 C248.519738,347.953814 247.862281,346.736819 246.744,346.104 L245.268,345.24 L245.268,349.632 Z" id="Shape" fill="#181E26" fill-rule="nonzero"></path>
                <polygon id="Shape" fill="#181E26" fill-rule="nonzero" points="256.5 351.864 253.944 350.388 253.944 360.324 252.72 359.604 252.72 349.668 250.164 348.192 250.164 347.004 256.5 350.604"></polygon>
                <polygon id="Shape" fill="#181E26" fill-rule="nonzero" points="264.312 366.3 263.088 365.58 259.2 354.78 259.2 363.348 257.976 362.628 257.976 351.504 259.2 352.224 263.124 363.024 263.124 354.42 264.348 355.14"></polygon>
                <polygon id="Shape" fill="#181E26" fill-rule="nonzero" points="271.116 365.112 267.516 363.132 267.516 367.092 271.548 369.396 271.548 370.584 266.4 367.524 266.4 356.4 271.584 359.388 271.584 360.576 267.624 358.308 267.624 361.908 271.224 363.888"></polygon>
                <path d="M276.192,368.676 L274.464,367.704 L274.464,372.204 L273.24,371.484 L273.24,360.36 L275.976,361.944 C277.823013,362.937258 278.951483,364.887698 278.892,366.984 C278.931529,367.540653 278.792833,368.095438 278.496,368.568 C278.236136,368.917622 277.814113,369.108213 277.38,369.072 L279.252,374.904 L277.92,374.148 L276.192,368.676 Z M274.464,366.48 L275.94,367.344 C276.444,367.632 276.876,367.704 277.164,367.344 C277.523968,367.030809 277.700237,366.556238 277.632,366.084 C277.715738,364.801814 277.058281,363.584819 275.94,362.952 L274.464,362.088 L274.464,366.48 Z" id="Shape" fill="#181E26" fill-rule="nonzero"></path>
                <polygon id="Shape" fill="url(#linearGradient-1)" fill-rule="nonzero" points="102.204 336.24 4.248 279.684 4.248 233.712 102.204 290.268"></polygon>
                <polygon id="Shape" fill="url(#linearGradient-2)" fill-rule="nonzero" points="200.16 233.712 102.204 290.268 4.86 234.072 102.816 177.516"></polygon>
                <polygon id="Shape" fill="url(#linearGradient-3)" fill-rule="nonzero" points="200.16 279.684 102.204 336.24 102.204 290.268 200.16 233.712"></polygon>
                <path d="M30.528,272.988 L30.528,277.344 L29.304,276.624 L29.304,265.5 L32.4,267.3 C33.2913572,267.813315 34.0257369,268.560142 34.524,269.46 C35.0395917,270.345542 35.3127606,271.3513 35.316,272.376 C35.316,273.456 35.064,274.14 34.56,274.428 C34.056,274.716 33.336,274.62 32.4,274.14 L30.528,272.988 Z M30.528,271.8 L32.4,272.88 C32.94,273.204 33.372,273.24 33.66,272.88 C33.948,272.52 34.092,272.232 34.092,271.548 C34.1023784,270.898154 33.9540929,270.255584 33.66,269.676 C33.3901315,269.122474 32.9647881,268.6596 32.436,268.344 L30.564,267.264 L30.528,271.8 Z" id="Shape" fill="#181E26" fill-rule="nonzero"></path>
                <path d="M40.536,280.224 L37.224,278.316 L36.468,280.8 L35.208,280.08 L38.34,270.756 L39.384,271.368 L42.552,284.328 L41.292,283.608 L40.536,280.224 Z M37.548,277.308 L40.212,278.856 L38.88,273.024 L37.548,277.308 Z" id="Shape" fill="#181E26" fill-rule="nonzero"></path>
                <path d="M46.8,282.276 L45.072,281.268 L45.072,285.768 L43.848,285.048 L43.848,273.924 L46.584,275.508 C48.4310132,276.501258 49.5594825,278.451698 49.5,280.548 C49.5420877,281.104873 49.4031942,281.660447 49.104,282.132 C48.8441356,282.481622 48.4221125,282.672213 47.988,282.636 L49.86,288.468 L48.528,287.712 L46.8,282.276 Z M45.072,280.08 L46.548,280.944 C47.052,281.232 47.484,281.304 47.772,280.944 C48.1319678,280.630809 48.3082372,280.156238 48.24,279.684 C48.3237383,278.401814 47.6662814,277.184819 46.548,276.552 L45.072,275.688 L45.072,280.08 Z" id="Shape" fill="#181E26" fill-rule="nonzero"></path>
                <polygon id="Shape" fill="#181E26" fill-rule="nonzero" points="56.34 282.312 53.784 280.836 53.784 290.772 52.56 290.052 52.56 280.116 50.004 278.64 50.004 277.452 56.34 281.052"></polygon>
                <polygon id="Shape" fill="#181E26" fill-rule="nonzero" points="64.152 296.748 62.928 296.028 59.04 285.228 59.04 293.796 57.816 293.076 57.816 281.952 59.04 282.672 62.964 293.472 62.964 284.94 64.188 285.66"></polygon>
                <polygon id="Shape" fill="#181E26" fill-rule="nonzero" points="70.92 295.56 67.32 293.58 67.32 297.54 71.352 299.844 71.352 301.032 66.096 298.008 66.096 286.884 71.28 289.872 71.28 291.06 67.32 288.792 67.32 292.392 70.92 294.372"></polygon>
                <path d="M76.032,299.124 L74.304,298.152 L74.304,302.652 L73.08,301.932 L73.08,290.808 L75.816,292.392 C77.6630132,293.385258 78.7914825,295.335698 78.732,297.432 C78.7715289,297.988653 78.6328327,298.543438 78.336,299.016 C78.0761356,299.365622 77.6541125,299.556213 77.22,299.52 L79.092,305.352 L77.76,304.596 L76.032,299.124 Z M74.304,296.928 L75.78,297.792 C76.284,298.08 76.716,298.152 77.004,297.792 C77.3639678,297.478809 77.5402372,297.004238 77.472,296.532 C77.5557383,295.249814 76.8982814,294.032819 75.78,293.4 L74.304,292.536 L74.304,296.928 Z" id="Shape" fill="#181E26" fill-rule="nonzero"></path>
                <polygon id="Shape" fill="url(#linearGradient-1)" fill-rule="nonzero" points="200.16 500.796 102.204 444.24 102.204 398.268 200.16 454.824"></polygon>
                <polygon id="Shape" fill="url(#linearGradient-2)" fill-rule="nonzero" points="298.152 398.268 200.16 454.824 102.816 398.628 200.772 342.072"></polygon>
                <polygon id="Shape" fill="url(#linearGradient-3)" fill-rule="nonzero" points="298.152 444.24 200.16 500.796 200.16 454.824 298.152 398.268"></polygon>
                <path d="M128.484,437.544 L128.484,441.9 L127.26,441.18 L127.26,430.056 L130.356,431.856 C131.247357,432.369315 131.981737,433.116142 132.48,434.016 C132.994023,434.902198 133.267076,435.907529 133.272,436.932 C133.272,438.012 133.02,438.696 132.516,438.984 C132.012,439.272 131.316,439.164 130.428,438.66 L128.484,437.544 Z M128.484,436.356 L130.356,437.436 C130.896,437.76 131.328,437.796 131.616,437.436 C131.904,437.076 132.048,436.788 132.048,436.104 C132.059845,435.453999 131.911479,434.81108 131.616,434.232 C131.347895,433.677274 130.922133,433.213944 130.392,432.9 L128.484,431.82 L128.484,436.356 Z" id="Shape" fill="#181E26" fill-rule="nonzero"></path>
                <path d="M138.492,444.78 L135.18,442.872 L134.424,445.356 L133.164,444.636 L136.296,435.312 L137.34,435.924 L140.508,448.884 L139.248,448.164 L138.492,444.78 Z M135.504,441.864 L138.168,443.412 L136.8,437.58 L135.504,441.864 Z" id="Shape" fill="#181E26" fill-rule="nonzero"></path>
                <path d="M144.792,446.832 L143.064,445.824 L143.064,450.324 L141.84,449.604 L141.84,438.48 L144.576,440.064 C146.423013,441.057258 147.551483,443.007698 147.492,445.104 C147.531529,445.660653 147.392833,446.215438 147.096,446.688 C146.836136,447.037622 146.414113,447.228213 145.98,447.192 L147.852,453.024 L146.52,452.268 L144.792,446.832 Z M143.064,444.636 L144.54,445.5 C144.914254,445.734678 145.389746,445.734678 145.764,445.5 C146.123968,445.186809 146.300237,444.712238 146.232,444.24 C146.315738,442.957814 145.658281,441.740819 144.54,441.108 L143.064,440.244 L143.064,444.636 Z" id="Shape" fill="#181E26" fill-rule="nonzero"></path>
                <polygon id="Shape" fill="#181E26" fill-rule="nonzero" points="154.296 446.904 151.74 445.428 151.74 455.364 150.516 454.644 150.516 444.708 147.96 443.232 147.96 442.044 154.296 445.644"></polygon>
                <polygon id="Shape" fill="#181E26" fill-rule="nonzero" points="162 461.304 160.776 460.584 156.888 449.784 156.888 458.352 155.664 457.632 155.664 446.508 156.888 447.228 160.812 458.028 160.812 449.424 162.036 450.144"></polygon>
                <polygon id="Shape" fill="#181E26" fill-rule="nonzero" points="168.912 460.116 165.6 458.1 165.6 462.06 169.632 464.364 169.632 465.552 164.376 462.528 164.376 451.404 169.56 454.392 169.56 455.58 165.6 453.312 165.6 456.912 169.2 458.892"></polygon>
                <path d="M173.988,463.68 L172.26,462.708 L172.26,467.208 L171.036,466.488 L171.036,455.364 L173.772,456.948 C175.619013,457.941258 176.747483,459.891698 176.688,461.988 C176.727529,462.544653 176.588833,463.099438 176.292,463.572 C176.032136,463.921622 175.610113,464.112213 175.176,464.076 L177.084,469.908 L175.752,469.152 L173.988,463.68 Z M172.26,461.484 L173.736,462.348 C174.24,462.636 174.672,462.708 174.96,462.348 C175.319968,462.034809 175.496237,461.560238 175.428,461.088 C175.511738,459.805814 174.854281,458.588819 173.736,457.956 L172.26,457.092 L172.26,461.484 Z" id="Shape" fill="#181E26" fill-rule="nonzero"></path>
                <polygon id="Shape" fill="url(#linearGradient-1)" fill-rule="nonzero" points="204.408 159.264 106.452 102.708 106.452 56.736 204.408 113.292"></polygon>
                <polygon id="Shape" fill="url(#linearGradient-2)" fill-rule="nonzero" points="302.4 56.736 204.408 113.292 107.064 57.096 205.02 0.54"></polygon>
                <polygon id="Shape" fill="url(#linearGradient-3)" fill-rule="nonzero" points="302.4 102.708 204.408 159.264 204.408 113.292 302.4 56.736"></polygon>
                <g id="Group" transform="translate(130.464000, 84.672000)" fill="#181E26" font-family="RobotoCondensed-Regular, Roboto Condensed" font-size="15.66" font-style="condensed" font-weight="normal">
                    <text id="P">
                        <tspan x="0" y="15">P</tspan>
                    </text>
                    <text id="A">
                        <tspan x="6.71616" y="15">A</tspan>
                    </text>
                    <text id="R">
                        <tspan x="14.63616" y="15">R</tspan>
                    </text>
                    <text id="TNER">
                        <tspan x="21.41568" y="15">TNER</tspan>
                    </text>
                </g>
                <polygon id="Shape" fill="url(#linearGradient-1)" fill-rule="nonzero" points="302.4 251.82 204.408 195.264 204.408 149.292 302.4 205.848"></polygon>
                <polygon id="Shape" fill="url(#linearGradient-2)" fill-rule="nonzero" points="400.356 149.292 302.4 205.848 205.02 149.652 303.012 93.096"></polygon>
                <polygon id="Shape" fill="url(#linearGradient-3)" fill-rule="nonzero" points="400.356 195.264 302.4 251.82 302.4 205.848 400.356 149.292"></polygon>
                <path d="M230.688,188.568 L230.688,192.924 L229.464,192.204 L229.464,181.116 L232.56,182.916 C233.451357,183.429315 234.185737,184.176142 234.684,185.076 C235.199592,185.961542 235.472761,186.9673 235.476,187.992 C235.476,189.072 235.224,189.756 234.72,190.044 C234.216,190.332 233.52,190.224 232.632,189.72 L230.688,188.568 Z M230.688,187.38 L232.56,188.46 C233.1,188.784 233.532,188.82 233.82,188.46 C234.108,188.1 234.252,187.812 234.252,187.128 C234.262378,186.478154 234.114093,185.835584 233.82,185.256 C233.550131,184.702474 233.124788,184.2396 232.596,183.924 L230.724,182.844 L230.688,187.38 Z" id="Shape" fill="#181E26" fill-rule="nonzero"></path>
                <path d="M240.696,195.804 L237.384,193.896 L236.628,196.38 L235.368,195.66 L238.5,186.336 L239.544,186.948 L242.712,199.908 L241.452,199.188 L240.696,195.804 Z M237.6,192.888 L240.264,194.436 L238.932,188.604 L237.6,192.888 Z" id="Shape" fill="#181E26" fill-rule="nonzero"></path>
                <path d="M246.996,197.856 L245.268,196.848 L245.268,201.348 L244.044,200.628 L244.044,189.54 L246.78,191.124 C248.627013,192.117258 249.755483,194.067698 249.696,196.164 C249.738088,196.720873 249.599194,197.276447 249.3,197.748 C249.040136,198.097622 248.618113,198.288213 248.184,198.252 L250.056,204.084 L248.724,203.328 L246.996,197.856 Z M245.268,195.66 L246.744,196.524 C247.248,196.812 247.68,196.884 247.968,196.524 C248.303275,196.211049 248.464562,195.75407 248.4,195.3 C248.483738,194.017814 247.826281,192.800819 246.708,192.168 L245.232,191.304 L245.268,195.66 Z" id="Shape" fill="#181E26" fill-rule="nonzero"></path>
                <polygon id="Shape" fill="#181E26" fill-rule="nonzero" points="256.5 197.892 253.944 196.416 253.944 206.352 252.72 205.632 252.72 195.732 250.164 194.256 250.164 193.068 256.5 196.668"></polygon>
                <polygon id="Shape" fill="#181E26" fill-rule="nonzero" points="264.312 212.328 263.088 211.608 259.2 200.808 259.2 209.376 257.976 208.656 257.976 197.532 259.2 198.252 263.124 209.052 263.124 200.52 264.348 201.24"></polygon>
                <polygon id="Shape" fill="#181E26" fill-rule="nonzero" points="271.116 211.14 267.516 209.16 267.516 213.12 271.548 215.424 271.548 216.612 266.4 213.552 266.4 202.5 271.584 205.488 271.584 206.676 267.624 204.408 267.624 208.008 271.224 209.988"></polygon>
                <path d="M276.192,214.704 L274.464,213.732 L274.464,218.232 L273.24,217.512 L273.24,206.388 L275.976,207.972 C277.823013,208.965258 278.951483,210.915698 278.892,213.012 C278.931529,213.568653 278.792833,214.123438 278.496,214.596 C278.236136,214.945622 277.814113,215.136213 277.38,215.1 L279.252,220.932 L277.92,220.176 L276.192,214.704 Z M274.464,212.508 L275.94,213.372 C276.444,213.66 276.876,213.732 277.164,213.372 C277.523968,213.058809 277.700237,212.584238 277.632,212.112 C277.715738,210.829814 277.058281,209.612819 275.94,208.98 L274.464,208.116 L274.464,212.508 Z" id="Shape" fill="#181E26" fill-rule="nonzero"></path>
                <polygon id="Shape" fill="url(#linearGradient-1)" fill-rule="nonzero" points="102.204 182.268 4.248 125.712 4.248 79.74 102.204 136.296"></polygon>
                <polygon id="Shape" fill="url(#linearGradient-2)" fill-rule="nonzero" points="200.16 79.74 102.204 136.296 4.86 80.1 102.816 23.544"></polygon>
                <polygon id="Shape" fill="url(#linearGradient-3)" fill-rule="nonzero" points="200.16 125.712 102.204 182.268 102.204 136.296 200.16 79.74"></polygon>
                <path d="M30.528,119.016 L30.528,123.3 L29.304,122.58 L29.304,111.564 L32.4,113.364 C33.2913572,113.877315 34.0257369,114.624142 34.524,115.524 C35.0395917,116.409542 35.3127606,117.4153 35.316,118.44 C35.316,119.52 35.064,120.204 34.56,120.492 C34.056,120.78 33.336,120.672 32.4,120.168 L30.528,119.016 Z M30.528,117.828 L32.4,118.908 C32.94,119.232 33.372,119.268 33.66,118.908 C33.948,118.548 34.092,118.26 34.092,117.576 C34.1023784,116.926154 33.9540929,116.283584 33.66,115.704 C33.3533327,115.211933 32.9175058,114.813463 32.4,114.552 L30.528,113.472 L30.528,117.828 Z" id="Shape" fill="#181E26" fill-rule="nonzero"></path>
                <path d="M40.536,126.252 L37.224,124.344 L36.468,126.828 L35.208,126.108 L38.34,116.784 L39.384,117.396 L42.552,130.356 L41.292,129.636 L40.536,126.252 Z M37.548,123.3 L40.212,124.848 L38.88,119.016 L37.548,123.3 Z" id="Shape" fill="#181E26" fill-rule="nonzero"></path>
                <path d="M46.8,128.304 L45.072,127.296 L45.072,131.796 L43.848,131.076 L43.848,119.988 L46.584,121.572 C48.4310132,122.565258 49.5594825,124.515698 49.5,126.612 C49.5420877,127.168873 49.4031942,127.724447 49.104,128.196 C48.8441356,128.545622 48.4221125,128.736213 47.988,128.7 L49.86,134.532 L48.528,133.776 L46.8,128.304 Z M45.072,126.108 L46.548,126.972 C47.052,127.26 47.484,127.332 47.772,126.972 C48.1319678,126.658809 48.3082372,126.184238 48.24,125.712 C48.3237383,124.429814 47.6662814,123.212819 46.548,122.58 L45.072,121.716 L45.072,126.108 Z" id="Shape" fill="#181E26" fill-rule="nonzero"></path>
                <polygon id="Shape" fill="#181E26" fill-rule="nonzero" points="56.34 128.34 53.748 126.9 53.748 136.836 52.524 136.116 52.524 126.18 49.968 124.704 49.968 123.516 56.304 127.116"></polygon>
                <polygon id="Shape" fill="#181E26" fill-rule="nonzero" points="64.152 142.776 62.928 142.056 59.04 131.256 59.04 139.824 57.816 139.104 57.816 127.98 59.04 128.7 62.964 139.5 62.964 130.968 64.188 131.688"></polygon>
                <polygon id="Shape" fill="#181E26" fill-rule="nonzero" points="70.92 141.588 67.32 139.608 67.32 143.568 71.352 145.872 71.352 147.06 66.096 144.036 66.096 132.876 71.28 135.864 71.28 137.052 67.32 134.784 67.32 138.384 70.92 140.364"></polygon>
                <path d="M76.032,145.152 L74.304,144.18 L74.304,148.5 L73.08,147.78 L73.08,136.836 L75.816,138.42 C77.6630132,139.413258 78.7914825,141.363698 78.732,143.46 C78.7715289,144.016653 78.6328327,144.571438 78.336,145.044 C78.0761356,145.393622 77.6541125,145.584213 77.22,145.548 L79.2,151.308 L77.868,150.552 L76.032,145.152 Z M74.304,142.956 L75.78,143.82 C76.284,144.108 76.716,144.18 77.004,143.82 C77.3639678,143.506809 77.5402372,143.032238 77.472,142.56 C77.5557383,141.277814 76.8982814,140.060819 75.78,139.428 L74.304,138.564 L74.304,142.956 Z" id="Shape" fill="#181E26" fill-rule="nonzero"></path>
                <polygon id="Shape" fill="url(#linearGradient-1)" fill-rule="nonzero" points="200.16 346.824 102.204 290.268 102.204 244.296 200.16 300.888"></polygon>
                <polygon id="Shape" fill="url(#linearGradient-4)" fill-rule="nonzero" points="298.152 244.296 200.16 300.888 102.816 244.656 200.772 188.1"></polygon>
                <polygon id="Shape" fill="url(#linearGradient-3)" fill-rule="nonzero" points="298.152 290.268 200.16 346.824 200.16 300.888 298.152 244.296"></polygon>
                <path d="M128.484,283.572 L128.484,287.928 L127.26,287.208 L127.26,276.084 L130.356,277.884 C131.247357,278.397315 131.981737,279.144142 132.48,280.044 C132.994023,280.930198 133.267076,281.935529 133.272,282.96 C133.272,284.04 133.02,284.724 132.516,285.012 C132.012,285.3 131.316,285.192 130.428,284.688 L128.484,283.572 Z M128.484,282.384 L130.356,283.464 C130.896,283.788 131.328,283.824 131.616,283.464 C131.904,283.104 132.048,282.816 132.048,282.132 C132.059845,281.481999 131.911479,280.83908 131.616,280.26 C131.347895,279.705274 130.922133,279.241944 130.392,278.928 L128.484,277.848 L128.484,282.384 Z" id="Shape" fill="#181E26" fill-rule="nonzero"></path>
                <path d="M138.492,290.808 L135.18,288.9 L134.424,291.384 L133.164,290.664 L136.296,281.34 L137.34,281.952 L140.508,294.912 L139.248,294.192 L138.492,290.808 Z M135.504,287.892 L138.168,289.44 L136.8,283.608 L135.504,287.892 Z" id="Shape" fill="#181E26" fill-rule="nonzero"></path>
                <path d="M144.792,292.86 L143.064,291.852 L143.064,296.352 L141.84,295.632 L141.84,284.508 L144.576,286.092 C146.423013,287.085258 147.551483,289.035698 147.492,291.132 C147.531529,291.688653 147.392833,292.243438 147.096,292.716 C146.836136,293.065622 146.414113,293.256213 145.98,293.22 L147.852,299.052 L146.52,298.296 L144.792,292.86 Z M143.064,290.664 L144.54,291.528 C144.914254,291.762678 145.389746,291.762678 145.764,291.528 C146.123968,291.214809 146.300237,290.740238 146.232,290.268 C146.315738,288.985814 145.658281,287.768819 144.54,287.136 L143.064,286.272 L143.064,290.664 Z" id="Shape" fill="#181E26" fill-rule="nonzero"></path>
                <polygon id="Shape" fill="#181E26" fill-rule="nonzero" points="154.296 292.932 151.74 291.456 151.74 301.392 150.516 300.672 150.516 290.736 147.96 289.26 147.96 288.072 154.296 291.672"></polygon>
                <polygon id="Shape" fill="#181E26" fill-rule="nonzero" points="162 307.368 160.776 306.648 156.888 295.848 156.888 304.416 155.664 303.696 155.664 292.5 156.888 293.22 160.812 304.02 160.812 295.416 162.036 296.136"></polygon>
                <polygon id="Shape" fill="#181E26" fill-rule="nonzero" points="168.912 306.144 165.312 304.164 165.312 308.124 169.344 310.428 169.344 311.616 164.088 308.592 164.088 297.468 169.272 300.456 169.272 301.644 165.312 299.376 165.312 302.976 168.912 304.956"></polygon>
                <path d="M173.988,309.708 L172.26,308.736 L172.26,313.236 L171.036,312.516 L171.036,301.392 L173.772,302.976 C175.619013,303.969258 176.747483,305.919698 176.688,308.016 C176.727529,308.572653 176.588833,309.127438 176.292,309.6 C176.032136,309.949622 175.610113,310.140213 175.176,310.104 L177.084,315.936 L175.752,315.18 L173.988,309.708 Z M172.26,307.512 L173.736,308.376 C174.24,308.664 174.672,308.736 174.96,308.376 C175.319968,308.062809 175.496237,307.588238 175.428,307.116 C175.511738,305.833814 174.854281,304.616819 173.736,303.984 L172.26,303.12 L172.26,307.512 Z" id="Shape" fill="#181E26" fill-rule="nonzero"></path>
            </g>
            <text id="Build-on-top-of-MARK" font-family="WorkSans-Bold, Work Sans" font-size="48" font-weight="bold" letter-spacing="-0.6776471" fill="#FFFFFF">
                <tspan x="139" y="227">Build on top of</tspan>
                <tspan x="139" y="284">MARKET Protocol</tspan>
            </text>
        </g>
    </g>
</svg>